<svg id="Grupo_121038" data-name="Grupo 121038" xmlns="http://www.w3.org/2000/svg" xmlns:xlink="http://www.w3.org/1999/xlink" width="155.329" height="155.342" viewBox="0 0 155.329 155.342">
  <defs>
    <clipPath id="clip-path">
      <rect id="Rectángulo_38355" data-name="Rectángulo 38355" width="155.329" height="155.342" fill="none"/>
    </clipPath>
  </defs>
  <g id="Grupo_121038-2" data-name="Grupo 121038" clip-path="url(#clip-path)">
    <path id="Trazado_183380" data-name="Trazado 183380" d="M135.378,59.152c.009-.05.018-.1.027-.149a5.673,5.673,0,0,0-2.238-5.926c-1.577-1.238-2.864-2.84-4.324-4.235a3.468,3.468,0,0,1-1.158-2.676c.02-4.039.012-8.078,0-12.117a3.456,3.456,0,0,1,.722-2.255c.031-.039.055-.085.083-.127,1.457-2.235,3.482-4.3,4.212-6.752s.26-5.308.146-7.978a4.568,4.568,0,0,1,1.783-4.233,1.077,1.077,0,0,0,.215-.213c2.7-3.572,6.053-5.649,10.734-4.706.746.15,1.069-.249,1.271-.925.389-1.3.91-2.566,1.257-3.877A5.432,5.432,0,0,1,149.974,0h9.708c1.184,1.133,2.4,2.232,3.537,3.413.551.574.871.583,1.425,0,1.132-1.182,2.35-2.282,3.533-3.416h9.4a3.934,3.934,0,0,1,2.093,2.714c.407,1.4.93,2.767,1.337,4.168.2.7.565,1.017,1.29.907.148-.022.309.027.453-.007,5.748-1.368,8.5,2.914,11.738,6.247a2.369,2.369,0,0,1,.48,1.713,18.951,18.951,0,0,1-.016,2.874,14.162,14.162,0,0,0,3.66,11.93,6.8,6.8,0,0,1,1.584,5.029c-.118,3.428-.06,6.863-.02,10.295a3.888,3.888,0,0,1-1.268,3.09c-1.651,1.558-3.144,3.291-4.856,4.775a4.151,4.151,0,0,0-1.639,4.063,12,12,0,0,1,.064,1.357,3.049,3.049,0,0,1-2.737,3.1c-2.414.522-4.793,1.207-7.2,1.766a1.663,1.663,0,0,0-1.43,1.314c-.415,1.5-.964,2.973-1.461,4.455-.764,2.281-1.353,2.712-3.722,2.715-1.719,0-3.445-.1-5.154.027a5.3,5.3,0,0,1-4.668-1.907c-2.1-2.309-2.248-2.309-4.364.005a5.346,5.346,0,0,1-4.672,1.9c-1.81-.129-3.638-.02-5.457-.03-1.938-.01-2.622-.491-3.247-2.295-.562-1.62-1.158-3.231-1.628-4.878a1.678,1.678,0,0,0-1.432-1.313c-2.406-.563-4.794-1.2-7.193-1.791-1.965-.485-2.439-1-2.741-3.072M192.024,30c-.8.868-2.076,1.4-2.153,2.522-.087,1.269-.713,1.189-1.544,1.152-.4-.018-.815.042-1.212-.013-.818-.111-2.129.446-2.36-.318a4.221,4.221,0,0,1,.5-3.915,8.781,8.781,0,0,1,.734-.766c1-1,1.98-2.026,3.012-2.993a2.259,2.259,0,0,0,.806-1.847c-.051-2.072-.015-4.145-.018-6.218a1.866,1.866,0,0,0-.369-1.408c-1.807-2.021-3.626-3.973-6.75-3.222-.1.023-.2-.009-.3,0-.726.1-1.546-.294-2.169.338-1.1,1.11-2.746,2.095-3.093,3.413-.408,1.552-1.1,1.445-2.15,1.426q-1.213-.022-2.427,0c-.465.007-.788-.1-.8-.653-.031-1.617-.211-3.246,1.336-4.421.718-.546,1.241-1.346,1.954-1.9a2.573,2.573,0,0,0,.864-3.492c-1.014-2.467-.892-2.55-3.616-2.5-.862.016-1.751-.282-2.582.442-2.131,1.853-3.747,3.809-3.191,6.955a28.186,28.186,0,0,1,.048,4.845c0,14.157.081,28.315-.069,42.469-.03,2.768.573,4.845,2.771,6.533a3.369,3.369,0,0,0,2.249.922c3.536-.045,3.5-.024,4.654-3.413a1.593,1.593,0,0,0-.477-1.976c-1.114-1.027-2.175-2.114-3.217-3.216-1.117-1.181-.931-2.728-.585-4.021.235-.879,1.516-.255,2.318-.366a14.922,14.922,0,0,1,1.969-.017c.381,0,.724.05.738.539.061,2.087,2.088,2.687,3.084,4.067.287.4.745.224,1.129.128,1.713-.425,3.413-.906,5.136-1.285.794-.175,1.041-.538,1.029-1.337-.044-2.881-.017-5.764-.017-8.645,0-3.85,0-3.813,3.826-3.833,1.02-.006,1.49.2,1.364,1.315a23.87,23.87,0,0,0-.018,2.58,4.814,4.814,0,0,0,2.592-4.89c-.212-2.459-.044-4.951-.052-7.428a2.583,2.583,0,0,0-.287-1.606c-.89-1.284-1.744-2.593-2.654-3.953M135.351,47.821c.256-1.326-.482-3,.369-3.59s2.429-.133,3.678-.246c1.059-.1,1.24.357,1.228,1.3-.047,3.638.018,7.277-.043,10.915-.017.976.23,1.449,1.228,1.647,1.63.324,3.233.782,4.846,1.19.342.087.761.305,1.019.061,1.1-1.036,2.8-2,3.043-3.233.365-1.822,1.312-1.5,2.4-1.514.708-.011,1.416.025,2.122-.009.639-.03.872.213.912.866.107,1.735-.091,3.286-1.6,4.474a33.789,33.789,0,0,0-2.594,2.547,1.054,1.054,0,0,0-.411,1.193c.386,1.094.787,2.184,1.115,3.3.174.589.566.581,1.038.627,2.5.244,4.7-.056,6.394-2.325a4.962,4.962,0,0,0,1.251-3.2c-.037-16.424-.086-32.849.037-49.273.02-2.682-.511-4.754-2.671-6.42a3.56,3.56,0,0,0-2.382-.979c-3.513.05-3.481.025-4.62,3.444a1.5,1.5,0,0,0,.423,1.856c1.075.993,2.054,2.091,3.117,3.1,1.262,1.2.824,2.713.859,4.142a.454.454,0,0,1-.507.448c-1.364.006-2.729.017-4.092,0-.162,0-.46-.181-.461-.28-.024-2.151-2.018-2.862-3.081-4.245a1.508,1.508,0,0,0-1.139-.638c-3.088-.248-6.029-.209-8,2.814a3.093,3.093,0,0,0-.768,1.86c.051,2.071.043,4.144,0,6.215a2.128,2.128,0,0,0,.724,1.725c1.21,1.147,2.356,2.36,3.547,3.528a3.949,3.949,0,0,1,.792,4.116c-.286.978-1.678.3-2.567.426a12.9,12.9,0,0,1-1.817.012c-.309,0-.664-.012-.64-.436.093-1.667-1.364-2.181-2.259-3.244a23.107,23.107,0,0,1-1.337,1.972,7.008,7.008,0,0,0-1.641,5.3,32.851,32.851,0,0,1-.012,5.905c-.233,2.169.77,3.487,2.5,4.654" transform="translate(-86.264)" fill="#030202"/>
    <path id="Trazado_183381" data-name="Trazado 183381" d="M440.145,0c3.042.963,5.34,2.679,6.135,5.965A7.747,7.747,0,1,1,435.135.889C435.693.595,436.4.567,436.808,0Zm1.171,7.787A2.64,2.64,0,0,0,438.848,5.2a2.578,2.578,0,0,0-2.639,2.541,2.513,2.513,0,0,0,2.441,2.561,2.58,2.58,0,0,0,2.666-2.516" transform="translate(-291.183 -0.001)" fill="#030202"/>
    <path id="Trazado_183382" data-name="Trazado 183382" d="M0,101.751c.481-.3.441-.86.636-1.3A7.845,7.845,0,0,1,9.5,96a7.778,7.778,0,0,1,0,15.143,7.854,7.854,0,0,1-8.87-4.452c-.2-.439-.155-1-.637-1.3Zm7.8,4.365a2.545,2.545,0,0,0-.079-5.09,2.545,2.545,0,1,0,.079,5.09" transform="translate(0 -64.736)" fill="#030202"/>
    <path id="Trazado_183383" data-name="Trazado 183383" d="M9.1,0c.672.255,1.365.464,2.013.771A7.782,7.782,0,0,1,15.44,9.025a7.859,7.859,0,0,1-6.577,6.433A7.873,7.873,0,0,1,.678,10.979c-.2-.434-.159-1-.678-1.27V6.068A9.008,9.008,0,0,1,6.371,0Zm1.2,7.815A2.58,2.58,0,0,0,7.738,5.2,2.644,2.644,0,0,0,5.2,7.716,2.588,2.588,0,0,0,7.641,10.3,2.514,2.514,0,0,0,10.3,7.815" fill="#030202"/>
    <path id="Trazado_183384" data-name="Trazado 183384" d="M149.1,180.316c.734-2.505.739-2.523,3.287-1.809a32.915,32.915,0,0,1,8.261,3.286c2.711,1.635,4.436,3.817,4.006,7.191-.318,2.5.064,4.068,3.022,5.141,5.024,1.822,7.671,7.158,7.277,12.775a12.74,12.74,0,0,1-9.029,11.032,2.014,2.014,0,0,0-1.736,1.956,48.5,48.5,0,0,1-19.357,32.882,2.073,2.073,0,0,0-.864,1.909c.024,5.814.017,11.628.011,17.442,0,2.587-.86,3.433-3.469,3.434q-25.024,0-50.048,0c-2.616,0-3.469-.841-3.471-3.43,0-5.814-.022-11.628.02-17.441a2.213,2.213,0,0,0-.986-2A48.687,48.687,0,0,1,66.71,219.6c-.119-.837-.278-1.253-1.228-1.518a12.885,12.885,0,0,1-.252-24.8,1.289,1.289,0,0,0,1.1-1.567c-.065-1.108.052-2.228-.029-3.335a6.273,6.273,0,0,1,2.895-5.816c3.424-2.48,7.426-3.539,11.433-4.588.605-.158.7.168.806.575.153.586.293,1.174.439,1.761.03.2.046.4.092.59.462,1.947.457,1.925-1.528,2.488-2.765.785-5.551,1.534-7.958,3.2-1.243.862-1.248,1.238.023,2.072a21.737,21.737,0,0,0,6.275,2.562c10.049,2.774,20.346,3.681,30.715,3.942,13.209.333,26.362-.18,39.322-3.068a36.865,36.865,0,0,0,8.042-2.594c.981-.472,2.444-.858,2.45-1.986.005-1.022-1.439-1.384-2.366-1.855a30.326,30.326,0,0,0-5.817-2.113c-2.52-.689-2.518-.7-2.021-3.24M71.483,194.16c0,4.423-.012,8.9,0,13.386a87.149,87.149,0,0,0,.379,11.809,44.005,44.005,0,0,0,87.6-5.087c.071-6.469.021-12.939.012-19.408,0-.26.165-.6-.25-.831a38.565,38.565,0,0,1-7.34,2.654,132.043,132.043,0,0,1-30.768,3.653c-16.788.262-33.52-.132-49.634-6.176M92.162,256.81c0,4.129.062,8.1-.035,12.069-.033,1.324.4,1.537,1.611,1.533,14.5-.043,28.991-.027,43.486-.028.252,0,.506-.016.757,0,.544.04.835-.116.831-.746-.018-4.224-.009-8.448-.009-12.83-15.587,7.739-31.051,7.735-46.642,0m72.494-58.3c0,4.558.011,9-.01,13.434,0,.82.207.942.957.6a7.815,7.815,0,0,0,4.206-7.456,7.376,7.376,0,0,0-5.153-6.578m-98.344,7.106c0-2.118-.019-4.236.01-6.353.01-.756-.224-.889-.87-.536a7.736,7.736,0,0,0-.106,13.8c.924.521.98.045.973-.7-.022-2.067-.007-4.135-.007-6.2" transform="translate(-37.818 -120.215)" fill="#030202"/>
    <path id="Trazado_183385" data-name="Trazado 183385" d="M181.523,183.291c-.5,2.543-.5,2.551,2.021,3.24a30.317,30.317,0,0,1,5.817,2.113c.927.471,2.371.833,2.366,1.855-.006,1.129-1.468,1.514-2.45,1.986a36.854,36.854,0,0,1-8.042,2.594c-12.961,2.887-26.113,3.4-39.322,3.068-10.369-.261-20.666-1.168-30.715-3.942a21.736,21.736,0,0,1-6.275-2.562c-1.271-.834-1.266-1.21-.023-2.072,2.407-1.669,5.194-2.417,7.959-3.2,1.984-.563,1.989-.541,1.528-2.488-.046-.193-.062-.394-.092-.59l5.062-.949c.3,2.068.776,2.586,2.741,3.071,2.4.592,4.787,1.228,7.193,1.791a1.678,1.678,0,0,1,1.432,1.313c.47,1.647,1.067,3.258,1.629,4.878.625,1.8,1.309,2.285,3.246,2.295,1.82.009,3.647-.1,5.457.03a5.345,5.345,0,0,0,4.672-1.9c2.116-2.314,2.268-2.315,4.364-.005a5.3,5.3,0,0,0,4.668,1.908c1.709-.128,3.435-.025,5.154-.028,2.367,0,2.958-.434,3.721-2.715.5-1.482,1.046-2.95,1.461-4.455a1.662,1.662,0,0,1,1.429-1.314c2.407-.559,4.786-1.243,7.2-1.766a3.049,3.049,0,0,0,2.737-3.1l5.064.95" transform="translate(-70.24 -123.189)" fill="#fcb454"/>
    <path id="Trazado_183386" data-name="Trazado 183386" d="M446.533,103.514a7.751,7.751,0,1,1-7.832-7.782,7.809,7.809,0,0,1,7.832,7.782m-5.2-.044a2.574,2.574,0,0,0-2.679-2.5,2.545,2.545,0,0,0,.078,5.086,2.583,2.583,0,0,0,2.6-2.586" transform="translate(-291.203 -64.676)" fill="#030202"/>
    <path id="Trazado_183387" data-name="Trazado 183387" d="M376.162,15.648c3.342,0,3.342,0,3.342,2.99a8.938,8.938,0,0,0,.007,1.059c.1.807-.131,1.3-1.045,1.119-2.357-.472-3.938.651-5.447,2.325-2.026,2.247-4.293,4.275-6.381,6.469-.7.741-1.122.718-1.736-.033-.823-1.006-2.522-1.76-2.474-2.86.041-.94,1.576-1.823,2.465-2.717,1.994-2,4.076-3.929,5.973-6.023,1.566-1.729,3.243-2.872,5.3-2.331" transform="translate(-244.855 -10.48)" fill="#030202"/>
    <path id="Trazado_183388" data-name="Trazado 183388" d="M63.76,18.277c0-2.521.015-2.35,2.516-2.567A7.166,7.166,0,0,1,72.752,18.4c2.373,2.679,5.015,5.124,7.579,7.629.611.6.859.982.066,1.644-1,.838-1.83,2.435-2.857,2.546-1.057.113-1.9-1.568-2.824-2.467-1.812-1.758-3.646-3.5-5.34-5.371A4.049,4.049,0,0,0,65.843,20.9c-2.077.122-2.083.031-2.083-2.015v-.606" transform="translate(-43.076 -10.589)" fill="#030202"/>
    <path id="Trazado_183389" data-name="Trazado 183389" d="M71.4,116.854c-2.173,0-4.348-.034-6.52.017-.881.021-1.218-.175-1.229-1.159-.045-4.062-.083-4.062,3.921-4.062,3.488,0,6.976.028,10.463-.019.9-.012,1.212.191,1.226,1.162.056,4.062.093,4.062-3.918,4.062H71.4" transform="translate(-42.997 -75.417)" fill="#030202"/>
    <path id="Trazado_183390" data-name="Trazado 183390" d="M374.9,116.852c-2.224,0-4.45-.048-6.672.022-.962.031-1.244-.289-1.175-1.207a22.041,22.041,0,0,0,0-2.88c-.045-.8.137-1.169,1.063-1.16,4.5.045,9,.036,13.5.006.8-.006,1.066.258,1.022,1.047a27.068,27.068,0,0,0,0,3.183c.053.85-.324,1.012-1.069,1-2.224-.034-4.448-.012-6.672-.012" transform="translate(-247.972 -75.415)" fill="#030202"/>
    <path id="Trazado_183391" data-name="Trazado 183391" d="M272.614,40.7c.91,1.36,1.764,2.669,2.654,3.953a2.588,2.588,0,0,1,.287,1.606c.008,2.477-.16,4.969.052,7.428a4.814,4.814,0,0,1-2.592,4.89,23.854,23.854,0,0,1,.018-2.58c.126-1.114-.344-1.32-1.364-1.315-3.826.02-3.827-.016-3.827,3.833,0,2.882-.027,5.764.017,8.646.012.8-.234,1.163-1.029,1.337-1.723.379-3.423.859-5.136,1.285-.384.1-.842.269-1.129-.128-1-1.381-3.023-1.98-3.084-4.067-.014-.489-.357-.54-.738-.539a14.923,14.923,0,0,0-1.969.017c-.8.111-2.083-.514-2.318.366-.346,1.293-.532,2.84.585,4.021,1.041,1.1,2.1,2.189,3.216,3.215a1.593,1.593,0,0,1,.477,1.976c-1.157,3.389-1.117,3.368-4.654,3.413a3.367,3.367,0,0,1-2.249-.921c-2.2-1.688-2.8-3.765-2.771-6.533.15-14.155.069-28.313.069-42.469a28.187,28.187,0,0,0-.048-4.845c-.557-3.146,1.06-5.1,3.191-6.955.831-.723,1.721-.425,2.582-.442,2.724-.051,2.6.031,3.616,2.5a2.573,2.573,0,0,1-.864,3.492c-.713.554-1.236,1.354-1.954,1.9-1.546,1.175-1.366,2.8-1.335,4.421.01.55.333.66.8.653q1.213-.019,2.427,0c1.046.019,1.742.126,2.15-1.426.347-1.319,2-2.3,3.093-3.413.623-.631,1.444-.234,2.169-.338.1-.014.207.018.3,0,3.124-.752,4.943,1.2,6.75,3.221a1.868,1.868,0,0,1,.369,1.409c0,2.073-.033,4.147.018,6.218a2.26,2.26,0,0,1-.806,1.847c-1.033.967-2.013,1.991-3.012,2.993a8.742,8.742,0,0,0-.734.766,4.222,4.222,0,0,0-.5,3.915c.232.763,1.542.206,2.36.318.4.054.808-.006,1.212.012.83.038,1.457.118,1.544-1.152.077-1.12,1.354-1.654,2.153-2.522m-20.3-2.336c-.936,3.409.734,5.733,3.212,7.723a7.06,7.06,0,0,1,.538.533c2.157,2.156,2.157,2.156,4.3.008,1.514-1.515,1.509-1.51-.072-3.1-1.537-1.542-3.135-2.821-2.894-5.557.361-4.115.095-4.117-4.057-3.966-.77.028-1.088.211-1.045,1.023.059,1.108.015,2.221.015,3.332M262.67,59.231c.549-2.126-.629-3.866-2.419-5.436-.741-.65-1.18-.917-1.879-.022a11.814,11.814,0,0,1-1.817,1.82c-.793.652-.961,1.215-.024,1.852a2.34,2.34,0,0,1,.971,2.372c-.057.6.014,1.213-.015,1.818-.031.643.223.931.88.887.453-.031.909,0,1.363,0,2.94,0,2.94,0,2.94-3.286" transform="translate(-166.853 -10.706)" fill="#f57c00"/>
    <path id="Trazado_183392" data-name="Trazado 183392" d="M146.038,58.537c-1.731-1.168-2.734-2.485-2.5-4.654a32.822,32.822,0,0,0,.013-5.906,7.009,7.009,0,0,1,1.641-5.3,23.025,23.025,0,0,0,1.337-1.972c.9,1.063,2.353,1.577,2.259,3.244-.024.423.331.434.64.436a13.007,13.007,0,0,0,1.817-.012c.889-.122,2.281.551,2.567-.426a3.95,3.95,0,0,0-.792-4.116c-1.191-1.167-2.337-2.381-3.547-3.528a2.128,2.128,0,0,1-.724-1.726c.039-2.071.047-4.145,0-6.215a3.1,3.1,0,0,1,.768-1.86c1.969-3.023,4.911-3.062,8-2.814a1.505,1.505,0,0,1,1.138.638c1.063,1.384,3.057,2.094,3.081,4.245,0,.1.3.278.461.28,1.364.02,2.728.01,4.092,0a.454.454,0,0,0,.507-.448c-.035-1.429.4-2.947-.859-4.142-1.063-1.007-2.042-2.105-3.118-3.1a1.505,1.505,0,0,1-.423-1.856c1.139-3.419,1.107-3.393,4.619-3.443a3.556,3.556,0,0,1,2.382.979c2.16,1.666,2.691,3.737,2.671,6.42-.122,16.423-.074,32.848-.037,49.272a4.96,4.96,0,0,1-1.251,3.2c-1.693,2.27-3.889,2.569-6.394,2.326-.472-.046-.865-.039-1.038-.627-.328-1.111-.729-2.2-1.115-3.3a1.054,1.054,0,0,1,.41-1.193,33.733,33.733,0,0,1,2.594-2.547c1.513-1.188,1.711-2.739,1.6-4.474-.04-.653-.273-.9-.912-.866-.706.033-1.415,0-2.122.009-1.085.018-2.032-.308-2.4,1.514-.247,1.236-1.947,2.2-3.043,3.234-.258.244-.677.025-1.02-.061-1.613-.408-3.216-.866-4.846-1.19-1-.2-1.245-.671-1.228-1.647.061-3.638,0-7.277.043-10.915.012-.938-.169-1.392-1.228-1.3-1.248.114-2.816-.354-3.678.246s-.114,2.264-.369,3.59m20.785-20.151V37.326c0-3.287,0-3.21-3.3-3.321-1.477-.05-2.185.27-1.891,1.868a7.661,7.661,0,0,1-3.427,8.306c-.98.672-.833,1.234.015,1.937.928.769,1.7,2.274,2.633,2.346,1.1.085,1.778-1.584,2.76-2.352,2.53-1.978,4-4.377,3.206-7.725m-7.8,24.143c.2,0,.4,0,.606,0,2.289-.026,1.953.265,2.023-2.023.024-.783-.252-1.606.259-2.352.426-.623,1.579-.936,1.27-1.8-.246-.691-1.062-1.179-1.628-1.755a11.266,11.266,0,0,1-.85-.862c-.543-.688-.918-.679-1.669-.083A6.741,6.741,0,0,0,156.421,60c.2,2.511.043,2.524,2.606,2.524" transform="translate(-96.95 -10.716)" fill="#f57c00"/>
    <path id="Trazado_183393" data-name="Trazado 183393" d="M452.161,18.617a2.58,2.58,0,0,1-2.666,2.516,2.513,2.513,0,0,1-2.441-2.561,2.578,2.578,0,0,1,2.639-2.541,2.64,2.64,0,0,1,2.468,2.585" transform="translate(-302.028 -10.829)" fill="#26ccda"/>
    <path id="Trazado_183394" data-name="Trazado 183394" d="M18.634,116.955a2.545,2.545,0,1,1-.079-5.09,2.545,2.545,0,0,1,.079,5.09" transform="translate(-10.831 -75.575)" fill="#26ccda"/>
    <path id="Trazado_183395" data-name="Trazado 183395" d="M21.132,18.641a2.514,2.514,0,0,1-2.663,2.489,2.588,2.588,0,0,1-2.442-2.588,2.644,2.644,0,0,1,2.539-2.518,2.58,2.58,0,0,1,2.566,2.617" transform="translate(-10.827 -10.825)" fill="#26ccda"/>
    <path id="Trazado_183396" data-name="Trazado 183396" d="M103.747,227.669c16.114,6.044,32.846,6.438,49.634,6.176a132.036,132.036,0,0,0,30.768-3.653,38.548,38.548,0,0,0,7.339-2.654c.416.229.25.571.25.831.008,6.47.059,12.94-.012,19.409a44.005,44.005,0,0,1-87.6,5.086,87.147,87.147,0,0,1-.379-11.809c-.016-4.481,0-8.963,0-13.386m36.21,24.9q0,3.335,0,6.67a9.657,9.657,0,0,0,.4,2.988,7.765,7.765,0,0,0,15.158-2.474c.079-3.94.02-7.882.021-11.823,0-3.566,0-3.5-3.492-3.6-1.383-.039-1.775.333-1.745,1.734.1,4.394.027,8.791.039,13.187,0,1.431-.362,2.636-1.891,3.073-1.813.518-3.256-.721-3.278-2.861-.04-3.739-.012-7.478-.012-11.218,0-3.954,0-3.906-3.922-3.911-1.132,0-1.327.417-1.3,1.409.062,2.272.02,4.547.02,6.821m7.794,28.013a23.007,23.007,0,0,0,8.742-1.568c4.3-1.714,7.769-4.336,9.082-9.039.649-2.324.573-2.345-1.8-2.345-.708,0-1.416.023-2.122-.007-.569-.024-.949.08-1.07.748-.448,2.478-2.178,3.974-4.258,4.993a18.6,18.6,0,0,1-17.451-.147c-1.545-.787-3.121-1.873-3.516-3.584-.463-2.007-1.6-2.192-3.213-2.011a7.589,7.589,0,0,1-1.514,0c-.943-.084-1.08.344-.954,1.182a11.285,11.285,0,0,0,4.137,7.175c4.033,3.359,8.81,4.517,13.931,4.6m-18.2-33.672c.605,0,1.213-.036,1.814.009.8.06.887-.309.794-1a7.791,7.791,0,0,0-15.293-.739c-.246,1.1-.316,2.017,1.329,1.752a11.17,11.17,0,0,1,2.415-.011,1.256,1.256,0,0,0,1.505-.974c.73-1.909,3.55-2.271,4.316-.468.738,1.735,1.895,1.385,3.119,1.431m46.6,0h.605c2.307,0,2.386-.114,1.653-2.374a7.667,7.667,0,0,0-8.2-5.295,7.757,7.757,0,0,0-6.876,6.6c-.117.757-.034,1.132.853,1.082a31.6,31.6,0,0,1,3.175,0,1.082,1.082,0,0,0,1.305-.876,2.53,2.53,0,0,1,4.783.1c.2.763.606.787,1.187.766.5-.018,1.008,0,1.512,0" transform="translate(-70.081 -153.724)" fill="#fcc276"/>
    <path id="Trazado_183397" data-name="Trazado 183397" d="M167.446,421.067c15.591,7.737,31.056,7.742,46.642,0,0,4.382-.009,8.606.009,12.83,0,.63-.287.786-.831.746-.251-.018-.5,0-.757,0q-21.743,0-43.486.027c-1.206,0-1.644-.209-1.612-1.533.1-3.968.035-7.94.035-12.069" transform="translate(-113.101 -284.472)" fill="#fcc276"/>
    <path id="Trazado_183398" data-name="Trazado 183398" d="M390.971,241.355a7.375,7.375,0,0,1,5.153,6.578,7.814,7.814,0,0,1-4.206,7.456c-.75.342-.961.22-.957-.6.021-4.438.01-8.877.01-13.434" transform="translate(-264.132 -163.059)" fill="#fcb454"/>
    <path id="Trazado_183399" data-name="Trazado 183399" d="M77.116,248.523c0,2.067-.015,4.135.007,6.2.008.75-.048,1.226-.973.7a7.736,7.736,0,0,1,.106-13.8c.646-.353.879-.22.87.536-.029,2.117-.01,4.236-.01,6.353" transform="translate(-48.621 -163.121)" fill="#fcb454"/>
    <path id="Trazado_183400" data-name="Trazado 183400" d="M452.162,114.375a2.583,2.583,0,0,1-2.6,2.586,2.545,2.545,0,0,1-.078-5.086,2.574,2.574,0,0,1,2.679,2.5" transform="translate(-302.031 -75.582)" fill="#26ccda"/>
    <path id="Trazado_183401" data-name="Trazado 183401" d="M262.887,76.1c0-1.111.044-2.224-.015-3.332-.043-.813.275-1,1.045-1.023,4.152-.151,4.419-.149,4.057,3.967-.24,2.736,1.357,4.014,2.894,5.556,1.582,1.586,1.586,1.582.072,3.1-2.148,2.148-2.148,2.148-4.3-.008a6.938,6.938,0,0,0-.538-.533c-2.478-1.991-4.148-4.314-3.212-7.724" transform="translate(-177.427 -48.443)" fill="#030202"/>
    <path id="Trazado_183402" data-name="Trazado 183402" d="M281.252,137.02c0,3.286,0,3.286-2.94,3.286-.454,0-.911-.026-1.363,0-.657.045-.911-.244-.88-.887.029-.605-.042-1.217.015-1.818a2.34,2.34,0,0,0-.971-2.372c-.937-.637-.768-1.2.024-1.852a11.815,11.815,0,0,0,1.817-1.82c.7-.9,1.138-.628,1.879.022,1.79,1.57,2.967,3.31,2.419,5.436" transform="translate(-185.435 -88.496)" fill="#030202"/>
    <path id="Trazado_183403" data-name="Trazado 183403" d="M196.033,76.162c.794,3.349-.676,5.747-3.206,7.725-.982.768-1.664,2.437-2.76,2.352-.929-.072-1.705-1.577-2.633-2.347-.848-.7-.995-1.265-.015-1.937a7.66,7.66,0,0,0,3.427-8.306c-.294-1.6.414-1.917,1.891-1.868,3.294.11,3.3.033,3.3,3.321v1.06" transform="translate(-126.16 -48.492)" fill="#030202"/>
    <path id="Trazado_183404" data-name="Trazado 183404" d="M185.857,140.305c-2.563,0-2.4-.013-2.606-2.524a6.741,6.741,0,0,1,2.617-6.356c.751-.6,1.126-.6,1.669.083a11.263,11.263,0,0,0,.85.862c.566.576,1.383,1.064,1.628,1.755.309.868-.844,1.181-1.27,1.8-.511.746-.235,1.569-.259,2.352-.07,2.288.266,2-2.023,2.023-.2,0-.4,0-.606,0" transform="translate(-123.78 -88.493)" fill="#030202"/>
    <path id="Trazado_183405" data-name="Trazado 183405" d="M215.352,287.531c0-2.274.043-4.549-.02-6.821-.027-.993.168-1.41,1.3-1.409,3.923,0,3.922-.043,3.923,3.911,0,3.739-.028,7.478.012,11.217.023,2.14,1.466,3.379,3.278,2.862,1.529-.437,1.895-1.642,1.891-3.073-.012-4.4.056-8.794-.039-13.187-.03-1.4.362-1.773,1.745-1.734,3.491.1,3.493.03,3.492,3.6,0,3.941.058,7.884-.021,11.823a7.765,7.765,0,0,1-15.158,2.473,9.655,9.655,0,0,1-.4-2.988q0-3.335,0-6.67" transform="translate(-145.476 -188.69)" fill="#030202"/>
    <path id="Trazado_183406" data-name="Trazado 183406" d="M201.713,363.933c-5.121-.086-9.9-1.244-13.931-4.6a11.286,11.286,0,0,1-4.137-7.176c-.126-.838.012-1.266.954-1.181a7.584,7.584,0,0,0,1.514,0c1.613-.181,2.75,0,3.213,2.011.395,1.711,1.971,2.8,3.516,3.584a18.6,18.6,0,0,0,17.451.147c2.079-1.02,3.81-2.515,4.258-4.993.121-.667.5-.771,1.07-.747.706.03,1.414.007,2.121.007,2.369,0,2.445.021,1.8,2.345-1.313,4.7-4.784,7.326-9.082,9.04a23.009,23.009,0,0,1-8.742,1.568" transform="translate(-124.043 -237.079)" fill="#030202"/>
    <path id="Trazado_183407" data-name="Trazado 183407" d="M156.642,271.2c-1.224-.047-2.381.3-3.119-1.432-.766-1.8-3.587-1.441-4.317.469a1.256,1.256,0,0,1-1.5.974,11.174,11.174,0,0,0-2.416.011c-1.645.265-1.575-.657-1.329-1.752a7.79,7.79,0,0,1,15.293.739c.093.691.01,1.06-.794,1-.6-.045-1.209-.009-1.814-.009" transform="translate(-97.168 -178.013)" fill="#030202"/>
    <path id="Trazado_183408" data-name="Trazado 183408" d="M300.223,271.205c-.5,0-1.009-.014-1.512,0-.582.021-.988,0-1.187-.766a2.53,2.53,0,0,0-4.783-.1,1.082,1.082,0,0,1-1.305.876,31.7,31.7,0,0,0-3.175,0c-.886.05-.97-.325-.853-1.082a7.758,7.758,0,0,1,6.876-6.6,7.667,7.667,0,0,1,8.2,5.295c.734,2.261.655,2.374-1.652,2.374h-.605" transform="translate(-194.144 -178.023)" fill="#030202"/>
  </g>
</svg>
