<svg id="Grupo_128264" data-name="Grupo 128264" xmlns="http://www.w3.org/2000/svg" xmlns:xlink="http://www.w3.org/1999/xlink" width="167.85" height="120" viewBox="0 0 167.85 120">
  <defs>
    <clipPath id="clip-path">
      <rect id="Rectángulo_41256" data-name="Rectángulo 41256" width="167.85" height="120" fill="none"/>
    </clipPath>
  </defs>
  <g id="Grupo_128263" data-name="Grupo 128263" clip-path="url(#clip-path)">
    <path id="Trazado_190925" data-name="Trazado 190925" d="M0,103.953c1.67-3.918,4.766-5.248,8.813-4.864a6.942,6.942,0,0,0,.983-.008,2.511,2.511,0,0,0,.492-.183C8.121,95.866,8.5,92.387,8.5,88.972c0-25.512.115-51.025-.077-76.535C8.373,5.408,13.4-.022,20.913,0,63.032.12,105.151.055,147.27.06c6.237,0,10.707,3.437,11.863,9.128a13.988,13.988,0,0,1,.2,2.768q.015,40.152.028,80.3a14.039,14.039,0,0,1-1.795,6.832c1.17,0,2.142-.008,3.115,0,4.761.046,7.617,3.24,7.11,7.948a14.288,14.288,0,0,1-13.963,12.9c-10.925.111-21.851.021-32.777.046-1.82,0-2.651-1-3.025-2.6.517-1.807,1.716-2.36,3.568-2.347,10.485.069,20.971.055,31.456.023a9.549,9.549,0,0,0,9.788-8.325c.255-1.886-.315-2.679-2.088-2.681q-27.934-.04-55.868-.059c-.848,0-1.221.149-1.3,1.133a7.075,7.075,0,0,1-7.188,6.855q-12.449.168-24.9,0a7.048,7.048,0,0,1-7.163-6.334c-.1-1.589-.733-1.668-1.983-1.666q-27.279.045-54.558.021c-2.615,0-3.224.742-2.713,3.28.977,4.852,4.738,7.776,10.066,7.777q46.694.01,93.387,0c2.341,0,2.818.339,3.443,2.4-.543,1.995-1.169,2.5-3.216,2.5q-47.118.006-94.236-.007a14.268,14.268,0,0,1-13.94-10.35c-.119-.375-.032-.909-.576-1.075Zm83.893-4.859c20.868,0,41.736-.1,62.6.068,5.633.046,8.007-3.15,7.981-7.915-.143-26.275-.067-52.551-.073-78.827a9.753,9.753,0,0,0-.2-2.764c-.92-3.187-3.27-4.676-7.51-4.676q-63.013,0-126.026,0c-4.82,0-7.243,2.428-7.244,7.245q0,39.823,0,79.647c0,4.888,2.332,7.222,7.214,7.222q31.629,0,63.258,0m.04,5.041v-.087c-4.417,0-8.835-.011-13.252.015-.489,0-1.191-.333-1.44.357a1.807,1.807,0,0,0,.52,1.8,2.575,2.575,0,0,0,2.052.84q12.1-.047,24.21-.1a2.37,2.37,0,0,0,2.221-1.123c.668-1.129.389-1.7-.9-1.7-4.47-.012-8.941,0-13.412,0" transform="translate(0 0)" fill="#030303"/>
    <path id="Trazado_190926" data-name="Trazado 190926" d="M118.259,250.848c-.625-2.062-1.1-2.4-3.443-2.4q-46.693,0-93.387,0c-5.328,0-9.089-2.926-10.066-7.777-.511-2.538.1-3.28,2.713-3.28q27.279,0,54.558-.022c1.25,0,1.883.078,1.983,1.666a7.048,7.048,0,0,0,7.163,6.335q12.45.144,24.9,0a7.076,7.076,0,0,0,7.188-6.855c.083-.984.456-1.134,1.3-1.133q27.934.045,55.868.059c1.773,0,2.343.794,2.088,2.681a9.548,9.548,0,0,1-9.788,8.324c-10.485.032-20.971.046-31.456-.023-1.851-.012-3.05.54-3.568,2.347l-6.059.088" transform="translate(-6.291 -133.373)" fill="#9a9a9a"/>
    <path id="Trazado_190927" data-name="Trazado 190927" d="M101.1,105.477q-31.629,0-63.258,0c-4.881,0-7.213-2.334-7.214-7.222q0-39.823,0-79.647c0-4.817,2.423-7.245,7.244-7.245q63.012,0,126.025,0c4.239,0,6.59,1.49,7.51,4.677a9.753,9.753,0,0,1,.2,2.764c.006,26.275-.07,52.552.073,78.827.026,4.766-2.349,7.961-7.981,7.915-20.867-.17-41.735-.068-62.6-.067M38.82,40.513c-2.217.535-2.626,1.053-2.626,3.407q0,23.765,0,47.53c0,4.828,2.533,7.353,7.376,7.354q57.527,0,115.055,0c4.941,0,7.449-2.507,7.45-7.447,0-21.908-.072-43.815.063-65.722.027-4.329-2.778-7.56-7.593-7.541-31.631.126-63.263.065-94.9.065-6.884,0-13.767-.011-20.651,0-4.149.01-6.766,2.605-6.8,6.717-.018,2.021-.011,4.043,0,6.064.011,2.177.485,2.747,2.637,3.216l-.011,6.352" transform="translate(-17.212 -6.383)" fill="#ccc"/>
    <path id="Trazado_190928" data-name="Trazado 190928" d="M172.632,237.5c4.47,0,8.941-.007,13.412,0,1.286,0,1.565.573.9,1.7a2.37,2.37,0,0,1-2.221,1.123q-12.1.06-24.21.1a2.575,2.575,0,0,1-2.052-.84,1.807,1.807,0,0,1-.52-1.8c.25-.69.951-.354,1.44-.357,4.417-.027,8.835-.015,13.252-.015v.087" transform="translate(-88.699 -133.364)" fill="#9a9a9a"/>
    <path id="Trazado_190929" data-name="Trazado 190929" d="M45.952,42.8c-2.151-.469-2.626-1.039-2.637-3.216-.01-2.021-.017-4.043,0-6.064.037-4.112,2.654-6.708,6.8-6.717,6.884-.016,13.767,0,20.651,0,31.632,0,63.264.061,94.9-.065,4.815-.019,7.62,3.211,7.593,7.541-.135,21.907-.061,43.814-.063,65.722,0,4.941-2.508,7.447-7.45,7.447q-57.527,0-115.054,0c-4.843,0-7.376-2.525-7.376-7.353q-.005-23.765,0-47.53c0-2.354.409-2.872,2.627-3.407,1.786.469,2.311,1.7,2.307,3.444q-.048,23.582-.018,47.164c0,2.531.24,2.764,2.837,2.763,6.441,0,12.883-.049,19.324.019,1.358.014,1.715-.355,1.709-1.712-.052-12.937-.031-25.875-.031-38.812q0-14.412.007-28.823c0-.874.064-1.526-1.222-1.515-6.877.06-13.756.033-20.634.006-1.478-.006-2.048.671-2,2.11.057,1.909-.03,3.822.027,5.731A2.862,2.862,0,0,1,45.952,42.8m76.4-11.084v-.021c-14.585,0-29.171.016-43.756-.028-1.261,0-1.628.287-1.626,1.6q.066,33.842,0,67.683c0,1.327.393,1.6,1.648,1.6q43.51-.06,87.021-.046c2.325,0,2.622-.3,2.622-2.648q0-32.776,0-65.553c0-2.41-.178-2.586-2.645-2.586q-21.632,0-43.264,0" transform="translate(-24.333 -15.019)" fill="#030303"/>
    <path id="Trazado_190930" data-name="Trazado 190930" d="M49.333,49.143a2.862,2.862,0,0,0,2.291-3.272c-.057-1.909.031-3.822-.027-5.731-.043-1.44.526-2.116,2-2.11,6.878.027,13.756.053,20.634-.006,1.285-.011,1.223.641,1.222,1.515q-.018,14.411-.007,28.822c0,12.938-.021,25.875.031,38.812.005,1.356-.351,1.726-1.709,1.712-6.441-.068-12.883-.022-19.324-.019-2.6,0-2.837-.232-2.837-2.763q0-23.582.018-47.164c0-1.749-.521-2.976-2.308-3.444l.011-6.352M63.6,65.9a21.9,21.9,0,0,0-2.441.017,2.182,2.182,0,0,0-2.084,2.295A2.16,2.16,0,0,0,61,70.649a17.215,17.215,0,0,0,5.029,0,2.187,2.187,0,0,0,1.948-2.424,2.225,2.225,0,0,0-2.1-2.3A19.543,19.543,0,0,0,63.6,65.9m-.095,30.76v.007c-.706,0-1.416-.045-2.117.01a2.409,2.409,0,0,0-.137,4.806,29.234,29.234,0,0,0,4.551,0,2.267,2.267,0,0,0,2.187-2.4,2.4,2.4,0,0,0-2.367-2.411c-.7-.06-1.411-.011-2.117-.011M63.35,60.454c.761,0,1.524.034,2.283-.007A2.275,2.275,0,0,0,67.974,58.2a2.2,2.2,0,0,0-2.011-2.54,22.171,22.171,0,0,0-4.875,0,2.184,2.184,0,0,0-2,2.534,2.239,2.239,0,0,0,2.31,2.258c.649.043,1.3.007,1.956.008m.267-15.122c-.761,0-1.528-.06-2.283.013a2.257,2.257,0,0,0-2.252,2.327,2.208,2.208,0,0,0,2.065,2.492,23.349,23.349,0,0,0,4.721,0A2.237,2.237,0,0,0,67.98,47.7a2.3,2.3,0,0,0-2.244-2.356,19.2,19.2,0,0,0-2.119-.012m-.025,30.805c-.761,0-1.528-.061-2.282.013a2.247,2.247,0,0,0-2.229,2.345,2.215,2.215,0,0,0,2.091,2.474,22.929,22.929,0,0,0,4.719,0,2.231,2.231,0,0,0,2.087-2.488,2.286,2.286,0,0,0-2.268-2.329c-.7-.066-1.412-.012-2.119-.01m-.145,15.122c.707,0,1.416.035,2.12-.007A2.4,2.4,0,0,0,67.993,88.9a2.286,2.286,0,0,0-2.12-2.474,22.782,22.782,0,0,0-4.717,0,2.236,2.236,0,0,0-2.082,2.484,2.337,2.337,0,0,0,2.415,2.337c.65.039,1.3.007,1.957.006" transform="translate(-27.714 -21.365)" fill="#fcd9a4"/>
    <path id="Trazado_190931" data-name="Trazado 190931" d="M165.529,38.041q21.632,0,43.264,0c2.467,0,2.645.176,2.645,2.586q0,32.777,0,65.553c0,2.344-.3,2.647-2.622,2.648q-43.511.012-87.021.046c-1.255,0-1.65-.276-1.648-1.6q.064-33.842,0-67.684c0-1.311.365-1.6,1.626-1.6,14.585.044,29.171.028,43.756.028ZM157.664,96.63h-6.717q-10.975,0-21.951.007c-1.906,0-3.053.956-3.053,2.441s1.153,2.417,3.049,2.478c.218.007.437,0,.655,0q27.931,0,55.862-.007a7.384,7.384,0,0,0,1.946-.173,2.4,2.4,0,0,0-.149-4.638,8.848,8.848,0,0,0-1.793-.106q-13.924-.009-27.849,0m-.17-36.177q14.008,0,28.016,0a9.957,9.957,0,0,0,1.635-.055,2.223,2.223,0,0,0,2-2.058,2.293,2.293,0,0,0-1.529-2.594,5.186,5.186,0,0,0-2.1-.208q-27.934-.006-55.869,0a5.207,5.207,0,0,0-2.1.206,2.312,2.312,0,0,0-1.57,2.429,2.267,2.267,0,0,0,2.033,2.225,10.866,10.866,0,0,0,1.635.055q13.927,0,27.853,0M174.365,45.3H148.826a9.629,9.629,0,0,0-1.472.028,2.44,2.44,0,0,0-.284,4.8,5.316,5.316,0,0,0,1.463.088q25.866.006,51.733,0a5.323,5.323,0,0,0,1.3-.06,2.329,2.329,0,0,0,1.993-2.587,2.293,2.293,0,0,0-2.187-2.244A10.624,10.624,0,0,0,199.9,45.3H174.365m1.5,25.441v-.006c3.6,0,7.2.041,10.792-.018a2.331,2.331,0,0,0,2.515-2.428,2.291,2.291,0,0,0-2.5-2.418c-7.249-.033-14.5-.018-21.748-.012a2.3,2.3,0,0,0-2.431,1.777c-.489,1.695.691,3.073,2.743,3.1,3.543.037,7.086.01,10.628.01M139.958,91.249c3.657,0,7.314.011,10.971,0,1.86-.008,2.874-.849,2.921-2.355.049-1.544-1.054-2.548-2.927-2.552q-10.971-.026-21.942,0c-1.882,0-3.041.983-3.041,2.477s1.14,2.426,3.047,2.432c3.657.013,7.314,0,10.971,0m-7.537-25.39v-.007h-3.592c-.109,0-.218,0-.326,0a2.489,2.489,0,0,0-2.559,2.413,2.412,2.412,0,0,0,2.372,2.431c2.664.078,5.334.082,8-.011a2.366,2.366,0,0,0,2.307-2.477,2.417,2.417,0,0,0-2.445-2.341c-1.249-.058-2.5-.012-3.755-.012m19.193,0v-.009h-3.59c-.109,0-.218,0-.326.005a2.377,2.377,0,0,0-2.511,2.42,2.3,2.3,0,0,0,2.338,2.421c2.662.083,5.331.085,7.993-.008a2.3,2.3,0,0,0,2.275-2.485,2.33,2.33,0,0,0-2.425-2.333c-1.249-.058-2.5-.012-3.753-.012m-19.3-15.645c1.253,0,2.509.044,3.76-.011a2.486,2.486,0,0,0,2.549-2.445,2.44,2.44,0,0,0-2.528-2.442c-2.506-.048-5.014-.042-7.521,0a2.458,2.458,0,0,0-2.632,2.343,2.507,2.507,0,0,0,2.612,2.551c1.252.049,2.506.01,3.76.009m-.1,30.8c1.253,0,2.508.036,3.76-.009a2.506,2.506,0,0,0,2.65-2.512,2.449,2.449,0,0,0-2.586-2.382q-3.759-.063-7.52,0a2.445,2.445,0,0,0-2.576,2.4A2.492,2.492,0,0,0,128.452,81c1.25.063,2.506.013,3.759.017m34.624,10.221c1.253,0,2.507.042,3.758-.011a2.422,2.422,0,0,0,2.451-2.338,2.394,2.394,0,0,0-2.286-2.514c-2.665-.1-5.338-.09-8-.01a2.434,2.434,0,1,0,.16,4.866c1.306.046,2.614.01,3.921.007" transform="translate(-67.51 -21.347)" fill="#b1d8fb"/>
    <path id="Trazado_190932" data-name="Trazado 190932" d="M76.113,101.628a19.351,19.351,0,0,1,2.278.016,2.224,2.224,0,0,1,2.1,2.3,2.188,2.188,0,0,1-1.948,2.424,17.212,17.212,0,0,1-5.029,0,2.16,2.16,0,0,1-1.924-2.433,2.182,2.182,0,0,1,2.084-2.294,21.784,21.784,0,0,1,2.44-.017" transform="translate(-40.224 -57.088)" fill="#030303"/>
    <path id="Trazado_190933" data-name="Trazado 190933" d="M76,171.851c.706,0,1.416-.05,2.117.011a2.4,2.4,0,0,1,2.367,2.411,2.267,2.267,0,0,1-2.187,2.4,29.125,29.125,0,0,1-4.551,0,2.409,2.409,0,0,1,.136-4.806c.7-.055,1.411-.01,2.117-.01v-.006" transform="translate(-40.208 -96.551)" fill="#030303"/>
    <path id="Trazado_190934" data-name="Trazado 190934" d="M75.86,82.893c-.652,0-1.307.035-1.956-.008a2.238,2.238,0,0,1-2.31-2.258,2.184,2.184,0,0,1,2-2.534,22.194,22.194,0,0,1,4.874,0,2.2,2.2,0,0,1,2.011,2.54,2.276,2.276,0,0,1-2.341,2.251c-.759.041-1.522.007-2.283.007" transform="translate(-40.223 -43.806)" fill="#030303"/>
    <path id="Trazado_190935" data-name="Trazado 190935" d="M76.131,54.672a19.526,19.526,0,0,1,2.119.013,2.3,2.3,0,0,1,2.244,2.357,2.236,2.236,0,0,1-2.112,2.468,23.317,23.317,0,0,1-4.721,0A2.208,2.208,0,0,1,71.6,57.013a2.257,2.257,0,0,1,2.252-2.327c.754-.072,1.521-.013,2.283-.014" transform="translate(-40.228 -30.706)" fill="#030303"/>
    <path id="Trazado_190936" data-name="Trazado 190936" d="M76.106,124.989c.707,0,1.419-.055,2.119.011a2.287,2.287,0,0,1,2.268,2.329,2.231,2.231,0,0,1-2.087,2.488,22.93,22.93,0,0,1-4.719,0,2.215,2.215,0,0,1-2.091-2.474A2.247,2.247,0,0,1,73.824,125c.754-.074,1.521-.013,2.282-.014" transform="translate(-40.228 -70.218)" fill="#030303"/>
    <path id="Trazado_190937" data-name="Trazado 190937" d="M75.954,153.186c-.652,0-1.306.033-1.957-.006a2.338,2.338,0,0,1-2.415-2.337,2.236,2.236,0,0,1,2.082-2.485,22.783,22.783,0,0,1,4.717,0,2.287,2.287,0,0,1,2.12,2.474,2.4,2.4,0,0,1-2.428,2.349c-.7.043-1.413.007-2.12.008" transform="translate(-40.222 -83.292)" fill="#030303"/>
    <path id="Trazado_190938" data-name="Trazado 190938" d="M165.1,171.833q13.925,0,27.849,0a8.873,8.873,0,0,1,1.792.106,2.4,2.4,0,0,1,.149,4.638,7.4,7.4,0,0,1-1.946.173q-27.931.012-55.862.007c-.218,0-.437.006-.655,0-1.9-.061-3.049-1-3.049-2.478s1.147-2.437,3.053-2.441q10.976-.022,21.951-.007H165.1" transform="translate(-74.943 -96.551)" fill="#030303"/>
    <path id="Trazado_190939" data-name="Trazado 190939" d="M164.956,82.941q-13.926,0-27.853,0a10.865,10.865,0,0,1-1.635-.055,2.266,2.266,0,0,1-2.032-2.225,2.311,2.311,0,0,1,1.57-2.429,5.2,5.2,0,0,1,2.1-.206q27.935-.007,55.869,0a5.186,5.186,0,0,1,2.1.208,2.293,2.293,0,0,1,1.529,2.595,2.224,2.224,0,0,1-2,2.058,10,10,0,0,1-1.635.055q-14.009,0-28.016,0" transform="translate(-74.972 -43.835)" fill="#030303"/>
    <path id="Trazado_190940" data-name="Trazado 190940" d="M206.484,54.655q12.77,0,25.539,0a10.558,10.558,0,0,1,1.472.025,2.293,2.293,0,0,1,2.187,2.244,2.328,2.328,0,0,1-1.993,2.587,5.324,5.324,0,0,1-1.3.06q-25.866,0-51.733,0a5.315,5.315,0,0,1-1.463-.089,2.44,2.44,0,0,1,.284-4.8,9.624,9.624,0,0,1,1.471-.028q12.77,0,25.539,0" transform="translate(-99.629 -30.703)" fill="#030303"/>
    <path id="Trazado_190941" data-name="Trazado 190941" d="M230.032,106.47c-3.543,0-7.086.027-10.628-.011-2.052-.021-3.232-1.4-2.743-3.1a2.3,2.3,0,0,1,2.431-1.777c7.249-.006,14.5-.021,21.748.012a2.291,2.291,0,0,1,2.5,2.418,2.33,2.33,0,0,1-2.514,2.428c-3.6.059-7.195.018-10.792.018Z" transform="translate(-121.678 -57.076)" fill="#030303"/>
    <path id="Trazado_190942" data-name="Trazado 190942" d="M147.389,153.239c-3.657,0-7.314.009-10.971,0-1.906-.007-3.046-.936-3.047-2.432s1.159-2.474,3.041-2.478q10.971-.02,21.942,0c1.872,0,2.975,1.009,2.926,2.553-.047,1.506-1.061,2.347-2.92,2.355-3.657.016-7.314,0-10.971,0" transform="translate(-74.94 -83.337)" fill="#030303"/>
    <path id="Trazado_190943" data-name="Trazado 190943" d="M139.854,101.578c1.252,0,2.506-.046,3.755.012a2.417,2.417,0,0,1,2.445,2.341,2.366,2.366,0,0,1-2.307,2.477c-2.663.092-5.334.089-8,.011a2.412,2.412,0,0,1-2.372-2.432,2.489,2.489,0,0,1,2.559-2.413c.108-.007.218,0,.326,0h3.592v.007" transform="translate(-74.944 -57.066)" fill="#030303"/>
    <path id="Trazado_190944" data-name="Trazado 190944" d="M183.726,101.58c1.251,0,2.5-.046,3.752.012a2.33,2.33,0,0,1,2.425,2.333,2.3,2.3,0,0,1-2.275,2.484c-2.661.093-5.33.091-7.993.008A2.3,2.3,0,0,1,177.3,104a2.377,2.377,0,0,1,2.511-2.42c.108-.007.217-.005.326-.005h3.59Z" transform="translate(-99.623 -57.067)" fill="#030303"/>
    <path id="Trazado_190945" data-name="Trazado 190945" d="M139.747,59.566c-1.253,0-2.509.039-3.76-.009a2.507,2.507,0,0,1-2.612-2.551,2.459,2.459,0,0,1,2.632-2.343c2.506-.038,5.015-.044,7.521,0a2.44,2.44,0,0,1,2.528,2.443,2.485,2.485,0,0,1-2.549,2.444c-1.251.055-2.506.011-3.76.012" transform="translate(-74.941 -30.698)" fill="#030303"/>
    <path id="Trazado_190946" data-name="Trazado 190946" d="M139.642,129.875c-1.254,0-2.509.048-3.76-.015a2.491,2.491,0,0,1-2.512-2.488,2.445,2.445,0,0,1,2.576-2.4q3.759-.065,7.52,0a2.449,2.449,0,0,1,2.586,2.382,2.506,2.506,0,0,1-2.65,2.512c-1.252.046-2.506.009-3.759.007" transform="translate(-74.939 -70.204)" fill="#030303"/>
    <path id="Trazado_190947" data-name="Trazado 190947" d="M218.426,153.209c-1.307,0-2.616.038-3.921-.008a2.435,2.435,0,1,1-.16-4.866c2.666-.08,5.34-.087,8,.01a2.394,2.394,0,0,1,2.286,2.515,2.421,2.421,0,0,1-2.451,2.337c-1.251.053-2.505.011-3.758.013" transform="translate(-119.1 -83.314)" fill="#030303"/>
  </g>
</svg>
