<svg xmlns="http://www.w3.org/2000/svg" width="152.098" height="240.825" viewBox="0 0 152.098 240.825">
  <g id="Grupo_120891" data-name="Grupo 120891" transform="translate(-725.001 -817.781)">
    <path id="Trazado_182937" data-name="Trazado 182937" d="M266.39,749.862a101.111,101.111,0,0,1-34.8-6.137l34.8,26.128,34.8-26.128a101.111,101.111,0,0,1-34.8,6.137" transform="translate(537.375 288.754)" fill="#26ccda"/>
    <path id="Trazado_182938" data-name="Trazado 182938" d="M1626.761,169.393a76.049,76.049,0,1,1-76.049-76.049,76.049,76.049,0,0,1,76.049,76.049" transform="translate(-749.662 724.438)" fill="#b1f9ff"/>
    <circle id="Elipse_5157" data-name="Elipse 5157" cx="11" cy="11" r="11" transform="translate(792.961 1010.27)" fill="#26ccda"/>
    <circle id="Elipse_5160" data-name="Elipse 5160" cx="7" cy="7" r="7" transform="translate(796.961 1014.27)" fill="#b1f9ff"/>
    <text id="TIFF" transform="translate(801 945.969)" fill="#12263f" font-size="16" font-family="Roboto-Bold, Roboto" font-weight="700"><tspan x="-16.047" y="0">TIFF</tspan></text>
    <g id="tiff-images-file-extension-symbol-for-interface" transform="translate(697.402 839.123)">
      <g id="Grupo_85481" data-name="Grupo 85481" transform="translate(75.6 0)">
        <path id="Trazado_105547" data-name="Trazado 105547" d="M132.279,18.726a1.517,1.517,0,0,0-.366-.992L116.847.523s-.009-.006-.012-.01a1.52,1.52,0,0,0-.305-.256c-.033-.021-.066-.041-.1-.06a1.519,1.519,0,0,0-.3-.126c-.029-.008-.054-.021-.082-.027A1.491,1.491,0,0,0,115.693,0H78.665A3.068,3.068,0,0,0,75.6,3.065V75.081a3.069,3.069,0,0,0,3.065,3.065h50.565a3.069,3.069,0,0,0,3.065-3.065V18.9A1.721,1.721,0,0,0,132.279,18.726ZM93.092,58.584H88.018V73.642H83.8V58.584H78.808v-3.53H93.092Zm6.455,15.058h-4.22V55.054h4.22Zm15-15.14h-7.142v4.247h6.674v3.419h-6.674v7.474h-4.22V55.054H114.55Zm14.536,0h-7.144v4.247h6.675v3.419h-6.675v7.474h-4.218V55.054h11.362V58.5ZM78.665,52.033V3.065h35.5V18.744a1.533,1.533,0,0,0,1.532,1.532h13.536V52.033H78.665Z" transform="translate(-75.6 0)" fill="#f57c00"/>
        <path id="Trazado_105548" data-name="Trazado 105548" d="M178.27,145.218H162.555l-1.146-2.308a1.243,1.243,0,0,0-1.077-.615H153.3a1.335,1.335,0,0,0-.978.615l-1.077,2.308h-4.08a3.079,3.079,0,0,0-3.078,3.08v18.477a3.079,3.079,0,0,0,3.078,3.08h31.1a3.079,3.079,0,0,0,3.079-3.08V148.3A3.08,3.08,0,0,0,178.27,145.218Zm-11.01,20.171h-4.614c-.635-1.463-1.412-3.81-2.586-3.539-1.3.295-1.989,3.141-2.078,3.539h-.022c-.089-.429-.832-3.711-2.667-5.357-1.873-1.679-3.692,4.768-3.855,5.357H147.4V149.838h19.863v15.551Zm7.1-2.381a5.543,5.543,0,1,1,5.54-5.543A5.55,5.55,0,0,1,174.356,163.008Z" transform="translate(-134.372 -122.107)" fill="#26ccda"/>
        <path id="Trazado_105549" data-name="Trazado 105549" d="M327.611,214.495a4.927,4.927,0,1,0,4.926,4.927A4.933,4.933,0,0,0,327.611,214.495Zm-2.849,6.544-1.618-1.617,1.618-1.617Zm2.849,2.669-1.619-1.618h3.234Zm-1.619-6.955,1.619-1.616,1.614,1.616Zm4.107,4.286V217.8l1.617,1.616Z" transform="translate(-287.627 -184.063)" fill="#26ccda"/>
        <path id="Trazado_105550" data-name="Trazado 105550" d="M224.242,219.188a6.49,6.49,0,0,0,1.156-.1,4.046,4.046,0,0,0,1.437.25c1.369,0,2.477-.6,2.477-1.34s-1.108-1.339-2.477-1.339a4.051,4.051,0,0,0-1.389.229.945.945,0,0,0-.622-.229h-.362a.857.857,0,0,0-.874.709c-1.108.107-1.933.463-1.933.892C221.653,218.774,222.813,219.188,224.242,219.188Z" transform="translate(-200.931 -185.92)" fill="#26ccda"/>
        <circle id="Elipse_4298" data-name="Elipse 4298" cx="1.109" cy="1.109" r="1.109" transform="translate(16.997 30.728)" fill="#26ccda"/>
      </g>
    </g>
  </g>
</svg>
