<svg xmlns="http://www.w3.org/2000/svg" width="152.098" height="240.756" viewBox="0 0 152.098 240.756">
  <g id="Grupo_120887" data-name="Grupo 120887" transform="translate(-927.286 -5906.581)">
    <path id="Trazado_166802" data-name="Trazado 166802" d="M266.39,749.862a101.111,101.111,0,0,1-34.8-6.137l34.8,26.128,34.8-26.128a101.111,101.111,0,0,1-34.8,6.137" transform="translate(740.332 5377.484)" fill="#f57c00"/>
    <path id="Trazado_166799" data-name="Trazado 166799" d="M2321.489,169.622a76.049,76.049,0,1,1-76.049-76.049,76.049,76.049,0,0,1,76.049,76.049" transform="translate(-1242.105 5813.008)" fill="#fff3bf"/>
    <path id="Trazado_183153" data-name="Trazado 183153" d="M11,0A11,11,0,1,1,0,11,11,11,0,0,1,11,0Z" transform="translate(995.918 6099)" fill="#ffa726"/>
    <path id="Trazado_183154" data-name="Trazado 183154" d="M7,0A7,7,0,1,1,0,7,7,7,0,0,1,7,0Z" transform="translate(999.918 6103)" fill="#ffd1a2"/>
    <path id="Trazado_183155" data-name="Trazado 183155" d="M-15.691,0V-11.375h3.719a4.317,4.317,0,0,1,2.785.766,2.759,2.759,0,0,1,.934,2.266,2.31,2.31,0,0,1-.453,1.41,2.937,2.937,0,0,1-1.234.949A2.638,2.638,0,0,1-8.484-5a2.814,2.814,0,0,1,.535,1.723A3.042,3.042,0,0,1-8.941-.875a4.1,4.1,0,0,1-2.8.875Zm1.5-5.32v4.094h2.477a2.385,2.385,0,0,0,1.652-.543,1.907,1.907,0,0,0,.605-1.5q0-2.055-2.234-2.055Zm0-1.2h2.266a2.375,2.375,0,0,0,1.574-.493,1.654,1.654,0,0,0,.59-1.339,1.626,1.626,0,0,0-.547-1.366,2.686,2.686,0,0,0-1.664-.427h-2.219Zm10.4-4.852L-.074-2.094l3.719-9.281H5.59V0H4.09V-4.43L4.23-9.211.5,0H-.652L-4.379-9.187-4.23-4.43V0h-1.5V-11.375ZM9.738-4.453V0h-1.5V-11.375h4.2a4.215,4.215,0,0,1,2.926.953A3.231,3.231,0,0,1,16.418-7.9a3.189,3.189,0,0,1-1.035,2.551,4.4,4.4,0,0,1-2.965.895Zm0-1.227h2.7a2.7,2.7,0,0,0,1.844-.567,2.075,2.075,0,0,0,.641-1.64,2.143,2.143,0,0,0-.641-1.628,2.525,2.525,0,0,0-1.758-.634H9.738Z" transform="translate(1003.285 6034.7)" fill="#12263f"/>
    <g id="bmp-file-format-symbol" transform="translate(899.688 5927.854)">
      <g id="Grupo_85471" data-name="Grupo 85471" transform="translate(88.208 14.737)">
        <path id="Trazado_105544" data-name="Trazado 105544" d="M286.809,171.295a4.08,4.08,0,0,0-1.522.28.98.98,0,0,0-.682-.28h-.4a.971.971,0,0,0-.96.87c-1.219.128-2.123.568-2.123,1.1,0,.627,1.272,1.135,2.842,1.135a6.654,6.654,0,0,0,1.27-.123,4.027,4.027,0,0,0,1.572.3c1.5,0,2.719-.736,2.719-1.641S288.313,171.295,286.809,171.295Z" transform="translate(-264.575 -161.729)" fill="#26ccda"/>
        <path id="Trazado_105545" data-name="Trazado 105545" d="M190.277,150.834a2.272,2.272,0,1,0,2.272,2.271A2.273,2.273,0,0,0,190.277,150.834Z" transform="translate(-184.662 -144.171)" fill="#26ccda"/>
        <path id="Trazado_105546" data-name="Trazado 105546" d="M164.468,103.869V133.5h29.623v-29.63Zm27.177,20.686a4.238,4.238,0,0,1-1.136,2.9c-1.091-2.787-2.429-5.815-4.322-5.33-2.4.614-3.686,5.826-3.868,6.619h-.048c-.182-.863-1.57-7-4.971-10.4s-6.72,8.615-7.166,10.311a4.16,4.16,0,0,1-3.219-4.1V111.083a4.127,4.127,0,0,1,4.064-4.187h16.6a4.127,4.127,0,0,1,4.065,4.187v13.472Z" transform="translate(-164.468 -103.869)" fill="#26ccda"/>
      </g>
      <g id="Grupo_85470" data-name="Grupo 85470" transform="translate(75.6)">
        <path id="Trazado_105540" data-name="Trazado 105540" d="M149.9,461.516h-1.234v4.512a11.5,11.5,0,0,0,1.4.047c1.639,0,3.085-.617,3.085-2.3C153.147,462.157,151.7,461.516,149.9,461.516Z" transform="translate(-138.295 -396.037)" fill="#f57c00"/>
        <path id="Trazado_105541" data-name="Trazado 105541" d="M392.78,417a6.051,6.051,0,0,0-1.5.144v4.724a5.532,5.532,0,0,0,1.21.094c1.924,0,3.111-.973,3.111-2.611C395.6,417.881,394.584,417,392.78,417Z" transform="translate(-346.496 -357.84)" fill="#f57c00"/>
        <path id="Trazado_105543" data-name="Trazado 105543" d="M152.762,418.191c0-1.211-.925-1.853-2.564-1.853a10.058,10.058,0,0,0-1.543.094v3.728h1.187C151.742,420.16,152.762,419.377,152.762,418.191Z" transform="translate(-138.29 -357.269)" fill="#f57c00"/>
        <path id="Trazado_105542" data-name="Trazado 105542" d="M132.279,18.727a1.514,1.514,0,0,0-.364-.992L116.847.524s-.008-.006-.012-.011a1.532,1.532,0,0,0-.3-.256c-.033-.021-.066-.04-.1-.06a1.655,1.655,0,0,0-.3-.127c-.028-.008-.054-.02-.082-.027A1.544,1.544,0,0,0,115.695,0H78.665A3.069,3.069,0,0,0,75.6,3.065V75.081a3.068,3.068,0,0,0,3.065,3.065h50.565a3.067,3.067,0,0,0,3.065-3.065V18.9A1.715,1.715,0,0,0,132.279,18.727ZM92.589,71.272c-1.164.926-3.11,1.449-6.292,1.449a27.8,27.8,0,0,1-3.916-.238V56.766a28.823,28.823,0,0,1,4.676-.332,8.836,8.836,0,0,1,4.725.9A3.483,3.483,0,0,1,93.7,60.469a3.617,3.617,0,0,1-2.635,3.419v.048a4,4,0,0,1,3.181,3.941A4.261,4.261,0,0,1,92.589,71.272Zm17.9,1.282-.237-6.125c-.072-1.923-.143-4.25-.143-6.577h-.07c-.5,2.042-1.165,4.321-1.781,6.2l-1.947,6.244h-2.825l-1.709-6.2c-.523-1.875-1.069-4.154-1.449-6.244h-.048c-.1,2.16-.167,4.63-.285,6.624l-.285,6.079H96.362l1.021-16h4.82l1.567,5.343c.5,1.852,1,3.846,1.354,5.722h.071c.451-1.852,1-3.965,1.52-5.745l1.709-5.318h4.725l.878,16h-3.537v0Zm16.333-7.336a7.42,7.42,0,0,1-5.2,1.686,9.028,9.028,0,0,1-1.234-.072v5.722H116.8V56.766a29.63,29.63,0,0,1,4.891-.332,7.674,7.674,0,0,1,4.891,1.282,4.676,4.676,0,0,1,1.709,3.7A5.113,5.113,0,0,1,126.822,65.218ZM78.665,52.034V3.065h35.5v15.68a1.532,1.532,0,0,0,1.532,1.532h13.535l0,31.757Z" transform="translate(-75.6)" fill="#f57c00"/>
      </g>
    </g>
  </g>
</svg>
