<svg xmlns="http://www.w3.org/2000/svg" width="152.098" height="240.756" viewBox="0 0 152.098 240.756">
  <g id="Grupo_120895" data-name="Grupo 120895" transform="translate(-1134 -2149.85)">
    <path id="Trazado_182961" data-name="Trazado 182961" d="M266.39,749.862a101.111,101.111,0,0,1-34.8-6.137l34.8,26.128,34.8-26.128a101.111,101.111,0,0,1-34.8,6.137" transform="translate(948.719 1620.754)" fill="#26ccda"/>
    <path id="Trazado_182963" data-name="Trazado 182963" d="M2321.489,169.622a76.049,76.049,0,1,1-76.049-76.049,76.049,76.049,0,0,1,76.049,76.049" transform="translate(-1035.391 2056.277)" fill="#b1f9ff"/>
    <path id="Trazado_183162" data-name="Trazado 183162" d="M11,0A11,11,0,1,1,0,11,11,11,0,0,1,11,0Z" transform="translate(1204.305 2342.27)" fill="#26ccda"/>
    <path id="Trazado_183163" data-name="Trazado 183163" d="M7,0A7,7,0,1,1,0,7,7,7,0,0,1,7,0Z" transform="translate(1208.305 2346.27)" fill="#b1f9ff"/>
    <path id="Trazado_183164" data-name="Trazado 183164" d="M-12.105-4.164h-1.867V0h-2.344V-11.375h4.227a4.778,4.778,0,0,1,3.109.9A3.1,3.1,0,0,1-7.887-7.937,3.5,3.5,0,0,1-8.391-6,3.437,3.437,0,0,1-9.918-4.758L-7.457-.109V0H-9.973Zm-1.867-1.9h1.891a1.936,1.936,0,0,0,1.367-.449A1.606,1.606,0,0,0-10.23-7.75a1.719,1.719,0,0,0-.457-1.266,1.9,1.9,0,0,0-1.4-.461h-1.883ZM.316-2.344H-3.793L-4.574,0H-7.066l4.234-11.375H-.66L3.6,0H1.105Zm-3.477-1.9H-.316L-1.746-8.5Zm16.375.961,1.531-8.094h2.336L14.559,0H12.2L10.348-7.609,8.5,0H6.137L3.613-11.375H5.949L7.488-3.3l1.875-8.078h1.984Z" transform="translate(1210 2277.969)" fill="#12263f"/>
    <g id="raw-file-format-symbol" transform="translate(1106.4 2171.123)">
      <g id="Grupo_85501" data-name="Grupo 85501" transform="translate(75.6 0)">
        <path id="Trazado_105558" data-name="Trazado 105558" d="M240.056,415.146h-.049c-.245.979-.49,2.228-.76,3.183l-.978,3.5h3.648l-1.028-3.5C240.594,417.35,240.3,416.125,240.056,415.146Z" transform="translate(-215.19 -356.246)" fill="#f57c00"/>
        <path id="Trazado_105559" data-name="Trazado 105559" d="M132.278,18.727a1.506,1.506,0,0,0-.363-.992L116.847.524s-.009-.006-.012-.011a1.544,1.544,0,0,0-.305-.256c-.033-.021-.066-.04-.1-.06a1.609,1.609,0,0,0-.3-.127c-.029-.008-.054-.02-.082-.027A1.5,1.5,0,0,0,115.693,0H78.665A3.068,3.068,0,0,0,75.6,3.065V75.081a3.067,3.067,0,0,0,3.065,3.065H129.23a3.068,3.068,0,0,0,3.065-3.065V18.9A1.353,1.353,0,0,0,132.278,18.727ZM88.2,72.609a20.594,20.594,0,0,1-1.151-3.845c-.441-2.057-1.151-2.619-2.668-2.642H83.254v6.487h-3.7V56.329a32.737,32.737,0,0,1,4.969-.343c2.448,0,4.162.368,5.336,1.3a4.188,4.188,0,0,1,1.518,3.452A4.38,4.38,0,0,1,88.468,64.8v.073c1.149.465,1.787,1.568,2.2,3.085.513,1.861,1.028,4.016,1.346,4.651Zm15.94,0-1.273-4.235H98.14l-1.174,4.235H93.1l5.043-16.5h4.9l5.118,16.5Zm20.322,0h-4.04l-1.4-7.1c-.317-1.665-.588-3.207-.782-5.092h-.049c-.294,1.861-.563,3.427-.955,5.092l-1.567,7.1h-4.089l-3.917-16.5h3.989l1.25,6.805c.367,1.959.709,4.089.979,5.754h.049c.27-1.787.661-3.77,1.077-5.8l1.4-6.758h3.965l1.324,6.952c.367,1.935.636,3.7.881,5.534h.049c.244-1.835.612-3.77.953-5.729l1.347-6.758h3.795Zm-45.8-20.576V3.065h35.5v15.68a1.533,1.533,0,0,0,1.532,1.532H129.23V52.034Z" transform="translate(-75.6 0)" fill="#f57c00"/>
        <path id="Trazado_105560" data-name="Trazado 105560" d="M131.236,414.113a9.318,9.318,0,0,0-1.689.123v4.554h1.469c1.86,0,2.961-.931,2.961-2.375C133.977,414.9,132.95,414.138,131.236,414.113Z" transform="translate(-121.893 -355.36)" fill="#f57c00"/>
        <path id="Trazado_105561" data-name="Trazado 105561" d="M299.342,159.072l10.159-2.606a17.65,17.65,0,0,0-4.158-9.892Z" transform="translate(-267.598 -125.778)" fill="#26ccda"/>
        <path id="Trazado_105562" data-name="Trazado 105562" d="M184.389,218.746a17.654,17.654,0,0,0,8.075,7.07l-.085-13.865Z" transform="translate(-168.954 -181.879)" fill="#26ccda"/>
        <path id="Trazado_105563" data-name="Trazado 105563" d="M270.34,121.856a17.65,17.65,0,0,0-10.357-2.814l6.156,12.424Z" transform="translate(-233.823 -102.145)" fill="#26ccda"/>
        <path id="Trazado_105564" data-name="Trazado 105564" d="M249.808,249.363a17.649,17.649,0,0,0,10.541-2.012l-10.976-8.467Z" transform="translate(-224.719 -204.992)" fill="#26ccda"/>
        <path id="Trazado_105565" data-name="Trazado 105565" d="M196.66,121.216a17.643,17.643,0,0,0-8.593,6.429l13.578,2.8Z" transform="translate(-172.111 -104.018)" fill="#26ccda"/>
        <path id="Trazado_105566" data-name="Trazado 105566" d="M284.453,233.96a17.649,17.649,0,0,0,4.9-9.546l-13.43,3.438Z" transform="translate(-247.505 -192.575)" fill="#26ccda"/>
        <path id="Trazado_105567" data-name="Trazado 105567" d="M177.1,176.774a17.659,17.659,0,0,0-.225,10.73l10.565-8.978Z" transform="translate(-161.899 -151.694)" fill="#26ccda"/>
      </g>
    </g>
  </g>
</svg>
