<svg xmlns="http://www.w3.org/2000/svg" xmlns:xlink="http://www.w3.org/1999/xlink" width="136" height="132" viewBox="0 0 136 132">
  <defs>
    <clipPath id="clip-path">
      <rect id="Rect치ngulo_38236" data-name="Rect치ngulo 38236" width="91" height="91" fill="none"/>
    </clipPath>
  </defs>
  <g id="Grupo_120936" data-name="Grupo 120936" transform="translate(-475.285 -13678)">
    <rect id="Rect치ngulo_38234" data-name="Rect치ngulo 38234" width="136" height="132" rx="66" transform="translate(475.285 13678)" fill="#fff"/>
    <g id="Grupo_120935" data-name="Grupo 120935" transform="translate(497 13698.357)">
      <g id="Grupo_120934" data-name="Grupo 120934" clip-path="url(#clip-path)">
        <path id="Trazado_183264" data-name="Trazado 183264" d="M339.736,169.86,320,169.852l.018.016c-.017-.205-.049-.41-.049-.615q0-13.253,0-26.505c0-.205.032-.411.049-.615l-.018.016,19.732-.008v6.041a1.04,1.04,0,0,0-.253-.065c-4.346,0-8.691.006-13.037-.02-.611,0-.561.318-.56.72.005,4.789.015,9.578-.012,14.367,0,.608.193.724.75.719,3.1-.024,6.208,0,9.312-.018a30.462,30.462,0,0,0,3.8-.066Z" transform="translate(-248.736 -110.489)" fill="#020201"/>
        <path id="Trazado_183265" data-name="Trazado 183265" d="M169.853,320q0,9.866.007,19.732h-6.041a1.051,1.051,0,0,0,.065-.253c0-4.346-.006-8.691.02-13.037,0-.611-.318-.561-.72-.56-4.789.005-9.578.015-14.367-.012-.608,0-.723.193-.719.75.025,3.1,0,6.208.018,9.312a30.505,30.505,0,0,0,.066,3.8H142.14q0-9.866.008-19.732l-.016.018c.205-.017.41-.049.615-.049q13.253,0,26.506,0c.2,0,.41.032.615.049Z" transform="translate(-110.489 -248.736)" fill="#020201"/>
        <path id="Trazado_183266" data-name="Trazado 183266" d="M142.142,19.754c0-6.306.009-12.612-.017-18.917,0-.641.116-.863.807-.834,1.448.062,2.9.055,4.35,0,.653-.023.845.133.839.817-.036,4.026,0,8.053-.034,12.078-.006.725.1,1,.935.993q6.971-.076,13.943,0c.839.009.941-.268.935-.993-.033-4.026,0-8.052-.033-12.078-.006-.684.186-.84.839-.817,1.478.051,2.961.048,4.44,0,.6-.019.716.183.715.742-.02,6.335-.013,12.671-.014,19.006l.016-.018c-.205.017-.41.049-.615.049q-13.253,0-26.506,0c-.205,0-.41-.032-.615-.049Z" transform="translate(-110.483 0)" fill="#020201"/>
        <path id="Trazado_183267" data-name="Trazado 183267" d="M19.753,169.853c-6.306,0-12.612-.009-18.917.017-.641,0-.863-.116-.834-.807.062-1.448.055-2.9,0-4.35-.023-.653.133-.845.817-.839,4.026.036,8.052,0,12.078.034.725.006,1-.1.993-.935q-.076-6.971,0-13.943c.009-.839-.268-.941-.993-.935-4.026.033-8.053,0-12.078.033-.684.006-.84-.185-.817-.839.051-1.478.048-2.961,0-4.439-.019-.6.183-.717.741-.715,6.335.019,12.671.013,19.006.013l-.018-.015c.017.205.049.41.049.615q0,13.253,0,26.506c0,.205-.032.41-.049.615Z" transform="translate(0 -110.489)" fill="#020201"/>
        <path id="Trazado_183268" data-name="Trazado 183268" d="M88.651,88.671l11.919-.006-.016-.018c.006,1.773-.016,3.546.034,5.317.018.633-.239.717-.772.707-1.506-.028-3.014.01-4.52-.021-.5-.01-.656.142-.646.646.03,1.506-.008,3.014.021,4.52.01.533-.074.79-.707.772-1.771-.05-3.545-.028-5.317-.034l.018.015q0-5.958.005-11.918Z" transform="translate(-68.911 -68.911)" fill="#050402"/>
        <path id="Trazado_183269" data-name="Trazado 183269" d="M278.472,88.646q.005,5.962.01,11.923l.018-.016c-1.773.006-3.546-.016-5.317.034-.633.018-.717-.239-.707-.772.028-1.507-.01-3.014.021-4.52.01-.5-.142-.656-.646-.646-1.506.031-3.014-.008-4.52.021-.533.01-.79-.074-.772-.707.051-1.771.028-3.545.034-5.317l-.015.018h11.914l-.019-.019" transform="translate(-207.213 -68.911)" fill="#050402"/>
        <path id="Trazado_183270" data-name="Trazado 183270" d="M88.671,278.5q0-5.959-.006-11.918l-.018.015c1.773-.006,3.546.016,5.317-.034.633-.018.717.239.707.772-.028,1.506.01,3.014-.021,4.52-.01.5.142.656.646.646,1.506-.03,3.014.008,4.52-.021.533-.01.79.073.772.707-.051,1.771-.028,3.545-.034,5.317l.016-.018-11.918-.005Z" transform="translate(-68.911 -207.213)" fill="#050402"/>
        <path id="Trazado_183271" data-name="Trazado 183271" d="M41.481,41.4c-1.831.015-3.662.021-5.492.052-.4.006-.5-.146-.5-.518.013-1.626.021-3.252,0-4.877-.008-.491.2-.593.632-.588,1.567.018,3.134.036,4.7-.007.6-.017.663.232.656.73-.027,1.744-.012,3.488-.014,5.233l.023-.024" transform="translate(-27.584 -27.564)" fill="#090805"/>
        <path id="Trazado_183272" data-name="Trazado 183272" d="M346.507,41.465c-.008-1.8-.006-3.605-.032-5.407-.006-.412.1-.575.541-.569,1.625.021,3.252.018,4.877,0,.422,0,.569.142.565.564-.017,1.625-.02,3.251,0,4.877.006.439-.156.548-.569.542-1.8-.026-3.6-.023-5.407-.031Z" transform="translate(-269.339 -27.588)" fill="#090805"/>
        <path id="Trazado_183273" data-name="Trazado 183273" d="M41.4,346.424c.015,1.831.021,3.662.052,5.492.006.4-.146.5-.518.5-1.626-.013-3.252-.021-4.877,0-.491.008-.593-.2-.588-.633.018-1.566.036-3.134-.007-4.7-.017-.6.232-.663.73-.656,1.744.027,3.488.012,5.233.014l-.024-.023" transform="translate(-27.564 -269.299)" fill="#090805"/>
        <path id="Trazado_183274" data-name="Trazado 183274" d="M68.176,68.045c-1.825.019-3.651.028-5.476.065-.481.01-.414-.287-.413-.577q.012-2.7.027-5.4l-.022.024c1.776,0,3.553.012,5.329.009.347,0,.62-.027.606.484-.047,1.8-.05,3.606-.07,5.409l.019-.019" transform="translate(-48.417 -48.305)"/>
        <path id="Trazado_183275" data-name="Trazado 183275" d="M325.793,62.23c0,1.737-.014,3.475.018,5.212.01.539-.083.772-.7.748-1.732-.065-3.467-.058-5.2-.079l.019.019c-.018-1.792-.016-3.585-.067-5.376-.016-.565.3-.512.661-.511,1.765.008,3.53.008,5.3.011l-.023-.024" transform="translate(-248.648 -48.376)"/>
        <path id="Trazado_183276" data-name="Trazado 183276" d="M68.045,319.916c.019,1.825.028,3.651.065,5.476.01.481-.287.414-.577.413l-5.4-.027.024.022c0-1.777.012-3.553.009-5.329,0-.347-.027-.62.484-.606,1.8.047,3.606.05,5.409.07l-.019-.019" transform="translate(-48.305 -248.652)"/>
        <path id="Trazado_183277" data-name="Trazado 183277" d="M278.5,278.471l-11.923.01.016.018c-.006-1.772.016-3.546-.034-5.317-.018-.633.239-.717.772-.707,1.506.028,3.014-.01,4.52.02.5.01.656-.142.646-.646-.031-1.506.008-3.014-.021-4.52-.01-.533.073-.79.707-.772,1.771.051,3.545.028,5.317.034l-.018-.016q0,5.957,0,11.914l.019-.019" transform="translate(-207.213 -207.212)" fill="#050402"/>
        <path id="Trazado_183278" data-name="Trazado 183278" d="M346.482,346.507c1.8-.008,3.605-.006,5.407-.032.411-.006.575.1.569.541-.021,1.625-.018,3.251,0,4.877,0,.422-.141.569-.564.565-1.626-.017-3.252-.02-4.877,0-.439.006-.548-.156-.542-.569.026-1.8.023-3.6.031-5.407Z" transform="translate(-269.338 -269.339)" fill="#090805"/>
        <path id="Trazado_183279" data-name="Trazado 183279" d="M325.8,325.793c-1.737,0-3.475-.014-5.212.018-.539.01-.772-.083-.748-.7.065-1.733.058-3.468.079-5.2l-.019.019c1.792-.018,3.585-.016,5.376-.067.565-.016.512.3.511.661-.008,1.765-.008,3.53-.011,5.3l.024-.023" transform="translate(-248.631 -248.648)"/>
        <path id="Trazado_183280" data-name="Trazado 183280" d="M140.2,128.29c-1.773-.006-3.546.016-5.317-.034-.633-.018-.717.239-.707.772.028,1.506-.01,3.014.021,4.52.01.5-.142.656-.646.646-1.506-.031-3.014.008-4.52-.021-.533-.01-.79.073-.772.707.051,1.771.028,3.545.034,5.317-.205-.017-.41-.049-.615-.049q-13.253,0-26.505,0c-.205,0-.41.032-.616.049.006-1.773-.016-3.546.035-5.317.018-.633-.239-.717-.772-.707-1.506.028-3.014-.01-4.52.021-.5.01-.656-.142-.646-.646.03-1.506-.008-3.014.02-4.52.01-.533-.073-.79-.707-.772-1.771.051-3.545.028-5.317.034.017-.205.049-.41.049-.615q0-13.253,0-26.506c0-.205-.032-.41-.049-.615,1.772.006,3.546-.016,5.317.034.633.018.717-.239.707-.772-.028-1.506.01-3.014-.02-4.52-.01-.5.142-.656.646-.646,1.506.03,3.014-.007,4.52.021.533.01.79-.073.772-.707-.051-1.771-.028-3.545-.035-5.317.205.017.41.049.616.049q13.253,0,26.505,0c.205,0,.41-.032.615-.049-.006,1.773.016,3.546-.034,5.317-.018.633.239.717.772.707,1.506-.028,3.014.01,4.52-.021.5-.01.656.142.646.646-.03,1.506.008,3.014-.021,4.52-.01.533.073.79.707.772,1.771-.051,3.545-.028,5.317-.035-.017.205-.049.41-.049.615q0,13.253,0,26.506c0,.205.032.41.049.615" transform="translate(-68.912 -68.911)" fill="#fdd844"/>
      </g>
    </g>
  </g>
</svg>
