<svg xmlns="http://www.w3.org/2000/svg" width="819.201" height="249.227" viewBox="0 0 819.201 249.227">
  <g id="Grupo_120939" data-name="Grupo 120939" transform="translate(-391.084 -10625)">
    <g id="Grupo_120938" data-name="Grupo 120938">
      <g id="Grupo_120937" data-name="Grupo 120937">
        <g id="Grupo_120936" data-name="Grupo 120936">
          <path id="Trazado_183281" data-name="Trazado 183281" d="M0,0H670V191H0Z" transform="translate(540.285 10641)" fill="#fff3bf"/>
          <path id="Trazado_183282" data-name="Trazado 183282" d="M0,0H150.815V150.815H0Z" transform="translate(409.779 10694.502)" fill="#f57c00"/>
          <path id="Trazado_95438" data-name="Trazado 95438" d="M530.255,5274.666l-73.089,69.516.167,150.907,72.922-75.718Z" transform="translate(103.412 5350.334)" fill="#26c6da"/>
          <path id="Trazado_95439" data-name="Trazado 95439" d="M411.2,5274.667H559.737l-73.073,69.5H335.82Z" transform="translate(73.93 5350.334)" fill="#fdd835"/>
          <path id="Trazado_183283" data-name="Trazado 183283" d="M5.479-2.08a1.851,1.851,0,0,0,1.27-.43,1.506,1.506,0,0,0,.508-1.143H9.9a3.62,3.62,0,0,1-.586,1.968A3.866,3.866,0,0,1,7.739-.3,4.936,4.936,0,0,1,5.527.2a4.587,4.587,0,0,1-3.574-1.44A5.7,5.7,0,0,1,.645-5.225V-5.41a5.635,5.635,0,0,1,1.3-3.9,4.534,4.534,0,0,1,3.564-1.455A4.444,4.444,0,0,1,8.687-9.634a3.994,3.994,0,0,1,1.216,3H7.256a1.939,1.939,0,0,0-.508-1.34,1.693,1.693,0,0,0-1.289-.515,1.7,1.7,0,0,0-1.489.719,4.166,4.166,0,0,0-.5,2.333v.293a4.219,4.219,0,0,0,.5,2.347A1.721,1.721,0,0,0,5.479-2.08Z" transform="translate(614.867 10762.246)" fill="#111e61"/>
          <path id="Trazado_183284" data-name="Trazado 183284" d="M10.605-5.186a6.4,6.4,0,0,1-1.084,3.96A3.591,3.591,0,0,1,6.494.2,3.3,3.3,0,0,1,3.75-1.123L3.623,0H1.084V-15H3.906v5.381a3.214,3.214,0,0,1,2.568-1.143A3.62,3.62,0,0,1,9.507-9.341a6.408,6.408,0,0,1,1.1,4ZM7.783-5.4a4.227,4.227,0,0,0-.508-2.346,1.715,1.715,0,0,0-1.514-.74A1.861,1.861,0,0,0,3.906-7.379V-3.2A1.886,1.886,0,0,0,5.781-2.08a1.743,1.743,0,0,0,1.8-1.352A6.993,6.993,0,0,0,7.783-5.4Z" transform="translate(390 10711.502)" fill="#111e61"/>
          <path id="Trazado_183285" data-name="Trazado 183285" d="M7.207,0a3.134,3.134,0,0,1-.283-.947A3.415,3.415,0,0,1,4.258.2,3.752,3.752,0,0,1,1.685-.7,2.89,2.89,0,0,1,.664-2.969,2.986,2.986,0,0,1,1.909-5.547a6.144,6.144,0,0,1,3.6-.908h1.3v-.605a1.741,1.741,0,0,0-.376-1.172,1.479,1.479,0,0,0-1.187-.439,1.682,1.682,0,0,0-1.118.342,1.161,1.161,0,0,0-.405.938H.9a2.835,2.835,0,0,1,.566-1.7,3.744,3.744,0,0,1,1.6-1.226,5.837,5.837,0,0,1,2.324-.444,4.611,4.611,0,0,1,3.1.981A3.433,3.433,0,0,1,9.639-7.021v4.58a5.052,5.052,0,0,0,.42,2.275V0ZM4.873-1.963a2.431,2.431,0,0,0,1.152-.278,1.828,1.828,0,0,0,.781-.747V-4.8H5.752Q3.633-4.8,3.5-3.34l-.01.166a1.13,1.13,0,0,0,.371.869A1.441,1.441,0,0,0,4.873-1.963Z" transform="translate(549.057 10874.031)" fill="#111e61"/>
          <path id="Trazado_183286" data-name="Trazado 183286" d="M73.684,21H70.861V10.106l-3.369,1.04V8.871l5.889-2.109h.3Zm10.225-4.951h-5.5V13.773h5.5Zm11.367-.3a7.577,7.577,0,0,1-1.523,4,3.791,3.791,0,0,1-3.184,1.455,2.946,2.946,0,0,1-2.539-1.348L87.629,21h-2.51l2.6-15H90.48l-1.064,5.4a3.292,3.292,0,0,1,2.578-1.162,2.981,2.981,0,0,1,2.407,1.1,4.862,4.862,0,0,1,.933,2.983A11.415,11.415,0,0,1,95.275,15.746Zm-2.734-.206a8.192,8.192,0,0,0,.059-1.293q-.107-1.7-1.406-1.734a2.292,2.292,0,0,0-2.021,1.107l-.762,4.212a1.572,1.572,0,0,0,1.582,1.1q2.031.059,2.49-2.958Zm6.5,5.46H96.271l1.836-10.566h2.773ZM98.43,7.748a1.376,1.376,0,0,1,.43-1.084,1.653,1.653,0,0,1,2.168-.049,1.37,1.37,0,0,1,.479,1.035,1.415,1.415,0,0,1-.405,1.055,1.519,1.519,0,0,1-1.108.469A1.544,1.544,0,0,1,98.913,8.8,1.363,1.363,0,0,1,98.43,7.748Zm8.535.088-.459,2.6h1.758L107.9,12.5h-1.758l-.9,5.293a1.346,1.346,0,0,0,.078.762q.137.264.664.283.156.01.84-.049l-.2,2.158a4.632,4.632,0,0,1-1.582.225,2.482,2.482,0,0,1-2.021-.85,3.07,3.07,0,0,1-.547-2.246l.908-5.576H101.9l.361-2.07h1.494l.449-2.6ZM76.574,49H66.828V47.066l4.6-4.9a11.347,11.347,0,0,0,1.4-1.807,2.9,2.9,0,0,0,.454-1.465A2.172,2.172,0,0,0,72.8,37.4a1.727,1.727,0,0,0-1.367-.542,1.863,1.863,0,0,0-1.509.659,2.611,2.611,0,0,0-.552,1.733H66.545a4.661,4.661,0,0,1,.62-2.373A4.371,4.371,0,0,1,68.918,35.2a5.328,5.328,0,0,1,2.568-.61A5.045,5.045,0,0,1,74.9,35.641a3.731,3.731,0,0,1,1.216,2.979,4.781,4.781,0,0,1-.547,2.148,11.939,11.939,0,0,1-1.875,2.549l-3.232,3.408h6.113Zm7.334-4.951h-5.5V41.773h5.5Zm11.367-.3a7.577,7.577,0,0,1-1.523,4,3.791,3.791,0,0,1-3.184,1.455,2.946,2.946,0,0,1-2.539-1.348L87.629,49h-2.51l2.6-15H90.48l-1.064,5.4a3.292,3.292,0,0,1,2.578-1.162,2.981,2.981,0,0,1,2.407,1.1,4.862,4.862,0,0,1,.933,2.983A11.415,11.415,0,0,1,95.275,43.746Zm-2.734-.206a8.192,8.192,0,0,0,.059-1.293q-.107-1.7-1.406-1.734a2.292,2.292,0,0,0-2.021,1.107l-.762,4.212a1.572,1.572,0,0,0,1.582,1.1q2.031.059,2.49-2.958Zm6.5,5.46H96.271l1.836-10.566h2.773ZM98.43,35.748a1.376,1.376,0,0,1,.43-1.084,1.653,1.653,0,0,1,2.168-.049,1.37,1.37,0,0,1,.479,1.035,1.415,1.415,0,0,1-.405,1.055,1.519,1.519,0,0,1-1.108.469,1.544,1.544,0,0,1-1.079-.371A1.363,1.363,0,0,1,98.43,35.748Zm8.535.088-.459,2.6h1.758L107.9,40.5h-1.758l-.9,5.293a1.346,1.346,0,0,0,.078.762q.137.264.664.283.156.01.84-.049l-.2,2.158a4.632,4.632,0,0,1-1.582.225,2.482,2.482,0,0,1-2.021-.85,3.07,3.07,0,0,1-.547-2.246l.908-5.576H101.9l.361-2.07h1.494l.449-2.6ZM76.1,66.561a3.307,3.307,0,0,1-.518,1.836,3.725,3.725,0,0,1-1.426,1.279,4.124,4.124,0,0,1,1.641,1.372A3.52,3.52,0,0,1,76.4,73.1,3.727,3.727,0,0,1,75.109,76.1a6.147,6.147,0,0,1-7.021,0,3.718,3.718,0,0,1-1.3-2.988,3.542,3.542,0,0,1,.605-2.061,4.049,4.049,0,0,1,1.631-1.367A3.687,3.687,0,0,1,67.6,68.4a3.331,3.331,0,0,1-.513-1.836,3.685,3.685,0,0,1,1.211-2.9,5.571,5.571,0,0,1,6.577-.01A3.671,3.671,0,0,1,76.1,66.561ZM73.566,72.9a2.047,2.047,0,0,0-.537-1.484,2.149,2.149,0,0,0-2.881,0,2.316,2.316,0,0,0-.01,2.954,2.2,2.2,0,0,0,2.905.02A2.039,2.039,0,0,0,73.566,72.9Zm-.293-6.2a1.953,1.953,0,0,0-.439-1.333,1.788,1.788,0,0,0-2.471-.015,1.942,1.942,0,0,0-.439,1.348,2.041,2.041,0,0,0,.439,1.367,1.739,1.739,0,0,0,2.476,0A2.056,2.056,0,0,0,73.273,66.7Zm10.635,5.352h-5.5V69.773h5.5Zm11.367-.3a7.577,7.577,0,0,1-1.523,4,3.791,3.791,0,0,1-3.184,1.455,2.946,2.946,0,0,1-2.539-1.348L87.629,77h-2.51l2.6-15H90.48l-1.064,5.4a3.292,3.292,0,0,1,2.578-1.162,2.981,2.981,0,0,1,2.407,1.1,4.862,4.862,0,0,1,.933,2.983A11.415,11.415,0,0,1,95.275,71.746Zm-2.734-.206a8.192,8.192,0,0,0,.059-1.293q-.107-1.7-1.406-1.734a2.292,2.292,0,0,0-2.021,1.107l-.762,4.212a1.572,1.572,0,0,0,1.582,1.1q2.031.059,2.49-2.958Zm6.5,5.46H96.271l1.836-10.566h2.773ZM98.43,63.748a1.376,1.376,0,0,1,.43-1.084,1.653,1.653,0,0,1,2.168-.049,1.37,1.37,0,0,1,.479,1.035,1.415,1.415,0,0,1-.405,1.055,1.519,1.519,0,0,1-1.108.469,1.544,1.544,0,0,1-1.079-.371A1.363,1.363,0,0,1,98.43,63.748Zm8.535.088-.459,2.6h1.758L107.9,68.5h-1.758l-.9,5.293a1.346,1.346,0,0,0,.078.762q.137.264.664.283.156.01.84-.049l-.2,2.158a4.632,4.632,0,0,1-1.582.225,2.482,2.482,0,0,1-2.021-.85,3.07,3.07,0,0,1-.547-2.246l.908-5.576H101.9l.361-2.07h1.494l.449-2.6ZM65.1,105H55.354v-1.934l4.6-4.9a11.347,11.347,0,0,0,1.4-1.807,2.9,2.9,0,0,0,.454-1.465A2.172,2.172,0,0,0,61.33,93.4a1.727,1.727,0,0,0-1.367-.542,1.863,1.863,0,0,0-1.509.659,2.611,2.611,0,0,0-.552,1.733H55.07a4.661,4.661,0,0,1,.62-2.373A4.371,4.371,0,0,1,57.443,91.2a5.328,5.328,0,0,1,2.568-.61,5.045,5.045,0,0,1,3.413,1.055,3.731,3.731,0,0,1,1.216,2.979,4.781,4.781,0,0,1-.547,2.148,11.939,11.939,0,0,1-1.875,2.549l-3.232,3.408H65.1Zm10.078-5.352h1.611v2.275H75.178V105H72.355v-3.076h-5.83l-.127-1.777,5.928-9.365h2.852Zm-5.967,0h3.145v-5.02l-.186.322Zm14.7.4h-5.5V97.773h5.5Zm11.367-.3a7.577,7.577,0,0,1-1.523,4,3.791,3.791,0,0,1-3.184,1.455,2.946,2.946,0,0,1-2.539-1.348l-.4,1.143h-2.51l2.6-15H90.48l-1.064,5.4a3.292,3.292,0,0,1,2.578-1.162,2.981,2.981,0,0,1,2.407,1.1,4.862,4.862,0,0,1,.933,2.983A11.415,11.415,0,0,1,95.275,99.746Zm-2.734-.206a8.192,8.192,0,0,0,.059-1.293q-.107-1.7-1.406-1.734a2.292,2.292,0,0,0-2.021,1.107l-.762,4.212a1.572,1.572,0,0,0,1.582,1.1q2.031.059,2.49-2.958Zm6.5,5.46H96.271l1.836-10.566h2.773ZM98.43,91.748a1.376,1.376,0,0,1,.43-1.084,1.653,1.653,0,0,1,2.168-.049,1.37,1.37,0,0,1,.479,1.035,1.415,1.415,0,0,1-.405,1.055,1.519,1.519,0,0,1-1.108.469,1.544,1.544,0,0,1-1.079-.371A1.363,1.363,0,0,1,98.43,91.748Zm8.535.088-.459,2.6h1.758L107.9,96.5h-1.758l-.9,5.293a1.346,1.346,0,0,0,.078.762q.137.264.664.283.156.01.84-.049l-.2,2.158a4.632,4.632,0,0,1-1.582.225,2.482,2.482,0,0,1-2.021-.85,3.07,3.07,0,0,1-.547-2.246l.908-5.576H101.9l.361-2.07h1.494l.449-2.6Z" transform="translate(685 10682.5)" fill="#12263f"/>
          <path id="Trazado_183287" data-name="Trazado 183287" d="M14.336,11.715H5.605V9.41h8.73Zm0,4.229H5.605v-2.3h8.73Zm0,23.771H5.605v-2.3h8.73Zm0,4.229H5.605v-2.3h8.73Zm0,23.771H5.605v-2.3h8.73Zm0,4.229H5.605v-2.3h8.73Zm0,23.771H5.605v-2.3h8.73Zm0,4.229H5.605v-2.3h8.73Z" transform="translate(825.285 10682.5)" fill="#12263f"/>
          <path id="Trazado_183288" data-name="Trazado 183288" d="M10.713,19H.967V17.066l4.6-4.9a11.347,11.347,0,0,0,1.4-1.807,2.9,2.9,0,0,0,.454-1.465A2.172,2.172,0,0,0,6.943,7.4a1.727,1.727,0,0,0-1.367-.542,1.863,1.863,0,0,0-1.509.659,2.611,2.611,0,0,0-.552,1.733H.684A4.661,4.661,0,0,1,1.3,6.881,4.371,4.371,0,0,1,3.057,5.2a5.328,5.328,0,0,1,2.568-.61A5.045,5.045,0,0,1,9.038,5.641a3.731,3.731,0,0,1,1.216,2.979,4.781,4.781,0,0,1-.547,2.148,11.939,11.939,0,0,1-1.875,2.549L4.6,16.725h6.113Zm11.221-2.08a1.851,1.851,0,0,0,1.27-.43,1.506,1.506,0,0,0,.508-1.143h2.646a3.62,3.62,0,0,1-.586,1.968A3.866,3.866,0,0,1,24.194,18.7a4.936,4.936,0,0,1-2.212.493,4.587,4.587,0,0,1-3.574-1.44A5.7,5.7,0,0,1,17.1,13.775V13.59a5.635,5.635,0,0,1,1.3-3.9,4.534,4.534,0,0,1,3.564-1.455,4.444,4.444,0,0,1,3.179,1.128,3.994,3.994,0,0,1,1.216,3H23.711a1.939,1.939,0,0,0-.508-1.34,1.887,1.887,0,0,0-2.778.2,4.166,4.166,0,0,0-.5,2.333v.293a4.219,4.219,0,0,0,.5,2.347A1.721,1.721,0,0,0,21.934,16.92Zm5.6-3.3a6.266,6.266,0,0,1,.605-2.8,4.432,4.432,0,0,1,1.743-1.9,5.086,5.086,0,0,1,2.642-.674,4.812,4.812,0,0,1,3.491,1.309A5.252,5.252,0,0,1,37.52,13.1l.02.723a5.523,5.523,0,0,1-1.357,3.9,4.718,4.718,0,0,1-3.643,1.47,4.742,4.742,0,0,1-3.647-1.465,5.62,5.62,0,0,1-1.362-3.984Zm2.822.2a3.95,3.95,0,0,0,.566,2.3,2.035,2.035,0,0,0,3.223.01,4.322,4.322,0,0,0,.576-2.518,3.91,3.91,0,0,0-.576-2.289,1.873,1.873,0,0,0-1.621-.812,1.842,1.842,0,0,0-1.6.807A4.395,4.395,0,0,0,30.352,13.819ZM42.256,19H39.424V4h2.832Zm1.885-5.381a6.267,6.267,0,0,1,.605-2.8,4.432,4.432,0,0,1,1.743-1.9,5.086,5.086,0,0,1,2.642-.674,4.812,4.812,0,0,1,3.491,1.309A5.252,5.252,0,0,1,54.131,13.1l.02.723a5.523,5.523,0,0,1-1.357,3.9,5.261,5.261,0,0,1-7.29,0,5.62,5.62,0,0,1-1.362-3.984Zm2.822.2a3.95,3.95,0,0,0,.566,2.3,2.035,2.035,0,0,0,3.223.01,4.322,4.322,0,0,0,.576-2.518,3.91,3.91,0,0,0-.576-2.289,1.873,1.873,0,0,0-1.621-.812,1.842,1.842,0,0,0-1.6.807A4.395,4.395,0,0,0,46.963,13.819ZM61.826,11.08A7.667,7.667,0,0,0,60.811,11a2.067,2.067,0,0,0-2.1,1.084V19H55.889V8.434h2.666l.078,1.26a2.615,2.615,0,0,1,2.354-1.455,2.957,2.957,0,0,1,.879.127ZM67.861,19.2a5.187,5.187,0,0,1-3.784-1.426,5.068,5.068,0,0,1-1.46-3.8V13.7a6.383,6.383,0,0,1,.615-2.847,4.515,4.515,0,0,1,1.743-1.934,4.893,4.893,0,0,1,2.573-.679,4.385,4.385,0,0,1,3.413,1.367,5.555,5.555,0,0,1,1.245,3.877v1.152H65.479a2.622,2.622,0,0,0,.825,1.66,2.5,2.5,0,0,0,1.743.625A3.046,3.046,0,0,0,70.6,15.738l1.387,1.553a4.237,4.237,0,0,1-1.719,1.4A5.639,5.639,0,0,1,67.861,19.2Zm-.322-8.682a1.764,1.764,0,0,0-1.362.569,2.946,2.946,0,0,0-.669,1.628h3.926v-.226a2.1,2.1,0,0,0-.508-1.457A1.819,1.819,0,0,0,67.539,10.514ZM79.531,16.08a.909.909,0,0,0-.513-.815,5.824,5.824,0,0,0-1.646-.532q-3.77-.791-3.77-3.2a2.9,2.9,0,0,1,1.167-2.349,4.708,4.708,0,0,1,3.052-.942,5.067,5.067,0,0,1,3.218.947,2.985,2.985,0,0,1,1.206,2.461H79.424a1.366,1.366,0,0,0-.391-1,1.653,1.653,0,0,0-1.221-.4,1.689,1.689,0,0,0-1.1.322,1.017,1.017,0,0,0-.391.82.87.87,0,0,0,.444.757,4.571,4.571,0,0,0,1.5.5,12.244,12.244,0,0,1,1.777.474,2.92,2.92,0,0,1,2.236,2.842,2.756,2.756,0,0,1-1.24,2.339,5.35,5.35,0,0,1-3.2.894,5.588,5.588,0,0,1-2.358-.474,3.957,3.957,0,0,1-1.616-1.3,3.018,3.018,0,0,1-.586-1.782h2.676a1.473,1.473,0,0,0,.557,1.152,2.208,2.208,0,0,0,1.387.4,2.044,2.044,0,0,0,1.226-.308A.957.957,0,0,0,79.531,16.08ZM9.316,41.648h1.611v2.275H9.316V47H6.494V43.924H.664L.537,42.146l5.928-9.365H9.316Zm-5.967,0H6.494v-5.02l-.186.322ZM21.934,44.92a1.851,1.851,0,0,0,1.27-.43,1.506,1.506,0,0,0,.508-1.143h2.646a3.62,3.62,0,0,1-.586,1.968A3.866,3.866,0,0,1,24.194,46.7a4.936,4.936,0,0,1-2.212.493,4.587,4.587,0,0,1-3.574-1.44A5.7,5.7,0,0,1,17.1,41.775V41.59a5.635,5.635,0,0,1,1.3-3.9,4.534,4.534,0,0,1,3.564-1.455,4.444,4.444,0,0,1,3.179,1.128,3.994,3.994,0,0,1,1.216,3H23.711a1.939,1.939,0,0,0-.508-1.34,1.887,1.887,0,0,0-2.778.2,4.166,4.166,0,0,0-.5,2.333v.293a4.219,4.219,0,0,0,.5,2.347A1.721,1.721,0,0,0,21.934,44.92Zm5.6-3.3a6.266,6.266,0,0,1,.605-2.8,4.432,4.432,0,0,1,1.743-1.9,5.086,5.086,0,0,1,2.642-.674,4.812,4.812,0,0,1,3.491,1.309A5.252,5.252,0,0,1,37.52,41.1l.02.723a5.523,5.523,0,0,1-1.357,3.9,4.718,4.718,0,0,1-3.643,1.47,4.742,4.742,0,0,1-3.647-1.465,5.62,5.62,0,0,1-1.362-3.984Zm2.822.2a3.95,3.95,0,0,0,.566,2.3,2.035,2.035,0,0,0,3.223.01,4.322,4.322,0,0,0,.576-2.518,3.91,3.91,0,0,0-.576-2.289,1.873,1.873,0,0,0-1.621-.812,1.842,1.842,0,0,0-1.6.807A4.395,4.395,0,0,0,30.352,41.819ZM42.256,47H39.424V32h2.832Zm1.885-5.381a6.267,6.267,0,0,1,.605-2.8,4.432,4.432,0,0,1,1.743-1.9,5.086,5.086,0,0,1,2.642-.674,4.812,4.812,0,0,1,3.491,1.309A5.252,5.252,0,0,1,54.131,41.1l.02.723a5.523,5.523,0,0,1-1.357,3.9,5.261,5.261,0,0,1-7.29,0,5.62,5.62,0,0,1-1.362-3.984Zm2.822.2a3.95,3.95,0,0,0,.566,2.3,2.035,2.035,0,0,0,3.223.01,4.322,4.322,0,0,0,.576-2.518,3.91,3.91,0,0,0-.576-2.289,1.873,1.873,0,0,0-1.621-.812,1.842,1.842,0,0,0-1.6.807A4.395,4.395,0,0,0,46.963,41.819ZM61.826,39.08A7.667,7.667,0,0,0,60.811,39a2.067,2.067,0,0,0-2.1,1.084V47H55.889V36.434h2.666l.078,1.26a2.615,2.615,0,0,1,2.354-1.455,2.957,2.957,0,0,1,.879.127ZM67.861,47.2a5.187,5.187,0,0,1-3.784-1.426,5.068,5.068,0,0,1-1.46-3.8V41.7a6.383,6.383,0,0,1,.615-2.847,4.515,4.515,0,0,1,1.743-1.934,4.893,4.893,0,0,1,2.573-.679,4.385,4.385,0,0,1,3.413,1.367,5.555,5.555,0,0,1,1.245,3.877v1.152H65.479a2.622,2.622,0,0,0,.825,1.66,2.494,2.494,0,0,0,1.743.625A3.046,3.046,0,0,0,70.6,43.738l1.387,1.553a4.237,4.237,0,0,1-1.719,1.4A5.639,5.639,0,0,1,67.861,47.2Zm-.322-8.682a1.764,1.764,0,0,0-1.362.569,2.946,2.946,0,0,0-.669,1.628h3.926v-.226a2.1,2.1,0,0,0-.508-1.457A1.819,1.819,0,0,0,67.539,38.514ZM79.531,44.08a.909.909,0,0,0-.513-.815,5.824,5.824,0,0,0-1.646-.532q-3.77-.791-3.77-3.2a2.9,2.9,0,0,1,1.167-2.349,4.708,4.708,0,0,1,3.052-.942,5.067,5.067,0,0,1,3.218.947,2.985,2.985,0,0,1,1.206,2.461H79.424a1.366,1.366,0,0,0-.391-1,1.653,1.653,0,0,0-1.221-.4,1.689,1.689,0,0,0-1.1.322,1.017,1.017,0,0,0-.391.82.87.87,0,0,0,.444.757,4.571,4.571,0,0,0,1.5.5,12.244,12.244,0,0,1,1.777.474,2.92,2.92,0,0,1,2.236,2.842,2.756,2.756,0,0,1-1.24,2.339,5.35,5.35,0,0,1-3.2.894,5.588,5.588,0,0,1-2.358-.474,3.957,3.957,0,0,1-1.616-1.3,3.018,3.018,0,0,1-.586-1.782h2.676a1.473,1.473,0,0,0,.557,1.152,2.208,2.208,0,0,0,1.387.4,2.044,2.044,0,0,0,1.226-.308A.957.957,0,0,0,79.531,44.08ZM10.713,75H.967V73.066l4.6-4.9a11.347,11.347,0,0,0,1.4-1.807,2.9,2.9,0,0,0,.454-1.465A2.172,2.172,0,0,0,6.943,63.4a1.727,1.727,0,0,0-1.367-.542,1.863,1.863,0,0,0-1.509.659,2.611,2.611,0,0,0-.552,1.733H.684a4.661,4.661,0,0,1,.62-2.373A4.371,4.371,0,0,1,3.057,61.2a5.328,5.328,0,0,1,2.568-.61,5.045,5.045,0,0,1,3.413,1.055,3.731,3.731,0,0,1,1.216,2.979,4.781,4.781,0,0,1-.547,2.148,11.939,11.939,0,0,1-1.875,2.549L4.6,72.725h6.113Zm2.148-6.992.82-7.227H21.65v2.354H16l-.352,3.057a4.475,4.475,0,0,1,2.139-.537,4.1,4.1,0,0,1,3.184,1.26,5.032,5.032,0,0,1,1.152,3.525,5.155,5.155,0,0,1-.581,2.466,4.1,4.1,0,0,1-1.665,1.689,5.2,5.2,0,0,1-2.559.6,5.52,5.52,0,0,1-2.393-.522,4.244,4.244,0,0,1-1.743-1.47,4.006,4.006,0,0,1-.679-2.158h2.793a2.086,2.086,0,0,0,.62,1.382,1.966,1.966,0,0,0,1.392.493,1.735,1.735,0,0,0,1.475-.688,3.189,3.189,0,0,0,.518-1.948,2.637,2.637,0,0,0-.6-1.855,2.186,2.186,0,0,0-1.689-.645,2.443,2.443,0,0,0-1.631.527l-.273.254Zm18.711-7.373v2.324H31.3a4.8,4.8,0,0,0-3.081,1,4.047,4.047,0,0,0-1.4,2.686,3.844,3.844,0,0,1,2.861-1.152,3.622,3.622,0,0,1,2.949,1.328,5.324,5.324,0,0,1,1.094,3.5,5.237,5.237,0,0,1-.6,2.51,4.307,4.307,0,0,1-1.7,1.748,4.937,4.937,0,0,1-2.485.625,4.611,4.611,0,0,1-3.628-1.562,6.065,6.065,0,0,1-1.382-4.17V68.447A9.128,9.128,0,0,1,24.8,64.36a6.409,6.409,0,0,1,2.51-2.744,7.354,7.354,0,0,1,3.794-.981Zm-2.754,7.129a2.255,2.255,0,0,0-1.24.356,2.143,2.143,0,0,0-.82.941v.858a3.8,3.8,0,0,0,.557,2.208,1.8,1.8,0,0,0,1.563.794,1.779,1.779,0,0,0,1.47-.716,3.363,3.363,0,0,0,0-3.728A1.846,1.846,0,0,0,28.818,67.764ZM44.883,72.92a1.851,1.851,0,0,0,1.27-.43,1.506,1.506,0,0,0,.508-1.143h2.646a3.62,3.62,0,0,1-.586,1.968A3.866,3.866,0,0,1,47.144,74.7a4.936,4.936,0,0,1-2.212.493,4.587,4.587,0,0,1-3.574-1.44,5.7,5.7,0,0,1-1.309-3.979V69.59a5.635,5.635,0,0,1,1.3-3.9,4.534,4.534,0,0,1,3.564-1.455,4.444,4.444,0,0,1,3.179,1.128,3.994,3.994,0,0,1,1.216,3H46.66a1.939,1.939,0,0,0-.508-1.34,1.887,1.887,0,0,0-2.778.2,4.166,4.166,0,0,0-.5,2.333v.293a4.219,4.219,0,0,0,.5,2.347A1.721,1.721,0,0,0,44.883,72.92Zm5.6-3.3a6.267,6.267,0,0,1,.605-2.8,4.432,4.432,0,0,1,1.743-1.9,5.086,5.086,0,0,1,2.642-.674,4.812,4.812,0,0,1,3.491,1.309A5.252,5.252,0,0,1,60.469,69.1l.02.723a5.523,5.523,0,0,1-1.357,3.9,5.261,5.261,0,0,1-7.29,0,5.62,5.62,0,0,1-1.362-3.984Zm2.822.2a3.95,3.95,0,0,0,.566,2.3,2.035,2.035,0,0,0,3.223.01,4.322,4.322,0,0,0,.576-2.518,3.91,3.91,0,0,0-.576-2.289,1.873,1.873,0,0,0-1.621-.812,1.842,1.842,0,0,0-1.6.807A4.395,4.395,0,0,0,53.3,69.819ZM65.205,75H62.373V60h2.832Zm1.885-5.381a6.266,6.266,0,0,1,.605-2.8,4.432,4.432,0,0,1,1.743-1.9,5.086,5.086,0,0,1,2.642-.674,4.812,4.812,0,0,1,3.491,1.309A5.252,5.252,0,0,1,77.08,69.1l.02.723a5.523,5.523,0,0,1-1.357,3.9,5.261,5.261,0,0,1-7.29,0,5.62,5.62,0,0,1-1.362-3.984Zm2.822.2a3.95,3.95,0,0,0,.566,2.3,2.035,2.035,0,0,0,3.223.01,4.322,4.322,0,0,0,.576-2.518,3.91,3.91,0,0,0-.576-2.289,1.873,1.873,0,0,0-1.621-.812,1.842,1.842,0,0,0-1.6.807A4.395,4.395,0,0,0,69.912,69.819ZM84.775,67.08A7.667,7.667,0,0,0,83.76,67a2.067,2.067,0,0,0-2.1,1.084V75H78.838V64.434H81.5l.078,1.26a2.615,2.615,0,0,1,2.354-1.455,2.957,2.957,0,0,1,.879.127ZM90.811,75.2a5.187,5.187,0,0,1-3.784-1.426,5.068,5.068,0,0,1-1.46-3.8V69.7a6.383,6.383,0,0,1,.615-2.847,4.515,4.515,0,0,1,1.743-1.934,4.893,4.893,0,0,1,2.573-.679,4.385,4.385,0,0,1,3.413,1.367,5.555,5.555,0,0,1,1.245,3.877v1.152H88.428a2.622,2.622,0,0,0,.825,1.66A2.5,2.5,0,0,0,91,72.92a3.046,3.046,0,0,0,2.549-1.182l1.387,1.553a4.237,4.237,0,0,1-1.719,1.4A5.639,5.639,0,0,1,90.811,75.2Zm-.322-8.682a1.764,1.764,0,0,0-1.362.569,2.946,2.946,0,0,0-.669,1.628h3.926v-.226a2.1,2.1,0,0,0-.508-1.457A1.819,1.819,0,0,0,90.488,66.514ZM102.48,72.08a.909.909,0,0,0-.513-.815,5.824,5.824,0,0,0-1.646-.532q-3.77-.791-3.77-3.2a2.9,2.9,0,0,1,1.167-2.349,4.707,4.707,0,0,1,3.052-.942,5.067,5.067,0,0,1,3.218.947,2.985,2.985,0,0,1,1.206,2.461h-2.822a1.366,1.366,0,0,0-.391-1,1.653,1.653,0,0,0-1.221-.4,1.689,1.689,0,0,0-1.1.322,1.017,1.017,0,0,0-.391.82.87.87,0,0,0,.444.757,4.571,4.571,0,0,0,1.5.5,12.244,12.244,0,0,1,1.777.474,2.92,2.92,0,0,1,2.236,2.842,2.756,2.756,0,0,1-1.24,2.339,5.35,5.35,0,0,1-3.2.894,5.588,5.588,0,0,1-2.358-.474,3.957,3.957,0,0,1-1.616-1.3,3.018,3.018,0,0,1-.586-1.782H98.9a1.473,1.473,0,0,0,.557,1.152,2.208,2.208,0,0,0,1.387.4,2.044,2.044,0,0,0,1.226-.308A.957.957,0,0,0,102.48,72.08ZM7.822,103H5V92.106l-3.369,1.04V90.871L7.52,88.762h.3ZM20.1,88.635v2.324h-.273a4.8,4.8,0,0,0-3.081,1,4.047,4.047,0,0,0-1.4,2.686A3.844,3.844,0,0,1,18.2,93.488a3.622,3.622,0,0,1,2.949,1.328,5.324,5.324,0,0,1,1.094,3.5,5.237,5.237,0,0,1-.6,2.51,4.307,4.307,0,0,1-1.7,1.748,4.937,4.937,0,0,1-2.485.625,4.611,4.611,0,0,1-3.628-1.562,6.065,6.065,0,0,1-1.382-4.17V96.447a9.128,9.128,0,0,1,.874-4.087,6.409,6.409,0,0,1,2.51-2.744,7.354,7.354,0,0,1,3.794-.981Zm-2.754,7.129a2.255,2.255,0,0,0-1.24.356,2.143,2.143,0,0,0-.82.941v.858a3.8,3.8,0,0,0,.557,2.208,1.8,1.8,0,0,0,1.563.794,1.779,1.779,0,0,0,1.47-.716,3.363,3.363,0,0,0,0-3.728A1.846,1.846,0,0,0,17.344,95.764Zm7.422,10.8-1.475-.771.352-.635a5.074,5.074,0,0,0,.674-2.373V100.6H26.7l-.01,1.953a5.074,5.074,0,0,1-.547,2.188A5.608,5.608,0,0,1,24.766,106.564Zm13.7-16.208L32.969,103H29.99L35.5,91.057h-7.07V88.781H38.467Zm9.551,2.077.088,1.182a3.713,3.713,0,0,1,3.037-1.377,2.818,2.818,0,0,1,2.8,1.611,3.628,3.628,0,0,1,3.174-1.611,3.152,3.152,0,0,1,2.559,1,4.6,4.6,0,0,1,.84,3.013V103H57.686V96.246a2.02,2.02,0,0,0-.352-1.316,1.556,1.556,0,0,0-1.24-.416,1.762,1.762,0,0,0-1.758,1.214l.01,7.273H51.523V96.256a2,2,0,0,0-.361-1.331,1.571,1.571,0,0,0-1.23-.411,1.828,1.828,0,0,0-1.738,1V103H45.371V92.434ZM65.664,103H62.832V92.434h2.832Zm-3-13.3a1.39,1.39,0,0,1,.425-1.045,1.831,1.831,0,0,1,2.31,0,1.491,1.491,0,0,1,0,2.1,1.81,1.81,0,0,1-2.295,0A1.386,1.386,0,0,1,62.666,89.7Zm8.3,13.3H68.135V88h2.832Zm5.3,0H73.438V88H76.27Zm1.885-5.381a6.266,6.266,0,0,1,.605-2.8,4.432,4.432,0,0,1,1.743-1.9,5.086,5.086,0,0,1,2.642-.674,4.812,4.812,0,0,1,3.491,1.309A5.252,5.252,0,0,1,88.145,97.1l.02.723a5.523,5.523,0,0,1-1.357,3.9,5.261,5.261,0,0,1-7.29,0,5.62,5.62,0,0,1-1.362-3.984Zm2.822.2a3.95,3.95,0,0,0,.566,2.3,2.035,2.035,0,0,0,3.223.01,4.322,4.322,0,0,0,.576-2.518,3.91,3.91,0,0,0-.576-2.289,1.873,1.873,0,0,0-1.621-.812,1.842,1.842,0,0,0-1.6.807A4.395,4.395,0,0,0,80.977,97.819ZM92.5,92.434l.088,1.221a3.689,3.689,0,0,1,3.037-1.416,3.066,3.066,0,0,1,2.5.986,4.6,4.6,0,0,1,.84,2.949V103H96.143V96.227a1.838,1.838,0,0,0-.391-1.307,1.746,1.746,0,0,0-1.3-.406,1.941,1.941,0,0,0-1.787,1.018V103H89.844V92.434ZM105.967,103.2a5.187,5.187,0,0,1-3.784-1.426,5.068,5.068,0,0,1-1.46-3.8V97.7a6.383,6.383,0,0,1,.615-2.847,4.515,4.515,0,0,1,1.743-1.934,4.893,4.893,0,0,1,2.573-.679,4.385,4.385,0,0,1,3.413,1.367,5.555,5.555,0,0,1,1.245,3.877v1.152h-6.729a2.622,2.622,0,0,0,.825,1.66,2.5,2.5,0,0,0,1.743.625,3.046,3.046,0,0,0,2.549-1.182l1.387,1.553a4.237,4.237,0,0,1-1.719,1.4A5.639,5.639,0,0,1,105.967,103.2Zm-.322-8.682a1.764,1.764,0,0,0-1.362.569,2.946,2.946,0,0,0-.669,1.628h3.926v-.226a2.1,2.1,0,0,0-.508-1.457A1.819,1.819,0,0,0,105.645,94.514Zm11.992,5.566a.909.909,0,0,0-.513-.815,5.824,5.824,0,0,0-1.646-.532q-3.77-.791-3.77-3.2a2.9,2.9,0,0,1,1.167-2.349,4.707,4.707,0,0,1,3.052-.942,5.067,5.067,0,0,1,3.218.947,2.985,2.985,0,0,1,1.206,2.461h-2.822a1.366,1.366,0,0,0-.391-1,1.653,1.653,0,0,0-1.221-.4,1.689,1.689,0,0,0-1.1.322,1.017,1.017,0,0,0-.391.82.87.87,0,0,0,.444.757,4.571,4.571,0,0,0,1.5.5,12.244,12.244,0,0,1,1.777.474,2.92,2.92,0,0,1,2.236,2.842,2.756,2.756,0,0,1-1.24,2.339,5.35,5.35,0,0,1-3.2.894,5.588,5.588,0,0,1-2.358-.474,3.957,3.957,0,0,1-1.616-1.3,3.018,3.018,0,0,1-.586-1.782h2.676a1.473,1.473,0,0,0,.557,1.152,2.208,2.208,0,0,0,1.387.4,2.044,2.044,0,0,0,1.226-.308A.957.957,0,0,0,117.637,100.08Zm9.1-2.441a6.368,6.368,0,0,1,1.108-3.936,3.6,3.6,0,0,1,3.032-1.465,3.236,3.236,0,0,1,2.549,1.152V88h2.832v15h-2.549l-.137-1.123a3.321,3.321,0,0,1-2.715,1.318,3.587,3.587,0,0,1-2.993-1.47A6.573,6.573,0,0,1,126.738,97.639Zm2.822.2a4.194,4.194,0,0,0,.518,2.286,1.685,1.685,0,0,0,1.5.795,1.888,1.888,0,0,0,1.846-1.109V95.622a1.861,1.861,0,0,0-1.826-1.109Q129.561,94.514,129.561,97.839Zm13.75,5.356a5.187,5.187,0,0,1-3.784-1.426,5.068,5.068,0,0,1-1.46-3.8V97.7a6.383,6.383,0,0,1,.615-2.847,4.515,4.515,0,0,1,1.743-1.934A4.893,4.893,0,0,1,143,92.238a4.385,4.385,0,0,1,3.413,1.367,5.555,5.555,0,0,1,1.245,3.877v1.152h-6.729a2.622,2.622,0,0,0,.825,1.66,2.5,2.5,0,0,0,1.743.625,3.046,3.046,0,0,0,2.549-1.182l1.387,1.553a4.237,4.237,0,0,1-1.719,1.4A5.639,5.639,0,0,1,143.311,103.2Zm-.322-8.682a1.764,1.764,0,0,0-1.362.569,2.946,2.946,0,0,0-.669,1.628h3.926v-.226a2.1,2.1,0,0,0-.508-1.457A1.819,1.819,0,0,0,142.988,94.514Zm15.645,6.406a1.851,1.851,0,0,0,1.27-.43,1.506,1.506,0,0,0,.508-1.143h2.646a3.62,3.62,0,0,1-.586,1.968,3.866,3.866,0,0,1-1.577,1.387,4.936,4.936,0,0,1-2.212.493,4.587,4.587,0,0,1-3.574-1.44,5.7,5.7,0,0,1-1.309-3.979V97.59a5.635,5.635,0,0,1,1.3-3.9,4.534,4.534,0,0,1,3.564-1.455,4.444,4.444,0,0,1,3.179,1.128,3.994,3.994,0,0,1,1.216,3H160.41a1.939,1.939,0,0,0-.508-1.34,1.887,1.887,0,0,0-2.778.2,4.166,4.166,0,0,0-.5,2.333v.293a4.219,4.219,0,0,0,.5,2.347A1.721,1.721,0,0,0,158.633,100.92Zm5.6-3.3a6.267,6.267,0,0,1,.605-2.8,4.432,4.432,0,0,1,1.743-1.9,5.086,5.086,0,0,1,2.642-.674,4.812,4.812,0,0,1,3.491,1.309,5.252,5.252,0,0,1,1.509,3.555l.02.723a5.523,5.523,0,0,1-1.357,3.9,5.261,5.261,0,0,1-7.29,0,5.62,5.62,0,0,1-1.362-3.984Zm2.822.2a3.95,3.95,0,0,0,.566,2.3,2.035,2.035,0,0,0,3.223.01,4.322,4.322,0,0,0,.576-2.518,3.91,3.91,0,0,0-.576-2.289,1.873,1.873,0,0,0-1.621-.812,1.842,1.842,0,0,0-1.6.807A4.395,4.395,0,0,0,167.051,97.819Zm11.9,5.181h-2.832V88h2.832Zm1.885-5.381a6.267,6.267,0,0,1,.605-2.8,4.432,4.432,0,0,1,1.743-1.9,5.086,5.086,0,0,1,2.642-.674,4.812,4.812,0,0,1,3.491,1.309A5.252,5.252,0,0,1,190.83,97.1l.02.723a5.523,5.523,0,0,1-1.357,3.9,5.261,5.261,0,0,1-7.29,0,5.62,5.62,0,0,1-1.362-3.984Zm2.822.2a3.95,3.95,0,0,0,.566,2.3,2.035,2.035,0,0,0,3.223.01,4.322,4.322,0,0,0,.576-2.518,3.91,3.91,0,0,0-.576-2.289,1.873,1.873,0,0,0-1.621-.812,1.842,1.842,0,0,0-1.6.807A4.395,4.395,0,0,0,183.662,97.819Zm14.863-2.739A7.667,7.667,0,0,0,197.51,95a2.067,2.067,0,0,0-2.1,1.084V103h-2.822V92.434h2.666l.078,1.26a2.615,2.615,0,0,1,2.354-1.455,2.957,2.957,0,0,1,.879.127Zm6.035,8.115a5.187,5.187,0,0,1-3.784-1.426,5.068,5.068,0,0,1-1.46-3.8V97.7a6.383,6.383,0,0,1,.615-2.847,4.515,4.515,0,0,1,1.743-1.934,4.893,4.893,0,0,1,2.573-.679,4.385,4.385,0,0,1,3.413,1.367,5.555,5.555,0,0,1,1.245,3.877v1.152h-6.729a2.622,2.622,0,0,0,.825,1.66,2.5,2.5,0,0,0,1.743.625,3.046,3.046,0,0,0,2.549-1.182l1.387,1.553a4.237,4.237,0,0,1-1.719,1.4A5.639,5.639,0,0,1,204.561,103.2Zm-.322-8.682a1.764,1.764,0,0,0-1.362.569,2.946,2.946,0,0,0-.669,1.628h3.926v-.226a2.1,2.1,0,0,0-.508-1.457A1.819,1.819,0,0,0,204.238,94.514Zm11.992,5.566a.909.909,0,0,0-.513-.815,5.824,5.824,0,0,0-1.646-.532q-3.77-.791-3.77-3.2a2.9,2.9,0,0,1,1.167-2.349,4.707,4.707,0,0,1,3.052-.942,5.067,5.067,0,0,1,3.218.947,2.985,2.985,0,0,1,1.206,2.461h-2.822a1.366,1.366,0,0,0-.391-1,1.653,1.653,0,0,0-1.221-.4,1.689,1.689,0,0,0-1.1.322,1.017,1.017,0,0,0-.391.82.87.87,0,0,0,.444.757,4.571,4.571,0,0,0,1.5.5,12.244,12.244,0,0,1,1.777.474,2.92,2.92,0,0,1,2.236,2.842,2.756,2.756,0,0,1-1.24,2.339,5.35,5.35,0,0,1-3.2.894,5.588,5.588,0,0,1-2.358-.474,3.957,3.957,0,0,1-1.616-1.3,3.018,3.018,0,0,1-.586-1.782h2.676a1.473,1.473,0,0,0,.557,1.152,2.208,2.208,0,0,0,1.387.4,2.044,2.044,0,0,0,1.226-.308A.957.957,0,0,0,216.23,100.08Z" transform="translate(878 10682.5)" fill="#12263f"/>
        </g>
      </g>
    </g>
  </g>
</svg>
