<svg xmlns="http://www.w3.org/2000/svg" xmlns:xlink="http://www.w3.org/1999/xlink" width="400" height="466" viewBox="0 0 400 466">
  <defs>
    <linearGradient id="linear-gradient" x1="0.5" x2="0.5" y2="1" gradientUnits="objectBoundingBox">
      <stop offset="0" stop-color="#fdd835"/>
      <stop offset="1" stop-color="#ffa726"/>
    </linearGradient>
    <clipPath id="clip-path">
      <circle id="Elipse_5190" data-name="Elipse 5190" cx="95" cy="95" r="95" transform="translate(495.285 7939)" fill="#fff" stroke="#26ccda" stroke-width="4"/>
    </clipPath>
  </defs>
  <g id="Grupo_120936" data-name="Grupo 120936" transform="translate(-285.285 -7112)">
    <path id="Trazado_183282" data-name="Trazado 183282" d="M200,0C310.457,0,400,89.543,400,200S310.457,400,200,400,0,310.457,0,200,89.543,0,200,0Z" transform="translate(285.285 7112)" fill="url(#linear-gradient)"/>
    <g id="Enmascarar_grupo_117" data-name="Enmascarar grupo 117" transform="translate(0 -551)" clip-path="url(#clip-path)">
      <circle id="Elipse_5189" data-name="Elipse 5189" cx="387" cy="387" r="387" transform="translate(-20.715 7381)" fill="url(#linear-gradient)"/>
    </g>
    <g id="Trazado_183281" data-name="Trazado 183281" transform="translate(495.285 7388)" fill="none">
      <path d="M95,0A95,95,0,1,1,0,95,95,95,0,0,1,95,0Z" stroke="none"/>
      <path d="M 95 4 C 88.82313537597656 4 82.65135955810547 4.622055053710938 76.65608215332031 5.848861694335938 C 70.81522369384766 7.044082641601562 65.06996917724609 8.827499389648438 59.57991027832031 11.14958190917969 C 54.18865966796875 13.42988586425781 48.98847961425781 16.25250244140625 44.12384033203125 19.53900146484375 C 39.30436706542969 22.79496765136719 34.772216796875 26.53436279296875 30.65327453613281 30.65327453613281 C 26.53436279296875 34.772216796875 22.79496765136719 39.30436706542969 19.53900146484375 44.12384033203125 C 16.25250244140625 48.98847961425781 13.42988586425781 54.18865966796875 11.14958190917969 59.57991027832031 C 8.827499389648438 65.06996917724609 7.044082641601562 70.81522369384766 5.848861694335938 76.65608215332031 C 4.622055053710938 82.65135955810547 4 88.82313537597656 4 95 C 4 101.1768341064453 4.622055053710938 107.3486404418945 5.848861694335938 113.3439178466797 C 7.044082641601562 119.1847763061523 8.827499389648438 124.9300308227539 11.14958190917969 130.4200592041016 C 13.42988586425781 135.8113403320312 16.25250244140625 141.0115356445312 19.53900146484375 145.8761596679688 C 22.79496765136719 150.6956481933594 26.53436279296875 155.227783203125 30.65327453613281 159.3467254638672 C 34.772216796875 163.4656372070312 39.30436706542969 167.2050323486328 44.12384033203125 170.4609985351562 C 48.98847961425781 173.7474975585938 54.18865966796875 176.5700836181641 59.57991027832031 178.8504180908203 C 65.06996917724609 181.1725006103516 70.81522369384766 182.9559173583984 76.65608215332031 184.1511383056641 C 82.65135955810547 185.3779449462891 88.82313537597656 186 95 186 C 101.1768341064453 186 107.3486404418945 185.3779449462891 113.3439178466797 184.1511383056641 C 119.1847763061523 182.9559173583984 124.9300308227539 181.1725006103516 130.4200592041016 178.8504180908203 C 135.8113403320312 176.5700836181641 141.0115051269531 173.7474975585938 145.8761596679688 170.4609985351562 C 150.6956481933594 167.2050323486328 155.227783203125 163.4656372070312 159.3466949462891 159.3466949462891 C 163.4656372070312 155.227783203125 167.2050323486328 150.6956481933594 170.4609985351562 145.8761596679688 C 173.7474975585938 141.0115051269531 176.5700836181641 135.8113403320312 178.8504180908203 130.4200592041016 C 181.1725006103516 124.9300308227539 182.9559173583984 119.1847763061523 184.1511383056641 113.3439178466797 C 185.3779449462891 107.3486404418945 186 101.1768341064453 186 95 C 186 88.82313537597656 185.3779449462891 82.65135955810547 184.1511383056641 76.65608215332031 C 182.9559173583984 70.81522369384766 181.1725006103516 65.06996917724609 178.8504180908203 59.57991027832031 C 176.5700836181641 54.18865966796875 173.7474975585938 48.98847961425781 170.4609985351562 44.12384033203125 C 167.2050323486328 39.30436706542969 163.4656372070312 34.772216796875 159.3467254638672 30.65327453613281 C 155.227783203125 26.53436279296875 150.6956481933594 22.79496765136719 145.8761596679688 19.53900146484375 C 141.0115356445312 16.25250244140625 135.8113403320312 13.42988586425781 130.4200592041016 11.14958190917969 C 124.9300308227539 8.827499389648438 119.1847763061523 7.044082641601562 113.3439178466797 5.848861694335938 C 107.3486404418945 4.622055053710938 101.1768341064453 4 95 4 M 95 0 C 147.4670257568359 0 190 42.53294372558594 190 95 C 190 147.4670257568359 147.4670257568359 190 95 190 C 42.53294372558594 190 0 147.4670257568359 0 95 C 0 42.53294372558594 42.53294372558594 0 95 0 Z" stroke="none" fill="#26ccda"/>
    </g>
    <path id="Trazado_183283" data-name="Trazado 183283" d="M-55.512-9.281l6.8-24.844h9.188L-51.012,0h-9L-71.4-34.125h9.117ZM-26.168.469a13.036,13.036,0,0,1-9.445-3.48,12.019,12.019,0,0,1-3.609-9.059v-.656a15.574,15.574,0,0,1,1.441-6.867A10.547,10.547,0,0,1-33.574-24.2a12.7,12.7,0,0,1,6.563-1.629,10.977,10.977,0,0,1,8.438,3.316q3.094,3.316,3.094,9.246v3.07h-15.7a5.693,5.693,0,0,0,1.852,3.352,5.509,5.509,0,0,0,3.7,1.219A7.1,7.1,0,0,0-19.77-8.25l3.609,4.266A10.09,10.09,0,0,1-20.344-.738,14.138,14.138,0,0,1-26.168.469Zm-.891-20.2q-3.469,0-4.125,4.594h7.969v-.609a3.912,3.912,0,0,0-.961-2.941A3.824,3.824,0,0,0-27.059-19.734ZM-1.582-5.625A3.513,3.513,0,0,0,1-6.527a3.309,3.309,0,0,0,.891-2.52H9.293A8.767,8.767,0,0,1,6.3-2.2,11.115,11.115,0,0,1-1.395.469,11.254,11.254,0,0,1-10.113-3Q-13.3-6.469-13.3-12.609v-.328a15.447,15.447,0,0,1,1.418-6.785,10.324,10.324,0,0,1,4.09-4.523,12.2,12.2,0,0,1,6.328-1.582,10.975,10.975,0,0,1,7.852,2.742,9.726,9.726,0,0,1,2.906,7.43H1.887A4.336,4.336,0,0,0,.926-18.68a3.317,3.317,0,0,0-2.578-1.055q-3.07,0-3.586,3.914A27.618,27.618,0,0,0-5.4-12.4q0,3.82.914,5.3A3.165,3.165,0,0,0-1.582-5.625ZM21.832-31.664v6.3H26v5.484H21.832v11.6a2.962,2.962,0,0,0,.516,1.992,2.766,2.766,0,0,0,2.039.563,11.587,11.587,0,0,0,1.969-.141V-.211A14.577,14.577,0,0,1,21.9.469q-4.078,0-6.023-1.922T13.934-7.289V-19.875H10.7v-5.484h3.234v-6.3Zm5.578,18.75a14.967,14.967,0,0,1,1.477-6.762,10.559,10.559,0,0,1,4.242-4.559,12.776,12.776,0,0,1,6.492-1.594A11.66,11.66,0,0,1,48.6-22.3q3.281,3.527,3.281,9.6v.281q0,5.93-3.293,9.41A11.691,11.691,0,0,1,39.668.469a11.825,11.825,0,0,1-8.7-3.246,12.7,12.7,0,0,1-3.539-8.8Zm7.9.492a9.436,9.436,0,0,0,1.1,5.156,3.67,3.67,0,0,0,3.258,1.641q4.219,0,4.313-6.492v-.8q0-6.82-4.359-6.82-3.961,0-4.289,5.883ZM70.7-18.211,68.1-18.4q-3.727,0-4.781,2.344V0h-7.9V-25.359h7.406l.258,3.258q1.992-3.727,5.555-3.727a7.7,7.7,0,0,1,2.2.281Z" transform="translate(485.285 7328.5)" fill="#12263f"/>
  </g>
</svg>
