<svg xmlns="http://www.w3.org/2000/svg" xmlns:xlink="http://www.w3.org/1999/xlink" width="120" height="120" viewBox="0 0 120 120">
  <defs>
    <clipPath id="clip-path">
      <rect id="Rectángulo_38248" data-name="Rectángulo 38248" width="81.815" height="73.663" fill="none"/>
    </clipPath>
  </defs>
  <g id="Grupo_121093" data-name="Grupo 121093" transform="translate(-285.285 -1271)">
    <g id="Elipse_5229" data-name="Elipse 5229" transform="translate(285.285 1271)" fill="#fff" stroke="#26ccda" stroke-width="4">
      <circle cx="60" cy="60" r="60" stroke="none"/>
      <circle cx="60" cy="60" r="58" fill="none"/>
    </g>
    <g id="Grupo_120941" data-name="Grupo 120941" transform="translate(304.378 1294.168)">
      <g id="Grupo_120940" data-name="Grupo 120940" clip-path="url(#clip-path)">
        <path id="Trazado_183312" data-name="Trazado 183312" d="M0,23.968c.374-.475.294-1.083.466-1.619a18.487,18.487,0,0,1,.821-2.218c.563-1.2.933-1.381,2.231-1.1a1.662,1.662,0,0,1,.3,2.156,9.76,9.76,0,0,0-.888,2.631c-.141.638.062.783.667.782q14.259-.019,28.517-.005a1.694,1.694,0,0,0,1.043-.313,26.317,26.317,0,0,1,20.981-4.718A26.6,26.6,0,0,1,73.5,34.221a25.6,25.6,0,0,1,1.912,5.145c.13.486.183.8.846.467a2.7,2.7,0,0,1,2.162-.212c.5.186.682.062.68-.513-.021-5.4.038-10.81-.039-16.214a7.88,7.88,0,0,0-3.238-6.225c-2.04-1.613-4.433-1.763-6.889-1.654-.462.021-.271.307-.2.492.209.546.472,1.071.678,1.617a1.384,1.384,0,1,1-2.574,1Q64.02,11.355,61.209,4.585A2.705,2.705,0,0,0,58.587,2.73q-8.826-.031-17.653,0a2.641,2.641,0,0,0-2.552,1.727c-1.9,4.53-3.774,9.074-5.656,13.613a1.467,1.467,0,0,1-1.947.891,1.424,1.424,0,0,1-.618-1.914c.182-.471.39-.931.6-1.393.185-.416.22-.656-.4-.648q-3.514.046-7.029,0c-.61-.008-.585.22-.409.645a3.742,3.742,0,0,1-.133,3.016,5.56,5.56,0,0,1-6.577,3.026c-2.135-.468-4.644-3.076-3.729-5.925.183-.571-.055-.649-.515-.587A9.223,9.223,0,0,0,8.1,16.55c-.792.516-1.571.8-2.381.048-.464-1.207-.332-1.613.787-2.3a12.79,12.79,0,0,1,6.719-2q9.066-.039,18.133,0a.991.991,0,0,0,1.107-.723c1.08-2.685,2.211-5.349,3.33-8.018A5.435,5.435,0,0,1,41.14,0Q49.768,0,58.4,0a5.4,5.4,0,0,1,5.35,3.555c1.129,2.665,2.252,5.333,3.33,8.018a.992.992,0,0,0,1.108.724,19.169,19.169,0,0,1,5.94.457A10.886,10.886,0,0,1,81.8,23.04q.036,20.488,0,40.977a5.389,5.389,0,0,1-5.519,5.5c-4.047.022-8.095.012-12.142,0a2.648,2.648,0,0,0-1.351.357q-13.667,7.58-27.361.032a2.818,2.818,0,0,0-1.422-.39q-13.94.018-27.879.008c-3.172,0-4.718-1.032-5.93-3.96-.042-.1-.076-.2-.2-.214ZM31.062,66.8c-5.774-5.372-8.925-11.77-9.2-19.483a26.935,26.935,0,0,1,7.626-19.927c-.116-.051-.161-.088-.206-.088q-13.022-.006-26.044-.014c-.444,0-.533.183-.526.573.019.958.033,1.918,0,2.875-.02.512.181.621.647.616q3-.031,5.992-.005a4.074,4.074,0,0,1,4.26,4.115A4.012,4.012,0,0,1,9.4,39.513c-1.571.016-3.142,0-4.713,0-1.982,0-1.951,0-1.985,1.955-.011.644.216.828.8.824,1.891-.014,3.781-.007,5.672,0a5.332,5.332,0,0,1,1.5.137A4.1,4.1,0,0,1,9.492,50.46c-1.6.03-3.2.007-4.793.007-2.024,0-2,0-1.991,2.062,0,.528.158.678.678.671,2.024-.027,4.048-.022,6.072-.007a4.08,4.08,0,1,1,0,8.159c-1.518.013-3.036-.016-4.553.011-.708.012-1.647-.321-2.056.156-.348.407-.123,1.317-.125,2C2.718,65.8,3.714,66.8,5.971,66.8H31.062Zm-6.5-20.49a24.538,24.538,0,1,0,24.552-24.49,24.575,24.575,0,0,0-24.552,24.49m42.686,20.48c3.214,0,6.249.024,9.283-.011a2.677,2.677,0,0,0,2.549-2.593c.028-3.514,0-7.029.019-10.543,0-.514-.191-.705-.663-.553a2.827,2.827,0,0,1-2.1-.171c-.647-.3-.789-.068-.949.525a27.3,27.3,0,0,1-5.61,10.622c-.767.908-1.669,1.687-2.533,2.725M6.452,55.919H4.7c-2.05,0-2.05,0-1.981,2.071,0,.053,0,.106,0,.159-.02.322.1.492.453.49,2.125-.008,4.251.019,6.376-.017a1.318,1.318,0,0,0,1.323-1.4,1.259,1.259,0,0,0-1.389-1.3c-1.009-.016-2.019,0-3.029,0M6.394,36.762c.955,0,1.91,0,2.865,0,1.079,0,1.6-.429,1.61-1.316a1.424,1.424,0,0,0-1.595-1.393c-1.989-.023-3.98.013-5.969-.017-.783-.012-.665.549-.563.915.169.6-.618,1.614.551,1.781a22.192,22.192,0,0,0,3.1.031m.038,8.283H4.756c-2.128,0-2.11,0-2.051,2.1.014.508.2.626.664.621,1.943-.018,3.885-.006,5.828-.011a2.246,2.246,0,0,0,.549-.071,1.372,1.372,0,0,0,1.118-1.512,1.265,1.265,0,0,0-1.4-1.127c-1.011-.013-2.022,0-3.034,0M76.376,46.3c0,.93-.021,1.862.007,2.791A1.41,1.41,0,0,0,77.69,50.46a1.367,1.367,0,0,0,1.375-1.2c.044-1.913.054-3.829-.006-5.741a1.2,1.2,0,0,0-1.412-1.184,1.245,1.245,0,0,0-1.267,1.341c-.02.877,0,1.754,0,2.632M17.761,19.054a2.833,2.833,0,0,0,2.106-.786,1.588,1.588,0,0,0,.01-2.453,3.261,3.261,0,0,0-4.4.111,1.543,1.543,0,0,0,0,2.22,2.839,2.839,0,0,0,2.291.908" transform="translate(0 0)"/>
        <path id="Trazado_183313" data-name="Trazado 183313" d="M20.859,30.837c.81.754,1.589.468,2.381-.048a9.223,9.223,0,0,1,3.871-1.372c.461-.062.7.016.515.587-.914,2.849,1.595,5.457,3.729,5.925A5.56,5.56,0,0,0,37.933,32.9a3.742,3.742,0,0,0,.133-3.016c-.176-.425-.2-.653.41-.645q3.514.049,7.029,0c.617-.008.582.232.4.648-.205.461-.413.922-.6,1.393a1.424,1.424,0,0,0,.618,1.914,1.467,1.467,0,0,0,1.947-.891c1.882-4.539,3.753-9.083,5.656-13.613a2.641,2.641,0,0,1,2.552-1.727q8.827-.026,17.653,0a2.705,2.705,0,0,1,2.622,1.855q2.809,6.772,5.632,13.537a1.384,1.384,0,1,0,2.574-1c-.206-.547-.469-1.072-.678-1.617-.071-.185-.261-.471.2-.492,2.457-.109,4.849.041,6.889,1.654a7.88,7.88,0,0,1,3.238,6.225c.077,5.4.018,10.809.038,16.214,0,.575-.176.7-.68.513a2.7,2.7,0,0,0-2.162.212c-.663.33-.716.019-.846-.467a25.608,25.608,0,0,0-1.912-5.145A26.6,26.6,0,0,0,69.283,33.805,26.317,26.317,0,0,0,48.3,38.524a1.7,1.7,0,0,1-1.043.313Q33,38.83,18.742,38.842c-.6,0-.807-.144-.667-.782a9.76,9.76,0,0,1,.888-2.631,1.662,1.662,0,0,0-.3-2.156,8.287,8.287,0,0,1,2.2-2.435m50.194-3.026a1.33,1.33,0,0,0,1.243,1.41,5.469,5.469,0,0,0,2.135-.084,2.618,2.618,0,0,0,1.905-3.447c-.514-1.42-1.124-2.807-1.731-4.192a2.892,2.892,0,0,0-2.9-1.826q-6.861.021-13.723,0a2.736,2.736,0,0,0-2.714,1.712c-.561,1.26-1.006,2.578-1.64,3.8a2.853,2.853,0,0,0,2.825,4.091c3.349-.086,6.7-.021,10.052-.022,1.193,0,1.526-.26,1.84-1.423l2.7-.022" transform="translate(-15.145 -14.239)" fill="#646c76"/>
        <path id="Trazado_183314" data-name="Trazado 183314" d="M44.982,209.882H19.891c-2.257,0-3.253-1-3.247-3.273,0-.688-.223-1.6.125-2,.409-.477,1.348-.144,2.056-.156,1.517-.026,3.036,0,4.553-.011a4.08,4.08,0,1,0,0-8.159c-2.024-.015-4.048-.019-6.071.007-.52.007-.674-.143-.678-.671-.014-2.062-.033-2.062,1.991-2.062,1.6,0,3.2.023,4.794-.007a4.1,4.1,0,0,0,1.192-8.029,5.331,5.331,0,0,0-1.5-.137c-1.891-.005-3.782-.012-5.672,0-.587,0-.814-.18-.8-.824.033-1.954,0-1.955,1.985-1.955,1.571,0,3.142.012,4.713,0a4.012,4.012,0,0,0,4.208-4.053,4.074,4.074,0,0,0-4.26-4.115q-3-.024-5.992,0c-.467,0-.668-.1-.647-.616.038-.957.024-1.917,0-2.875-.008-.39.082-.574.526-.573q13.022.018,26.044.015c.045,0,.091.037.206.088A26.937,26.937,0,0,0,35.785,190.4c.272,7.712,3.423,14.11,9.2,19.483" transform="translate(-13.92 -143.085)" fill="#aab0ba"/>
        <path id="Trazado_183315" data-name="Trazado 183315" d="M153.369,160.716a24.538,24.538,0,1,1,24.462,24.606,24.524,24.524,0,0,1-24.462-24.606m40.014,13.423c1.079.419,1.534.3,2.184-.612a21.532,21.532,0,0,0,3.887-16.014,21.819,21.819,0,1,0-43.032,7.2c2.68,14.946,19.871,22.658,32.768,14.7,1.012-.624,1.17-1.067.783-2.186a18.069,18.069,0,0,0,3.41-3.09" transform="translate(-128.807 -114.408)" fill="#c8ced4"/>
        <path id="Trazado_183316" data-name="Trazado 183316" d="M419.906,343.6c.863-1.037,1.765-1.817,2.533-2.724a27.3,27.3,0,0,0,5.609-10.622c.16-.593.3-.823.949-.525a2.828,2.828,0,0,0,2.1.171c.471-.152.665.039.663.553-.016,3.514.009,7.029-.019,10.543a2.677,2.677,0,0,1-2.549,2.593c-3.034.035-6.069.011-9.283.011" transform="translate(-352.657 -276.808)" fill="#646c76"/>
        <path id="Trazado_183317" data-name="Trazado 183317" d="M20.6,349.142c1.01,0,2.019-.012,3.029,0a1.259,1.259,0,0,1,1.389,1.3,1.318,1.318,0,0,1-1.323,1.4c-2.125.036-4.251.01-6.376.017-.353,0-.473-.168-.453-.49,0-.053,0-.106,0-.159-.069-2.071-.069-2.071,1.981-2.071H20.6" transform="translate(-14.146 -293.223)" fill="#646c76"/>
        <path id="Trazado_183318" data-name="Trazado 183318" d="M20.235,215.244a22.138,22.138,0,0,1-3.1-.03c-1.169-.167-.382-1.177-.551-1.781-.1-.366-.22-.927.563-.915,1.989.031,3.979-.006,5.969.017a1.424,1.424,0,0,1,1.595,1.393c-.015.887-.531,1.312-1.61,1.316-.955,0-1.91,0-2.865,0" transform="translate(-13.841 -178.482)" fill="#646c76"/>
        <path id="Trazado_183319" data-name="Trazado 183319" d="M20.528,281.252c1.011,0,2.023-.009,3.034,0a1.265,1.265,0,0,1,1.4,1.127,1.372,1.372,0,0,1-1.118,1.512,2.245,2.245,0,0,1-.549.07c-1.943,0-3.886-.007-5.828.011-.463,0-.649-.114-.664-.621-.06-2.1-.077-2.1,2.051-2.1h1.677" transform="translate(-14.096 -236.206)" fill="#646c76"/>
        <path id="Trazado_183320" data-name="Trazado 183320" d="M476.852,268.277c0-.877-.016-1.755,0-2.632a1.245,1.245,0,0,1,1.267-1.341,1.2,1.2,0,0,1,1.412,1.184c.06,1.912.05,3.828.006,5.741a1.367,1.367,0,0,1-1.375,1.2,1.41,1.41,0,0,1-1.307-1.366c-.028-.93-.007-1.861-.007-2.791" transform="translate(-400.477 -221.974)" fill="#646c76"/>
        <path id="Trazado_183321" data-name="Trazado 183321" d="M96.425,97.793a2.841,2.841,0,0,1-2.292-.908,1.543,1.543,0,0,1,0-2.22,3.262,3.262,0,0,1,4.4-.111,1.588,1.588,0,0,1-.01,2.453,2.833,2.833,0,0,1-2.1.786" transform="translate(-78.664 -78.739)" fill="#aab0ba"/>
        <path id="Trazado_183322" data-name="Trazado 183322" d="M253.4,42.087c-.315,1.163-.648,1.423-1.84,1.423-3.351,0-6.7-.064-10.052.022a2.853,2.853,0,0,1-2.825-4.091c.634-1.221,1.079-2.538,1.64-3.8a2.737,2.737,0,0,1,2.714-1.712q6.861.006,13.723,0a2.892,2.892,0,0,1,2.9,1.826c.607,1.385,1.217,2.772,1.731,4.192a2.618,2.618,0,0,1-1.905,3.447,5.472,5.472,0,0,1-2.135.084,1.33,1.33,0,0,1-1.243-1.41c.248-1.016.585-1.274,1.682-1.285,1.022-.011,1.021-.01.622-.968-.368-.881-.752-1.757-1.094-2.648a.7.7,0,0,0-.77-.511q-6.578.02-13.156,0a.706.706,0,0,0-.766.518c-.382.961-.779,1.918-1.216,2.856-.268.575-.208.772.489.766,3.242-.029,6.485-.015,9.727-.012,1.131,0,1.446.238,1.777,1.305" transform="translate(-200.198 -28.493)"/>
        <path id="Trazado_183323" data-name="Trazado 183323" d="M268.539,56.385c-.331-1.067-.646-1.3-1.777-1.305-3.242,0-6.485-.017-9.727.012-.7.006-.757-.191-.489-.766.436-.938.833-1.895,1.216-2.856a.706.706,0,0,1,.766-.518q6.578.021,13.156,0a.7.7,0,0,1,.77.511c.342.891.726,1.767,1.094,2.648.4.958.4.958-.622.968-1.1.011-1.434.269-1.682,1.285l-2.7.022" transform="translate(-215.336 -42.791)" fill="#26ccda"/>
        <path id="Trazado_183324" data-name="Trazado 183324" d="M221.5,202.5a18.057,18.057,0,0,1-3.411,3.09,1.506,1.506,0,0,0-2.156-.169,19.156,19.156,0,1,1,5.593-5.2c-.723,1.016-.715,1.355-.027,2.279m-15.472-5.212h2.235c3.752,0,7.5,0,11.256-.006a1.332,1.332,0,0,0,1.469-1.164,1.277,1.277,0,0,0-1.123-1.486,2.023,2.023,0,0,1-1.416-.878q-3.991-4.514-8-9.009a2.7,2.7,0,0,0-4.442.162q-.794,1-1.583,2c-.176.223-.315.4-.631.133a2.789,2.789,0,0,0-4.115.66c-1.442,1.843-3.012,3.585-4.454,5.428a2.883,2.883,0,0,1-2.8,1.469,1.291,1.291,0,0,0-1.382,1.551c.137.743.66,1.132,1.581,1.133q6.706.008,13.411,0m-5.442-21.777a4.081,4.081,0,1,0,4.073,4.065,4.093,4.093,0,0,0-4.073-4.065" transform="translate(-156.92 -142.771)" fill="#b1f9ff"/>
        <path id="Trazado_183325" data-name="Trazado 183325" d="M207.52,188.117c-.689-.924-.7-1.264.027-2.279a19.081,19.081,0,1,0-5.593,5.2,1.506,1.506,0,0,1,2.156.169c.388,1.118.229,1.562-.782,2.186-12.9,7.958-30.088.247-32.768-14.7a21.819,21.819,0,1,1,43.032-7.2A21.532,21.532,0,0,1,209.7,187.5c-.65.916-1.1,1.032-2.184.612" transform="translate(-142.943 -128.387)"/>
        <path id="Trazado_183326" data-name="Trazado 183326" d="M227.88,268.96q-6.706,0-13.411,0c-.92,0-1.443-.39-1.581-1.133a1.291,1.291,0,0,1,1.382-1.551,2.883,2.883,0,0,0,2.8-1.469c1.442-1.843,3.011-3.586,4.454-5.428a2.789,2.789,0,0,1,4.115-.66c.316.267.456.091.631-.133q.789-1,1.583-2a2.7,2.7,0,0,1,4.442-.162q4.025,4.484,8,9.009a2.023,2.023,0,0,0,1.416.878,1.277,1.277,0,0,1,1.123,1.486,1.332,1.332,0,0,1-1.469,1.164c-3.752.01-7.5.005-11.256.006H227.88m3.166-2.754h6.14a2.023,2.023,0,0,0-.54-.846c-2.033-2.281-4.073-4.556-6.094-6.847-.3-.345-.507-.409-.8-.009-.489.662-1,1.3-1.516,1.95-.283.356-.384.679.03,1.026a1.522,1.522,0,0,1,.352,2.131,1.456,1.456,0,0,1-2.244-.175c-.687-.7-1.388-1.4-2.03-2.143-.372-.431-.557-.38-.893.042-1.143,1.434-2.332,2.832-3.5,4.249-.141.172-.374.311-.313.622Z" transform="translate(-178.775 -214.441)"/>
        <path id="Trazado_183327" data-name="Trazado 183327" d="M250.971,204.437a4.081,4.081,0,1,1-4.131,4.082,4.107,4.107,0,0,1,4.131-4.082m-.072,2.729a1.3,1.3,0,0,0-1.29,1.405,1.328,1.328,0,0,0,1.332,1.3,1.386,1.386,0,0,0,1.356-1.378,1.366,1.366,0,0,0-1.4-1.325" transform="translate(-207.308 -171.696)"/>
        <path id="Trazado_183328" data-name="Trazado 183328" d="M307.921,278.787a1.522,1.522,0,0,0-.352-2.131c-.414-.347-.313-.67-.03-1.026.512-.645,1.027-1.288,1.516-1.95.3-.4.5-.336.8.009,2.021,2.291,4.061,4.566,6.094,6.847a2.02,2.02,0,0,1,.54.846H310.35l-2.429-2.595" transform="translate(-258.078 -229.618)" fill="#ffa726"/>
        <path id="Trazado_183329" data-name="Trazado 183329" d="M264.089,293.284l2.429,2.595H255.112c-.061-.311.172-.45.313-.622,1.165-1.417,2.354-2.815,3.5-4.25.336-.422.521-.473.893-.041.642.745,1.343,1.438,2.03,2.143a1.456,1.456,0,0,0,2.244.175" transform="translate(-214.247 -244.115)" fill="#fdd835"/>
        <path id="Trazado_183330" data-name="Trazado 183330" d="M265.421,221.473a1.366,1.366,0,0,1,1.4,1.325,1.386,1.386,0,0,1-1.357,1.378,1.328,1.328,0,0,1-1.332-1.3,1.3,1.3,0,0,1,1.29-1.405" transform="translate(-221.829 -186.003)" fill="#fdd835"/>
      </g>
    </g>
  </g>
</svg>
