<svg xmlns="http://www.w3.org/2000/svg" xmlns:xlink="http://www.w3.org/1999/xlink" width="400" height="250" viewBox="0 0 400 250">
  <defs>
    <clipPath id="clip-path">
      <rect id="Rect치ngulo_38217" data-name="Rect치ngulo 38217" width="87.06" height="119.995" transform="translate(0 0)" fill="none"/>
    </clipPath>
  </defs>
  <g id="Grupo_120936" data-name="Grupo 120936" transform="translate(-180.285 -12089)">
    <rect id="Rect치ngulo_38214" data-name="Rect치ngulo 38214" width="400" height="250" rx="20" transform="translate(180.285 12089)" fill="#fff3bf"/>
    <path id="Trazado_183281" data-name="Trazado 183281" d="M-17.471-14.219h2.93v9.844a4.707,4.707,0,0,1-.6,2.4A4.076,4.076,0,0,1-16.836-.371,5.293,5.293,0,0,1-19.307.2,5.031,5.031,0,0,1-22.822-.952,4.169,4.169,0,0,1-24.082-4.2h2.949a2.286,2.286,0,0,0,.439,1.543,1.758,1.758,0,0,0,1.387.5,1.679,1.679,0,0,0,1.338-.576,2.434,2.434,0,0,0,.5-1.641ZM-9.1-5.01V0h-2.93V-14.219h5.547a6.417,6.417,0,0,1,2.817.586A4.318,4.318,0,0,1-1.8-11.968a4.643,4.643,0,0,1,.654,2.456,4.083,4.083,0,0,1-1.431,3.3A5.959,5.959,0,0,1-6.533-5.01Zm0-2.373h2.617A2.573,2.573,0,0,0-4.712-7.93,1.989,1.989,0,0,0-4.1-9.492a2.345,2.345,0,0,0-.615-1.689,2.3,2.3,0,0,0-1.7-.664H-9.1Zm18.525,1.2H3.8v3.828h6.6V0H.869V-14.219h9.512v2.373H3.8v3.389H9.424ZM23.369-1.8a5.085,5.085,0,0,1-2.236,1.47A9.365,9.365,0,0,1,17.93.2,6.345,6.345,0,0,1,14.692-.61a5.374,5.374,0,0,1-2.148-2.339,8.232,8.232,0,0,1-.776-3.6V-7.52a8.742,8.742,0,0,1,.718-3.687,5.31,5.31,0,0,1,2.07-2.383,5.964,5.964,0,0,1,3.169-.825,5.939,5.939,0,0,1,3.955,1.206A5.154,5.154,0,0,1,23.369-9.7H20.518a2.835,2.835,0,0,0-.864-1.787,2.76,2.76,0,0,0-1.841-.566,2.6,2.6,0,0,0-2.275,1.123,5.905,5.905,0,0,0-.791,3.34v.908A5.622,5.622,0,0,0,15.6-3.3a2.909,2.909,0,0,0,2.49,1.143,3.25,3.25,0,0,0,2.354-.7V-5.312H17.773V-7.471h5.6Z" transform="translate(380.756 12296.91)" fill="#12263f"/>
    <g id="Grupo_120911" data-name="Grupo 120911" transform="translate(337.254 12132)">
      <g id="Grupo_120911-2" data-name="Grupo 120911" clip-path="url(#clip-path)">
        <path id="Trazado_183151" data-name="Trazado 183151" d="M37.134,53.035C27.734,43.635,18.623,80,18.623,80H49.946s-3.41-17.555-12.812-26.961" fill="#26ccda"/>
        <path id="Trazado_183152" data-name="Trazado 183152" d="M59.929,62.731c-6.661,1.7-9.986,17.26-9.986,17.26H72.407C69.355,72.2,65.619,61.28,59.929,62.731" fill="#26ccda"/>
        <path id="Trazado_183153" data-name="Trazado 183153" d="M18.625,44.656a5.828,5.828,0,1,0-.007,0Z" fill="#26ccda"/>
        <path id="Trazado_183154" data-name="Trazado 183154" d="M53.964,48.4a16.481,16.481,0,0,0,3.256-.319,10.312,10.312,0,0,0,4.033.783c3.85,0,6.975-1.885,6.975-4.207S65.1,40.45,61.253,40.45a10.427,10.427,0,0,0-3.9.719A2.514,2.514,0,0,0,55.6,40.45h-1.01a2.49,2.49,0,0,0-2.465,2.233c-3.127.325-5.441,1.453-5.441,2.8C46.679,47.1,49.94,48.4,53.964,48.4" fill="#26ccda"/>
        <path id="Trazado_183155" data-name="Trazado 183155" d="M87.037,28.752a2.328,2.328,0,0,0-.562-1.524L63.339.8c-.007-.007-.014-.01-.018-.017A2.367,2.367,0,0,0,62.852.4C62.8.362,62.752.333,62.7.3a2.359,2.359,0,0,0-.464-.194C62.19.1,62.151.078,62.108.067A2.288,2.288,0,0,0,61.568,0H4.706A4.711,4.711,0,0,0,0,4.7V115.295A4.711,4.711,0,0,0,4.706,120H82.354a4.711,4.711,0,0,0,4.706-4.706V29.015a2.567,2.567,0,0,0-.023-.263M9.422,111.445a14.107,14.107,0,0,1-3.948-.57L6.08,106.5a8.9,8.9,0,0,0,2.771.428c2.278,0,3.7-1.032,3.7-4.767V87.08h5.407v15.153h0c0,6.828-3.276,9.212-8.537,9.212M37.49,100.063c-1.848,1.743-4.591,2.524-7.791,2.524a13.588,13.588,0,0,1-1.848-.1v8.573H22.48V87.4a44.359,44.359,0,0,1,7.327-.5c3.344,0,5.728.64,7.329,1.92a7,7,0,0,1,2.56,5.549,7.662,7.662,0,0,1-2.206,5.692m20.693,11.232H42.729V87.08h14.95v4.491H48.228V96.6H57.14v4.457H48.228v5.75h9.955Zm24.171-1.344h0a26.8,26.8,0,0,1-8,1.353c-4.374,0-7.54-1.1-9.743-3.237a11.591,11.591,0,0,1-3.38-8.716c.034-7.967,5.831-12.52,13.691-12.52a16.455,16.455,0,0,1,6.652,1.176l-1.136,4.338a13.289,13.289,0,0,0-5.585-1.031c-4.516,0-7.931,2.561-7.931,7.756,0,4.944,3.094,7.861,7.541,7.861a7.266,7.266,0,0,0,2.667-.357v-5.015h-3.7V97.327h8.929Zm0-30.056H4.706V4.7H59.215V28.779a2.355,2.355,0,0,0,2.353,2.353H82.354Z" fill="#f57c00"/>
        <path id="Trazado_183156" data-name="Trazado 183156" d="M30.09,90.993a9.172,9.172,0,0,0-2.241.214v7.078a8.371,8.371,0,0,0,1.815.142c2.882,0,4.661-1.459,4.661-3.912,0-2.206-1.53-3.522-4.235-3.522" fill="#f57c00"/>
      </g>
    </g>
  </g>
</svg>
