<svg xmlns="http://www.w3.org/2000/svg" xmlns:xlink="http://www.w3.org/1999/xlink" width="120" height="120" viewBox="0 0 120 120">
  <defs>
    <clipPath id="clip-path">
      <rect id="Rectángulo_38247" data-name="Rectángulo 38247" width="71.925" height="69.676" fill="#26ccda"/>
    </clipPath>
  </defs>
  <g id="Grupo_121092" data-name="Grupo 121092" transform="translate(-285.285 -1115)">
    <g id="Grupo_121091" data-name="Grupo 121091">
      <g id="Grupo_121090" data-name="Grupo 121090">
        <g id="Grupo_121089" data-name="Grupo 121089">
          <g id="Elipse_5228" data-name="Elipse 5228" transform="translate(285.285 1115)" fill="#fff" stroke="#26ccda" stroke-width="4">
            <circle cx="60" cy="60" r="60" stroke="none"/>
            <circle cx="60" cy="60" r="58" fill="none"/>
          </g>
        </g>
        <g id="Grupo_120939" data-name="Grupo 120939" transform="translate(308.285 1139.502)">
          <g id="Grupo_120938" data-name="Grupo 120938" clip-path="url(#clip-path)">
            <path id="Trazado_183295" data-name="Trazado 183295" d="M0,6.05V3.944c.212-.059.162-.267.21-.406A4.983,4.983,0,0,1,4.935.011a4.895,4.895,0,0,1,4.75,3.467c.137.407.335.462.7.461q10.147-.014,20.294,0c.422,0,.581-.121.718-.533a4.946,4.946,0,0,1,9.4,0c.138.41.3.533.72.533q10.006-.02,20.013,0a.629.629,0,0,0,.717-.533A4.954,4.954,0,0,1,67.469.028a5.025,5.025,0,0,1,4.422,4.4A4.951,4.951,0,0,1,68.53,9.668a.665.665,0,0,0-.548.779q.021,9.444,0,18.889a.714.714,0,0,0,.577.831,4.929,4.929,0,0,1,.033,9.331.756.756,0,0,0-.608.884q.021,9.3,0,18.608a.714.714,0,0,0,.569.833A4.927,4.927,0,0,1,71.9,65a5.02,5.02,0,0,1-4.1,4.394A4.9,4.9,0,0,1,62.338,66.3a.754.754,0,0,0-.862-.556q-9.936.022-19.873,0a.715.715,0,0,0-.832.58,4.931,4.931,0,0,1-9.332.033.756.756,0,0,0-.883-.61q-10.042.021-20.083,0c-.46,0-.724.066-.918.581a4.856,4.856,0,0,1-4.63,3.139,4.994,4.994,0,0,1-4.652-3.34C.207,65.945.243,65.7,0,65.6V63.5c.224-.086.17-.317.225-.477A4.806,4.806,0,0,1,3.4,59.811c.447-.146.536-.352.535-.786q-.023-9.369,0-18.739c0-.391-.058-.6-.5-.741A4.809,4.809,0,0,1,.26,36.42C.2,36.26.228,36.035,0,35.967V33.72c.228-.069.2-.294.259-.454a4.812,4.812,0,0,1,3.169-3.126c.444-.144.5-.349.5-.739q-.014-9.475,0-18.95a.666.666,0,0,0-.543-.783A4.83,4.83,0,0,1,.267,6.581C.2,6.4.233,6.153,0,6.05m20.506,57.6c3.37,0,6.741-.006,10.111.008.417,0,.638-.053.794-.524a4.936,4.936,0,0,1,9.39.026c.127.373.266.5.667.5q10.041-.021,20.082,0c.361,0,.51-.086.613-.452a4.814,4.814,0,0,1,3.3-3.434c.327-.108.433-.229.432-.565q-.014-9.514,0-19.028c0-.369-.116-.5-.468-.616a4.945,4.945,0,0,1-.029-9.423c.377-.127.5-.267.5-.666q-.021-9.549,0-19.1c0-.447-.165-.572-.552-.7a4.757,4.757,0,0,1-3.073-3.046.711.711,0,0,0-.818-.594q-9.936.027-19.871,0a.716.716,0,0,0-.821.59,4.931,4.931,0,0,1-9.341-.02c-.142-.412-.3-.571-.762-.57q-10.146.029-20.292,0c-.383,0-.561.083-.69.479A4.744,4.744,0,0,1,6.546,9.672a.632.632,0,0,0-.524.726q.02,9.514,0,19.028a.625.625,0,0,0,.52.724,4.939,4.939,0,0,1-.012,9.393c-.361.123-.512.245-.511.659q.024,9.479,0,18.958a.541.541,0,0,0,.459.619,4.726,4.726,0,0,1,3.249,3.386c.127.469.363.485.735.485q5.021-.012,10.041,0M4.977,2.118A2.863,2.863,0,0,0,2.108,4.95,2.9,2.9,0,0,0,5,7.848,2.919,2.919,0,0,0,7.84,4.966,2.887,2.887,0,0,0,4.977,2.118M38.944,4.962a2.847,2.847,0,1,0-2.816,2.885,2.866,2.866,0,0,0,2.816-2.885m30.862,0a2.866,2.866,0,0,0-5.732-.015,2.866,2.866,0,1,0,5.732.015m0,59.551a2.866,2.866,0,0,0-5.732,0,2.866,2.866,0,0,0,5.732,0m-36.556.209a2.847,2.847,0,1,0,2.812-2.887,2.837,2.837,0,0,0-2.812,2.887M4.937,67.357a2.852,2.852,0,1,0,.1-5.7,2.852,2.852,0,1,0-.1,5.7m.032-29.666A2.848,2.848,0,1,0,2.108,34.86a2.865,2.865,0,0,0,2.861,2.831m62,0a2.847,2.847,0,1,0-2.9-2.8,2.843,2.843,0,0,0,2.9,2.8" transform="translate(0 0)" fill="#030303"/>
            <path id="Trazado_183296" data-name="Trazado 183296" d="M14.1,11.284a2.887,2.887,0,0,1,2.863,2.848,2.866,2.866,0,1,1-5.732-.017A2.863,2.863,0,0,1,14.1,11.284" transform="translate(-9.122 -9.166)" fill="#f57c00"/>
            <path id="Trazado_183297" data-name="Trazado 183297" d="M182.823,14.128a2.847,2.847,0,1,1-5.694-.008,2.847,2.847,0,0,1,5.694.008" transform="translate(-143.879 -9.167)" fill="#f57c00"/>
            <path id="Trazado_183298" data-name="Trazado 183298" d="M347.064,14.131a2.866,2.866,0,1,1-2.854-2.848,2.868,2.868,0,0,1,2.854,2.848" transform="translate(-277.258 -9.166)" fill="#f57c00"/>
            <path id="Trazado_183299" data-name="Trazado 183299" d="M347.065,331.3a2.866,2.866,0,1,1-2.827-2.864,2.843,2.843,0,0,1,2.827,2.864" transform="translate(-277.258 -266.78)" fill="#f57c00"/>
            <path id="Trazado_183300" data-name="Trazado 183300" d="M177.129,332.313a2.847,2.847,0,1,1,2.846,2.842,2.86,2.86,0,0,1-2.846-2.842" transform="translate(-143.878 -267.586)" fill="#f57c00"/>
            <path id="Trazado_183301" data-name="Trazado 183301" d="M14.061,334.137a2.852,2.852,0,1,1,2.9-2.808,2.865,2.865,0,0,1-2.9,2.808" transform="translate(-9.123 -266.78)" fill="#f57c00"/>
            <path id="Trazado_183302" data-name="Trazado 183302" d="M14.092,176.14a2.848,2.848,0,1,1,2.87-2.832,2.845,2.845,0,0,1-2.87,2.832" transform="translate(-9.123 -138.449)" fill="#f57c00"/>
            <path id="Trazado_183303" data-name="Trazado 183303" d="M344.228,176.142a2.847,2.847,0,1,1,2.835-2.857,2.863,2.863,0,0,1-2.835,2.857" transform="translate(-277.256 -138.451)" fill="#f57c00"/>
            <path id="Trazado_183304" data-name="Trazado 183304" d="M87.3,83.828h1.881a1.28,1.28,0,0,0,1.452,1q12.324-.025,24.647-.009c1.123,0,2.246.015,3.369.023a3.745,3.745,0,0,1,.823,2.538c.028,5.2.005,10.407,0,15.611l-6.227-6.175c-.882-.875-1.277-.873-2.164.014q-7.272,7.271-14.531,14.555c-.451.455-.658.409-1.074-.015-2.278-2.321-4.588-4.611-6.89-6.908-.787-.785-1.236-.785-2.012-.011q-2.758,2.752-5.515,5.5c-.137.136-.23.35-.483.362a1.094,1.094,0,0,1-.041-.2q0-12,0-24.006c0-.872.435-1.278,1.31-1.285,1.334-.011,2.668-.031,4,.008A1.266,1.266,0,0,0,87.3,83.828m3.644,11.708a5.807,5.807,0,1,0,5.788-5.809,5.831,5.831,0,0,0-5.788,5.809" transform="translate(-65.413 -68.092)" fill="#b1f9ff"/>
            <path id="Trazado_183305" data-name="Trazado 183305" d="M78.158,79.007a1.266,1.266,0,0,1-1.453,1.005c-1.333-.038-2.667-.019-4-.008-.875.007-1.309.413-1.31,1.285q-.012,12,0,24.006a1.109,1.109,0,0,0,.041.2c.253-.012.346-.226.483-.362q2.763-2.747,5.515-5.5c.777-.775,1.225-.775,2.012.011,2.3,2.3,4.612,4.587,6.89,6.908.416.424.623.47,1.074.015q7.242-7.3,14.531-14.555c.887-.887,1.282-.889,2.164-.014l6.227,6.175,2.718,2.565c.008-.143.023-.3.023-.458q0-9.4,0-18.79c0-.117,0-.234-.009-.35a1.112,1.112,0,0,0-1.174-1.133c-.793-.019-1.588.01-2.382.018-1.123-.008-2.246-.023-3.369-.023q-12.324,0-24.647.009a1.28,1.28,0,0,1-1.452-1c.264-.941.49-1.113,1.486-1.113q15.062,0,30.124,0a3.244,3.244,0,0,1,3.527,3.478q.014,16.747,0,33.494a3.242,3.242,0,0,1-3.467,3.468q-5.126.008-10.252,0c-.94,0-1.2-.2-1.434-1.084.267-.846.5-1.02,1.415-1.023q3.888-.014,7.776-.024c.748.01,1.5.026,2.243.027,1.278,0,1.617-.336,1.618-1.62,0-3.322-.011-6.643.013-9.965a1.554,1.554,0,0,0-.521-1.219q-4.187-4.149-8.344-8.329c-1.278-1.278-1.278-1.278-2.468.133-.09.074-.187.141-.269.223q-10.2,10.2-20.4,20.4c-.085.085-.256.149-.159.372H81.6c5.007,0,10.015.012,15.022-.012a1.326,1.326,0,0,1,1.515,1.027c-.441,1.061-.492,1.094-1.7,1.094H72.926A3.288,3.288,0,0,1,69.28,114.7q-.005-16.6,0-33.19a3.278,3.278,0,0,1,3.6-3.612q1.895,0,3.789,0c.992,0,1.218.172,1.487,1.113m-6.711,32.984h-.052c0,.959-.01,1.919,0,2.878s.419,1.35,1.385,1.355c1.474.007,2.949-.008,4.423.009a1.084,1.084,0,0,0,.864-.342q3.459-3.492,6.949-6.952c.326-.322.268-.471-.02-.756q-3.1-3.06-6.154-6.158c-.367-.374-.546-.3-.868.033-1.391,1.422-2.812,2.815-4.217,4.223-.776.778-1.851,1.441-2.227,2.382-.387.966-.086,2.207-.086,3.328" transform="translate(-56.273 -63.271)" fill="#030303"/>
            <path id="Trazado_183306" data-name="Trazado 183306" d="M148.42,192.263a1.326,1.326,0,0,0-1.514-1.026c-5.007.024-10.015.012-15.022.012h-.673c-.1-.223.074-.287.159-.372q10.2-10.2,20.4-20.4c.082-.082.179-.149.269-.223a1.794,1.794,0,0,0,.531.641q3.592,3.6,7.2,7.186a1.411,1.411,0,0,1,.461,1.1c-.019,2.992-.034,5.985,0,8.977a5.123,5.123,0,0,1-.73,3.064q-3.888.012-7.776.024c-.911,0-1.148.177-1.415,1.023l-1.886-.009" transform="translate(-106.557 -138.293)" fill="#ffa726"/>
            <path id="Trazado_183307" data-name="Trazado 183307" d="M136,121.064a5.807,5.807,0,1,1,5.783,5.828A5.794,5.794,0,0,1,136,121.064m2.1,0a3.7,3.7,0,1,0,3.684-3.7,3.708,3.708,0,0,0-3.684,3.7" transform="translate(-110.469 -93.619)" fill="#030303"/>
            <path id="Trazado_183308" data-name="Trazado 183308" d="M283.586,89.152c.794-.008,1.588-.037,2.382-.018a1.112,1.112,0,0,1,1.174,1.133c.01.116.009.234.009.35q0,9.4,0,18.79c0,.157-.016.315-.023.458l-2.718-2.565c.006-5.2.029-10.407,0-15.611a3.746,3.746,0,0,0-.823-2.538" transform="translate(-230.352 -72.397)" fill="#b1f9ff"/>
            <path id="Trazado_183309" data-name="Trazado 183309" d="M80.352,215.34c0-1.121-.3-2.362.086-3.328.376-.941,1.451-1.6,2.227-2.382,1.405-1.408,2.826-2.8,4.217-4.223.322-.329.5-.407.868-.033q3.048,3.107,6.154,6.159c.288.285.347.434.02.756q-3.5,3.452-6.949,6.952a1.084,1.084,0,0,1-.864.342c-1.474-.017-2.949,0-4.423-.009-.967,0-1.372-.4-1.385-1.355s0-1.919,0-2.878h.052" transform="translate(-65.178 -166.62)" fill="#ffa726"/>
            <path id="Trazado_183310" data-name="Trazado 183310" d="M249.744,186.573a5.122,5.122,0,0,0,.73-3.064c-.037-2.992-.022-5.984,0-8.977a1.411,1.411,0,0,0-.461-1.1q-3.612-3.579-7.2-7.186a1.794,1.794,0,0,1-.531-.642c1.191-1.41,1.191-1.41,2.468-.133q4.169,4.168,8.344,8.329a1.555,1.555,0,0,1,.521,1.22c-.024,3.321-.011,6.643-.013,9.964,0,1.284-.34,1.623-1.618,1.62-.748,0-1.5-.018-2.243-.027" transform="translate(-196.804 -133.641)" fill="#ffa726"/>
            <path id="Trazado_183311" data-name="Trazado 183311" d="M147.189,130.182a3.7,3.7,0,0,1,7.4-.026,3.7,3.7,0,1,1-7.4.026" transform="translate(-119.559 -102.741)" fill="#fdd835"/>
          </g>
        </g>
      </g>
    </g>
  </g>
</svg>
