<svg xmlns="http://www.w3.org/2000/svg" width="152.098" height="240.756" viewBox="0 0 152.098 240.756">
  <g id="Grupo_120888" data-name="Grupo 120888" transform="translate(-1131.286 -5906.581)">
    <path id="Trazado_182923" data-name="Trazado 182923" d="M266.39,749.862a101.111,101.111,0,0,1-34.8-6.137l34.8,26.128,34.8-26.128a101.111,101.111,0,0,1-34.8,6.137" transform="translate(946.004 5377.484)" fill="#f57c00"/>
    <path id="Trazado_182891" data-name="Trazado 182891" d="M2321.489,169.622a76.049,76.049,0,1,1-76.049-76.049,76.049,76.049,0,0,1,76.049,76.049" transform="translate(-1038.105 5813.008)" fill="#fff3bf"/>
    <path id="Trazado_183157" data-name="Trazado 183157" d="M11,0A11,11,0,1,1,0,11,11,11,0,0,1,11,0Z" transform="translate(1201.59 6099)" fill="#ffa726"/>
    <path id="Trazado_183158" data-name="Trazado 183158" d="M7,0A7,7,0,1,1,0,7,7,7,0,0,1,7,0Z" transform="translate(1205.59 6103)" fill="#ffd1a2"/>
    <path id="Trazado_183156" data-name="Trazado 183156" d="M-11.48-4.6h-2.672V0H-15.66V-11.375h3.766a4.457,4.457,0,0,1,2.957.875A3.148,3.148,0,0,1-7.9-7.953,3.062,3.062,0,0,1-8.477-6.1a3.428,3.428,0,0,1-1.6,1.18L-7.4-.094V0H-9.012Zm-2.672-1.227h2.3a2.6,2.6,0,0,0,1.777-.579,1.959,1.959,0,0,0,.66-1.55,2.062,2.062,0,0,0-.629-1.62,2.663,2.663,0,0,0-1.816-.571h-2.3ZM.48-2.977H-4.285L-5.355,0H-6.9l4.344-11.375h1.313L3.105,0H1.566ZM-3.832-4.2H.035L-1.9-9.523Zm10.383.617.219,1.5.32-1.352,2.25-7.937h1.266l2.2,7.938.313,1.375.242-1.531,1.766-7.781h1.508L13.871,0H12.5L10.16-8.289l-.18-.867-.18.867L7.371,0H6L3.254-11.375h1.5Z" transform="translate(1207.285 6034.7)" fill="#12263f"/>
    <g id="raw-file-format-symbol" transform="translate(1103.686 5927.854)">
      <g id="Grupo_85501" data-name="Grupo 85501" transform="translate(75.6 0)">
        <path id="Trazado_105558" data-name="Trazado 105558" d="M240.056,415.146h-.049c-.245.979-.49,2.228-.76,3.183l-.978,3.5h3.648l-1.028-3.5C240.594,417.35,240.3,416.125,240.056,415.146Z" transform="translate(-215.19 -356.246)" fill="#f57c00"/>
        <path id="Trazado_105559" data-name="Trazado 105559" d="M132.278,18.727a1.506,1.506,0,0,0-.363-.992L116.847.524s-.009-.006-.012-.011a1.544,1.544,0,0,0-.305-.256c-.033-.021-.066-.04-.1-.06a1.609,1.609,0,0,0-.3-.127c-.029-.008-.054-.02-.082-.027A1.5,1.5,0,0,0,115.693,0H78.665A3.068,3.068,0,0,0,75.6,3.065V75.081a3.067,3.067,0,0,0,3.065,3.065H129.23a3.068,3.068,0,0,0,3.065-3.065V18.9A1.353,1.353,0,0,0,132.278,18.727ZM88.2,72.609a20.594,20.594,0,0,1-1.151-3.845c-.441-2.057-1.151-2.619-2.668-2.642H83.254v6.487h-3.7V56.329a32.737,32.737,0,0,1,4.969-.343c2.448,0,4.162.368,5.336,1.3a4.188,4.188,0,0,1,1.518,3.452A4.38,4.38,0,0,1,88.468,64.8v.073c1.149.465,1.787,1.568,2.2,3.085.513,1.861,1.028,4.016,1.346,4.651Zm15.94,0-1.273-4.235H98.14l-1.174,4.235H93.1l5.043-16.5h4.9l5.118,16.5Zm20.322,0h-4.04l-1.4-7.1c-.317-1.665-.588-3.207-.782-5.092h-.049c-.294,1.861-.563,3.427-.955,5.092l-1.567,7.1h-4.089l-3.917-16.5h3.989l1.25,6.805c.367,1.959.709,4.089.979,5.754h.049c.27-1.787.661-3.77,1.077-5.8l1.4-6.758h3.965l1.324,6.952c.367,1.935.636,3.7.881,5.534h.049c.244-1.835.612-3.77.953-5.729l1.347-6.758h3.795Zm-45.8-20.576V3.065h35.5v15.68a1.533,1.533,0,0,0,1.532,1.532H129.23V52.034Z" transform="translate(-75.6 0)" fill="#f57c00"/>
        <path id="Trazado_105560" data-name="Trazado 105560" d="M131.236,414.113a9.318,9.318,0,0,0-1.689.123v4.554h1.469c1.86,0,2.961-.931,2.961-2.375C133.977,414.9,132.95,414.138,131.236,414.113Z" transform="translate(-121.893 -355.36)" fill="#f57c00"/>
        <path id="Trazado_105561" data-name="Trazado 105561" d="M299.342,159.072l10.159-2.606a17.65,17.65,0,0,0-4.158-9.892Z" transform="translate(-267.598 -125.778)" fill="#26ccda"/>
        <path id="Trazado_105562" data-name="Trazado 105562" d="M184.389,218.746a17.654,17.654,0,0,0,8.075,7.07l-.085-13.865Z" transform="translate(-168.954 -181.879)" fill="#26ccda"/>
        <path id="Trazado_105563" data-name="Trazado 105563" d="M270.34,121.856a17.65,17.65,0,0,0-10.357-2.814l6.156,12.424Z" transform="translate(-233.823 -102.145)" fill="#26ccda"/>
        <path id="Trazado_105564" data-name="Trazado 105564" d="M249.808,249.363a17.649,17.649,0,0,0,10.541-2.012l-10.976-8.467Z" transform="translate(-224.719 -204.992)" fill="#26ccda"/>
        <path id="Trazado_105565" data-name="Trazado 105565" d="M196.66,121.216a17.643,17.643,0,0,0-8.593,6.429l13.578,2.8Z" transform="translate(-172.111 -104.018)" fill="#26ccda"/>
        <path id="Trazado_105566" data-name="Trazado 105566" d="M284.453,233.96a17.649,17.649,0,0,0,4.9-9.546l-13.43,3.438Z" transform="translate(-247.505 -192.575)" fill="#26ccda"/>
        <path id="Trazado_105567" data-name="Trazado 105567" d="M177.1,176.774a17.659,17.659,0,0,0-.225,10.73l10.565-8.978Z" transform="translate(-161.899 -151.694)" fill="#26ccda"/>
      </g>
    </g>
  </g>
</svg>
