<svg xmlns="http://www.w3.org/2000/svg" width="152.098" height="240.756" viewBox="0 0 152.098 240.756">
  <g id="Grupo_120882" data-name="Grupo 120882" transform="translate(-1029 -8264.79)">
    <path id="Trazado_183106" data-name="Trazado 183106" d="M266.39,749.862a101.111,101.111,0,0,1-34.8-6.137l34.8,26.128,34.8-26.128a101.111,101.111,0,0,1-34.8,6.137" transform="translate(843.719 7735.693)" fill="#f57c00"/>
    <path id="Trazado_183105" data-name="Trazado 183105" d="M2321.489,169.622a76.049,76.049,0,1,1-76.049-76.049,76.049,76.049,0,0,1,76.049,76.049" transform="translate(-1140.391 8171.217)" fill="#fff3bf"/>
    <path id="Trazado_183184" data-name="Trazado 183184" d="M11,0A11,11,0,1,1,0,11,11,11,0,0,1,11,0Z" transform="translate(1099.305 8457.209)" fill="#ffa726"/>
    <path id="Trazado_183188" data-name="Trazado 183188" d="M7,0A7,7,0,1,1,0,7,7,7,0,0,1,7,0Z" transform="translate(1103.305 8461.209)" fill="#ffd1a2"/>
    <path id="Trazado_183180" data-name="Trazado 183180" d="M-13.277,0V-11.375h3.211a5.169,5.169,0,0,1,2.625.656A4.438,4.438,0,0,1-5.68-8.852,6.078,6.078,0,0,1-5.051-6.07v.727a6.1,6.1,0,0,1-.621,2.82A4.369,4.369,0,0,1-7.445-.664,5.5,5.5,0,0,1-10.129,0Zm1.5-10.148v8.922H-10.2A3.434,3.434,0,0,0-7.5-2.306a4.458,4.458,0,0,0,.965-3.073v-.665a4.529,4.529,0,0,0-.91-3.014,3.239,3.239,0,0,0-2.582-1.091ZM.754-7.016,3.48-11.375H5.246L1.652-5.734,5.332,0H3.551L.754-4.437-2.059,0H-3.832L-.145-5.734l-3.6-5.641h1.758ZM13.348-5.023H8.574V0h-1.5V-11.375h7.047v1.227H8.574v3.9h4.773Z" transform="translate(1105 8392.909)" fill="#12263f"/>
    <g id="dxf-file-format-symbol" transform="translate(1001.051 8286.063)">
      <g id="Grupo_120878" data-name="Grupo 120878" transform="translate(75.6)">
        <g id="Grupo_120877" data-name="Grupo 120877">
          <path id="Trazado_183114" data-name="Trazado 183114" d="M152.25,417.678a8.048,8.048,0,0,0-1.775.156v11.348a7.3,7.3,0,0,0,1.364.076c3.552.027,5.867-1.93,5.867-6.073C157.732,419.583,155.622,417.678,152.25,417.678Z" transform="translate(-139.852 -358.419)" fill="#f57c00"/>
          <path id="Trazado_183115" data-name="Trazado 183115" d="M132.279,18.728a1.513,1.513,0,0,0-.363-.992L116.847.524s-.008-.006-.012-.01a1.508,1.508,0,0,0-.3-.256c-.033-.022-.066-.041-.1-.06a1.624,1.624,0,0,0-.3-.127c-.028-.009-.054-.02-.082-.028A1.545,1.545,0,0,0,115.7,0H78.665A3.069,3.069,0,0,0,75.6,3.065V75.082a3.068,3.068,0,0,0,3.065,3.065H129.23a3.067,3.067,0,0,0,3.065-3.065V18.9A1.637,1.637,0,0,0,132.279,18.728ZM94.741,71.663c-1.826,1.52-4.606,2.239-8,2.239a33.706,33.706,0,0,1-4.453-.257V56.609a34.957,34.957,0,0,1,5.3-.361c3.294,0,5.43.591,7.1,1.854a7.671,7.671,0,0,1,2.934,6.535A8.8,8.8,0,0,1,94.741,71.663Zm13.741,2.06-1.57-3.139c-.643-1.211-1.055-2.112-1.544-3.114h-.052c-.36,1-.8,1.9-1.338,3.114l-1.44,3.139H98.06l5.018-8.775-4.838-8.572h4.5l1.518,3.166c.515,1.055.9,1.9,1.313,2.882h.052c.411-1.1.746-1.878,1.184-2.882l1.466-3.166h4.479l-4.89,8.467,5.147,8.879Zm17.24-14.129h-6.665v3.964h6.228v3.19h-6.228v6.975h-3.938V56.377h10.6v3.217h0Zm-47.058-7.56V3.065h35.5v15.68a1.532,1.532,0,0,0,1.532,1.532H129.23l0,31.757Z" transform="translate(-75.6)" fill="#f57c00"/>
        </g>
        <path id="Trazado_183116" data-name="Trazado 183116" d="M187.68,127.574q-2.957-7.018-5.923-14.034c-1.085-2.566-2.179-5.125-3.262-7.692q-1.771-4.191-3.524-8.391a1.658,1.658,0,0,0-1.312-1.144c-.031-.006-10.073.037-10.093.037a1.266,1.266,0,0,0-1.229.9c-.317.739-.624,1.482-.934,2.223q-1.732,4.142-3.462,8.281-2.162,5.173-4.322,10.344c-.128.3-.275.6-.379.917a2.7,2.7,0,0,0-.114.48l-.024-.025s0,.053.009.15a1.9,1.9,0,0,0,.043.627l2.38,6.63c.717,2.326,1.8,1.585,3.033,1.079s14.793-6.282,14.793-6.282l-17.778-.18,6.389-.513,6.007-14.486L165.3,97.956l3.543,7.587q1.224,2.9,2.443,5.807,2.2,5.208,4.4,10.416c1.216,2.884,1.326,3.138,2.536,6.024h9.521C187.361,126.839,188.078,128.521,187.68,127.574Z" transform="translate(-142.106 -82.649)" fill="#26ccda"/>
      </g>
    </g>
  </g>
</svg>
