<svg xmlns="http://www.w3.org/2000/svg" xmlns:xlink="http://www.w3.org/1999/xlink" width="136" height="132" viewBox="0 0 136 132">
  <defs>
    <clipPath id="clip-path">
      <rect id="Rect치ngulo_38235" data-name="Rect치ngulo 38235" width="91.427" height="91.427" fill="none"/>
    </clipPath>
  </defs>
  <g id="Grupo_120937" data-name="Grupo 120937" transform="translate(-991.285 -13678)">
    <rect id="Rect치ngulo_38233" data-name="Rect치ngulo 38233" width="136" height="132" rx="66" transform="translate(991.285 13678)" fill="#fff"/>
    <g id="Grupo_120933" data-name="Grupo 120933" transform="translate(1013.572 13698.286)">
      <g id="Grupo_120932" data-name="Grupo 120932" clip-path="url(#clip-path)">
        <path id="Trazado_183247" data-name="Trazado 183247" d="M373.445,199.919a2.4,2.4,0,0,1-2.183.88c-1.989-.041-3.978-.014-5.968-.012a3.122,3.122,0,0,1-1.055-.121,1.288,1.288,0,0,1-.929-1.275,1.24,1.24,0,0,1,.917-1.275,3.416,3.416,0,0,1,.961-.13c2.108-.011,4.216.014,6.324-.015a1.9,1.9,0,0,1,1.932,1.055Z" transform="translate(-282.017 -153.673)" fill="#080808"/>
        <path id="Trazado_183248" data-name="Trazado 183248" d="M198.832,373.446a2.4,2.4,0,0,1-.88-2.183c.041-1.989.014-3.978.012-5.968a3.122,3.122,0,0,1,.121-1.055,1.288,1.288,0,0,1,1.275-.929,1.24,1.24,0,0,1,1.275.917,3.418,3.418,0,0,1,.13.961c.011,2.108-.014,4.216.015,6.324a1.9,1.9,0,0,1-1.055,1.932Z" transform="translate(-153.659 -282.018)" fill="#080808"/>
        <path id="Trazado_183249" data-name="Trazado 183249" d="M100.04,102.187l2.209-2.195a1.51,1.51,0,0,0,2.159.053c.3-.239.62-.459.938-.677a23.825,23.825,0,0,1,18.1-4.007l.308.077.041-.013c.08.266.326.339.537.429a24.47,24.47,0,0,1,6.07,3.806,25.537,25.537,0,0,1,9.146,21.451,25.85,25.85,0,0,1-3.095,10.73,26.207,26.207,0,0,1-9.885,10.09c-.911.539-2.007.727-2.773,1.515l-.042-.014-.308.077a23.851,23.851,0,0,1-14.989-2.176A24.44,24.44,0,0,1,99.9,104.571c.8-1.057.8-1.422.142-2.384" transform="translate(-73.626 -73.727)" fill="#fed247"/>
        <path id="Trazado_183250" data-name="Trazado 183250" d="M113.928,133.74l.042.014c.206-.025.414-.035.616-.076A24.461,24.461,0,0,0,133.8,112.5a23.905,23.905,0,0,0-8.677-21.558,22.441,22.441,0,0,0-11.154-5.209l-.042.013-.308-.077a23.824,23.824,0,0,0-18.1,4.007c-.318.217-.636.438-.938.676a1.51,1.51,0,0,1-2.159-.053c-.447-1.09-.328-1.528.582-2.217a26.1,26.1,0,0,1,19.162-5.418c9.828,1.1,17.107,6.162,21.695,14.961A25.17,25.17,0,0,1,136.6,112.4c-1.145,9.824-6.169,17.106-14.966,21.7a25.171,25.171,0,0,1-14.769,2.739c-9.788-1.136-17.2-6.06-21.624-14.9-4.616-9.233-3.889-18.366,1.513-27.136.358-.58.783-1.12,1.188-1.67.722-.98,1.161-1.1,2.274-.633.66.962.661,1.327-.142,2.384a24.44,24.44,0,0,0,8.556,36.765,23.852,23.852,0,0,0,14.989,2.176l.308-.077" transform="translate(-63.802 -64.033)" fill="#040403"/>
        <path id="Trazado_183251" data-name="Trazado 183251" d="M200.8,5.13c0,1.1.014,2.2,0,3.3-.018,1.065-.579,1.723-1.415,1.711S198,9.475,198,8.4q-.02-3.346,0-6.692C198,.639,198.569-.011,199.411,0s1.368.661,1.382,1.739c.015,1.13,0,2.26,0,3.39" transform="translate(-153.685 0)" fill="#080808"/>
        <path id="Trazado_183252" data-name="Trazado 183252" d="M5.018,200.8c-1.1,0-2.2.013-3.3,0C.644,200.777,0,200.232,0,199.39S.655,198,1.727,198q3.346-.022,6.692,0c1.067.007,1.726.569,1.722,1.4s-.66,1.378-1.733,1.394c-1.13.016-2.26,0-3.39,0" transform="translate(0 -153.686)" fill="#080808"/>
        <path id="Trazado_183253" data-name="Trazado 183253" d="M105.6,34.158a1.362,1.362,0,0,1-.99,1.46,1.306,1.306,0,0,1-1.589-.66c-.678-1.146-1.339-2.3-2.006-3.455-.519-.9-1.051-1.786-1.549-2.694a1.426,1.426,0,0,1,.408-2.085,1.394,1.394,0,0,1,1.95.667c1.189,2.013,2.351,4.041,3.514,6.069a1.489,1.489,0,0,1,.26.7" transform="translate(-77.004 -20.602)" fill="#050505"/>
        <path id="Trazado_183254" data-name="Trazado 183254" d="M282.027,35.62a1.323,1.323,0,0,1-1.184-1.909c1.209-2.237,2.5-4.434,3.8-6.616a1.35,1.35,0,0,1,2.335,1.342c-1.239,2.222-2.523,4.418-3.808,6.614a1.277,1.277,0,0,1-1.146.568" transform="translate(-217.885 -20.537)" fill="#050505"/>
        <path id="Trazado_183255" data-name="Trazado 183255" d="M35.659,282.312A1.321,1.321,0,0,1,34.9,283.4c-2.071,1.208-4.141,2.416-6.228,3.6a1.377,1.377,0,1,1-1.384-2.378c2.087-1.237,4.184-2.458,6.31-3.627a1.355,1.355,0,0,1,2.065,1.324" transform="translate(-20.6 -217.957)" fill="#050505"/>
        <path id="Trazado_183256" data-name="Trazado 183256" d="M350.325,285.806a1.376,1.376,0,0,1-2.172,1.13c-1.426-.784-2.826-1.616-4.236-2.428-.641-.369-1.292-.724-1.917-1.119a1.423,1.423,0,0,1-.612-1.974,1.363,1.363,0,0,1,1.946-.431c2.09,1.173,4.162,2.379,6.232,3.585a1.423,1.423,0,0,1,.758,1.236" transform="translate(-264.851 -217.935)" fill="#050505"/>
        <path id="Trazado_183257" data-name="Trazado 183257" d="M35.644,104.154A1.309,1.309,0,0,1,33.7,105.34c-2.206-1.205-4.376-2.475-6.533-3.767a1.262,1.262,0,0,1-.459-1.789,1.311,1.311,0,0,1,1.835-.545c2.17,1.21,4.312,2.469,6.457,3.723a1.278,1.278,0,0,1,.649,1.192" transform="translate(-20.582 -76.896)" fill="#050505"/>
        <path id="Trazado_183258" data-name="Trazado 183258" d="M350.324,100.362a1.516,1.516,0,0,1-.771,1.37c-2.071,1.205-4.143,2.408-6.231,3.584a1.358,1.358,0,0,1-1.942-.431,1.379,1.379,0,0,1,.539-1.92c2.084-1.242,4.176-2.471,6.3-3.644a1.366,1.366,0,0,1,2.1,1.041" transform="translate(-264.845 -76.942)" fill="#050505"/>
        <path id="Trazado_183259" data-name="Trazado 183259" d="M105.538,342.678a1.407,1.407,0,0,1-.253.749c-1.164,2.027-2.328,4.055-3.513,6.07a1.382,1.382,0,1,1-2.413-1.319c1.176-2.088,2.384-4.159,3.6-6.227a1.328,1.328,0,0,1,1.676-.647,1.31,1.31,0,0,1,.907,1.375" transform="translate(-76.945 -264.868)" fill="#050505"/>
        <path id="Trazado_183260" data-name="Trazado 183260" d="M282.424,341.221a1.362,1.362,0,0,1,1.05.8c1.19,2.047,2.384,4.091,3.544,6.155a1.385,1.385,0,0,1-.464,2,1.366,1.366,0,0,1-1.94-.668c-1.186-2.015-2.365-4.034-3.51-6.072a1.413,1.413,0,0,1,1.32-2.215" transform="translate(-218.018 -264.871)" fill="#050505"/>
        <path id="Trazado_183261" data-name="Trazado 183261" d="M224.206,96.975a22.441,22.441,0,0,1,11.154,5.209,23.9,23.9,0,0,1,8.677,21.558,24.461,24.461,0,0,1-19.214,21.178c-.2.041-.411.051-.616.076.766-.788,1.862-.977,2.773-1.515a26.208,26.208,0,0,0,9.885-10.091,25.85,25.85,0,0,0,3.095-10.73,25.538,25.538,0,0,0-9.146-21.451,24.469,24.469,0,0,0-6.07-3.805c-.211-.09-.457-.163-.537-.429" transform="translate(-174.039 -75.276)" fill="#fcbc30"/>
        <path id="Trazado_183262" data-name="Trazado 183262" d="M222.642,96.691l.308.077-.308-.077" transform="translate(-172.825 -75.056)" fill="#fcbc30"/>
        <path id="Trazado_183263" data-name="Trazado 183263" d="M222.95,311.532l-.308.077.308-.077" transform="translate(-172.825 -241.825)" fill="#fcbc30"/>
      </g>
    </g>
  </g>
</svg>
