<svg xmlns="http://www.w3.org/2000/svg" width="298.493" height="300.674" viewBox="0 0 298.493 300.674">
  <g id="Trazado_183719" data-name="Trazado 183719" fill="#ffd1a2">
    <path d="M 288.4931640625 299.673828125 L 10.00000476837158 299.673828125 C 5.037389755249023 299.673828125 1.000005125999451 295.6364440917969 1.000005125999451 290.673828125 L 1.000005125999451 9.999991416931152 C 1.000005125999451 5.037375450134277 5.037389755249023 0.9999909996986389 10.00000476837158 0.9999909996986389 L 288.4931640625 0.9999909996986389 C 293.4557800292969 0.9999909996986389 297.4931640625 5.037375450134277 297.4931640625 9.999991416931152 L 297.4931640625 290.673828125 C 297.4931640625 295.6364440917969 293.4557800292969 299.673828125 288.4931640625 299.673828125 Z" stroke="none"/>
    <path d="M 10 2 C 5.588775634765625 2 2 5.5887451171875 2 10 L 2 290.673828125 C 2 295.0850830078125 5.588775634765625 298.673828125 10 298.673828125 L 288.4931640625 298.673828125 C 292.9043884277344 298.673828125 296.4931640625 295.0850830078125 296.4931640625 290.673828125 L 296.4931640625 10 C 296.4931640625 5.5887451171875 292.9043884277344 2 288.4931640625 2 L 10 2 M 10 0 L 288.4931640625 0 C 294.0159912109375 0 298.4931640625 4.477142333984375 298.4931640625 10 L 298.4931640625 290.673828125 C 298.4931640625 296.1966857910156 294.0159912109375 300.673828125 288.4931640625 300.673828125 L 10 300.673828125 C 4.47711181640625 300.673828125 0 296.1966857910156 0 290.673828125 L 0 10 C 0 4.477142333984375 4.47711181640625 0 10 0 Z" stroke="none" fill="#ffa726"/>
  </g>
</svg>
