<svg xmlns="http://www.w3.org/2000/svg" xmlns:xlink="http://www.w3.org/1999/xlink" width="120" height="120" viewBox="0 0 120 120">
  <defs>
    <clipPath id="clip-path">
      <rect id="Rectángulo_38249" data-name="Rectángulo 38249" width="77.319" height="77.33" fill="none"/>
    </clipPath>
  </defs>
  <g id="Grupo_121094" data-name="Grupo 121094" transform="translate(-285.285 -1427)">
    <g id="Elipse_5230" data-name="Elipse 5230" transform="translate(285.285 1427)" fill="#fff" stroke="#26ccda" stroke-width="4">
      <circle cx="60" cy="60" r="60" stroke="none"/>
      <circle cx="60" cy="60" r="58" fill="none"/>
    </g>
    <g id="Grupo_120943" data-name="Grupo 120943" transform="translate(306.626 1446)">
      <g id="Grupo_120942" data-name="Grupo 120942" clip-path="url(#clip-path)">
        <path id="Trazado_183331" data-name="Trazado 183331" d="M71.726,77.33a10,10,0,0,1-3.836-2.909q-8.055-8.065-16.107-16.133c-.423-.426-.681-.474-1.165-.122a29.518,29.518,0,0,1-13.3,5.5C25.008,65.41,14.777,61.5,6.867,51.867A30.988,30.988,0,0,1,.15,35.194c-.017-.156.082-.364-.15-.455V29.152a5.055,5.055,0,0,0,.41-2.011A31.779,31.779,0,0,1,25.18.773c11.239-2.3,21.131.544,29.4,8.526a30.379,30.379,0,0,1,8.983,17.122,31.618,31.618,0,0,1-5.185,23.885c-.63.927-.657.958.166,1.721a1.461,1.461,0,0,1,.332,2.006,1.525,1.525,0,0,1-2.108-.526c-.3-.38-.525-.394-.88-.012-.769.828-1.574,1.628-2.414,2.383-.422.38-.338.585.016.938q8.738,8.708,17.456,17.436a2.109,2.109,0,0,0,3.3.047,2.131,2.131,0,0,0-.058-3.358Q67.71,64.452,61.216,57.983a1.59,1.59,0,0,1-.468-2.067,1.579,1.579,0,0,1,2.118.435c4.284,4.327,8.6,8.619,12.9,12.932a4.409,4.409,0,0,1,.826,5.75,5.582,5.582,0,0,1-3.208,2.3ZM32.021,61.821A29.763,29.763,0,1,0,2.294,32,29.688,29.688,0,0,0,32.021,61.821" transform="translate(0 0)" fill="#020203"/>
        <path id="Trazado_183332" data-name="Trazado 183332" d="M288.629,283.928a1.59,1.59,0,0,0,.468,2.066q6.507,6.458,12.971,12.958a2.131,2.131,0,0,1,.058,3.358,2.109,2.109,0,0,1-3.3-.047q-8.731-8.715-17.456-17.436c-.354-.353-.439-.558-.017-.938.84-.756,1.645-1.555,2.414-2.383.355-.382.58-.369.88.012a1.525,1.525,0,0,0,2.107.526,10.016,10.016,0,0,1,1.877,1.883" transform="translate(-227.881 -228.012)" fill="#f57c00"/>
        <path id="Trazado_183333" data-name="Trazado 183333" d="M41.848,71.651A29.763,29.763,0,1,1,71.622,41.958,29.639,29.639,0,0,1,41.848,71.651m27.506-29.68A27.5,27.5,0,1,0,42.138,69.426,27.443,27.443,0,0,0,69.354,41.971" transform="translate(-9.828 -9.831)" fill="#26ccda"/>
        <path id="Trazado_183334" data-name="Trazado 183334" d="M78.947,51.6A27.5,27.5,0,1,1,51.35,24a27.41,27.41,0,0,1,27.6,27.6M44.483,36.271c-.881-.2-1.152-.51-1.177-1.383-.016-.578-.006-1.158,0-1.737.006-1.242.376-1.612,1.623-1.612q7.059,0,14.117,0c1.276,0,1.614.334,1.614,1.6,0,4.253.013,8.507-.013,12.76,0,.586.137.753.74.749,4.2-.031,8.4-.021,12.607-.023,1.485,0,1.768.28,1.769,1.748q0,4.736,0,9.471a1.184,1.184,0,0,0,.286-.589,25.235,25.235,0,0,0-30.7-30.209A25.255,25.255,0,0,0,26.4,54.582a23.735,23.735,0,0,0,1.921,7.02c.069.152.067.483.329.365,1.093-.491,2.232-.173,3.346-.229a1.085,1.085,0,0,1,1.24,1.115,1.141,1.141,0,0,1-1.167,1.138c-.374.034-.754.009-1.132.013-.2,0-.433-.028-.427.277a2.988,2.988,0,0,0,.389,1.932,26.084,26.084,0,0,0,7.558,6.954A22.348,22.348,0,0,0,43.2,75.381c.043-.1.077-.148.077-.192,0-3.574,0-7.148.017-10.722,0-.444-.2-.472-.543-.47q-2.755.017-5.511,0c-.964-.006-1.48-.454-1.476-1.235,0-.621.577-1.037,1.468-1.04,1.736-.006,3.473-.031,5.209.013.661.017.882-.123.879-.844C43.29,54.1,43.3,47.3,43.3,40.506c0-1.133.185-1.4,1.181-1.709a1.337,1.337,0,0,1,1.1,1.549c-.033,1.862.013,3.725-.024,5.587-.011.566.141.715.709.712q5.737-.04,11.475,0c.529,0,.67-.138.667-.667q-.034-5.739,0-11.477c0-.551-.113-.715-.693-.71-3.7.03-7.4.015-11.1.015-1.032,0-1.055,0-1.041,1.016.011.791-.272,1.312-1.094,1.45m7.494,25.439c1.937,0,3.874-.013,5.81.009.445.005.61-.09.607-.576q-.03-5.849,0-11.7c0-.43-.12-.548-.548-.547q-5.848.023-11.7,0c-.484,0-.578.16-.576.606q.024,5.811,0,11.623c0,.464.131.6.595.594,1.936-.024,3.873-.01,5.81-.01m8.682-6.381c0,1.911.018,3.822-.012,5.732-.008.523.131.678.666.674q5.769-.034,11.538,0c.556,0,.649-.187.647-.687q-.028-5.77,0-11.54c0-.487-.121-.629-.62-.626q-5.806.032-11.613,0c-.51,0-.623.159-.616.638.025,1.935.01,3.872.01,5.807m-15.09,14.68c0,1.835.012,3.67-.009,5.5,0,.418.09.638.535.727a26.167,26.167,0,0,0,11.795-.265.568.568,0,0,0,.512-.667q-.018-5.392,0-10.784c0-.44-.148-.546-.563-.545q-5.843.02-11.686,0c-.463,0-.6.141-.594.6.023,1.81.009,3.62.009,5.43m27.851-6h-7.3c-1.634,0-3.269.006-4.9,0-.345,0-.553.027-.551.473.017,3.489.009,6.978.009,10.554A25.544,25.544,0,0,0,73.42,64.009" transform="translate(-19.42 -19.461)" fill="#020203"/>
        <path id="Trazado_183335" data-name="Trazado 183335" d="M54.147,48.5c-1,.313-1.181.576-1.181,1.709,0,6.8-.013,13.591.018,20.386,0,.721-.218.861-.879.844-1.735-.044-3.472-.019-5.209-.013-.891,0-1.465.419-1.468,1.04,0,.781.512,1.23,1.476,1.236q2.755.017,5.511,0c.347,0,.545.027.543.47-.019,3.574-.013,7.148-.017,10.722,0,.044-.034.088-.077.192a22.353,22.353,0,0,1-4.746-2.215,26.084,26.084,0,0,1-7.558-6.954,2.987,2.987,0,0,1-.389-1.932c-.006-.305.228-.274.427-.277.377,0,.757.021,1.132-.013A1.141,1.141,0,0,0,42.9,72.559a1.084,1.084,0,0,0-1.24-1.115c-1.114.055-2.254-.263-3.346.228-.262.118-.26-.213-.329-.365a23.736,23.736,0,0,1-1.921-7.02A25.255,25.255,0,0,1,55.007,36.75a25.235,25.235,0,0,1,30.7,30.209,1.183,1.183,0,0,1-.286.589q0-4.736,0-9.471c0-1.467-.284-1.748-1.769-1.747-4.2,0-8.4-.008-12.607.023-.6,0-.743-.163-.739-.749.025-4.253.015-8.507.013-12.76,0-1.264-.338-1.6-1.614-1.6q-7.058,0-14.117,0c-1.248,0-1.617.37-1.624,1.612,0,.579-.013,1.158,0,1.737.025.873.3,1.181,1.177,1.383q0,1.264,0,2.527" transform="translate(-29.083 -29.168)" fill="#b1f9ff"/>
        <path id="Trazado_183336" data-name="Trazado 183336" d="M132.449,80.73q0-1.263,0-2.527c.822-.139,1.1-.659,1.094-1.45-.014-1.015.009-1.015,1.042-1.015,3.7,0,7.4.015,11.1-.015.58,0,.7.16.693.71q-.037,5.739,0,11.477c0,.529-.138.67-.667.666q-5.737-.034-11.475,0c-.569,0-.721-.146-.71-.711.037-1.862-.009-3.725.024-5.587a1.337,1.337,0,0,0-1.1-1.549" transform="translate(-107.385 -61.394)" fill="#f57c00"/>
        <path id="Trazado_183337" data-name="Trazado 183337" d="M144.611,168.369c-1.937,0-3.874-.014-5.81.01-.463.006-.6-.129-.595-.594q.026-5.811,0-11.623c0-.446.092-.609.576-.607q5.848.029,11.7,0c.428,0,.55.117.548.547q-.024,5.849,0,11.7c0,.486-.162.581-.607.576-1.937-.022-3.873-.01-5.81-.01" transform="translate(-112.054 -126.121)" fill="#ffa726"/>
        <path id="Trazado_183338" data-name="Trazado 183338" d="M217.881,161.932c0-1.936.015-3.872-.01-5.807-.006-.479.106-.641.616-.638q5.806.032,11.613,0c.5,0,.622.139.619.626q-.029,5.77,0,11.54c0,.5-.091.69-.647.687q-5.768-.038-11.537,0c-.535,0-.674-.151-.666-.674.03-1.91.012-3.821.012-5.732" transform="translate(-176.643 -126.065)" fill="#fdd835"/>
        <path id="Trazado_183339" data-name="Trazado 183339" d="M138.144,241.293c0-1.81.014-3.62-.009-5.429-.006-.459.131-.6.594-.6q5.843.024,11.686,0c.415,0,.565.1.563.544q-.024,5.392,0,10.784a.568.568,0,0,1-.512.667,26.167,26.167,0,0,1-11.795.265c-.445-.089-.539-.308-.535-.726.021-1.835.009-3.67.009-5.5" transform="translate(-111.996 -190.745)" fill="#f57c00"/>
        <path id="Trazado_183340" data-name="Trazado 183340" d="M230.738,235.4A25.544,25.544,0,0,1,218,246.424c0-3.576.008-7.065-.009-10.554,0-.446.206-.475.551-.473,1.634.01,3.269,0,4.9,0h7.3" transform="translate(-176.738 -190.854)" fill="#26ccda"/>
      </g>
    </g>
  </g>
</svg>
