<svg xmlns="http://www.w3.org/2000/svg" width="152.098" height="241.665" viewBox="0 0 152.098 241.665">
  <g id="Grupo_120883" data-name="Grupo 120883" transform="translate(-418.468 -8263.881)">
    <path id="Trazado_183097" data-name="Trazado 183097" d="M245.4,166.541a76.049,76.049,0,1,1-76.049-76.049A76.049,76.049,0,0,1,245.4,166.541" transform="translate(325.168 8173.389)" fill="#b1f9ff"/>
    <path id="Trazado_183101" data-name="Trazado 183101" d="M266.39,749.862a101.111,101.111,0,0,1-34.8-6.137l34.8,26.128,34.8-26.128a101.111,101.111,0,0,1-34.8,6.137" transform="translate(228.057 7735.693)" fill="#26ccda"/>
    <path id="Trazado_183181" data-name="Trazado 183181" d="M11,0A11,11,0,1,1,0,11,11,11,0,0,1,11,0Z" transform="translate(483.645 8457.209)" fill="#26ccda"/>
    <path id="Trazado_183185" data-name="Trazado 183185" d="M7,0A7,7,0,1,1,0,7,7,7,0,0,1,7,0Z" transform="translate(487.645 8461.209)" fill="#b1f9ff"/>
    <path id="Trazado_183177" data-name="Trazado 183177" d="M-6.719-4.945h-4.5v3.063h5.281V0h-7.625V-11.375h7.609v1.9h-5.266v2.711h4.5Zm4.5.938V0H-4.562V-11.375H-.125a5.134,5.134,0,0,1,2.254.469,3.454,3.454,0,0,1,1.5,1.332,3.714,3.714,0,0,1,.523,1.965A3.266,3.266,0,0,1,3-4.973a4.767,4.767,0,0,1-3.168.965Zm0-1.9H-.125a2.059,2.059,0,0,0,1.418-.437,1.591,1.591,0,0,0,.488-1.25,1.876,1.876,0,0,0-.492-1.352A1.839,1.839,0,0,0-.07-9.477H-2.219ZM11.656-2.984A1.2,1.2,0,0,0,11.188-4,6.148,6.148,0,0,0,9.5-4.754a11.963,11.963,0,0,1-1.93-.777,3.153,3.153,0,0,1-1.937-2.82A2.747,2.747,0,0,1,6.152-10a3.389,3.389,0,0,1,1.492-1.129,5.616,5.616,0,0,1,2.184-.406A5.112,5.112,0,0,1,12-11.09a3.458,3.458,0,0,1,1.48,1.246,3.261,3.261,0,0,1,.527,1.828H11.664a1.534,1.534,0,0,0-.492-1.215,2.023,2.023,0,0,0-1.383-.434A2.162,2.162,0,0,0,8.453-9.3a1.146,1.146,0,0,0-.477.957,1.1,1.1,0,0,0,.559.93,6.311,6.311,0,0,0,1.645.7,7.106,7.106,0,0,1,2.914,1.492A2.972,2.972,0,0,1,14.008-3,2.737,2.737,0,0,1,12.891-.684a4.891,4.891,0,0,1-3.008.84,5.808,5.808,0,0,1-2.391-.48A3.783,3.783,0,0,1,5.848-1.641a3.371,3.371,0,0,1-.566-1.937H7.633q0,1.883,2.25,1.883a2.189,2.189,0,0,0,1.3-.34A1.106,1.106,0,0,0,11.656-2.984Z" transform="translate(494.469 8392.909)" fill="#12263f"/>
    <g id="eps-file-format-symbol" transform="translate(390.867 8286.059)">
      <g id="Grupo_120873" data-name="Grupo 120873" transform="translate(75.6 0)">
        <path id="Trazado_183107" data-name="Trazado 183107" d="M264.491,413.364a7.1,7.1,0,0,0-1.737.166v5.487a6.448,6.448,0,0,0,1.407.112c2.234,0,3.614-1.132,3.614-3.034C267.775,414.385,266.588,413.364,264.491,413.364Z" transform="translate(-236.2 -354.714)" fill="#f57c00"/>
        <path id="Trazado_183108" data-name="Trazado 183108" d="M132.282,18.728a1.516,1.516,0,0,0-.366-.992L116.849.524s-.009-.006-.012-.011a1.545,1.545,0,0,0-.305-.256c-.033-.021-.066-.04-.1-.06a1.571,1.571,0,0,0-.3-.127c-.029-.008-.054-.02-.082-.027A1.5,1.5,0,0,0,115.7,0H78.665A3.069,3.069,0,0,0,75.6,3.065V75.086a3.068,3.068,0,0,0,3.065,3.065h50.568a3.068,3.068,0,0,0,3.065-3.065V18.9A1.71,1.71,0,0,0,132.282,18.728ZM95.121,74.2H83.262V55.617H94.735v3.446H87.482v3.862h6.839v3.42H87.482v4.413h7.64V74.2Zm14.508-8.521a8.622,8.622,0,0,1-6.04,1.958,10.684,10.684,0,0,1-1.435-.082v6.646H97.989V55.864a34.406,34.406,0,0,1,5.682-.386c2.592,0,4.44.5,5.682,1.49a5.43,5.43,0,0,1,1.984,4.3A5.946,5.946,0,0,1,109.629,65.683Zm8.937,8.8A12.169,12.169,0,0,1,113.3,73.35l.856-3.475a10.718,10.718,0,0,0,4.66,1.158c1.93,0,2.951-.8,2.951-2.013,0-1.159-.883-1.82-3.116-2.619-3.088-1.076-5.1-2.786-5.1-5.489,0-3.171,2.647-5.6,7.034-5.6a11.4,11.4,0,0,1,4.743.937l-.938,3.392a8.852,8.852,0,0,0-3.889-.881c-1.82,0-2.7.827-2.7,1.793,0,1.186,1.049,1.709,3.448,2.62,3.282,1.214,4.827,2.923,4.827,5.543C126.067,71.832,123.669,74.48,118.566,74.48Zm-39.9-22.444V3.065h35.5v15.68a1.533,1.533,0,0,0,1.532,1.532h13.537V52.037Z" transform="translate(-75.6 0)" fill="#f57c00"/>
        <path id="Trazado_183109" data-name="Trazado 183109" d="M190.187,131.2c-4.746-.75-5.3-5.914-5.355-7.48h1.528v-7.674h-1.75v-8.078a1.415,1.415,0,1,0-.808,0v5.212a6.458,6.458,0,0,0-5.926-4.632v-3.125h-4.308V113.1h4.308v-3.5c4.163.5,5.258,4.278,5.539,6.45H182.05v7.673H183.8v8.374a1.415,1.415,0,1,0,.808,0v-4.242a6.412,6.412,0,0,0,5.578,4.407v3.148h4.31v-7.676h-4.31V131.2h0Z" transform="translate(-159.667 -90.281)" fill="#26ccda"/>
      </g>
    </g>
  </g>
</svg>
