<svg xmlns="http://www.w3.org/2000/svg" width="120" height="120" viewBox="0 0 120 120">
  <g id="Grupo_121096" data-name="Grupo 121096" transform="translate(-285.285 -1739)">
    <g id="Elipse_5232" data-name="Elipse 5232" transform="translate(285.285 1739)" fill="#fff" stroke="#26ccda" stroke-width="4">
      <circle cx="60" cy="60" r="60" stroke="none"/>
      <circle cx="60" cy="60" r="58" fill="none"/>
    </g>
    <g id="Grupo_120945" data-name="Grupo 120945" transform="translate(300.754 1733.166)">
      <g id="Grupo_120947" data-name="Grupo 120947" transform="translate(8.668 44.422)">
        <path id="Trazado_182540" data-name="Trazado 182540" d="M79.731,252.64c-.712-.563-1.367-1.458-2.152-1.593-.751-.13-1.358.919-2.06,1.408a21.386,21.386,0,1,1-15.789-38.5,21.057,21.057,0,0,1,17.058,4.759c.472.39.756.581,1.369.091,8.165-6.527,17.885-6.874,26.477-1a1.641,1.641,0,0,0,.213.105,21.414,21.414,0,0,1-11.2,38.475,21.939,21.939,0,0,1-13.918-3.752m-7.395-19.3c-1.346-.736-1.548-1.18-1.231-2.679a19.663,19.663,0,0,1,3.37-7.774c.556-.749.459-1.144-.257-1.7a17.257,17.257,0,0,0-15.077-3.465,17.505,17.505,0,0,0-13.7,19.652A16.774,16.774,0,0,0,56.555,251.6c6.391,2.505,12.418,1.465,17.852-2.81.575-.453.6-.773.176-1.343a20.327,20.327,0,0,1-3.223-6.826c-.391-1.436-.151-1.955,1.2-2.672,1.385-.122,2,.689,2.309,1.889a15.612,15.612,0,0,0,2.611,5.493c4.289-5.488,4.442-14.5.442-20.041-.343-.476-.511-.473-.814,0a18.213,18.213,0,0,0-2.488,5.989c-.351,1.61-.731,1.907-2.285,2.057M92.2,252.9a24,24,0,0,0,4.263-.582,17.822,17.822,0,1,0-15.758-31.045c-.614.507-.689.8-.217,1.473a21.115,21.115,0,0,1-.008,24.656c-.492.7-.365,1.008.227,1.48A18.179,18.179,0,0,0,92.2,252.9" transform="translate(-41.688 -213.645)" fill="#030303"/>
        <path id="Trazado_182546" data-name="Trazado 182546" d="M81.033,246.408c-1.352.717-1.592,1.236-1.2,2.672a20.317,20.317,0,0,0,3.224,6.825c.421.57.4.89-.176,1.343-5.434,4.274-11.461,5.315-17.852,2.81a16.775,16.775,0,0,1-11.113-14.227,17.5,17.5,0,0,1,13.7-19.652,17.254,17.254,0,0,1,15.077,3.464c.716.555.812.95.257,1.7a19.664,19.664,0,0,0-3.37,7.774c-.317,1.5-.115,1.943,1.231,2.679a18.8,18.8,0,0,0,.224,4.612" transform="translate(-50.162 -222.1)" fill="#636363"/>
        <path id="Trazado_182547" data-name="Trazado 182547" d="M182.893,261.441a18.18,18.18,0,0,1-11.493-4.017c-.592-.472-.72-.782-.227-1.48a21.115,21.115,0,0,0,.008-24.656c-.472-.672-.4-.966.217-1.473a17.826,17.826,0,1,1,15.758,31.045,24.006,24.006,0,0,1-4.263.582" transform="translate(-132.381 -222.183)" fill="#afafaf"/>
        <path id="Trazado_182548" data-name="Trazado 182548" d="M144.69,264.567a18.8,18.8,0,0,1-.224-4.612c1.554-.149,1.934-.447,2.285-2.056a18.215,18.215,0,0,1,2.488-5.989c.3-.474.471-.476.814,0,4,5.546,3.847,14.553-.442,20.041A15.61,15.61,0,0,1,147,266.456c-.314-1.2-.924-2.012-2.309-1.889" transform="translate(-113.818 -240.259)" fill="#e8e8e8"/>
      </g>
    </g>
  </g>
</svg>
