<svg xmlns="http://www.w3.org/2000/svg" xmlns:xlink="http://www.w3.org/1999/xlink" width="120" height="120" viewBox="0 0 120 120">
  <defs>
    <clipPath id="clip-path">
      <rect id="Rectángulo_38246" data-name="Rectángulo 38246" width="89.49" height="60.304" fill="none"/>
    </clipPath>
  </defs>
  <g id="Grupo_121088" data-name="Grupo 121088" transform="translate(-285.285 -959)">
    <g id="Elipse_5227" data-name="Elipse 5227" transform="translate(285.285 959)" fill="#fff" stroke="#26ccda" stroke-width="4">
      <circle cx="60" cy="60" r="60" stroke="none"/>
      <circle cx="60" cy="60" r="58" fill="none"/>
    </g>
    <g id="Grupo_120937" data-name="Grupo 120937" transform="translate(300.51 988.848)">
      <g id="Grupo_120936" data-name="Grupo 120936" clip-path="url(#clip-path)">
        <path id="Trazado_183281" data-name="Trazado 183281" d="M0,3.68A6.1,6.1,0,0,1,4.443.09,6.681,6.681,0,0,1,5.662,0Q44.591,0,83.52,0A5.732,5.732,0,0,1,89.478,6.05c.023,5.932.006,11.865.006,17.8q0,15.123,0,30.247a5.769,5.769,0,0,1-4.2,5.945,7.167,7.167,0,0,1-1.988.263q-38.71,0-77.42,0A6.249,6.249,0,0,1,0,56.643Zm44.62-.873H6.129c-2.5,0-3.658,1.145-3.658,3.619q0,23.715,0,47.43c0,2.463,1.173,3.628,3.669,3.629q38.491,0,76.982.013a3.3,3.3,0,0,0,3.562-3.572q-.081-23.8,0-47.605a3.333,3.333,0,0,0-3.577-3.543c-12.83.057-25.66.029-38.491.029" transform="translate(0 0.001)"/>
        <path id="Trazado_183282" data-name="Trazado 183282" d="M52.693,11.888c12.83,0,25.661.028,38.491-.029A3.333,3.333,0,0,1,94.76,15.4q-.089,23.8,0,47.605a3.3,3.3,0,0,1-3.563,3.572q-38.491-.027-76.981-.013c-2.5,0-3.669-1.166-3.669-3.628q0-23.715,0-47.43c0-2.474,1.157-3.619,3.658-3.619H52.693m3.725,3.858H23.807c-1.571,0-2.04.465-2.04,2.024q0,21.475,0,42.951c0,1.485.5,1.987,2.01,1.987q32.523,0,65.045,0c1.583,0,2.049-.462,2.049-2.008q0-21.476,0-42.951c0-1.616-.391-2-2.019-2H56.418m-43.805,39.1c0,1.546-.008,3.093,0,4.639.007,1.117.481,1.633,1.569,1.656,1.342.028,2.684.025,4.026,0a1.475,1.475,0,0,0,1.585-1.6q.027-4.726,0-9.453a1.441,1.441,0,0,0-1.608-1.549q-1.969-.018-3.939,0c-1.15.008-1.624.493-1.631,1.667-.009,1.546,0,3.093,0,4.639m3.524-10.855A4.84,4.84,0,0,0,21,39.267a4.932,4.932,0,0,0-4.924-4.88A4.837,4.837,0,0,0,11.4,39.11a4.7,4.7,0,0,0,4.74,4.876m-.659-21.745a1.47,1.47,0,0,0-1.422,1.463,1.388,1.388,0,0,0,1.35,1.331,1.37,1.37,0,0,0,1.444-1.4,1.385,1.385,0,0,0-1.372-1.394m1.372,6.575a1.324,1.324,0,0,0-1.39-1.342,1.38,1.38,0,0,0-1.4,1.356,1.526,1.526,0,0,0,1.378,1.432,1.4,1.4,0,0,0,1.416-1.447m-1.378-9.01a1.318,1.318,0,0,0,1.378-1.371,1.371,1.371,0,0,0-1.39-1.393,1.477,1.477,0,0,0-1.405,1.412,1.376,1.376,0,0,0,1.417,1.352" transform="translate(-8.073 -9.079)" fill="#636363"/>
        <path id="Trazado_183283" data-name="Trazado 183283" d="M93.08,28.443h32.435c1.629,0,2.019.387,2.019,2q0,21.475,0,42.951c0,1.546-.465,2.008-2.049,2.008q-32.523,0-65.045,0c-1.509,0-2.01-.5-2.011-1.987q0-21.476,0-42.951c0-1.559.469-2.024,2.04-2.024H93.08m31.595,31.684c.025-.451.051-.7.051-.956,0-9-.011-18,.023-27,0-.827-.283-.934-1-.934q-30.774.026-61.547,0c-.758,0-.982.168-.979.958.03,9.468.018,18.936.025,28.4,0,.244-.1.52.169.795.7-.61,1.4-1.214,2.1-1.823q5.932-5.195,11.867-10.385c1.231-1.07,1.641-1.013,2.847.05,2.761,2.432,5.544,4.84,8.3,7.277.351.31.563.367.938.026,1.233-1.118,2.506-2.191,3.758-3.288q5.833-5.108,11.665-10.217a1.466,1.466,0,0,1,2.258,0q6.533,5.7,13.049,11.427c2.107,1.845,4.216,3.687,6.48,5.668M92.96,72.6q15.429,0,30.858.016c.732,0,.94-.2.926-.929-.045-2.337-.034-4.675,0-7.012a1.489,1.489,0,0,0-.579-1.277c-1.336-1.132-2.647-2.294-3.966-3.448q-7.876-6.895-15.744-13.8c-.332-.292-.536-.33-.863-.008-.52.511-1.088.973-1.638,1.453Q95.029,53.652,88.1,59.7a1.417,1.417,0,0,1-2.179,0c-2.839-2.476-5.685-4.943-8.493-7.453-.495-.442-.8-.47-1.288-.036q-7.165,6.31-14.365,12.58a1.51,1.51,0,0,0-.551,1.291c.029,1.753.011,3.506.011,5.259,0,1.251,0,1.251,1.214,1.251H92.96" transform="translate(-44.735 -21.777)"/>
        <path id="Trazado_183284" data-name="Trazado 183284" d="M19.362,174.627c0-1.546-.007-3.093,0-4.639.007-1.174.481-1.659,1.631-1.668q1.969-.014,3.939,0a1.441,1.441,0,0,1,1.608,1.549q.035,4.726,0,9.453a1.474,1.474,0,0,1-1.585,1.6c-1.342.024-2.685.027-4.026,0-1.088-.022-1.562-.538-1.569-1.656-.01-1.546,0-3.093,0-4.639m2.806-.064c0,.992.027,1.985-.01,2.975-.025.66.392.581.8.587s.8.045.79-.6q-.048-2.887,0-5.776c.011-.618-.309-.638-.764-.63s-.871-.051-.834.645c.049.931.012,1.867.013,2.8" transform="translate(-14.822 -128.865)"/>
        <path id="Trazado_183285" data-name="Trazado 183285" d="M18.92,117.579a4.7,4.7,0,0,1-4.74-4.876,4.837,4.837,0,0,1,4.684-4.724,4.932,4.932,0,0,1,4.924,4.88,4.839,4.839,0,0,1-4.868,4.72m.039-2.8a1.971,1.971,0,0,0,2-1.995A2.039,2.039,0,0,0,18.91,110.8a1.976,1.976,0,0,0-1.924,1.981,1.916,1.916,0,0,0,1.974,1.99" transform="translate(-10.857 -82.672)"/>
        <path id="Trazado_183286" data-name="Trazado 183286" d="M26.948,56.16a1.385,1.385,0,0,1,1.372,1.394,1.37,1.37,0,0,1-1.444,1.4,1.388,1.388,0,0,1-1.35-1.331,1.47,1.47,0,0,1,1.422-1.463" transform="translate(-19.543 -42.997)"/>
        <path id="Trazado_183287" data-name="Trazado 183287" d="M28.32,79.832A1.4,1.4,0,0,1,26.9,81.279a1.526,1.526,0,0,1-1.377-1.432,1.38,1.38,0,0,1,1.4-1.356,1.324,1.324,0,0,1,1.391,1.342" transform="translate(-19.543 -60.094)"/>
        <path id="Trazado_183288" data-name="Trazado 183288" d="M26.939,36.745a1.376,1.376,0,0,1-1.417-1.352,1.477,1.477,0,0,1,1.405-1.412,1.371,1.371,0,0,1,1.39,1.393,1.318,1.318,0,0,1-1.378,1.371" transform="translate(-19.54 -26.017)"/>
        <path id="Trazado_183289" data-name="Trazado 183289" d="M133.793,69.242c-2.264-1.98-4.373-3.822-6.479-5.667q-6.524-5.714-13.049-11.427a1.466,1.466,0,0,0-2.259,0q-5.84,5.1-11.664,10.217c-1.252,1.1-2.526,2.169-3.758,3.288-.375.34-.587.283-.938-.026-2.757-2.437-5.54-4.844-8.3-7.276-1.207-1.063-1.616-1.12-2.848-.05C80.53,61.746,76.585,65.22,72.63,68.683c-.7.609-1.4,1.213-2.1,1.823-.273-.275-.169-.551-.169-.795-.006-9.468.005-18.936-.025-28.4,0-.791.221-.959.979-.958q30.773.031,61.547,0c.719,0,1.005.107,1,.934-.033,9-.021,18-.023,27,0,.252-.026.5-.051.956m-41.368-16.1a4.286,4.286,0,0,0,4.238,4.416,4.33,4.33,0,0,0,4.461-4.312,4.451,4.451,0,0,0-4.4-4.419,4.369,4.369,0,0,0-4.3,4.316" transform="translate(-53.854 -30.892)" fill="#b1f9ff"/>
        <path id="Trazado_183290" data-name="Trazado 183290" d="M102.1,129.679H71.6c-1.214,0-1.214,0-1.214-1.251,0-1.753.018-3.506-.011-5.259a1.509,1.509,0,0,1,.551-1.291q7.2-6.272,14.365-12.58c.492-.433.793-.405,1.288.036,2.809,2.509,5.655,4.977,8.493,7.453a1.417,1.417,0,0,0,2.179,0q6.93-6.048,13.848-12.109c.549-.481,1.118-.942,1.638-1.453.327-.322.531-.284.863.008q7.86,6.912,15.744,13.8c1.318,1.154,2.629,2.316,3.966,3.448a1.489,1.489,0,0,1,.579,1.277c-.03,2.337-.041,4.675,0,7.012.014.729-.194.931-.926.929q-15.429-.035-30.858-.016" transform="translate(-53.879 -78.857)" fill="#ffa726"/>
        <path id="Trazado_183291" data-name="Trazado 183291" d="M31.294,183.723c0-.934.037-1.869-.012-2.8-.037-.7.379-.637.834-.645s.775.012.764.63q-.05,2.887,0,5.776c.011.646-.363.607-.79.6s-.829.073-.8-.587c.037-.99.01-1.983.009-2.975" transform="translate(-23.948 -138.026)" fill="#afafaf"/>
        <path id="Trazado_183292" data-name="Trazado 183292" d="M28.124,124a1.916,1.916,0,0,1-1.974-1.99,1.976,1.976,0,0,1,1.924-1.981A2.039,2.039,0,0,1,30.122,122a1.971,1.971,0,0,1-2,1.995" transform="translate(-20.021 -91.893)" fill="#afafaf"/>
        <path id="Trazado_183293" data-name="Trazado 183293" d="M164.575,80.84a4.369,4.369,0,0,1,4.3-4.316,4.451,4.451,0,0,1,4.4,4.419,4.33,4.33,0,0,1-4.461,4.312,4.286,4.286,0,0,1-4.239-4.416m4.332-1.484a1.541,1.541,0,0,0-1.524,1.59,1.462,1.462,0,0,0,1.573,1.5,1.555,1.555,0,0,0,1.518-1.6,1.634,1.634,0,0,0-1.567-1.489" transform="translate(-126.003 -58.589)"/>
        <path id="Trazado_183294" data-name="Trazado 183294" d="M178.08,88.606a1.634,1.634,0,0,1,1.567,1.489,1.555,1.555,0,0,1-1.518,1.6,1.462,1.462,0,0,1-1.573-1.5,1.541,1.541,0,0,1,1.524-1.59" transform="translate(-135.176 -67.839)" fill="#fdd835"/>
      </g>
    </g>
  </g>
</svg>
