<svg xmlns="http://www.w3.org/2000/svg" xmlns:xlink="http://www.w3.org/1999/xlink" width="120" height="120" viewBox="0 0 120 120">
  <defs>
    <clipPath id="clip-path">
      <rect id="Rectángulo_38235" data-name="Rectángulo 38235" width="66.613" height="66.613" fill="none"/>
    </clipPath>
  </defs>
  <g id="Grupo_121095" data-name="Grupo 121095" transform="translate(-285.285 -1583)">
    <g id="Elipse_5231" data-name="Elipse 5231" transform="translate(285.285 1583)" fill="#fff" stroke="#26ccda" stroke-width="4">
      <circle cx="60" cy="60" r="60" stroke="none"/>
      <circle cx="60" cy="60" r="58" fill="none"/>
    </g>
    <g id="Grupo_120944" data-name="Grupo 120944" transform="translate(311.979 1609.691)">
      <g id="Grupo_120932" data-name="Grupo 120932" clip-path="url(#clip-path)">
        <path id="Trazado_183247" data-name="Trazado 183247" d="M370.694,199.39a1.749,1.749,0,0,1-1.591.641c-1.449-.03-2.9-.01-4.348-.008a2.275,2.275,0,0,1-.768-.089.939.939,0,0,1-.677-.929.9.9,0,0,1,.668-.929,2.488,2.488,0,0,1,.7-.094c1.536-.008,3.072.01,4.608-.011a1.382,1.382,0,0,1,1.408.769Z" transform="translate(-304.081 -165.696)" fill="#080808"/>
        <path id="Trazado_183248" data-name="Trazado 183248" d="M198.593,370.695a1.749,1.749,0,0,1-.641-1.591c.03-1.449.01-2.9.009-4.348a2.275,2.275,0,0,1,.089-.768.938.938,0,0,1,.929-.677.9.9,0,0,1,.929.668,2.49,2.49,0,0,1,.094.7c.008,1.536-.01,3.072.011,4.608a1.382,1.382,0,0,1-.769,1.408Z" transform="translate(-165.68 -304.082)" fill="#080808"/>
        <path id="Trazado_183249" data-name="Trazado 183249" d="M98.632,100.231l1.609-1.6a1.1,1.1,0,0,0,1.573.039c.221-.174.452-.335.684-.493a17.359,17.359,0,0,1,13.185-2.919l.225.056.03-.01c.058.194.237.247.391.313a17.829,17.829,0,0,1,4.423,2.773,18.606,18.606,0,0,1,6.663,15.629,18.834,18.834,0,0,1-2.255,7.818,19.094,19.094,0,0,1-7.2,7.352,8.447,8.447,0,0,0-2.02,1.1l-.03-.01-.225.056a17.378,17.378,0,0,1-10.921-1.585,17.807,17.807,0,0,1-6.234-26.786c.585-.77.584-1.036.1-1.737" transform="translate(-79.387 -79.496)" fill="#fdd835"/>
        <path id="Trazado_183250" data-name="Trazado 183250" d="M105.315,119.831l.03.01c.15-.018.3-.026.449-.056a17.822,17.822,0,0,0,14-15.43,17.417,17.417,0,0,0-6.322-15.707,16.35,16.35,0,0,0-8.127-3.8l-.03.01-.224-.056A17.358,17.358,0,0,0,91.9,87.725c-.232.158-.463.319-.684.493a1.1,1.1,0,0,1-1.573-.039c-.326-.794-.239-1.113.424-1.615a19.012,19.012,0,0,1,13.961-3.947,19.377,19.377,0,0,1,15.806,10.9,18.339,18.339,0,0,1,1.994,10.761,19.467,19.467,0,0,1-10.9,15.808,18.34,18.34,0,0,1-10.761,2c-7.132-.828-12.535-4.415-15.755-10.855-3.363-6.727-2.834-13.381,1.1-19.771.261-.423.57-.816.866-1.217.526-.714.846-.8,1.657-.461.481.7.482.967-.1,1.737A17.807,17.807,0,0,0,94.169,118.3a17.378,17.378,0,0,0,10.921,1.585l.225-.056" transform="translate(-68.794 -69.043)" fill="#040403"/>
        <path id="Trazado_183251" data-name="Trazado 183251" d="M200.034,3.738c0,.8.01,1.6,0,2.405-.013.776-.422,1.255-1.031,1.246s-1-.486-1.007-1.271q-.015-2.438,0-4.875C198,.466,198.411-.008,199.024,0s1,.481,1.007,1.267c.011.823,0,1.647,0,2.47" transform="translate(-165.708 0)" fill="#080808"/>
        <path id="Trazado_183252" data-name="Trazado 183252" d="M3.656,200.035c-.8,0-1.6.01-2.405,0C.469,200.02,0,199.623,0,199.009s.477-1.01,1.259-1.015q2.438-.016,4.875,0c.777.005,1.258.414,1.255,1.022s-.481,1-1.262,1.015c-.823.012-1.647,0-2.47,0" transform="translate(0 -165.709)" fill="#080808"/>
        <path id="Trazado_183253" data-name="Trazado 183253" d="M103.865,32.091a.993.993,0,0,1-.721,1.064.952.952,0,0,1-1.157-.481c-.494-.835-.976-1.677-1.462-2.517-.378-.653-.765-1.3-1.128-1.963a1.039,1.039,0,0,1,.3-1.519,1.015,1.015,0,0,1,1.421.486c.866,1.466,1.713,2.944,2.56,4.422a1.085,1.085,0,0,1,.189.509" transform="translate(-83.028 -22.214)" fill="#050505"/>
        <path id="Trazado_183254" data-name="Trazado 183254" d="M281.664,33.133a.964.964,0,0,1-.862-1.391c.881-1.63,1.818-3.23,2.771-4.82a.984.984,0,0,1,1.7.978c-.9,1.619-1.838,3.219-2.774,4.819a.93.93,0,0,1-.835.414" transform="translate(-234.931 -22.144)" fill="#050505"/>
        <path id="Trazado_183255" data-name="Trazado 183255" d="M33.183,281.9a.962.962,0,0,1-.556.791c-1.509.88-3.017,1.76-4.537,2.619a1,1,0,0,1-1.409-.335.994.994,0,0,1,.4-1.4c1.52-.9,3.049-1.791,4.6-2.642a.987.987,0,0,1,1.5.965" transform="translate(-22.212 -235.009)" fill="#050505"/>
        <path id="Trazado_183256" data-name="Trazado 183256" d="M347.847,284.436a1,1,0,0,1-1.583.824c-1.039-.571-2.059-1.177-3.086-1.769-.467-.269-.941-.528-1.4-.815a1.037,1.037,0,0,1-.446-1.438.993.993,0,0,1,1.418-.314c1.523.855,3.032,1.733,4.541,2.612a1.037,1.037,0,0,1,.552.9" transform="translate(-285.572 -234.985)" fill="#050505"/>
        <path id="Trazado_183257" data-name="Trazado 183257" d="M33.166,102.771a.954.954,0,0,1-1.42.864c-1.607-.878-3.189-1.8-4.76-2.744a.92.92,0,0,1-.334-1.3.955.955,0,0,1,1.337-.4c1.581.881,3.141,1.8,4.7,2.712a.931.931,0,0,1,.473.868" transform="translate(-22.192 -82.912)" fill="#050505"/>
        <path id="Trazado_183258" data-name="Trazado 183258" d="M347.844,100.026a1.1,1.1,0,0,1-.562,1c-1.509.878-3.019,1.754-4.54,2.611a.989.989,0,0,1-1.415-.314,1,1,0,0,1,.393-1.4c1.518-.905,3.043-1.8,4.589-2.655a1,1,0,0,1,1.534.759" transform="translate(-285.565 -82.962)" fill="#050505"/>
        <path id="Trazado_183259" data-name="Trazado 183259" d="M103.8,342.282a1.026,1.026,0,0,1-.185.546c-.848,1.477-1.7,2.954-2.559,4.422a1.007,1.007,0,1,1-1.758-.961c.857-1.522,1.737-3.03,2.62-4.537a.967.967,0,0,1,1.221-.472.954.954,0,0,1,.661,1" transform="translate(-82.965 -285.59)" fill="#050505"/>
        <path id="Trazado_183260" data-name="Trazado 183260" d="M282,341.221a.992.992,0,0,1,.765.58c.867,1.491,1.737,2.981,2.582,4.484a1.009,1.009,0,0,1-.338,1.46,1,1,0,0,1-1.414-.487c-.864-1.468-1.723-2.939-2.557-4.424a1.029,1.029,0,0,1,.961-1.614" transform="translate(-235.075 -285.593)" fill="#050505"/>
        <path id="Trazado_183261" data-name="Trazado 183261" d="M224.206,96.975a16.35,16.35,0,0,1,8.127,3.8,17.417,17.417,0,0,1,6.322,15.707,17.822,17.822,0,0,1-14,15.43c-.147.03-.3.037-.449.056a8.442,8.442,0,0,1,2.02-1.1,19.1,19.1,0,0,0,7.2-7.352,18.834,18.834,0,0,0,2.255-7.818,18.607,18.607,0,0,0-6.664-15.629,17.828,17.828,0,0,0-4.423-2.773c-.154-.066-.333-.119-.391-.313" transform="translate(-187.655 -81.166)" fill="#fdd835"/>
        <path id="Trazado_183262" data-name="Trazado 183262" d="M222.642,96.691l.224.056-.224-.056" transform="translate(-186.346 -80.928)" fill="#fcbc30"/>
        <path id="Trazado_183263" data-name="Trazado 183263" d="M222.867,311.532l-.225.056.225-.056" transform="translate(-186.346 -260.745)" fill="#fcbc30"/>
      </g>
    </g>
  </g>
</svg>
