<svg xmlns="http://www.w3.org/2000/svg" width="400" height="250" viewBox="0 0 400 250">
  <g id="Grupo_120937" data-name="Grupo 120937" transform="translate(-600.285 -139.27)">
    <rect id="Rectángulo_38215" data-name="Rectángulo 38215" width="400" height="250" rx="20" transform="translate(600.285 139.27)" fill="#fff3bf"/>
    <g id="gif-file-format" transform="translate(681.029 182.27)">
      <g id="Grupo_85460" data-name="Grupo 85460" transform="translate(75.255)">
        <g id="Grupo_85459" data-name="Grupo 85459" transform="translate(23.328 16.77)">
          <g id="Grupo_85458" data-name="Grupo 85458">
            <g id="Grupo_85457" data-name="Grupo 85457">
              <path id="Trazado_105539" data-name="Trazado 105539" d="M222.248,123.812,210,109.344h6.8L205.522,96.008h7.031l-9.279-10.959H207.6l-7.132-8.428-6.484,8.428h4.373l-8.43,10.959h6.9l-10.259,13.335h6.41l-11.132,14.469h18.661v17.507h3.08V123.812Z" transform="translate(-181.844 -76.621)" fill="#26ccda"/>
            </g>
          </g>
        </g>
        <path id="Trazado_105538" data-name="Trazado 105538" d="M162.291,28.755a2.326,2.326,0,0,0-.559-1.523L138.594.8c0-.006-.014-.01-.018-.015a2.306,2.306,0,0,0-.467-.393c-.05-.033-.1-.063-.156-.092a2.335,2.335,0,0,0-.464-.194c-.041-.013-.083-.032-.126-.041A2.273,2.273,0,0,0,136.825,0H79.961a4.712,4.712,0,0,0-4.706,4.706V115.3A4.712,4.712,0,0,0,79.961,120h77.647a4.712,4.712,0,0,0,4.706-4.706V29.019A2.494,2.494,0,0,0,162.291,28.755ZM112.317,111.9a31.929,31.929,0,0,1-9.53,1.608c-5.209,0-8.978-1.312-11.6-3.853a13.8,13.8,0,0,1-4.021-10.375c.041-9.485,6.943-14.906,16.3-14.906a19.619,19.619,0,0,1,7.918,1.4l-1.355,5.165a15.82,15.82,0,0,0-6.65-1.227c-5.374,0-9.441,3.051-9.441,9.232,0,5.887,3.686,9.359,8.981,9.359a8.648,8.648,0,0,0,3.175-.422v-5.97h-4.4V96.872h10.63V111.9Zm11.521,1.313h-6.48V84.674h6.48Zm23.04-23.249h-10.97V96.49h10.248v5.251H135.908v11.475h-6.48V84.674h17.45v5.292ZM79.961,79.9V4.706h54.511V28.782a2.353,2.353,0,0,0,2.353,2.353h20.784l0,48.766H79.961Z" transform="translate(-75.255)" fill="#f57c00"/>
      </g>
    </g>
    <path id="Trazado_183282" data-name="Trazado 183282" d="M-2.686-1.8A5.085,5.085,0,0,1-4.922-.327,9.365,9.365,0,0,1-8.125.2,6.345,6.345,0,0,1-11.362-.61a5.374,5.374,0,0,1-2.148-2.339,8.232,8.232,0,0,1-.776-3.6V-7.52a8.742,8.742,0,0,1,.718-3.687,5.31,5.31,0,0,1,2.07-2.383,5.964,5.964,0,0,1,3.169-.825,5.939,5.939,0,0,1,3.955,1.206A5.154,5.154,0,0,1-2.686-9.7H-5.537A2.835,2.835,0,0,0-6.4-11.484a2.76,2.76,0,0,0-1.841-.566,2.6,2.6,0,0,0-2.275,1.123,5.905,5.905,0,0,0-.791,3.34v.908a5.622,5.622,0,0,0,.85,3.379,2.909,2.909,0,0,0,2.49,1.143,3.25,3.25,0,0,0,2.354-.7V-5.312H-8.281V-7.471h5.6ZM2.8,0H-.127V-14.219H2.8Zm11.27-5.811H8.447V0H5.518V-14.219h9.258v2.373H8.447v3.672h5.625Z" transform="translate(800.285 347.18)" fill="#12263f"/>
  </g>
</svg>
