<svg xmlns="http://www.w3.org/2000/svg" width="400" height="250" viewBox="0 0 400 250">
  <g id="Grupo_120938" data-name="Grupo 120938" transform="translate(-1020.285 -12089)">
    <rect id="Rectángulo_38216" data-name="Rectángulo 38216" width="400" height="250" rx="20" transform="translate(1020.285 12089)" fill="#fff3bf"/>
    <g id="Grupo_120909" data-name="Grupo 120909" transform="translate(891.285 10440)">
      <g id="png-file-extension-interface-symbol" transform="translate(285 1692)">
        <g id="Grupo_85443" data-name="Grupo 85443" transform="translate(0 0)">
          <path id="Trazado_105525" data-name="Trazado 105525" d="M142.674,414.1a9.28,9.28,0,0,0-2.264.217v7.159a8.311,8.311,0,0,0,1.835.144c2.914,0,4.714-1.476,4.714-3.958C146.96,415.434,145.412,414.1,142.674,414.1Z" transform="translate(-126.162 -323.214)" fill="#f57c00"/>
          <path id="Trazado_105526" data-name="Trazado 105526" d="M353.668,141.89l.009,0v0Z" transform="translate(-293.086 -110.977)" fill="#f57c00"/>
          <path id="Trazado_105527" data-name="Trazado 105527" d="M162.636,28.756a2.338,2.338,0,0,0-.559-1.524L138.938.8c0-.007-.012-.01-.018-.017A2.355,2.355,0,0,0,138.454.4c-.051-.033-.1-.062-.154-.092a2.543,2.543,0,0,0-.464-.194c-.044-.013-.083-.031-.129-.042A2.293,2.293,0,0,0,137.169,0H80.306A4.712,4.712,0,0,0,75.6,4.706V115.294A4.711,4.711,0,0,0,80.306,120h77.647a4.712,4.712,0,0,0,4.706-4.706V29.02A2.631,2.631,0,0,0,162.636,28.756Zm-62.089,71.65c-2.078,1.958-5.154,2.838-8.75,2.838a15.347,15.347,0,0,1-2.078-.121v9.629H83.685V86.183a49.871,49.871,0,0,1,8.231-.559c3.754,0,6.434.718,8.23,2.157a7.873,7.873,0,0,1,2.877,6.233A8.592,8.592,0,0,1,100.547,100.406ZM129.2,112.752h-6.392l-5.754-10.388a99.931,99.931,0,0,1-4.679-9.508l-.117.039c.161,3.557.238,7.352.238,11.746v8.111H106.9V85.824h7.112l5.6,9.868a78.025,78.025,0,0,1,4.392,9.23h.121a99.578,99.578,0,0,1-.519-11.227v-7.87h5.6v26.928Zm27.771-1.238a30.145,30.145,0,0,1-8.991,1.519c-4.913,0-8.472-1.239-10.948-3.637a13.031,13.031,0,0,1-3.8-9.788c.039-8.949,6.553-14.064,15.381-14.064a18.548,18.548,0,0,1,7.474,1.318l-1.278,4.875a14.946,14.946,0,0,0-6.275-1.158c-5.072,0-8.909,2.877-8.909,8.709,0,5.555,3.477,8.83,8.472,8.83a8.12,8.12,0,0,0,3-.4v-5.634h-4.156V97.33h10.029v14.184h0ZM80.306,79.9V4.706h54.51V21.632h1.471v9.281h9.184v.224h12.481l0,48.766Z" transform="translate(-75.6 0)" fill="#f57c00"/>
          <path id="Trazado_105528" data-name="Trazado 105528" d="M149.838,132.721h8.211v-8.357h-8.271v-8.358h8.271v-8.358h-8.271V99.291H141.42v8.358h8.271v8.358H141.42v8.358h8.271v8.357h-8.209v8.359h8.271v8.357h8.354V141.08h-8.27Z" transform="translate(-126.695 -75.796)" fill="#26ccda"/>
          <path id="Trazado_105529" data-name="Trazado 105529" d="M234.9,132.721h8.21v-8.357h-8.271v-8.358h8.271v-8.358h-8.271V99.291h-8.36v8.358h8.271v8.358h-8.271v8.358h8.271v8.357h-8.208v8.359h8.271v8.357h8.357V141.08H234.9Z" transform="translate(-192.725 -75.796)" fill="#26ccda"/>
          <path id="Trazado_105530" data-name="Trazado 105530" d="M311.554,107.649h8.262a2.114,2.114,0,0,1-1.229-1.918v-6.44h-7.033v8.358Z" transform="translate(-259.546 -77.479)" fill="#26ccda"/>
          <path id="Trazado_105531" data-name="Trazado 105531" d="M319.826,141.906v8.355h-8.271v8.358h8.271v8.357h-8.211v8.358h8.273v8.358h8.356v-8.358h-8.269v-8.358h8.208v-8.357h-8.271v-8.358h8.271V142.1h-7.476A2.092,2.092,0,0,1,319.826,141.906Z" transform="translate(-258.766 -109.051)" fill="#26ccda"/>
        </g>
      </g>
    </g>
    <path id="Trazado_183283" data-name="Trazado 183283" d="M-16.123-5.01V0h-2.93V-14.219h5.547a6.417,6.417,0,0,1,2.817.586,4.318,4.318,0,0,1,1.87,1.665,4.643,4.643,0,0,1,.654,2.456,4.083,4.083,0,0,1-1.431,3.3,5.959,5.959,0,0,1-3.96,1.206Zm0-2.373h2.617a2.573,2.573,0,0,0,1.772-.547,1.989,1.989,0,0,0,.61-1.562,2.345,2.345,0,0,0-.615-1.689,2.3,2.3,0,0,0-1.7-.664h-2.686ZM5.41,0H2.48l-5.7-9.355V0h-2.93V-14.219h2.93L2.49-4.844v-9.375H5.41ZM19.219-1.8a5.085,5.085,0,0,1-2.236,1.47,9.365,9.365,0,0,1-3.2.522A6.345,6.345,0,0,1,10.542-.61,5.374,5.374,0,0,1,8.394-2.949a8.232,8.232,0,0,1-.776-3.6V-7.52a8.742,8.742,0,0,1,.718-3.687,5.31,5.31,0,0,1,2.07-2.383,5.964,5.964,0,0,1,3.169-.825,5.939,5.939,0,0,1,3.955,1.206A5.154,5.154,0,0,1,19.219-9.7H16.367a2.835,2.835,0,0,0-.864-1.787,2.76,2.76,0,0,0-1.841-.566,2.6,2.6,0,0,0-2.275,1.123,5.905,5.905,0,0,0-.791,3.34v.908a5.622,5.622,0,0,0,.85,3.379,2.909,2.909,0,0,0,2.49,1.143,3.25,3.25,0,0,0,2.354-.7V-5.312H13.623V-7.471h5.6Z" transform="translate(1220.285 12296.91)" fill="#12263f"/>
  </g>
</svg>
