<svg xmlns="http://www.w3.org/2000/svg" width="152.098" height="241.665" viewBox="0 0 152.098 241.665">
  <g id="Grupo_120889" data-name="Grupo 120889" transform="translate(-315.284 -5905.672)">
    <path id="Trazado_166792" data-name="Trazado 166792" d="M245.4,166.541a76.049,76.049,0,1,1-76.049-76.049A76.049,76.049,0,0,1,245.4,166.541" transform="translate(221.984 5815.18)" fill="#b1f9ff"/>
    <path id="Trazado_166793" data-name="Trazado 166793" d="M266.39,749.862a101.111,101.111,0,0,1-34.8-6.137l34.8,26.128,34.8-26.128a101.111,101.111,0,0,1-34.8,6.137" transform="translate(124.873 5377.484)" fill="#26ccda"/>
    <path id="Trazado_183146" data-name="Trazado 183146" d="M11,0A11,11,0,1,1,0,11,11,11,0,0,1,11,0Z" transform="translate(380.461 6099)" fill="#26ccda"/>
    <path id="Trazado_183150" data-name="Trazado 183150" d="M7,0A7,7,0,1,1,0,7,7,7,0,0,1,7,0Z" transform="translate(384.461 6103)" fill="#b1f9ff"/>
    <path id="Trazado_183144" data-name="Trazado 183144" d="M-9.477-11.375h2.344V-3.5a3.766,3.766,0,0,1-.48,1.918A3.261,3.261,0,0,1-8.969-.3a4.235,4.235,0,0,1-1.977.453,4.025,4.025,0,0,1-2.812-.918,3.335,3.335,0,0,1-1.008-2.6h2.359a1.829,1.829,0,0,0,.352,1.234,1.407,1.407,0,0,0,1.109.4,1.343,1.343,0,0,0,1.07-.461,1.948,1.948,0,0,0,.4-1.312Zm6.7,7.367V0H-5.125V-11.375H-.687a5.134,5.134,0,0,1,2.254.469,3.454,3.454,0,0,1,1.5,1.332,3.714,3.714,0,0,1,.523,1.965A3.266,3.266,0,0,1,2.441-4.973a4.767,4.767,0,0,1-3.168.965Zm0-1.9H-.687A2.059,2.059,0,0,0,.73-6.344a1.591,1.591,0,0,0,.488-1.25A1.876,1.876,0,0,0,.727-8.945,1.839,1.839,0,0,0-.633-9.477H-2.781ZM14.2-1.437A4.068,4.068,0,0,1,12.406-.262,7.492,7.492,0,0,1,9.844.156a5.076,5.076,0,0,1-2.59-.645A4.3,4.3,0,0,1,5.535-2.359a6.585,6.585,0,0,1-.621-2.883v-.773a6.994,6.994,0,0,1,.574-2.949,4.248,4.248,0,0,1,1.656-1.906,4.771,4.771,0,0,1,2.535-.66,4.751,4.751,0,0,1,3.164.965A4.123,4.123,0,0,1,14.2-7.758H11.914a2.268,2.268,0,0,0-.691-1.43A2.208,2.208,0,0,0,9.75-9.641a2.078,2.078,0,0,0-1.82.9A4.724,4.724,0,0,0,7.3-6.07v.727a4.5,4.5,0,0,0,.68,2.7,2.327,2.327,0,0,0,1.992.914,2.6,2.6,0,0,0,1.883-.562V-4.25H9.719V-5.977H14.2Z" transform="translate(391.285 6034.7)" fill="#12263f"/>
    <g id="jpg-image-file-format" transform="translate(287.684 5927.85)">
      <g id="Grupo_85447" data-name="Grupo 85447" transform="translate(75.6 0)">
        <path id="Trazado_105532" data-name="Trazado 105532" d="M132.282,18.728a1.516,1.516,0,0,0-.366-.992L116.849.524s-.009-.006-.012-.011a1.544,1.544,0,0,0-.305-.256c-.033-.021-.066-.04-.1-.06a1.57,1.57,0,0,0-.3-.127c-.029-.008-.054-.02-.082-.027A1.5,1.5,0,0,0,115.7,0H78.665A3.069,3.069,0,0,0,75.6,3.065v72.02a3.068,3.068,0,0,0,3.065,3.065h50.567a3.068,3.068,0,0,0,3.065-3.065V18.9A1.706,1.706,0,0,0,132.282,18.728ZM90.877,67.155c0,5.294-2.538,7.142-6.619,7.142a10.932,10.932,0,0,1-3.061-.441l.469-3.392a6.911,6.911,0,0,0,2.151.332c1.766,0,2.868-.8,2.868-3.7V55.407h4.192V67.155Zm15.143-1.682a8.623,8.623,0,0,1-6.04,1.957,10.551,10.551,0,0,1-1.435-.082V74H94.38V55.655a34.325,34.325,0,0,1,5.681-.386c2.592,0,4.441.5,5.682,1.489a5.433,5.433,0,0,1,1.985,4.3A5.943,5.943,0,0,1,106.02,65.474Zm19.913,7.666a20.8,20.8,0,0,1-6.206,1.048c-3.391,0-5.846-.855-7.555-2.509a8.991,8.991,0,0,1-2.62-6.758c.027-6.177,4.521-9.707,10.616-9.707a12.776,12.776,0,0,1,5.158.911l-.882,3.365a10.3,10.3,0,0,0-4.33-.8c-3.5,0-6.149,1.986-6.149,6.013,0,3.833,2.4,6.095,5.847,6.095a5.62,5.62,0,0,0,2.068-.277V66.633H119.01V63.351h6.922V73.14Zm-47.268-21.1V3.065h35.5v15.68a1.533,1.533,0,0,0,1.532,1.532h13.537V52.036Z" transform="translate(-75.6 0)" fill="#f57c00"/>
        <path id="Trazado_105533" data-name="Trazado 105533" d="M239.05,411.888a7.109,7.109,0,0,0-1.738.166v5.487a6.463,6.463,0,0,0,1.407.111c2.234,0,3.614-1.131,3.614-3.033C242.333,412.908,241.146,411.888,239.05,411.888Z" transform="translate(-214.368 -353.448)" fill="#f57c00"/>
        <g id="Grupo_85446" data-name="Grupo 85446" transform="translate(12.128 33.53)">
          <path id="Trazado_105534" data-name="Trazado 105534" d="M173.132,237.333c-6.12-6.122-12.055,17.558-12.055,17.558h20.4S179.255,243.459,173.132,237.333Z" transform="translate(-161.077 -236.322)" fill="#26ccda"/>
          <path id="Trazado_105535" data-name="Trazado 105535" d="M311.34,287.459c-4.338,1.11-6.5,11.24-6.5,11.24h14.628C317.478,293.624,315.045,286.511,311.34,287.459Z" transform="translate(-284.439 -280.13)" fill="#26ccda"/>
        </g>
        <path id="Trazado_105536" data-name="Trazado 105536" d="M138.118,159.1a3.794,3.794,0,1,0-3.8-3.795A3.794,3.794,0,0,0,138.118,159.1Z" transform="translate(-125.989 -130.012)" fill="#26ccda"/>
        <path id="Trazado_105537" data-name="Trazado 105537" d="M294.6,190.863a10.771,10.771,0,0,0,2.12-.208,6.7,6.7,0,0,0,2.626.51c2.507,0,4.542-1.227,4.542-2.74s-2.034-2.741-4.542-2.741a6.8,6.8,0,0,0-2.542.468,1.639,1.639,0,0,0-1.141-.468h-.658a1.621,1.621,0,0,0-1.606,1.454c-2.037.211-3.544.946-3.544,1.826C289.858,190.014,291.982,190.863,294.6,190.863Z" transform="translate(-259.459 -159.338)" fill="#26ccda"/>
      </g>
    </g>
  </g>
</svg>
