<svg id="Grupo_120912" data-name="Grupo 120912" xmlns="http://www.w3.org/2000/svg" xmlns:xlink="http://www.w3.org/1999/xlink" width="217.834" height="400" viewBox="0 0 217.834 400">
  <defs>
    <clipPath id="clip-path">
      <rect id="Rectángulo_38224" data-name="Rectángulo 38224" width="217.834" height="400" fill="none"/>
    </clipPath>
    <clipPath id="clip-path-4">
      <rect id="Rectángulo_38219" data-name="Rectángulo 38219" width="34.271" height="3.685" fill="none"/>
    </clipPath>
    <clipPath id="clip-path-5">
      <rect id="Rectángulo_38220" data-name="Rectángulo 38220" width="20.49" height="3.106" fill="none"/>
    </clipPath>
    <clipPath id="clip-path-6">
      <rect id="Rectángulo_38221" data-name="Rectángulo 38221" width="34.267" height="3.764" fill="none"/>
    </clipPath>
    <clipPath id="clip-path-7">
      <rect id="Rectángulo_38222" data-name="Rectángulo 38222" width="20.493" height="3.211" fill="none"/>
    </clipPath>
  </defs>
  <g id="Grupo_120929" data-name="Grupo 120929" clip-path="url(#clip-path)">
    <g id="Grupo_120914" data-name="Grupo 120914">
      <g id="Grupo_120913" data-name="Grupo 120913" clip-path="url(#clip-path)">
        <path id="Trazado_183158" data-name="Trazado 183158" d="M194.965,45.138A45.138,45.138,0,1,1,149.827,0a45.137,45.137,0,0,1,45.138,45.138" transform="translate(22.87)" fill="#f57c00"/>
        <path id="Trazado_183159" data-name="Trazado 183159" d="M148.469,81.35a37.569,37.569,0,1,1,37.569-37.569A37.611,37.611,0,0,1,148.469,81.35m0-68.709a31.139,31.139,0,1,0,31.14,31.14,31.176,31.176,0,0,0-31.14-31.14" transform="translate(24.227 1.357)" fill="#fff"/>
        <path id="Trazado_183160" data-name="Trazado 183160" d="M144.008,52.549a13.837,13.837,0,1,1,13.837-13.837,13.853,13.853,0,0,1-13.837,13.837m0-21.244a7.407,7.407,0,1,0,7.407,7.407,7.415,7.415,0,0,0-7.407-7.407" transform="translate(28.436 5.434)" fill="#fff"/>
        <path id="Trazado_183161" data-name="Trazado 183161" d="M151.5,36.231h-17.49l3.05,5.4L95.891,60.494l1.389,2.314,41.3-18.647,2.83,5.359Z" transform="translate(20.948 7.915)" fill="#455a64"/>
        <path id="Trazado_183162" data-name="Trazado 183162" d="M100.379,56.646l-.437-.425a8.36,8.36,0,0,0-8.172-2.04l-16.421,4.78,9.145,4.017-3.674,9.77,15.4-5.494a8.362,8.362,0,0,0,5.544-8.293Z" transform="translate(16.46 11.763)" fill="#263238"/>
      </g>
    </g>
    <g id="Grupo_120928" data-name="Grupo 120928">
      <g id="Grupo_120927" data-name="Grupo 120927" clip-path="url(#clip-path)">
        <path id="Trazado_183163" data-name="Trazado 183163" d="M146.662,73.034a3.29,3.29,0,0,1-.051,3.122l-25.5,45.545a16.12,16.12,0,0,1-21.606,5.457l-14.26-8.083,9.879-17.133,10.591,6.386L131.333,74.47a31.6,31.6,0,0,0,.379-5.674,8.566,8.566,0,0,0-.528-2.861,13.107,13.107,0,0,0-1.582-3.263,1.125,1.125,0,0,1,.975-1.891c.983.247,3.006,2.57,3.932,6.046s3.246-1.688,4.126-3.553,3.871-7.513,4.659-7.7c1.155-.269,1.657.919.736,2.762-.933,1.865-3.3,7.565-2.288,7.982,0,0,1.786.411,2.231,1.521Z" transform="translate(18.622 12.133)" fill="#ffbe9d"/>
        <path id="Trazado_183164" data-name="Trazado 183164" d="M133.86,65.149a7.782,7.782,0,0,1-.52,2.152q-.353,1.1-.729,2.271l-.451,1.334a1.937,1.937,0,0,1-.407.77.936.936,0,0,1-1.061.14,3.46,3.46,0,0,1-.712-.468,1.433,1.433,0,0,1-.525-.766,2.842,2.842,0,0,1,.322-1.528l.875-2.218a7.659,7.659,0,0,1,.959-1.987,7.674,7.674,0,0,1-.537,2.14q-.36,1.095-.747,2.264a2.645,2.645,0,0,0-.267,1.184c.039.262.534.612.887.8.193.079.281.067.366-.011a1.555,1.555,0,0,0,.268-.542c.164-.45.325-.888.485-1.321.295-.768.58-1.506.855-2.222a7.6,7.6,0,0,1,.939-1.99" transform="translate(28.275 14.166)" fill="#eb996e"/>
        <path id="Trazado_183165" data-name="Trazado 183165" d="M134.539,68.548A6.287,6.287,0,0,1,134.1,70.5c-.213.677-.429,1.363-.649,2.068l-.2.6a1.383,1.383,0,0,1-.457.684.957.957,0,0,1-.948.041,3.332,3.332,0,0,1-.648-.418,1.6,1.6,0,0,1-.537-.66,1.386,1.386,0,0,1-.021-.853c.141-.482.3-.837.446-1.229.273-.684.537-1.35.8-2.007a6.337,6.337,0,0,1,.889-1.795,6.4,6.4,0,0,1-.467,1.947c-.221.673-.444,1.355-.673,2.053-.121.376-.292.81-.391,1.179a.72.72,0,0,0,.346.866c.348.289.737.487.853.362.174-.1.318-.619.458-.974.263-.684.519-1.351.773-2.009a6.4,6.4,0,0,1,.868-1.8" transform="translate(28.526 14.62)" fill="#eb996e"/>
        <path id="Trazado_183166" data-name="Trazado 183166" d="M135.929,70.3a6.331,6.331,0,0,1-.444,1.953c-.213.677-.429,1.363-.649,2.068l-.2.6a1.371,1.371,0,0,1-.456.684.954.954,0,0,1-.948.04,3.239,3.239,0,0,1-.648-.417,1.6,1.6,0,0,1-.537-.66,1.386,1.386,0,0,1-.021-.853c.141-.483.3-.837.446-1.229.272-.684.537-1.35.8-2.007a6.4,6.4,0,0,1,.888-1.795,6.313,6.313,0,0,1-.467,1.947c-.219.673-.442,1.354-.671,2.053-.121.377-.292.81-.391,1.179a.72.72,0,0,0,.346.866c.348.289.737.487.853.362.174-.1.318-.619.458-.974l.772-2.009a6.418,6.418,0,0,1,.868-1.8" transform="translate(28.829 15.003)" fill="#eb996e"/>
        <path id="Trazado_183167" data-name="Trazado 183167" d="M129.319,74.931c-.185-.038.2-1.751-.451-3.718-.612-1.979-1.925-3.146-1.8-3.285.049-.061.453.145.965.663a6.372,6.372,0,0,1,1.681,5.239c-.116.718-.324,1.122-.4,1.1" transform="translate(27.758 14.837)" fill="#eb996e"/>
        <path id="Trazado_183168" data-name="Trazado 183168" d="M70.326,21.945a10.77,10.77,0,0,0-11.994-2.174c-1.808.854-3.385,2.23-5.321,2.735-2.316.607-4.741-.126-7.118-.42s-5.182.055-6.486,2.064c-.841,1.294-.887,3.057-1.98,4.145-1.507,1.5-4.042.9-6.084,1.5A5.671,5.671,0,0,0,27.5,34.309a6.747,6.747,0,0,0,1.945,5.7,10.481,10.481,0,0,1,2.431,2.609c.663,1.417.16,3.067-.1,4.611s-.055,3.465,1.349,4.156a2.116,2.116,0,0,0,2.95-2.539L65.6,39.392c4.452,0,5.856-4.006,6.561-5.4a10.769,10.769,0,0,0-1.83-12.052" transform="translate(5.99 4.111)" fill="#263238"/>
        <path id="Trazado_183169" data-name="Trazado 183169" d="M33.765,30.2l.063,3.192.641,47.782c.074,5.546,4.9,9.9,10.842,9.776,6-.127,10.87-4.769,10.887-10.374.018-5.883.145-12.076.145-12.076s7.579-1.257,9.148-11.145c.781-4.918.534-12.98.119-19.571a10.44,10.44,0,0,0-11.517-9.733Z" transform="translate(7.376 6.115)" fill="#ffbe9d"/>
        <path id="Trazado_183170" data-name="Trazado 183170" d="M58.692,40.841a1.268,1.268,0,0,1-1.223,1.279,1.212,1.212,0,0,1-1.306-1.143A1.268,1.268,0,0,1,57.383,39.7a1.214,1.214,0,0,1,1.309,1.144" transform="translate(12.269 8.672)" fill="#263238"/>
        <path id="Trazado_183171" data-name="Trazado 183171" d="M59.364,39.709c-.157.166-1.117-.546-2.483-.542-1.362-.016-2.364.686-2.512.519-.072-.074.088-.372.524-.69a3.473,3.473,0,0,1,2.012-.62,3.34,3.34,0,0,1,1.975.638c.42.322.563.62.485.695" transform="translate(11.873 8.383)" fill="#263238"/>
        <path id="Trazado_183172" data-name="Trazado 183172" d="M47.483,40.841a1.268,1.268,0,0,1-1.223,1.279,1.212,1.212,0,0,1-1.306-1.143A1.268,1.268,0,0,1,46.174,39.7a1.213,1.213,0,0,1,1.309,1.144" transform="translate(9.82 8.672)" fill="#263238"/>
        <path id="Trazado_183173" data-name="Trazado 183173" d="M48.356,39.918c-.157.166-1.12-.546-2.483-.542-1.362-.016-2.364.686-2.512.519-.072-.074.087-.372.524-.69a3.472,3.472,0,0,1,2.01-.62,3.341,3.341,0,0,1,1.976.638c.419.322.562.62.485.695" transform="translate(9.469 8.429)" fill="#263238"/>
        <path id="Trazado_183174" data-name="Trazado 183174" d="M51.636,50.024a9,9,0,0,1,2.216-.4c.348-.037.679-.1.737-.344a1.781,1.781,0,0,0-.233-1.032q-.492-1.265-1.031-2.654a45.615,45.615,0,0,1-2.314-6.94,45.763,45.763,0,0,1,2.867,6.738c.345.932.674,1.819.987,2.67a2.017,2.017,0,0,1,.182,1.367.872.872,0,0,1-.574.509,2.39,2.39,0,0,1-.591.083,8.84,8.84,0,0,1-2.247,0" transform="translate(11.14 8.444)" fill="#263238"/>
        <path id="Trazado_183175" data-name="Trazado 183175" d="M54.668,61.87a25.155,25.155,0,0,1-13.242-3.532S44.639,65.13,54.535,64.2Z" transform="translate(9.05 12.744)" fill="#eb996e"/>
        <path id="Trazado_183176" data-name="Trazado 183176" d="M48.265,48.759c.222-.012.224,1.468,1.493,2.52s2.844.888,2.856,1.1c.021.093-.352.288-1.019.306a3.688,3.688,0,0,1-2.383-.831,3.207,3.207,0,0,1-1.156-2.113c-.057-.619.108-.986.21-.977" transform="translate(10.495 10.652)" fill="#263238"/>
        <path id="Trazado_183177" data-name="Trazado 183177" d="M48.862,35.473c-.135.373-1.5.2-3.1.389-1.606.162-2.9.63-3.108.3-.1-.16.13-.508.652-.868a5.424,5.424,0,0,1,4.728-.521c.589.236.885.528.826.7" transform="translate(9.314 7.526)" fill="#263238"/>
        <path id="Trazado_183178" data-name="Trazado 183178" d="M58.886,36.482c-.24.309-1.179-.012-2.31-.027-1.13-.055-2.087.208-2.308-.116-.1-.157.054-.468.473-.762a3.343,3.343,0,0,1,3.721.116c.4.318.53.637.424.788" transform="translate(11.849 7.661)" fill="#263238"/>
        <path id="Trazado_183179" data-name="Trazado 183179" d="M66.234,33.721s-5.049,2.644-11.829-.475c-4.449-2.047-9.587-2.954-10.685-2.038s-1.192,5.437-5.488,6.892c0,0,.57,8.6-2.873,8.4s-2.922-17.46-2.922-17.46l9.471-.507,9.109-2.021,8.674.944,6.738,1.618Z" transform="translate(7.08 5.791)" fill="#263238"/>
        <path id="Trazado_183180" data-name="Trazado 183180" d="M32.242,26.615c-.048-.13.763-.435,1.712-.09s1.384,1.089,1.265,1.159c-.116.1-.64-.395-1.439-.671-.792-.295-1.508-.251-1.538-.4" transform="translate(7.043 5.76)" fill="#263238"/>
        <path id="Trazado_183181" data-name="Trazado 183181" d="M34.634,24.182c.16.012.106,1.022.285,2.188s.68,2.017.557,2.105c-.1.1-.871-.714-1.069-2.023a3.37,3.37,0,0,1,.227-2.271" transform="translate(7.503 5.283)" fill="#263238"/>
        <path id="Trazado_183182" data-name="Trazado 183182" d="M36.032,40.068c-.141-.068-5.716-1.957-5.775,3.81S36,48.515,36.011,48.351s.021-8.283.021-8.283" transform="translate(6.609 8.677)" fill="#ffbe9d"/>
        <path id="Trazado_183183" data-name="Trazado 183183" d="M34.009,45.815c-.026-.018-.1.069-.272.145a1,1,0,0,1-.752.009,2.484,2.484,0,0,1-1.126-2.243,3.312,3.312,0,0,1,.295-1.435,1.159,1.159,0,0,1,.764-.763.51.51,0,0,1,.59.281c.076.162.038.277.068.286s.125-.1.082-.334a.644.644,0,0,0-.223-.363.754.754,0,0,0-.554-.152,1.411,1.411,0,0,0-1.059.882,3.4,3.4,0,0,0-.364,1.6A2.607,2.607,0,0,0,32.9,46.238a1.081,1.081,0,0,0,.921-.143c.179-.141.211-.269.191-.28" transform="translate(6.872 9.009)" fill="#eb996e"/>
        <path id="Trazado_183184" data-name="Trazado 183184" d="M65.282,72.842c4.235.239,11.354.815,25.4,9.028,3.068,1.794,34.589,22.958,34.589,22.958l-13.957,17.863-25.7-14.475,3.462,30.772,3.852,36.591-62.274-.791L29.1,138.038l-.526-24.994-3.951,33.363L0,144.066,6.792,100.1A29.3,29.3,0,0,1,13.28,85.475c4.235-4.953,9.645-7.959,15.823-10.192A51.863,51.863,0,0,1,40.71,73.162l-.2-7.353s11.076,1.036,14.026,8.149c0,0,3.674-8.41,10.788-9.1Z" transform="translate(0 14.167)" fill="#fdd835"/>
        <path id="Trazado_183185" data-name="Trazado 183185" d="M42.115,171.581c-.08.048-.926-1.145-1.7-3.638a33.158,33.158,0,0,1-1.049-10.889c.068-2.3.257-4.809.372-7.474a66.991,66.991,0,0,0-.166-8.467,162.018,162.018,0,0,0-3.345-19.252,114.961,114.961,0,0,1-2.874-19.6c-.154-6.132.362-11.54.077-16.049A33.061,33.061,0,0,0,31.381,75.8c-.927-2.344-1.727-3.524-1.6-3.611.082-.065,1.1.98,2.274,3.312a29.821,29.821,0,0,1,2.711,10.614c.463,4.623.085,10.117.333,16.075a124.8,124.8,0,0,0,2.985,19.274,144.757,144.757,0,0,1,3.23,19.509,63.928,63.928,0,0,1-.007,8.69c-.216,2.676-.418,5.17-.6,7.455a37.56,37.56,0,0,0,.423,10.638c.531,2.46,1.139,3.752.986,3.822" transform="translate(6.504 15.77)" fill="#fafafa"/>
        <path id="Trazado_183186" data-name="Trazado 183186" d="M63.2,173.187c-.132.009-.351-1.4-.635-3.936-.279-2.6-.671-6.264-1.154-10.761-.96-9.084-2.394-21.618-4.433-35.4-1.015-6.893-2.074-13.444-3.1-19.394s-2-11.322-2.537-15.887A78.648,78.648,0,0,1,50.7,76.947c.062-2.572.273-3.983.391-3.978.3.009.113,5.669,1.585,14.658.7,4.5,1.806,9.811,2.93,15.762s2.237,12.514,3.256,19.427c2.045,13.823,3.272,26.423,3.891,35.556.316,4.567.484,8.267.551,10.827s.028,3.979-.1,3.988" transform="translate(11.074 15.94)" fill="#fafafa"/>
        <path id="Trazado_183187" data-name="Trazado 183187" d="M59.859,72.33c.154,0,.206,1.424.615,3.938a81.342,81.342,0,0,0,2.664,10.476c.654,2.2,1.4,4.619,2.019,7.288a61.828,61.828,0,0,1,1.332,8.633c.548,6.125.47,12.806.855,19.782.7,13.976,2.074,26.6,2.99,35.739.468,4.572.836,8.275,1.047,10.838s.268,3.99.136,4.007-.434-1.378-.872-3.914S69.637,162.9,69,158.346c-1.26-9.11-2.851-21.746-3.555-35.805-.386-7.033-.26-13.736-.7-19.733a64.708,64.708,0,0,0-1.127-8.438c-.535-2.614-1.2-5.036-1.773-7.262a60.825,60.825,0,0,1-2.1-10.75c-.19-2.6.01-4.031.119-4.027" transform="translate(13.033 15.801)" fill="#fafafa"/>
        <path id="Trazado_183188" data-name="Trazado 183188" d="M52.118,73.257c-.546-.089-.618-1.689-1.073-3.323s-1.218-3.041-.8-3.4c.2-.162.652-.007,1.188.474a5.34,5.34,0,0,1,1.455,5.23c-.211.688-.519,1.055-.774,1.019" transform="translate(10.95 14.521)" fill="#fafafa"/>
        <path id="Trazado_183189" data-name="Trazado 183189" d="M35.86,73.909c-.233.094-.657-.263-.96-1.047a5.51,5.51,0,0,1,1.64-5.917c.665-.515,1.212-.6,1.362-.4.308.441-.763,1.733-1.249,3.62-.556,1.868-.3,3.527-.793,3.747" transform="translate(7.561 14.515)" fill="#fafafa"/>
        <path id="Trazado_183190" data-name="Trazado 183190" d="M54.283,172.565c-.168-.032.139-1.424,0-3.93a38.427,38.427,0,0,0-2.416-10.341c-.725-2.148-1.595-4.5-2.337-7.113s-1.41-5.418-1.978-8.4c-1.142-5.967-1.9-12.566-2.779-19.46C43.046,109.515,41.589,97,40.627,87.933c-.48-4.534-.836-8.208-1.039-10.752s-.255-3.958-.124-3.975.43,1.367.859,3.883.989,6.163,1.64,10.676c1.3,9.025,2.972,21.512,4.7,35.321.879,6.9,1.585,13.486,2.617,19.381.513,2.949,1.1,5.728,1.773,8.3s1.448,4.925,2.1,7.122a33.8,33.8,0,0,1,1.874,10.742c-.091,2.609-.657,3.966-.742,3.938" transform="translate(8.605 15.992)" fill="#fafafa"/>
        <path id="Trazado_183191" data-name="Trazado 183191" d="M31.874,165.75c-.272.017-.736-3.759-1.432-9.859s-1.66-14.525-2.639-23.851-1.673-17.806-1.959-23.955-.235-9.962.017-9.974c.273-.015.691,3.766,1.324,9.872.651,6.185,1.534,14.581,2.511,23.86.98,9.322,1.741,17.788,2.087,23.933s.344,9.958.09,9.974" transform="translate(5.603 21.433)" fill="#fafafa"/>
        <path id="Trazado_183192" data-name="Trazado 183192" d="M3.508,142.064c-.256-.061.457-4.057,1.817-10.468s3.364-15.237,5.694-24.956c1.189-4.852,2.322-9.471,3.357-13.687,1.022-4.189,2.1-8.083,3.81-11.025a15.055,15.055,0,0,1,5.481-5.74c1.664-.921,2.732-1.022,2.756-.921.052.147-.916.492-2.354,1.544a16.038,16.038,0,0,0-4.7,5.754c-1.456,2.833-2.356,6.565-3.29,10.8-.989,4.227-2.074,8.858-3.212,13.722-2.33,9.72-4.542,18.5-6.236,24.826s-2.869,10.216-3.125,10.155" transform="translate(0.755 16.435)" fill="#fafafa"/>
        <path id="Trazado_183193" data-name="Trazado 183193" d="M30.479,79.386c.1.121-.575.741-1.282,2.215a32.963,32.963,0,0,0-2.25,6.564l-1.137,4.72c-.379,1.686-.7,3.526-1.1,5.478a36.636,36.636,0,0,1-1.728,6.092,63.992,63.992,0,0,1-2.861,6.106c-1.045,2.025-2.091,3.981-2.911,5.895a28.3,28.3,0,0,0-1.606,5.754,81.506,81.506,0,0,0-1.054,10.311c-.253,5.934-.166,9.632-.451,9.649-.239.017-.8-3.659-.894-9.673a66.128,66.128,0,0,1,.67-10.58,28.407,28.407,0,0,1,1.616-6.182c.849-2.046,1.9-4.025,2.939-6.047s2.035-3.975,2.817-5.916A37.6,37.6,0,0,0,23,97.987c.441-1.9.819-3.753,1.278-5.477s.919-3.269,1.376-4.718a25.458,25.458,0,0,1,2.907-6.569c.956-1.449,1.867-1.928,1.919-1.837" transform="translate(2.885 17.34)" fill="#fafafa"/>
        <path id="Trazado_183194" data-name="Trazado 183194" d="M104.65,107.46c-.1.229-2.5-.574-6.029-2.558a77.027,77.027,0,0,1-12.879-9.13c-2.346-2.1-4.235-4.29-6.139-6.081a35.478,35.478,0,0,0-5.31-4.349c-3.272-2.131-5.746-2.629-5.665-2.951.024-.116.665-.133,1.791.093a16.4,16.4,0,0,1,4.557,1.7A29.761,29.761,0,0,1,80.8,88.407c2.023,1.772,4,3.966,6.212,5.945a125.27,125.27,0,0,0,12.317,9.4c3.289,2.242,5.438,3.452,5.323,3.7" transform="translate(14.992 17.981)" fill="#fafafa"/>
        <path id="Trazado_183195" data-name="Trazado 183195" d="M98.535,113.177c-.157.221-1.863-.71-4.547-2.3s-6.376-3.8-10.407-6.368A98.154,98.154,0,0,1,73.586,97.4c-2.42-2.023-3.731-3.482-3.566-3.672.177-.21,1.783.876,4.371,2.593s6.2,4.037,10.217,6.592,7.62,4.963,10.127,6.851,3.949,3.208,3.8,3.417" transform="translate(15.293 20.469)" fill="#fafafa"/>
        <path id="Trazado_183196" data-name="Trazado 183196" d="M22.406,74.6c.009-.019.141.023.39.123a7.592,7.592,0,0,1,1.048.517,11.394,11.394,0,0,1,3.192,2.876A15.15,15.15,0,0,1,29.72,83.9a21.237,21.237,0,0,1,.182,7.8,43.725,43.725,0,0,1-1.917,7.537c-.763,2.259-1.517,4.262-2.108,5.957s-1.032,3.075-1.317,4.038a9.113,9.113,0,0,1-.48,1.488,6.562,6.562,0,0,1,.249-1.547c.214-.986.593-2.4,1.137-4.116,1.03-3.445,2.995-8.061,3.828-13.446a21.36,21.36,0,0,0-.127-7.582,15.3,15.3,0,0,0-2.478-5.646A13.852,13.852,0,0,0,22.406,74.6" transform="translate(4.894 16.297)" fill="#263238"/>
        <path id="Trazado_183197" data-name="Trazado 183197" d="M71.732,112.835a7.065,7.065,0,0,1-.255-1.482c-.136-1.081-.307-2.438-.511-4.054-.431-3.553-1-8.221-1.625-13.381s-1.194-9.829-1.627-13.382c-.195-1.616-.359-2.974-.49-4.055a7.157,7.157,0,0,1-.123-1.5,6.945,6.945,0,0,1,.359,1.461c.182.949.419,2.326.684,4.032.529,3.413,1.172,8.138,1.807,13.369s1.138,9.969,1.448,13.409c.155,1.719.26,3.112.316,4.077a7.021,7.021,0,0,1,.017,1.5" transform="translate(14.655 16.381)" fill="#263238"/>
        <path id="Trazado_183198" data-name="Trazado 183198" d="M45.15,70.094a2.936,2.936,0,0,0-2.077.272A3.512,3.512,0,0,0,41.6,72.074a8.646,8.646,0,0,0-.465,1.321q-.1.362-.191.734a1.864,1.864,0,0,1-.392.85.85.85,0,0,1-.548.264,1.162,1.162,0,0,1-.519-.1c-.273-.119-.475-.227-.71-.338l-1.3-.641-2.191-1.116a8.369,8.369,0,0,1-1.95-1.17,8.493,8.493,0,0,1,2.137.779l2.247,1,1.317.608.68.313c.217.082.3.071.395-.023a5.053,5.053,0,0,0,.451-1.327,8.556,8.556,0,0,1,.532-1.4,3.792,3.792,0,0,1,1.784-1.85,2.537,2.537,0,0,1,1.723-.2c.4.119.569.288.551.316" transform="translate(7.282 15.228)" fill="#263238"/>
        <path id="Trazado_183199" data-name="Trazado 183199" d="M55.294,71.422a33.95,33.95,0,0,1-4.8,3.989l-.4.3-.087-.5-.111-.628a7.325,7.325,0,0,0-1.8-4.239,6.551,6.551,0,0,0-1.639-1.036c-.021-.065.887-.136,1.928.712a5.017,5.017,0,0,1,1.366,1.82,10.819,10.819,0,0,1,.751,2.634c.038.217.074.431.108.635l-.485-.194a33.851,33.851,0,0,1,5.171-3.5" transform="translate(10.148 15.134)" fill="#263238"/>
        <path id="Trazado_183200" data-name="Trazado 183200" d="M23.028,131.826a18.051,18.051,0,0,1-2.98-.83c-1.82-.561-4.343-1.3-7.156-2.014S7.5,127.741,5.63,127.374a18.073,18.073,0,0,1-3.018-.677,13.576,13.576,0,0,1,3.09.249,70.364,70.364,0,0,1,7.34,1.441,70.492,70.492,0,0,1,7.145,2.2,13.6,13.6,0,0,1,2.841,1.242" transform="translate(0.571 27.671)" fill="#263238"/>
        <path id="Trazado_183201" data-name="Trazado 183201" d="M4.252,124.6a13.286,13.286,0,0,1,2.945.6c1.795.468,4.254,1.2,6.926,2.131,1.335.467,2.6.941,3.739,1.393a18.72,18.72,0,0,1,2.982,1.382c1.675,1.005,2.046,2.294,1.964,2.285a6.712,6.712,0,0,0-2.182-1.909,22.708,22.708,0,0,0-2.966-1.228l-3.741-1.342c-2.66-.931-5.087-1.722-6.845-2.294A16.228,16.228,0,0,1,4.252,124.6" transform="translate(0.929 27.216)" fill="#263238"/>
        <path id="Trazado_183202" data-name="Trazado 183202" d="M92.962,111.039a9.6,9.6,0,0,1,1.045-2.365A55.02,55.02,0,0,1,101.05,98.41a9.567,9.567,0,0,1,1.831-1.826c.136.121-2.41,3.114-5.138,7.106s-4.619,7.434-4.781,7.35" transform="translate(20.306 21.098)" fill="#263238"/>
        <path id="Trazado_183203" data-name="Trazado 183203" d="M91.45,108.1a7.3,7.3,0,0,1,1.081-2.132,25.878,25.878,0,0,1,8.155-8.067,7.3,7.3,0,0,1,2.143-1.059c.1.167-3.095,1.931-6.242,5.072-3.172,3.112-4.971,6.288-5.137,6.186" transform="translate(19.976 21.153)" fill="#263238"/>
        <path id="Trazado_183204" data-name="Trazado 183204" d="M57.774,174.758a5.927,5.927,0,0,1-.164-.978q-.132-1.053-.353-2.817c-.294-2.514-.705-6.04-1.212-10.37-1.013-8.757-2.414-20.854-4.076-34.2s-3.284-25.419-4.592-34.135c-.669-4.355-1.2-7.883-1.614-10.312q-.278-1.756-.444-2.8a5.661,5.661,0,0,1-.112-.986,5.972,5.972,0,0,1,.238.963q.21,1.04.562,2.784c.493,2.417,1.088,5.935,1.814,10.285,1.422,8.7,3.12,20.771,4.779,34.126s2.993,25.458,3.892,34.23c.423,4.34.768,7.875,1.013,10.393q.146,1.773.234,2.829a5.738,5.738,0,0,1,.038.992" transform="translate(9.874 17.073)" fill="#263238"/>
        <path id="Trazado_183205" data-name="Trazado 183205" d="M48.976,95.23c-.074.021-.164-.509.428-.97a1.214,1.214,0,0,1,1.268-.112,1.341,1.341,0,0,1,.731,1.4,1.29,1.29,0,0,1-1.229,1.01,1.06,1.06,0,0,1-1.044-.764.989.989,0,0,1,.089-.829c.113-.167.225-.2.252-.174.069.052-.158.39.077.84a.59.59,0,0,0,.6.342.74.74,0,0,0,.634-.542.8.8,0,0,0-.385-.77.782.782,0,0,0-.757-.019c-.464.222-.571.61-.662.587" transform="translate(10.687 20.539)" fill="#263238"/>
        <path id="Trazado_183206" data-name="Trazado 183206" d="M52,112.655c-.074.021-.164-.509.428-.97a1.215,1.215,0,0,1,1.268-.112,1.341,1.341,0,0,1,.731,1.4,1.286,1.286,0,0,1-1.229,1.009,1.059,1.059,0,0,1-1.044-.763.989.989,0,0,1,.089-.829c.113-.167.225-.2.252-.174.069.052-.158.39.077.84a.59.59,0,0,0,.6.342.74.74,0,0,0,.634-.542.8.8,0,0,0-.385-.77.782.782,0,0,0-.757-.02c-.464.222-.571.61-.662.587" transform="translate(11.347 24.345)" fill="#263238"/>
        <path id="Trazado_183207" data-name="Trazado 183207" d="M48.027,325.311l-.247-10.854-20.334.333.194,15.883,1.262.061c5.616.219,28.57.721,32.3-.476,4.162-1.338-13.178-4.946-13.178-4.946" transform="translate(5.996 68.695)" fill="#f57c00"/>
        <g id="Grupo_120917" data-name="Grupo 120917" transform="translate(33.636 396.07)" opacity="0.4">
          <g id="Grupo_120916" data-name="Grupo 120916">
            <g id="Grupo_120915" data-name="Grupo 120915" clip-path="url(#clip-path-4)">
              <path id="Trazado_183208" data-name="Trazado 183208" d="M56.47,325.059s6.084,1.647,5.344,2.657-23.955,1.376-34.208.641l.024-.456,27.084-.195s.573-2.579,1.756-2.648" transform="translate(-27.605 -325.059)" fill="#fff"/>
            </g>
          </g>
        </g>
        <path id="Trazado_183209" data-name="Trazado 183209" d="M27.364,327.48a1.884,1.884,0,0,0,.35.033l1.005.044,3.7.1c3.123.063,7.44.094,12.205.023s9.081-.233,12.2-.389l3.693-.212,1-.076a1.83,1.83,0,0,0,.348-.043,1.933,1.933,0,0,0-.351-.006l-1.005.028-3.7.134c-3.12.112-7.433.244-12.2.316s-9.076.068-12.2.05l-3.7-.022H27.715a1.957,1.957,0,0,0-.351.017" transform="translate(5.978 71.425)" fill="#263238"/>
        <path id="Trazado_183210" data-name="Trazado 183210" d="M49.86,328.068a5.375,5.375,0,0,1,1.9-3.209,3.287,3.287,0,0,0-1.9,3.209" transform="translate(10.884 70.965)" fill="#263238"/>
        <path id="Trazado_183211" data-name="Trazado 183211" d="M44.892,325.378c.058.035.34-.318.629-.791s.476-.883.419-.919-.34.318-.629.791-.478.883-.419.919" transform="translate(9.805 70.706)" fill="#263238"/>
        <path id="Trazado_183212" data-name="Trazado 183212" d="M43.528,324.586c.046.05.364-.169.709-.49s.587-.62.542-.67-.364.169-.709.49-.589.62-.542.67" transform="translate(9.508 70.652)" fill="#263238"/>
        <path id="Trazado_183213" data-name="Trazado 183213" d="M42.648,322.839a2.4,2.4,0,0,0,1.062.118,2.394,2.394,0,0,0,1.062-.128,2.4,2.4,0,0,0-1.062-.118,2.394,2.394,0,0,0-1.062.128" transform="translate(9.317 70.498)" fill="#263238"/>
        <path id="Trazado_183214" data-name="Trazado 183214" d="M42.337,321.714a2.994,2.994,0,0,0,2.409.144,6.556,6.556,0,0,0-1.205-.065,6.507,6.507,0,0,0-1.2-.079" transform="translate(9.249 70.275)" fill="#263238"/>
        <path id="Trazado_183215" data-name="Trazado 183215" d="M45.433,323.941a3.728,3.728,0,0,0,1.306-.029,7.569,7.569,0,0,0,1.387-.328,3.782,3.782,0,0,0,.791-.341.7.7,0,0,0,.317-.411.513.513,0,0,0-.206-.519,2.4,2.4,0,0,0-2.952.747,2.33,2.33,0,0,0-.412.879.721.721,0,0,0-.028.353,3.706,3.706,0,0,1,.578-1.123,2.359,2.359,0,0,1,1.1-.743,2.028,2.028,0,0,1,1.56.082c.21.151.133.4-.1.537a3.976,3.976,0,0,1-.73.325,9.157,9.157,0,0,1-1.339.372c-.781.151-1.279.16-1.278.2" transform="translate(9.925 70.358)" fill="#263238"/>
        <path id="Trazado_183216" data-name="Trazado 183216" d="M46.022,324.1a1.284,1.284,0,0,0,.136-.909,2.142,2.142,0,0,0-.372-.949,1.314,1.314,0,0,0-1.1-.649.52.52,0,0,0-.392.61,1.429,1.429,0,0,0,.23.58,4.014,4.014,0,0,0,.63.781,1.886,1.886,0,0,0,.757.517c.022-.032-.264-.23-.631-.638a4.507,4.507,0,0,1-.559-.775c-.184-.273-.314-.768.012-.832.327-.037.665.284.87.541a2.155,2.155,0,0,1,.383.844,4.759,4.759,0,0,1,.035.88" transform="translate(9.674 70.254)" fill="#263238"/>
        <path id="Trazado_183217" data-name="Trazado 183217" d="M27.632,322.842c0,.046.581-.065,1.5.029a6.372,6.372,0,0,1,5.393,4.161c.324.868.363,1.452.408,1.446a1.141,1.141,0,0,0,0-.411,5.39,5.39,0,0,0-.24-1.093,6.175,6.175,0,0,0-5.543-4.277,5.428,5.428,0,0,0-1.117.045,1.211,1.211,0,0,0-.4.1" transform="translate(6.036 70.493)" fill="#263238"/>
        <path id="Trazado_183218" data-name="Trazado 183218" d="M29.273,315.843A71.358,71.358,0,0,0,29.3,324.2a35.664,35.664,0,0,0,.111-4.179,35.485,35.485,0,0,0-.136-4.178" transform="translate(6.371 68.997)" fill="#263238"/>
        <path id="Trazado_183219" data-name="Trazado 183219" d="M35.728,325.887a11.53,11.53,0,0,0,2.973.247,11.447,11.447,0,0,0,2.969-.285c-.007-.071-1.334.032-2.971.039s-2.966-.073-2.972,0" transform="translate(7.805 71.178)" fill="#263238"/>
        <path id="Trazado_183220" data-name="Trazado 183220" d="M32.459,325.923c-.049.05.113.279.253.582s.218.571.289.565.1-.323-.066-.671-.434-.526-.476-.476" transform="translate(7.089 71.198)" fill="#263238"/>
        <path id="Trazado_183221" data-name="Trazado 183221" d="M31.2,324.41c-.048.049.087.258.3.468s.425.341.473.292-.087-.258-.3-.468-.425-.341-.473-.292" transform="translate(6.814 70.867)" fill="#263238"/>
        <path id="Trazado_183222" data-name="Trazado 183222" d="M29.426,323.757c.016.069.285.062.586.162s.518.257.57.21-.122-.325-.495-.444-.684.01-.662.072" transform="translate(6.428 70.7)" fill="#263238"/>
        <path id="Trazado_183223" data-name="Trazado 183223" d="M28.166,323.433c-.023.063.1.167.264.229s.327.062.35,0-.094-.166-.264-.229-.327-.061-.35,0" transform="translate(6.152 70.645)" fill="#263238"/>
        <g id="Grupo_120920" data-name="Grupo 120920" transform="translate(33.506 389.684)" opacity="0.3">
          <g id="Grupo_120919" data-name="Grupo 120919">
            <g id="Grupo_120918" data-name="Grupo 120918" clip-path="url(#clip-path-5)">
              <path id="Trazado_183224" data-name="Trazado 183224" d="M27.68,322.924l20.308-.658-.071-2.448L27.5,321.639Z" transform="translate(-27.498 -319.818)"/>
            </g>
          </g>
        </g>
        <path id="Trazado_183225" data-name="Trazado 183225" d="M86.728,325.484l-.3-10.852-20.331.437.275,15.881,1.262.054c5.617.19,28.574.574,32.3-.645,4.155-1.359-13.2-4.876-13.2-4.876" transform="translate(14.438 68.733)" fill="#f57c00"/>
        <g id="Grupo_120923" data-name="Grupo 120923" transform="translate(80.807 396.236)" opacity="0.4">
          <g id="Grupo_120922" data-name="Grupo 120922">
            <g id="Grupo_120921" data-name="Grupo 120921" clip-path="url(#clip-path-6)">
              <path id="Trazado_183226" data-name="Trazado 183226" d="M95.166,325.2s6.092,1.616,5.359,2.629-23.948,1.5-34.206.818l.023-.454,27.081-.336s.559-2.582,1.742-2.656" transform="translate(-66.319 -325.196)" fill="#fff"/>
            </g>
          </g>
        </g>
        <path id="Trazado_183227" data-name="Trazado 183227" d="M66.076,327.773a1.8,1.8,0,0,0,.35.03l1.005.04,3.7.082c3.123.046,7.44.054,12.205-.041s9.08-.278,12.2-.451l3.692-.232,1-.08a1.891,1.891,0,0,0,.348-.044,1.909,1.909,0,0,0-.352,0l-1.005.033-3.694.154c-3.12.128-7.431.281-12.2.379s-9.076.116-12.2.113l-3.7,0-1.006.006a1.912,1.912,0,0,0-.351.02" transform="translate(14.435 71.45)" fill="#263238"/>
        <path id="Trazado_183228" data-name="Trazado 183228" d="M88.572,328.213a5.362,5.362,0,0,1,1.884-3.219,3.286,3.286,0,0,0-1.884,3.219" transform="translate(19.34 70.995)" fill="#263238"/>
        <path id="Trazado_183229" data-name="Trazado 183229" d="M83.591,325.549c.058.035.338-.32.625-.793s.472-.886.413-.921-.338.319-.624.793-.473.886-.414.921" transform="translate(18.258 70.743)" fill="#263238"/>
        <path id="Trazado_183230" data-name="Trazado 183230" d="M82.224,324.764c.046.05.363-.171.707-.493s.585-.623.537-.673-.362.171-.705.493-.585.623-.539.673" transform="translate(17.961 70.69)" fill="#263238"/>
        <path id="Trazado_183231" data-name="Trazado 183231" d="M81.336,323.021A4.627,4.627,0,0,0,83.461,323a4.625,4.625,0,0,0-2.125.021" transform="translate(17.768 70.536)" fill="#263238"/>
        <path id="Trazado_183232" data-name="Trazado 183232" d="M81.02,321.9a2.989,2.989,0,0,0,2.41.13,6.725,6.725,0,0,0-1.206-.057,6.548,6.548,0,0,0-1.2-.073" transform="translate(17.699 70.315)" fill="#263238"/>
        <path id="Trazado_183233" data-name="Trazado 183233" d="M84.125,324.11a3.77,3.77,0,0,0,1.306-.035,7.614,7.614,0,0,0,1.384-.336,3.8,3.8,0,0,0,.79-.345.705.705,0,0,0,.316-.412.512.512,0,0,0-.21-.518,2.394,2.394,0,0,0-2.947.763,2.316,2.316,0,0,0-.408.88.733.733,0,0,0-.027.355,3.7,3.7,0,0,1,.571-1.127,2.362,2.362,0,0,1,1.1-.749,2.024,2.024,0,0,1,1.558.074c.211.149.135.395-.093.537a4.007,4.007,0,0,1-.727.329,9.083,9.083,0,0,1-1.338.378c-.78.155-1.278.167-1.277.207" transform="translate(18.377 70.392)" fill="#263238"/>
        <path id="Trazado_183234" data-name="Trazado 183234" d="M84.717,324.269a1.285,1.285,0,0,0,.132-.91,2.147,2.147,0,0,0-.377-.947,1.311,1.311,0,0,0-1.1-.643.52.52,0,0,0-.39.612,1.419,1.419,0,0,0,.234.579,3.915,3.915,0,0,0,.634.777,1.854,1.854,0,0,0,.759.513c.022-.032-.266-.228-.635-.635a4.5,4.5,0,0,1-.563-.772c-.185-.272-.318-.765.007-.832.327-.038.668.28.872.537a2.137,2.137,0,0,1,.387.842,4.811,4.811,0,0,1,.04.88" transform="translate(18.125 70.291)" fill="#263238"/>
        <path id="Trazado_183235" data-name="Trazado 183235" d="M66.321,323.1c0,.046.581-.068,1.5.022a6.368,6.368,0,0,1,5.414,4.133c.329.865.372,1.45.417,1.443a1.145,1.145,0,0,0-.007-.409A5.354,5.354,0,0,0,73.4,327.2a6.178,6.178,0,0,0-5.565-4.249,5.321,5.321,0,0,0-1.117.052,1.189,1.189,0,0,0-.4.1" transform="translate(14.488 70.548)" fill="#263238"/>
        <path id="Trazado_183236" data-name="Trazado 183236" d="M67.922,316.094a70.664,70.664,0,0,0,.069,8.357,35.817,35.817,0,0,0,.088-4.179,35.387,35.387,0,0,0-.157-4.178" transform="translate(14.817 69.052)" fill="#263238"/>
        <path id="Trazado_183237" data-name="Trazado 183237" d="M74.432,326.109a11.579,11.579,0,0,0,2.974.233,11.5,11.5,0,0,0,2.968-.3c-.009-.071-1.334.038-2.971.054s-2.966-.057-2.972.015" transform="translate(16.26 71.22)" fill="#263238"/>
        <path id="Trazado_183238" data-name="Trazado 183238" d="M71.164,326.159c-.049.051.115.279.256.581s.222.57.292.564.1-.324-.069-.67-.436-.525-.479-.475" transform="translate(15.544 71.249)" fill="#263238"/>
        <path id="Trazado_183239" data-name="Trazado 183239" d="M69.9,324.651c-.048.049.088.258.3.467s.426.339.474.29-.088-.258-.3-.467-.428-.339-.475-.29" transform="translate(15.268 70.919)" fill="#263238"/>
        <path id="Trazado_183240" data-name="Trazado 183240" d="M68.119,324.007c.016.069.285.061.586.16s.52.253.573.206-.124-.324-.5-.441-.682.013-.66.076" transform="translate(14.881 70.754)" fill="#263238"/>
        <path id="Trazado_183241" data-name="Trazado 183241" d="M66.857,323.689c-.023.065.1.166.266.228s.327.06.35,0-.1-.166-.266-.228-.327-.06-.35,0" transform="translate(14.604 70.701)" fill="#263238"/>
        <g id="Grupo_120926" data-name="Grupo 120926" transform="translate(80.636 389.895)" opacity="0.3">
          <g id="Grupo_120925" data-name="Grupo 120925">
            <g id="Grupo_120924" data-name="Grupo 120924" clip-path="url(#clip-path-7)">
              <path id="Trazado_183242" data-name="Trazado 183242" d="M66.368,323.2l20.3-.763-.084-2.448-20.409,1.926Z" transform="translate(-66.179 -319.992)"/>
            </g>
          </g>
        </g>
        <path id="Trazado_183243" data-name="Trazado 183243" d="M24.374,152.358v205.6h32.05l2.835-178.321L70.5,357.954h32.048L88.212,155.831Z" transform="translate(5.325 33.283)" fill="#106f77"/>
        <path id="Trazado_183244" data-name="Trazado 183244" d="M55.767,153.623a17.725,17.725,0,0,1,.269,3.307c.088,2.045.166,4.87.214,7.991.015,1.551.029,3.029.043,4.4a7.889,7.889,0,0,1-.665,3.607,4.21,4.21,0,0,1-1.823,1.862,1.781,1.781,0,0,1-.967.267c-.016-.045.334-.127.841-.447a4.229,4.229,0,0,0,1.551-1.835,8.005,8.005,0,0,0,.5-3.451c-.028-1.371-.058-2.848-.09-4.4-.049-3.12-.058-5.946-.035-7.992a17.768,17.768,0,0,1,.166-3.313" transform="translate(11.543 33.56)" fill="#455a64"/>
        <path id="Trazado_183245" data-name="Trazado 183245" d="M50.683,155.589c.057.066-.429.322-.442.987a1.039,1.039,0,0,0,.458.92,1.237,1.237,0,0,0,1.285-.084.835.835,0,0,0,.071-1.45,1.453,1.453,0,0,0-1.293-.277l-.018-.216c.264.121.4.2.381.245s-.179.032-.469-.022l-.257-.048.24-.169a1.667,1.667,0,0,1,1.741.127,1.4,1.4,0,0,1,.654,1.043,1.364,1.364,0,0,1-.691,1.212,1.82,1.82,0,0,1-1.986.043,1.359,1.359,0,0,1-.55-1.361,1.28,1.28,0,0,1,.508-.833c.207-.135.352-.145.367-.117" transform="translate(10.876 33.923)" fill="#455a64"/>
        <path id="Trazado_183246" data-name="Trazado 183246" d="M84.244,123.25c-.844-1.1-10.966.646-10.966.646l3.693-2.8c-1.88-3.339-8.385.7-10.454,2.655a3.806,3.806,0,0,0-1.025,2.012l-40.84,8.616-22.8-2.322s-.456,3.933-1.6,11.352c-1.081,7.01,10.453,13.887,17.6,12.883,6.533-.919,46.45-12.269,53.242-14.207l.989-.283-.017-.046c2.2-.755,7.464-2.642,8.014-3.592.7-1.206.508-10.663.508-10.663l3.749-1.653a2.682,2.682,0,0,0-.093-2.6" transform="translate(0.04 26.175)" fill="#ffbe9d"/>
      </g>
    </g>
  </g>
</svg>
