<svg xmlns="http://www.w3.org/2000/svg" xmlns:xlink="http://www.w3.org/1999/xlink" width="129.658" height="400" viewBox="0 0 129.658 400">
  <defs>
    <clipPath id="clip-path">
      <rect id="Rectángulo_38195" data-name="Rectángulo 38195" width="27.309" height="14.812" fill="none"/>
    </clipPath>
    <clipPath id="clip-path-2">
      <rect id="Rectángulo_38196" data-name="Rectángulo 38196" width="24.923" height="10.737" fill="none"/>
    </clipPath>
    <clipPath id="clip-path-3">
      <rect id="Rectángulo_38197" data-name="Rectángulo 38197" width="7.139" height="26.005" fill="none"/>
    </clipPath>
    <clipPath id="clip-path-4">
      <rect id="Rectángulo_38198" data-name="Rectángulo 38198" width="40.889" height="6.501" fill="none"/>
    </clipPath>
    <clipPath id="clip-path-5">
      <rect id="Rectángulo_38199" data-name="Rectángulo 38199" width="4.733" height="4.814" fill="none"/>
    </clipPath>
    <clipPath id="clip-path-6">
      <rect id="Rectángulo_38200" data-name="Rectángulo 38200" width="3.474" height="15.026" fill="none"/>
    </clipPath>
  </defs>
  <g id="Grupo_120869" data-name="Grupo 120869" transform="translate(-343.111 -7724)">
    <path id="Trazado_182970" data-name="Trazado 182970" d="M14.394,12.074H10.55A3.266,3.266,0,0,1,7.2,15.358a3.11,3.11,0,0,1-3.012-1.985,3.445,3.445,0,0,1,.274-3.113c.652-1.075,2.081-2.052,4.67-1.595V0h-3.8V5.076A7.421,7.421,0,0,0,0,12.328c0,5.62,5.04,6.925,7.2,6.925,1.65,0,7.27-.4,7.2-7.179" transform="translate(451.71 7759.287) rotate(180)" fill="#f57c00"/>
    <rect id="Rectángulo_38184" data-name="Rectángulo 38184" width="3.857" height="3.602" transform="translate(446.426 7764.672) rotate(180)" fill="#f57c00"/>
    <path id="Trazado_182971" data-name="Trazado 182971" d="M320.119,28.35a2.75,2.75,0,0,0,.008-.487c-.01-.352-.023-.825-.041-1.429-.015-.314-.014-.667-.046-1.053q-.081-.581-.177-1.261c-.066-.458-.137-.948-.212-1.471l-.408-1.644a26.609,26.609,0,0,0-3.474-7.967,28.587,28.587,0,0,0-8.025-8.24A27.784,27.784,0,0,0,290.785.046c-.652.045-1.314.032-1.971.127l-1.984.3a28.274,28.274,0,0,0-7.84,2.678,30.177,30.177,0,0,0-7.046,5.121,29.577,29.577,0,0,0-5.3,7.377,26.829,26.829,0,0,0-2.76,8.993,17.844,17.844,0,0,0-.2,2.4,21.592,21.592,0,0,0-.045,2.425,28.718,28.718,0,0,0,.614,4.856,28.383,28.383,0,0,0,4.068,9.669l-.03-.293-3.952,9.848-.234.583.605-.167,10.528-2.894-.26-.05a28.252,28.252,0,0,0,12.031,5.256,25.588,25.588,0,0,0,6.163.382,19.8,19.8,0,0,0,2.96-.279l1.441-.224c.473-.088.932-.232,1.394-.345A28.161,28.161,0,0,0,314.983,44.82a26.922,26.922,0,0,0,3.45-6.54l.527-1.472q.186-.728.355-1.4t.317-1.279c.079-.411.122-.807.179-1.178.095-.744.223-1.4.251-1.972s.036-1.046.049-1.447c.008-.366.015-.657.019-.883a.151.151,0,1,0-.051,0c-.018.226-.041.516-.069.88-.027.4-.06.877-.1,1.438s-.188,1.216-.3,1.954a28.013,28.013,0,0,1-20.774,22.393c-.454.107-.9.247-1.371.331l-1.415.212a19.22,19.22,0,0,1-2.906.261,25.1,25.1,0,0,1-6.043-.4,27.744,27.744,0,0,1-11.769-5.183l-.118-.089-.143.04L264.542,53.36l.372.416q1.938-4.811,3.964-9.844l.062-.154-.092-.14a27.785,27.785,0,0,1-3.974-9.453,28.212,28.212,0,0,1-.6-4.747,21.084,21.084,0,0,1,.042-2.37,17.427,17.427,0,0,1,.2-2.346,26.249,26.249,0,0,1,2.69-8.794A29.058,29.058,0,0,1,272.375,8.7a29.677,29.677,0,0,1,6.885-5.03,27.768,27.768,0,0,1,7.671-2.647l1.945-.3c.643-.1,1.294-.085,1.932-.132a28.787,28.787,0,0,1,3.781.06A27.823,27.823,0,0,1,315.47,13.232,26.808,26.808,0,0,1,319,21.07q.229.859.432,1.624.127.776.238,1.455t.206,1.249c.043.383.052.734.077,1.046.044.6.078,1.071.1,1.421a2.733,2.733,0,0,0,.057.486" transform="translate(152.64 7724)" fill="#106f77"/>
    <path id="Trazado_182981" data-name="Trazado 182981" d="M194.259,139.264c-.974,1.943,2.634,3.511,4.715,4.141a18.827,18.827,0,0,0,6.472.446c2.878-.155,5.858-.424,8.361-1.853a13.29,13.29,0,0,0,5.04-5.653,39.674,39.674,0,0,0,2.558-7.229s-22.809,1.494-27.146,10.148" transform="translate(153.326 7724.63)" fill="#e8505b"/>
    <g id="Grupo_120853" data-name="Grupo 120853" transform="translate(347.424 7853.746)" opacity="0.4">
      <g id="Grupo_120852" data-name="Grupo 120852">
        <g id="Grupo_120851" data-name="Grupo 120851" clip-path="url(#clip-path)">
          <path id="Trazado_182982" data-name="Trazado 182982" d="M194.259,139.264c-.974,1.943,2.634,3.511,4.715,4.141a18.827,18.827,0,0,0,6.472.446c2.878-.155,5.858-.424,8.361-1.853a13.29,13.29,0,0,0,5.04-5.653,39.674,39.674,0,0,0,2.558-7.229s-22.809,1.494-27.146,10.148" transform="translate(-194.096 -129.116)"/>
        </g>
      </g>
    </g>
    <path id="Trazado_182983" data-name="Trazado 182983" d="M260.957,132.984a21.875,21.875,0,0,0,12.875,4.042,9.134,9.134,0,0,0,6.131-1.928c.743-.681,1.3-1.551,2.066-2.205.52-.444,1.129-.782,1.618-1.26a2.067,2.067,0,0,0,.711-1.832,3.816,3.816,0,0,0-1.333-2.132c-2.62-1.487-5.745-1.433-8.756-1.364a30.029,30.029,0,0,0-8.834,1.732c-2.334.786-4.782,1.9-5.966,4.055" transform="translate(151.069 7724.728)" fill="#e8505b"/>
    <g id="Grupo_120856" data-name="Grupo 120856" transform="translate(410.538 7851.021)" opacity="0.4">
      <g id="Grupo_120855" data-name="Grupo 120855">
        <g id="Grupo_120854" data-name="Grupo 120854" clip-path="url(#clip-path-2)">
          <path id="Trazado_182984" data-name="Trazado 182984" d="M284.358,129.8a4.039,4.039,0,0,0-1.712-1.939c-2.62-1.487-5.367-1.625-8.378-1.556a30.03,30.03,0,0,0-8.834,1.731c-2.334.787-4.782,1.9-5.966,4.056l1.489.892a21.867,21.867,0,0,0,12.875,4.041,9.134,9.134,0,0,0,6.131-1.928c.743-.68,1.3-1.55,2.066-2.205.52-.445,1.129-.782,1.618-1.261a2.063,2.063,0,0,0,.711-1.831" transform="translate(-259.468 -126.292)"/>
        </g>
      </g>
    </g>
    <path id="Trazado_182985" data-name="Trazado 182985" d="M214.013,166.108l48.128.629a.618.618,0,0,0,.6-.807l-5.646-17.61s.832-8.8,1.982-19.389c1.745-16.069,4.066-36.275,4.1-36.219-3.287-9.225-22.711-10.8-22.711-10.8l-22.138,1.317-.779-1.3-6.371,2.961a29.608,29.608,0,0,0-4,2.254c-4.2,2.817-14.348,9.268-16.2,16.468-4.274,16.646,2.966,35.231,2.966,35.231l4.647-3.632a32.763,32.763,0,0,1,3.689-2.466l9.326,24.991a4.407,4.407,0,0,0-2.023,3.208c-.082,2.026,1,4.466,4.429,5.159" transform="translate(153.482 7726.262)" fill="#f57c00"/>
    <g id="Grupo_120859" data-name="Grupo 120859" transform="translate(381.848 7837.955)" opacity="0.3">
      <g id="Grupo_120858" data-name="Grupo 120858">
        <g id="Grupo_120857" data-name="Grupo 120857" clip-path="url(#clip-path-3)">
          <path id="Trazado_182986" data-name="Trazado 182986" d="M236.031,137.706c1.526-8.2.72-16.641-.092-24.946-2.672,6.795-2.576,14.453-5.4,21.185a9.03,9.03,0,0,0-.754,2.23,2.493,2.493,0,0,0,.644,2.177c.768.7,1.913.324,2.948.2a11.154,11.154,0,0,0,2.656-.845" transform="translate(-229.753 -112.76)"/>
        </g>
      </g>
    </g>
    <g id="Grupo_120862" data-name="Grupo 120862" transform="translate(369.753 7875.791)" opacity="0.4">
      <g id="Grupo_120861" data-name="Grupo 120861">
        <g id="Grupo_120860" data-name="Grupo 120860" clip-path="url(#clip-path-4)">
          <path id="Trazado_182987" data-name="Trazado 182987" d="M217.871,158.054c3.886,1.348,7.972-1.151,12.06-1.6,2.7-.292,5.405.327,8.087.763a60.464,60.464,0,0,0,16.413.4,6.263,6.263,0,0,0,2.415-.623,2.914,2.914,0,0,0,1.263-2.4c-9.09-.933-18.179-1.489-27.268-2.421a17.127,17.127,0,0,0-6.818.216c-2.747.852-4.864,3.009-6.8,5.136" transform="translate(-217.223 -151.948)"/>
        </g>
      </g>
    </g>
    <path id="Trazado_182988" data-name="Trazado 182988" d="M282.789,125.441C278.854,116.595,265,92.109,265,92.109l-10.73,13.452,2.5,26.4s5.665-6.325,21.507-6.45a7.765,7.765,0,0,1,5.9,3.1Z" transform="translate(151.248 7725.91)" fill="#f57c00"/>
    <path id="Trazado_182989" data-name="Trazado 182989" d="M216.981,121.375a36.5,36.5,0,0,1-1.808-5.775,36.413,36.413,0,0,1-1.322-5.906,36.753,36.753,0,0,1,1.806,5.776,36.7,36.7,0,0,1,1.324,5.9" transform="translate(152.646 7725.302)" fill="#263238"/>
    <path id="Trazado_182990" data-name="Trazado 182990" d="M253.432,104.188a6.373,6.373,0,0,1,.992.844,26.935,26.935,0,0,1,2.39,2.627,25.339,25.339,0,0,1,5.124,10.484,19.6,19.6,0,0,1,.307,6.467c-.249,1.975-.627,3.712-.869,5.183s-.406,2.662-.483,3.491a8.708,8.708,0,0,1-.135,1.291,5.171,5.171,0,0,1-.061-1.3,30.565,30.565,0,0,1,.327-3.535c.2-1.483.541-3.235.761-5.182a19.894,19.894,0,0,0-.34-6.308,26.526,26.526,0,0,0-4.912-10.37c-1.785-2.379-3.176-3.616-3.1-3.689" transform="translate(151.278 7725.491)" fill="#263238"/>
    <path id="Trazado_182991" data-name="Trazado 182991" d="M242.351,166.662a4.529,4.529,0,0,1-1.047.3,10,10,0,0,1-1.257.244,16.644,16.644,0,0,1-1.685.2,24.851,24.851,0,0,1-4.42-.024,26.255,26.255,0,0,1-10.291-3.2,24.889,24.889,0,0,1-3.658-2.483c-.5-.379-.9-.786-1.272-1.123a10.058,10.058,0,0,1-.9-.913,4.579,4.579,0,0,1-.691-.844c.072-.07,1.109,1.089,3.081,2.6a27.83,27.83,0,0,0,3.659,2.356,27.722,27.722,0,0,0,10.118,3.141,27.645,27.645,0,0,0,4.349.131c2.481-.128,3.992-.5,4.012-.4" transform="translate(152.529 7723.604)" fill="#263238"/>
    <path id="Trazado_182992" data-name="Trazado 182992" d="M258.54,161.238a3.409,3.409,0,0,1,.371,1.41,8.68,8.68,0,0,1-.259,3.518,6.135,6.135,0,0,1-1.891,2.99c-.706.588-1.248.773-1.272.724-.042-.071.427-.366,1.03-.984a6.84,6.84,0,0,0,1.652-2.874c.731-2.55.181-4.772.37-4.784" transform="translate(151.205 7723.52)" fill="#263238"/>
    <path id="Trazado_182993" data-name="Trazado 182993" d="M255.864,164.761a5.247,5.247,0,0,1-2.067,5.328c-.107-.105.795-1.065,1.354-2.54.581-1.466.564-2.782.714-2.788" transform="translate(151.264 7723.399)" fill="#263238"/>
    <path id="Trazado_182994" data-name="Trazado 182994" d="M246.889,131.857a19.567,19.567,0,0,1-1.717,2.472,19.789,19.789,0,0,1-1.689,2.491,8.96,8.96,0,0,1,3.405-4.962" transform="translate(151.62 7724.535)" fill="#263238"/>
    <path id="Trazado_182995" data-name="Trazado 182995" d="M212.223,107.421a24.408,24.408,0,0,1-2.135-1.414,27.488,27.488,0,0,0-11.4-4.257,24.341,24.341,0,0,1-2.538-.33,8.937,8.937,0,0,1,2.578-.023,23.09,23.09,0,0,1,11.564,4.317,8.94,8.94,0,0,1,1.933,1.707" transform="translate(153.258 7725.59)" fill="#263238"/>
    <path id="Trazado_182996" data-name="Trazado 182996" d="M265.085,91.777a41.754,41.754,0,0,0-4.877,4.565,41.587,41.587,0,0,0-3.666,5.585,5.916,5.916,0,0,1,.672-1.873,19.13,19.13,0,0,1,6.14-7.295,5.945,5.945,0,0,1,1.731-.982" transform="translate(151.169 7725.921)" fill="#263238"/>
    <path id="Trazado_182997" data-name="Trazado 182997" d="M243.8,83.536a1.834,1.834,0,0,1,.217.446,8.3,8.3,0,0,1,.45,1.355,11.453,11.453,0,0,1-.018,5.228,12.846,12.846,0,0,1-3.938,6.654,13.352,13.352,0,0,1-8.883,3.164,15.024,15.024,0,0,1-8.968-3,17.158,17.158,0,0,1-4.935-5.981,18.251,18.251,0,0,1-1.644-4.968,13.6,13.6,0,0,1-.174-1.412,1.848,1.848,0,0,1-.009-.5c.051-.006.11.674.375,1.87a19.782,19.782,0,0,0,1.768,4.844,17.182,17.182,0,0,0,4.9,5.772,14.738,14.738,0,0,0,8.695,2.866,13.013,13.013,0,0,0,8.575-3.009,12.679,12.679,0,0,0,3.9-6.388,11.861,11.861,0,0,0,.173-5.1c-.238-1.2-.535-1.82-.476-1.842" transform="translate(152.573 7726.205)" fill="#263238"/>
    <g id="Grupo_120865" data-name="Grupo 120865" transform="translate(395.108 7856.712)" opacity="0.3">
      <g id="Grupo_120864" data-name="Grupo 120864">
        <g id="Grupo_120863" data-name="Grupo 120863" clip-path="url(#clip-path-5)">
          <path id="Trazado_182998" data-name="Trazado 182998" d="M248.136,133.58c-.014-.483-.077-1.05-.5-1.292a.95.95,0,0,0-.875.014,2.472,2.472,0,0,0-.7.576A11.84,11.84,0,0,0,243.485,137l4.734-.408c-.031-1-.052-2.016-.083-3.014" transform="translate(-243.486 -132.188)"/>
        </g>
      </g>
    </g>
    <g id="Grupo_120868" data-name="Grupo 120868" transform="translate(412.034 7840.815)" opacity="0.3">
      <g id="Grupo_120867" data-name="Grupo 120867">
        <g id="Grupo_120866" data-name="Grupo 120866" clip-path="url(#clip-path-6)">
          <path id="Trazado_182999" data-name="Trazado 182999" d="M264.451,123.055a15.5,15.5,0,0,0-3.43-7.333c2.038,6.682,1.355,10.451.21,15.026l.247-.64c1.315-2.673,3.337-4.346,2.973-7.054" transform="translate(-261.021 -115.722)"/>
        </g>
      </g>
    </g>
    <path id="Trazado_183000" data-name="Trazado 183000" d="M253.9,355.708l-2.888,43.3-18.827-.222-2.965-45.02Z" transform="translate(152.114 7716.866)" fill="#ffbe9d"/>
    <path id="Trazado_183001" data-name="Trazado 183001" d="M251.608,394.711l0,1.252s21.221,8.541,21.444,12.569l-42.15-.247.656-14.023a24.111,24.111,0,0,0,20.046.449" transform="translate(152.054 7715.467)" fill="#f57c00"/>
    <path id="Trazado_183002" data-name="Trazado 183002" d="M235.934,398.932a1.722,1.722,0,0,0-1.2,1.957,1.656,1.656,0,0,0,1.93,1.209,1.815,1.815,0,0,0,1.262-2.08,1.717,1.717,0,0,0-2.146-1.034" transform="translate(151.922 7715.309)" fill="#fff"/>
    <path id="Trazado_183003" data-name="Trazado 183003" d="M230.906,408.667l.157-3.372,40.341,1.471s1.872.827,1.653,2.148Z" transform="translate(152.054 7715.085)" fill="#263238"/>
    <path id="Trazado_183004" data-name="Trazado 183004" d="M252.367,396.141c-.008.206-1.038.292-2.054.949-1.034.629-1.561,1.518-1.749,1.435-.19-.041.125-1.27,1.369-2.042s2.481-.531,2.435-.342" transform="translate(151.447 7715.409)" fill="#263238"/>
    <path id="Trazado_183005" data-name="Trazado 183005" d="M256.972,398.065c.046.2-.848.545-1.551,1.412-.73.845-.911,1.785-1.117,1.775-.193.031-.328-1.175.568-2.236s2.1-1.147,2.1-.951" transform="translate(151.251 7715.338)" fill="#263238"/>
    <path id="Trazado_183006" data-name="Trazado 183006" d="M259.633,403.437c-.187.044-.467-.987.068-2.111s1.5-1.567,1.586-1.4c.116.17-.513.771-.938,1.7-.447.919-.511,1.786-.715,1.805" transform="translate(151.071 7715.272)" fill="#263238"/>
    <path id="Trazado_183007" data-name="Trazado 183007" d="M249.711,27.431c1.086-2.708-.23-5.982-2.581-7.71a11.206,11.206,0,0,0-8.364-1.645,33.249,33.249,0,0,0-8.247,2.85,9.309,9.309,0,0,0-15.8,5.159,5.917,5.917,0,0,0-7.01,7.771l13.05,4.584,14.252,25.07A11.4,11.4,0,0,0,251.787,48.35a9.783,9.783,0,0,0,2-2.476A9.989,9.989,0,0,0,258.4,39.7a10.546,10.546,0,0,0-8.691-12.267" transform="translate(152.869 7728.475)" fill="#263238"/>
    <path id="Trazado_183008" data-name="Trazado 183008" d="M241.126,80.034c-.81-4.081-1.375-6.876-1.367-6.847,0,0,7.695-3,7.164-13.744-.264-5.345-2.3-13.771-4.194-20.612-1.7-6.158-7.443-12.947-13.523-10.985l-18.385,8.981c-1.847.6-2.17,2.33-1.735,4.221l.03.922,7.154,29.6L219.292,84.8a11.175,11.175,0,0,0,21.833-4.763" transform="translate(152.815 7728.142)" fill="#ffbe9d"/>
    <path id="Trazado_183009" data-name="Trazado 183009" d="M243.718,46.607a1.364,1.364,0,0,1-1,1.616,1.3,1.3,0,0,1-1.628-.914,1.364,1.364,0,0,1,1-1.616,1.3,1.3,0,0,1,1.629.914" transform="translate(151.704 7727.515)" fill="#263238"/>
    <path id="Trazado_183010" data-name="Trazado 183010" d="M242.8,44.479c-.128.209-1.3-.327-2.731-.022-1.438.284-2.335,1.243-2.528,1.1-.093-.062.01-.411.4-.842a3.739,3.739,0,0,1,1.979-1.1,3.591,3.591,0,0,1,2.219.235c.513.246.728.53.663.625" transform="translate(151.828 7727.588)" fill="#263238"/>
    <path id="Trazado_183011" data-name="Trazado 183011" d="M229.248,49.925a1.364,1.364,0,0,1-1,1.616,1.3,1.3,0,0,1-1.627-.914,1.363,1.363,0,0,1,1-1.616,1.3,1.3,0,0,1,1.629.914" transform="translate(152.205 7727.401)" fill="#263238"/>
    <path id="Trazado_183012" data-name="Trazado 183012" d="M228.426,48c-.129.209-1.3-.327-2.731-.022-1.438.284-2.336,1.243-2.528,1.1-.093-.062.008-.411.4-.842a3.743,3.743,0,0,1,1.978-1.1,3.594,3.594,0,0,1,2.22.235c.512.246.728.53.663.625" transform="translate(152.325 7727.465)" fill="#263238"/>
    <path id="Trazado_183013" data-name="Trazado 183013" d="M236.031,57.02a9.694,9.694,0,0,1,2.244-.91c.358-.114.69-.26.7-.522a1.908,1.908,0,0,0-.472-1.036l-1.67-2.563c-2.338-3.658-4.114-6.7-3.966-6.79s2.164,2.8,4.5,6.455q.852,1.355,1.627,2.589a2.163,2.163,0,0,1,.492,1.4.939.939,0,0,1-.49.662,2.522,2.522,0,0,1-.6.217,9.583,9.583,0,0,1-2.362.5" transform="translate(151.986 7727.532)" fill="#263238"/>
    <path id="Trazado_183014" data-name="Trazado 183014" d="M240.336,74.794A27.034,27.034,0,0,1,225.627,74s5.054,6.6,15.26,3.448Z" transform="translate(152.238 7726.536)" fill="#eb996e"/>
    <path id="Trazado_183015" data-name="Trazado 183015" d="M228.661,45.89c-.1.413-1.572.4-3.254.817-1.691.38-3.008,1.048-3.279.721-.122-.158.073-.559.583-1.011a5.83,5.83,0,0,1,4.978-1.171c.657.176,1.011.449.972.644" transform="translate(152.359 7727.535)" fill="#263238"/>
    <path id="Trazado_183016" data-name="Trazado 183016" d="M242.219,39.749c-.231.388-1.471.3-2.881.574-1.418.238-2.553.765-2.9.481-.154-.14-.036-.506.42-.924a4.63,4.63,0,0,1,2.225-1.024,4.563,4.563,0,0,1,2.431.174c.568.231.8.533.7.719" transform="translate(151.867 7727.754)" fill="#263238"/>
    <path id="Trazado_183017" data-name="Trazado 183017" d="M215.554,29.821a7.271,7.271,0,0,0,9.858,5.288c1.53-.621,3.106-1.786,4.657-1.224,1.633.591,2.145,2.76,3.66,3.608,2.164,1.212,4.771-.887,7.244-.68,1.91.16,3.39,1.646,4.884,2.844s3.57,2.2,5.258,1.295a21.538,21.538,0,0,0-1.71-4.65,7.242,7.242,0,0,0-3.535-3.344,27.16,27.16,0,0,1-2.578-.861c-1.743-.9-2.524-2.921-3.8-4.413a7.97,7.97,0,0,0-6.762-2.71c-2.091.215-4.073,1.268-6.173,1.178-1.551-.066-3.038-.756-4.592-.73-3.026.051-5.3,2.7-6.975,5.218" transform="translate(152.607 7728.232)" fill="#263238"/>
    <path id="Trazado_183018" data-name="Trazado 183018" d="M225.211,32.137c-1.382-.1-4.227-.394-5.161-1.38a8.143,8.143,0,0,0-7.763-2.548,6.723,6.723,0,0,0-4.846,6.432,9.665,9.665,0,0,0-7.048,6.924A11.2,11.2,0,0,0,202.8,51.707,20.1,20.1,0,0,1,204.388,54a16.435,16.435,0,0,0-1.718,2.6c-2.206,4.884,3.783,6.755,3.783,6.755.016,3.283,3.042,3.268,4.985,3.258,1.866-.01,3.015,5.167,4.526,4.965l-1.535-15.99a1.978,1.978,0,0,0,.709.128c3.66.066,2.7-6.858,1.519-8.649a20.758,20.758,0,0,0,2.744-4.416,14.967,14.967,0,0,0,.142-7.4c1.275-.188,6.276-3.074,5.669-3.119" transform="translate(153.124 7728.124)" fill="#263238"/>
    <path id="Trazado_183019" data-name="Trazado 183019" d="M215.291,57.376a3.1,3.1,0,0,0-4.977-1.662c-.928.828-1.479,2.22-.895,4.55,1.559,6.216,7.476,3.368,7.442,3.187-.021-.112-.9-3.509-1.571-6.076" transform="translate(152.805 7727.191)" fill="#ffbe9d"/>
    <path id="Trazado_183020" data-name="Trazado 183020" d="M214.435,61.642c-.032-.013-.09.1-.251.233a1.119,1.119,0,0,1-.805.22c-.717-.076-1.531-.981-1.842-2.093a3.672,3.672,0,0,1-.086-1.626,1.29,1.29,0,0,1,.605-1.036.569.569,0,0,1,.713.137c.127.153.119.287.154.29s.107-.138-.007-.382a.718.718,0,0,0-.343-.328.84.84,0,0,0-.638-.008,1.569,1.569,0,0,0-.889,1.247,3.78,3.78,0,0,0,.059,1.827c.354,1.242,1.289,2.253,2.252,2.287a1.2,1.2,0,0,0,.949-.412c.153-.2.152-.349.127-.355" transform="translate(152.745 7727.124)" fill="#eb996e"/>
    <path id="Trazado_183021" data-name="Trazado 183021" d="M248.971,47.8c-.039-.047.562-.433,1.355-1.4a9.136,9.136,0,0,0,1.941-4.828,8.889,8.889,0,0,0-.347-3.58,7.675,7.675,0,0,0-2.207-3.429,9.072,9.072,0,0,0-8.874-1.728c-.291.094-.56.238-.835.352-.264.138-.513.293-.759.432l-.382.215-.006-.426a3.137,3.137,0,0,0-.781-2.028,4.988,4.988,0,0,0-1.783-1.274,6.58,6.58,0,0,0-4.145-.3c-2.665.6-4.925,1.823-7.059,2.068a6.827,6.827,0,0,1-4.816-.967,3.93,3.93,0,0,1-.944-.965,1.675,1.675,0,0,1-.214-.417,5.578,5.578,0,0,0,1.265,1.228,6.8,6.8,0,0,0,4.663.782,16.745,16.745,0,0,0,3.242-.936,29.263,29.263,0,0,1,3.769-1.235,8.358,8.358,0,0,1,2.182-.218,6.727,6.727,0,0,1,2.249.517,5.464,5.464,0,0,1,1.968,1.4,3.635,3.635,0,0,1,.906,2.353l-.388-.21c.263-.15.528-.315.81-.462.293-.122.58-.276.889-.376a9.485,9.485,0,0,1,9.354,1.857,8.051,8.051,0,0,1,2.3,3.651,9.136,9.136,0,0,1,.3,3.742,9.028,9.028,0,0,1-2.144,4.915,6.4,6.4,0,0,1-1.076,1,1.958,1.958,0,0,1-.429.279" transform="translate(152.463 7728.085)" fill="#455a64"/>
    <path id="Trazado_183022" data-name="Trazado 183022" d="M247.735,25.732a6.915,6.915,0,0,0-2-.686,5.277,5.277,0,0,0-2.376.214,4.69,4.69,0,0,0-2.446,1.779l-.237.341-.146-.386a7.259,7.259,0,0,0-5.888-4.372,9.375,9.375,0,0,0-5.661,1.635,25.027,25.027,0,0,1-4.487,2.322,7.062,7.062,0,0,1-3.4.4,4.279,4.279,0,0,1-.9-.248c-.2-.085-.294-.137-.288-.153.015-.045.431.128,1.214.207a7.4,7.4,0,0,0,3.252-.54,27.114,27.114,0,0,0,4.374-2.388,15.345,15.345,0,0,1,2.705-1.321,7.35,7.35,0,0,1,3.242-.415,7.613,7.613,0,0,1,6.241,4.718l-.381-.045a4.991,4.991,0,0,1,2.7-1.873,5.332,5.332,0,0,1,2.522-.126,4.531,4.531,0,0,1,1.514.578c.312.209.457.344.445.359" transform="translate(152.436 7728.329)" fill="#455a64"/>
    <path id="Trazado_183023" data-name="Trazado 183023" d="M235.441,60.381a2.1,2.1,0,0,0-1.7-.492,2.484,2.484,0,0,0-1.627,1.187l-.025.037c-.015.027-.04.051-.053.079l.023-.016a1.193,1.193,0,0,0-.181.729,1.757,1.757,0,0,0,1.008,1.306,2.222,2.222,0,0,0,2.53-.367,1.812,1.812,0,0,0,.021-2.463" transform="translate(152.022 7727.023)" fill="#e8505b"/>
    <path id="Trazado_183024" data-name="Trazado 183024" d="M235.912,63.417c-.075.014-.169-.287-.426-.691a3.025,3.025,0,0,0-3.135-1.425c-.473.071-.762.2-.8.132-.035-.05.2-.3.715-.478a2.857,2.857,0,0,1,3.535,1.608c.2.5.171.846.11.853" transform="translate(152.034 7726.991)" fill="#263238"/>
    <path id="Trazado_183025" data-name="Trazado 183025" d="M215.524,64.694c.046-.03.275.483-.087,1.215a1.96,1.96,0,0,1-1.029.931,2,2,0,0,1-2.621-1.65,1.966,1.966,0,0,1,.395-1.33c.5-.643,1.065-.657,1.058-.6.033.075-.423.219-.764.8a1.75,1.75,0,0,0-.229,1.082,1.612,1.612,0,0,0,2.007,1.264,1.749,1.749,0,0,0,.877-.674c.377-.558.309-1.032.393-1.035" transform="translate(152.715 7726.909)" fill="#e8505b"/>
    <path id="Trazado_183026" data-name="Trazado 183026" d="M212.2,64.3c.054.025-.029.329-.449.535a1.225,1.225,0,0,1-.8.078,1.286,1.286,0,0,1-.883-1.633,1.218,1.218,0,0,1,.5-.629c.4-.239.7-.143.692-.084.006.075-.237.125-.477.366a.918.918,0,0,0,.848,1.565c.333-.07.507-.244.567-.2" transform="translate(152.779 7726.935)" fill="#e8505b"/>
    <path id="Trazado_183027" data-name="Trazado 183027" d="M223.277,152.259s23.9,1.386,38.031,1.516c10.945.1,15.822-2.807,18.01-9.837,1.837-5.9-2.11-17.225-2.11-17.225-7.4.038-11.967,1.057-16.729,3.289l1.269,5.177-38.54,3.323Z" transform="translate(152.322 7724.713)" fill="#ffbe9d"/>
    <path id="Trazado_183028" data-name="Trazado 183028" d="M271.154,141a13.949,13.949,0,0,0-8.26-5.631,3.418,3.418,0,0,1,1.533.134,10.232,10.232,0,0,1,6.043,4.119,3.415,3.415,0,0,1,.685,1.379" transform="translate(150.948 7724.417)" fill="#eb996e"/>
    <path id="Trazado_183029" data-name="Trazado 183029" d="M213.754,128.9h0a46.2,46.2,0,0,0-12.823,5.4l5.774,15.7c1.928,5.152,7.836,7.685,12.516,5.012,7.271-4.154,9.834-16.281,9.834-16.281l7.99-34.639L223.81,95.8Z" transform="translate(153.092 7725.782)" fill="#ffbe9d"/>
    <path id="Trazado_183030" data-name="Trazado 183030" d="M224.537,94.905l.534-11.392-2.955-11.538c-.164-.639-.245-1.437.272-1.826a1.406,1.406,0,0,1,1.785.057c.809.827,4.669,10.961,4.669,10.961s5.857-3.52,6.9-3.692,2.348,2.98,2.43,3.229a18.372,18.372,0,0,1,.011,2.118s3.622.108,3.947.605a12.433,12.433,0,0,1,.418,3.073s1.531.49,1.778,1.653.74,3.072.017,3.491S242.1,92.9,242.1,92.9s-.614,5.91-.772,6.448-3.555,3.847-3.555,3.847Z" transform="translate(152.364 7726.679)" fill="#ffbe9d"/>
    <path id="Trazado_183031" data-name="Trazado 183031" d="M211.877,154.348c.015-.032.361.206,1.109.449a7.553,7.553,0,0,0,3.413.27,9.512,9.512,0,0,0,4.941-2.278,22.884,22.884,0,0,0,4.593-5.816,26.144,26.144,0,0,0,1.789-3.989,40.827,40.827,0,0,0,1.239-4.628c.758-3.254,1.575-6.755,2.442-10.478,1.743-7.447,3.691-15.773,5.789-24.741l.015-.067.05-.049c.664-.652,1.332-1.323,1.994-2.013.329-.345.659-.7.974-1.055a6.607,6.607,0,0,0,.438-.545c.113-.116.117-.349.161-.6.262-1.933.465-3.93.68-5.941l.014-.127.113-.064,1.84-1.031c.14-.083.347-.184.433-.254a.534.534,0,0,0,.174-.323,3.081,3.081,0,0,0,.012-1,15.009,15.009,0,0,0-.429-2.1,2.587,2.587,0,0,0-1.537-1.24l-.166-.061-.008-.169c-.023-.559-.062-1.134-.124-1.707a8.559,8.559,0,0,0-.128-.848,1.609,1.609,0,0,0-.111-.358c-.03-.063-.015-.015-.06-.056a.966.966,0,0,0-.162-.069,17.042,17.042,0,0,0-3.535-.4l-.251-.013.007-.248c.018-.6.044-1.261.016-1.886a1.987,1.987,0,0,0-.225-.647c-.1-.233-.215-.462-.331-.688a8.288,8.288,0,0,0-.79-1.275,2.135,2.135,0,0,0-.49-.481.469.469,0,0,0-.514-.059,12.417,12.417,0,0,0-1.36.624c-1.8.937-3.553,1.962-5.27,2.981l-.251.15-.108-.271q-1.37-3.429-2.7-6.769l-1.323-3.312a1.374,1.374,0,0,0-1.061-.993,1.075,1.075,0,0,0-1.256.46,1.128,1.128,0,0,0-.147.688c.028.215.134.541.2.8l.437,1.663q.434,1.657.862,3.282l1.673,6.374.009.034,0,.035c-.192,3.964-.376,7.768-.551,11.39l0,.027-.007.024c-3.648,11.873-6.675,21.719-8.8,28.62-1.065,3.421-1.9,6.109-2.481,7.967q-.432,1.348-.668,2.089c-.154.471-.249.71-.249.71s.053-.251.187-.729q.216-.746.609-2.107c.552-1.865,1.354-4.566,2.372-8,2.079-6.914,5.047-16.778,8.625-28.673l-.009.051c.164-3.622.337-7.427.517-11.392l.008.068q-.827-3.119-1.689-6.369l-.869-3.28q-.219-.827-.439-1.662c-.069-.3-.157-.518-.212-.876a1.609,1.609,0,0,1,.21-.983,1.492,1.492,0,0,1,.781-.657,1.862,1.862,0,0,1,1-.032,1.986,1.986,0,0,1,.884.45,1.952,1.952,0,0,1,.52.833q.657,1.644,1.327,3.311l2.71,6.768-.36-.122c1.726-1.026,3.473-2.05,5.3-3a12.721,12.721,0,0,1,1.432-.654,1.1,1.1,0,0,1,.487-.069,1.053,1.053,0,0,1,.458.182,2.607,2.607,0,0,1,.611.591,8.787,8.787,0,0,1,.843,1.356c.121.236.236.472.343.713a2.364,2.364,0,0,1,.268.82c.03.684,0,1.327-.016,1.939l-.244-.261a17.024,17.024,0,0,1,3.687.428,1.35,1.35,0,0,1,.249.108.613.613,0,0,1,.249.252,2.036,2.036,0,0,1,.159.489c.066.305.1.6.136.9.065.592.1,1.17.126,1.745l-.174-.229a3.049,3.049,0,0,1,1.845,1.525,14.6,14.6,0,0,1,.462,2.235,3.512,3.512,0,0,1-.023,1.173,1.026,1.026,0,0,1-.35.6,5.127,5.127,0,0,1-.492.293l-1.85,1.034.126-.19c-.217,2.017-.422,4-.689,5.961l-.061.375a.976.976,0,0,1-.18.421,6.588,6.588,0,0,1-.476.593c-.324.37-.657.722-.991,1.071-.668.694-1.339,1.365-2.009,2.021l.066-.116c-2.124,8.962-4.1,17.282-5.858,24.725-.885,3.718-1.717,7.217-2.491,10.467a40.868,40.868,0,0,1-1.276,4.655,26.275,26.275,0,0,1-1.838,4.025,22.935,22.935,0,0,1-4.7,5.843,9.609,9.609,0,0,1-5.073,2.263,7.439,7.439,0,0,1-3.459-.349,5.108,5.108,0,0,1-.821-.372,1.685,1.685,0,0,1-.263-.154" transform="translate(152.713 7726.686)" fill="#eb996e"/>
    <path id="Trazado_183032" data-name="Trazado 183032" d="M238.585,83.257c0,.07-.327.107-.837.131a9.588,9.588,0,0,0-1.923.228,3.8,3.8,0,0,0-1.638.875c-.353.329-.508.609-.578.579s-.018-.371.313-.816a3.25,3.25,0,0,1,1.777-1.126,5.609,5.609,0,0,1,2.063-.1c.516.068.827.156.824.224" transform="translate(151.963 7726.226)" fill="#eb996e"/>
    <path id="Trazado_183033" data-name="Trazado 183033" d="M235.826,83.334c-.13-.049-.138-.347-.019-.666s.322-.539.452-.489.139.347.019.666-.321.538-.452.489" transform="translate(151.891 7726.252)" fill="#eb996e"/>
    <path id="Trazado_183034" data-name="Trazado 183034" d="M243.275,87a9.04,9.04,0,0,1-2.865.4,1.963,1.963,0,0,0-1.595.768c-.255.395-.17.722-.243.743-.046.043-.308-.326-.074-.9a1.578,1.578,0,0,1,.69-.767,3.05,3.05,0,0,1,1.161-.341,8.113,8.113,0,0,1,2.926.1" transform="translate(151.797 7726.091)" fill="#eb996e"/>
    <path id="Trazado_183035" data-name="Trazado 183035" d="M242.771,90.605c.139.007.219.72.18,1.594s-.183,1.578-.322,1.572-.219-.72-.18-1.594.183-1.579.322-1.572" transform="translate(151.658 7725.962)" fill="#eb996e"/>
    <path id="Trazado_183036" data-name="Trazado 183036" d="M246.94,117.34l.858-2.96a.809.809,0,0,1,1.354-.341l1.12,1.143.7-2.783a.808.808,0,0,1,1.513-.153l1.58,3.3Z" transform="translate(151.501 7725.229)" fill="#fff"/>
    <path id="Trazado_183037" data-name="Trazado 183037" d="M254.087,116.988a25.527,25.527,0,0,1-6.94,1.719,25.526,25.526,0,0,1,6.94-1.719" transform="translate(151.494 7725.05)" fill="#fff"/>
    <path id="Trazado_183038" data-name="Trazado 183038" d="M194.775,99.9c.023.019-.359.372-.858,1.147a9.823,9.823,0,0,0-1.309,3.646,26.336,26.336,0,0,0-.174,5.784c.106,2.185.283,4.584.55,7.094a124.588,124.588,0,0,0,2.037,12.764c.344,1.618.653,2.921.867,3.822.1.4.178.741.248,1.037.055.237.073.365.073.365s-.044-.121-.112-.354c-.081-.294-.176-.631-.286-1.028-.238-.895-.568-2.194-.929-3.812a113.089,113.089,0,0,1-2.1-12.773c-.267-2.514-.439-4.918-.536-7.107a25.794,25.794,0,0,1,.219-5.818A9.608,9.608,0,0,1,193.851,101a5.819,5.819,0,0,1,.924-1.1" transform="translate(153.392 7725.639)" fill="#fff"/>
    <path id="Trazado_183039" data-name="Trazado 183039" d="M215.185,86.3a1.113,1.113,0,0,1-.217.119l-.637.3c-.552.263-1.35.652-2.308,1.181a83.447,83.447,0,0,0-7.254,4.534c-2.756,1.9-5.2,3.686-6.985,4.961l-2.119,1.5-.584.4a1.061,1.061,0,0,1-.211.127,1.128,1.128,0,0,1,.188-.16l.561-.429,2.082-1.552c1.762-1.3,4.194-3.115,6.954-5.013a72.5,72.5,0,0,1,7.3-4.493c.969-.515,1.779-.885,2.343-1.127l.654-.27a1.129,1.129,0,0,1,.233-.081" transform="translate(153.298 7726.109)" fill="#fff"/>
    <path id="Trazado_183040" data-name="Trazado 183040" d="M262.962,92.524a.787.787,0,0,1-.161-.122l-.434-.377a17.114,17.114,0,0,0-1.691-1.261,34.4,34.4,0,0,0-6.207-3.142,62.777,62.777,0,0,0-6.617-2.2c-.861-.239-1.563-.415-2.048-.535l-.558-.142a.846.846,0,0,1-.192-.063.7.7,0,0,1,.2.023l.567.105c.49.1,1.2.251,2.066.473a53.766,53.766,0,0,1,6.656,2.153,31.486,31.486,0,0,1,6.212,3.21,12.264,12.264,0,0,1,2.207,1.877" transform="translate(151.565 7726.165)" fill="#fff"/>
    <path id="Trazado_183041" data-name="Trazado 183041" d="M216.067,168.843a1.378,1.378,0,0,1-.377-.129,6.3,6.3,0,0,1-.958-.513,4.655,4.655,0,0,1-2.1-2.843,5.562,5.562,0,0,1,.374-3.533,4.874,4.874,0,0,1,.559-.934,1.342,1.342,0,0,1,.268-.294,11.457,11.457,0,0,0-.7,1.285,5.715,5.715,0,0,0-.308,3.43,4.7,4.7,0,0,0,1.984,2.771c.741.516,1.271.725,1.254.76" transform="translate(152.69 7723.542)" fill="#fff"/>
    <path id="Trazado_183042" data-name="Trazado 183042" d="M213.012,158.311a8.306,8.306,0,0,1,.725,2.48,8.378,8.378,0,0,1-.725-2.48" transform="translate(152.673 7723.622)" fill="#fff"/>
    <path id="Trazado_183043" data-name="Trazado 183043" d="M225.673,375.142l29.45-.148-.534-101.814-.275-103.563-39.884-.5-7.17,13.518a48.551,48.551,0,0,0-5.516,17.52c-.5,4.679,3,19.936,4.229,23.819l10.978,34.814Z" transform="translate(153.064 7723.249)" fill="#106f77"/>
    <path id="Trazado_183044" data-name="Trazado 183044" d="M264.063,169.775l32.357,88.213a40.692,40.692,0,0,1-3.989,34.465l-37.569,73.33-21.124-26.427,31.434-65.691-27.712-44.9,4.663-58.9,13.053-.209Z" transform="translate(151.956 7723.23)" fill="#106f77"/>
    <path id="Trazado_183045" data-name="Trazado 183045" d="M253.413,200.39s.024.153.045.452c.02.322.048.763.084,1.329.064,1.193.155,2.912.272,5.114.216,4.466.527,10.887.91,18.813.367,7.95.8,17.407,1.285,27.905.237,5.252.484,10.765.742,16.478.183,2.857.1,5.77.133,8.723q.015,4.431.028,8.984c.041,24.262.077,46.225.1,62.148-.011,7.934-.019,14.363-.026,18.833-.013,2.205-.024,3.926-.032,5.12-.01.569-.016,1.011-.021,1.332-.008.3-.024.454-.024.454s-.018-.154-.027-.454c-.008-.321-.017-.764-.029-1.331-.014-1.194-.036-2.916-.062-5.12-.032-4.47-.077-10.9-.134-18.831-.065-15.922-.153-37.881-.251-62.142q-.013-4.549-.024-8.982c-.033-2.953.053-5.866-.126-8.722-.247-5.713-.486-11.226-.712-16.477-.442-10.5-.841-19.955-1.176-27.905-.317-7.927-.572-14.351-.75-18.817-.077-2.2-.137-3.924-.179-5.118-.014-.568-.025-1.01-.034-1.331,0-.3.006-.455.006-.455" transform="translate(151.279 7722.167)" fill="#455a64"/>
    <path id="Trazado_183046" data-name="Trazado 183046" d="M252.648,171.582a3.676,3.676,0,0,1,.2.959c.1.621.22,1.523.348,2.64.259,2.233.529,5.329.685,8.758s.163,6.536.107,8.784c-.028,1.124-.066,2.033-.109,2.661a3.676,3.676,0,0,1-.118.973,30,30,0,0,1-.128-3.635c-.036-2.244-.1-5.342-.254-8.76s-.369-6.509-.536-8.746a29.652,29.652,0,0,1-.2-3.632" transform="translate(151.305 7723.165)" fill="#455a64"/>
    <path id="Trazado_183047" data-name="Trazado 183047" d="M245.889,173.632a2.366,2.366,0,0,0-.654,1.1,1.255,1.255,0,0,0,.375,1.177A1.285,1.285,0,0,0,247.8,174.9a1.249,1.249,0,0,0-.646-1.052,2.356,2.356,0,0,0-1.26-.225c-.014-.025.093-.127.342-.2a1.648,1.648,0,0,1,2.026,1.452,1.728,1.728,0,0,1-2.977,1.364,1.648,1.648,0,0,1,.225-2.483c.217-.142.364-.155.375-.128" transform="translate(151.572 7723.101)" fill="#455a64"/>
    <path id="Trazado_183048" data-name="Trazado 183048" d="M229.37,171.829a2.9,2.9,0,0,1,.264.924,9.2,9.2,0,0,1,.086,2.624,10.567,10.567,0,0,1-1.115,3.74,9.9,9.9,0,0,1-7.545,5.416,10.56,10.56,0,0,1-3.9-.14,9.182,9.182,0,0,1-2.458-.921,2.89,2.89,0,0,1-.791-.545,16.789,16.789,0,0,0,3.32,1.118,10.137,10.137,0,0,0,12.136-8.712,16.72,16.72,0,0,0,0-3.5" transform="translate(152.643 7723.155)" fill="#455a64"/>
    <path id="Trazado_183049" data-name="Trazado 183049" d="M268.881,180.278a3.921,3.921,0,0,1-1.855-.219,8.619,8.619,0,0,1-5.852-6.448,3.906,3.906,0,0,1-.04-1.867c.09,0,.095.71.385,1.786a9.334,9.334,0,0,0,5.621,6.192c1.044.394,1.75.467,1.741.556" transform="translate(151.015 7723.159)" fill="#455a64"/>
    <path id="Trazado_183050" data-name="Trazado 183050" d="M280.641,278.986a6.077,6.077,0,0,1-1.707,1.357,7.9,7.9,0,0,1-2.2.961,5.3,5.3,0,0,1-2.964-.079,8.611,8.611,0,0,1-4.124-3.283,7.661,7.661,0,0,1-1.133-1.857,11.815,11.815,0,0,1,1.411,1.638,9.147,9.147,0,0,0,4,3.023,6.189,6.189,0,0,0,4.831-.711,19.939,19.939,0,0,1,1.883-1.049" transform="translate(150.756 7719.549)" fill="#455a64"/>
    <path id="Trazado_183051" data-name="Trazado 183051" d="M273.236,284.641a47.879,47.879,0,0,1-5.685-7.995,47.976,47.976,0,0,1,5.685,7.995" transform="translate(150.789 7719.533)" fill="#455a64"/>
    <path id="Trazado_183052" data-name="Trazado 183052" d="M222.151,203.841c-.129.051-.473-.5-.767-1.242s-.43-1.378-.3-1.429.472.5.767,1.242.43,1.378.3,1.429" transform="translate(152.399 7722.141)" fill="#fafafa"/>
    <path id="Trazado_183053" data-name="Trazado 183053" d="M241.545,206.627c-.139,0-.251-.478-.251-1.068s.112-1.069.251-1.069.251.479.251,1.069-.112,1.068-.251,1.068" transform="translate(151.696 7722.026)" fill="#fafafa"/>
    <path id="Trazado_183054" data-name="Trazado 183054" d="M233.584,217.12c-.138.01-.292-.581-.342-1.318s.022-1.343.16-1.353.292.581.342,1.319-.022,1.342-.16,1.352" transform="translate(151.974 7721.681)" fill="#fafafa"/>
    <path id="Trazado_183055" data-name="Trazado 183055" d="M218.986,224.906c-.115.085-.514-.271-1.03-.642s-.973-.647-.929-.782.639-.052,1.224.376.846.972.735,1.048" transform="translate(152.535 7721.371)" fill="#fafafa"/>
    <path id="Trazado_183056" data-name="Trazado 183056" d="M244.688,234.674c-.116-.077.03-.5.325-.94s.627-.739.742-.662-.03.5-.324.941-.627.739-.743.661" transform="translate(151.582 7721.038)" fill="#fafafa"/>
    <path id="Trazado_183057" data-name="Trazado 183057" d="M228.821,237.371c-.139,0-.251-.8-.251-1.78s.112-1.78.251-1.78.251.8.251,1.78-.112,1.78-.251,1.78" transform="translate(152.136 7721.011)" fill="#fafafa"/>
    <path id="Trazado_183058" data-name="Trazado 183058" d="M223.618,248.663c-.082.113-.586-.114-1.128-.507s-.913-.8-.831-.915.586.115,1.128.508.913.8.831.914" transform="translate(152.376 7720.55)" fill="#fafafa"/>
    <path id="Trazado_183059" data-name="Trazado 183059" d="M239.652,252.618c.056.127-.257.389-.7.586s-.847.253-.9.127.257-.389.7-.586.848-.253.9-.127" transform="translate(151.81 7720.365)" fill="#fafafa"/>
    <path id="Trazado_183060" data-name="Trazado 183060" d="M228.765,270.748c-.125.062-.624-.685-1.115-1.667s-.79-1.831-.665-1.893.624.684,1.115,1.668.79,1.831.665,1.892" transform="translate(152.19 7719.858)" fill="#fafafa"/>
    <path id="Trazado_183061" data-name="Trazado 183061" d="M246.532,269.12c-.123-.066.1-.716.49-1.454s.811-1.282.934-1.216-.1.715-.49,1.453-.811,1.283-.934,1.217" transform="translate(151.514 7719.883)" fill="#fafafa"/>
    <path id="Trazado_183062" data-name="Trazado 183062" d="M238.768,284.585c-.143-.021-.131-.783-.279-1.69s-.384-1.629-.255-1.693.6.619.751,1.615-.087,1.795-.217,1.768" transform="translate(151.802 7719.373)" fill="#fafafa"/>
    <path id="Trazado_183063" data-name="Trazado 183063" d="M230.425,293.487c-.1.094-.585-.269-1.077-.81s-.806-1.055-.7-1.148.584.268,1.076.81.806,1.054.7,1.148" transform="translate(152.134 7719.016)" fill="#fafafa"/>
    <path id="Trazado_183064" data-name="Trazado 183064" d="M250.629,296.846c-.1-.1.256-.618.793-1.162s1.052-.908,1.151-.811-.256.618-.793,1.163-1.052.908-1.151.81" transform="translate(151.376 7718.903)" fill="#fafafa"/>
    <path id="Trazado_183065" data-name="Trazado 183065" d="M239.042,310.051c-.137-.021-.139-.757,0-1.643s.355-1.589.492-1.569.139.757,0,1.644-.355,1.588-.492,1.568" transform="translate(151.778 7718.488)" fill="#fafafa"/>
    <path id="Trazado_183066" data-name="Trazado 183066" d="M231.2,316.506c-.12.07-.542-.428-.942-1.111s-.628-1.3-.508-1.366.542.428.942,1.112.628,1.295.508,1.365" transform="translate(152.096 7718.239)" fill="#fafafa"/>
    <path id="Trazado_183067" data-name="Trazado 183067" d="M249.94,324.711c.081.113-.411.6-1.1,1.1s-1.311.8-1.392.687.411-.6,1.1-1.1,1.31-.8,1.391-.687" transform="translate(151.484 7717.872)" fill="#fafafa"/>
    <path id="Trazado_183068" data-name="Trazado 183068" d="M234.387,335.115c-.135-.049.037-.827.118-1.787s.055-1.755.2-1.78.4.788.3,1.825-.5,1.794-.619,1.743" transform="translate(151.935 7717.635)" fill="#fafafa"/>
    <path id="Trazado_183069" data-name="Trazado 183069" d="M240.58,350.291c-.108.087-.516-.241-.908-.733s-.625-.961-.516-1.047.515.241.909.733.624.961.516,1.047" transform="translate(151.77 7717.049)" fill="#fafafa"/>
    <path id="Trazado_183070" data-name="Trazado 183070" d="M233.738,360.395c-.115.078-.646-.5-1.187-1.282s-.886-1.488-.772-1.567.646.5,1.186,1.282.886,1.488.772,1.567" transform="translate(152.026 7716.736)" fill="#fafafa"/>
    <path id="Trazado_183071" data-name="Trazado 183071" d="M252.615,347.722c-.13-.048-.116-.407.032-.8s.372-.673.5-.624.116.406-.032.8-.372.673-.5.624" transform="translate(151.309 7717.125)" fill="#fafafa"/>
    <path id="Trazado_183072" data-name="Trazado 183072" d="M244.319,371.815c-.127-.067.115-.754.3-1.614s.266-1.584.41-1.59.291.765.08,1.7-.677,1.572-.793,1.505" transform="translate(151.593 7716.354)" fill="#fafafa"/>
    <path id="Trazado_183073" data-name="Trazado 183073" d="M249.678,217.307c-.126.059-.432-.329-.684-.868s-.354-1.021-.228-1.08.432.329.684.868.353,1.021.228,1.08" transform="translate(151.44 7721.65)" fill="#fafafa"/>
    <path id="Trazado_183074" data-name="Trazado 183074" d="M235.741,186.233c.076.123-.6.665-1.321,1.438s-1.223,1.479-1.35,1.411.207-.932.983-1.755,1.622-1.21,1.688-1.094" transform="translate(151.98 7722.658)" fill="#fafafa"/>
    <path id="Trazado_183075" data-name="Trazado 183075" d="M248.147,185.775c-.14.028-.367-.545-.7-1.207s-.651-1.191-.544-1.286.63.328.994,1.061.385,1.41.252,1.432" transform="translate(151.504 7722.76)" fill="#fafafa"/>
    <path id="Trazado_183076" data-name="Trazado 183076" d="M209.7,195.93c-.129-.051,0-.691.3-1.43s.633-1.3.762-1.244,0,.69-.294,1.43-.633,1.3-.763,1.244" transform="translate(152.791 7722.413)" fill="#fafafa"/>
    <path id="Trazado_183077" data-name="Trazado 183077" d="M210.865,211.064c-.089.107-.639-.206-1.229-.7s-1-.976-.908-1.083.639.206,1.229.7,1,.977.907,1.083" transform="translate(152.82 7721.859)" fill="#fafafa"/>
    <path id="Trazado_183078" data-name="Trazado 183078" d="M236.178,174.183c-.128.051-.393-.305-.59-.8s-.251-.933-.123-.984.393.305.59.8.251.933.123.984" transform="translate(151.901 7723.136)" fill="#fafafa"/>
    <path id="Trazado_183079" data-name="Trazado 183079" d="M260.391,181.541c-.135-.03-.124-.611.027-1.3s.382-1.221.518-1.191.124.611-.027,1.3-.383,1.221-.518,1.191" transform="translate(151.037 7722.904)" fill="#fafafa"/>
    <path id="Trazado_183080" data-name="Trazado 183080" d="M266.078,192.949c-.128-.053.046-.773.391-1.608s.727-1.471.855-1.418-.046.773-.391,1.609-.727,1.47-.855,1.417" transform="translate(150.839 7722.53)" fill="#fafafa"/>
    <path id="Trazado_183081" data-name="Trazado 183081" d="M261.965,202.162c-.125.062-.584-.605-1.026-1.49s-.7-1.653-.576-1.715.584.6,1.026,1.49.7,1.653.576,1.715" transform="translate(151.04 7722.216)" fill="#fafafa"/>
    <path id="Trazado_183082" data-name="Trazado 183082" d="M270.688,211.414c-.129-.05-.036-.608.211-1.247s.55-1.117.68-1.067.036.608-.21,1.247-.55,1.117-.68,1.067" transform="translate(150.682 7721.865)" fill="#fafafa"/>
    <path id="Trazado_183083" data-name="Trazado 183083" d="M262.911,220.482c-.118.073-.412-.185-.658-.579s-.349-.771-.232-.845.412.185.658.578.35.772.232.846" transform="translate(150.981 7721.522)" fill="#fafafa"/>
    <path id="Trazado_183084" data-name="Trazado 183084" d="M264.515,239.074c-.1.095-.7-.387-1.341-1.076s-1.075-1.323-.973-1.417.7.387,1.341,1.076,1.075,1.323.973,1.417" transform="translate(150.972 7720.916)" fill="#fafafa"/>
    <path id="Trazado_183085" data-name="Trazado 183085" d="M274.676,228.373c-.109.086-.636-.4-1.177-1.091s-.891-1.316-.782-1.4.636.4,1.177,1.091.891,1.316.782,1.4" transform="translate(150.612 7721.286)" fill="#fafafa"/>
    <path id="Trazado_183086" data-name="Trazado 183086" d="M280.314,243.124c-.125-.06.094-.784.49-1.619s.818-1.463.943-1.4-.094.785-.49,1.619-.818,1.464-.943,1.4" transform="translate(150.348 7720.795)" fill="#fafafa"/>
    <path id="Trazado_183087" data-name="Trazado 183087" d="M268.394,255.308c-.123.074-.572-.462-1.192-1.03s-1.187-.978-1.122-1.106.785.108,1.463.738.969,1.334.852,1.4" transform="translate(150.838 7720.345)" fill="#fafafa"/>
    <path id="Trazado_183088" data-name="Trazado 183088" d="M269.139,267.916c0,.139-.478.251-1.068.251s-1.069-.112-1.069-.251.478-.251,1.069-.251,1.068.112,1.068.251" transform="translate(150.808 7719.842)" fill="#fafafa"/>
    <path id="Trazado_183089" data-name="Trazado 183089" d="M281.384,264.32c-.122-.075.126-.677.311-1.436s.258-1.4.4-1.413.3.691.087,1.535-.688,1.39-.8,1.314" transform="translate(150.311 7720.056)" fill="#fafafa"/>
    <path id="Trazado_183090" data-name="Trazado 183090" d="M293.435,268.512c-.131.046-.488-.63-.8-1.51s-.453-1.632-.322-1.677.488.63.8,1.51.453,1.631.321,1.677" transform="translate(149.934 7719.923)" fill="#fafafa"/>
    <path id="Trazado_183091" data-name="Trazado 183091" d="M291.55,285.7c-.124-.065.175-.875.663-1.809s.989-1.641,1.11-1.577-.175.875-.663,1.81-.989,1.64-1.11,1.576" transform="translate(149.96 7719.334)" fill="#fafafa"/>
    <path id="Trazado_183092" data-name="Trazado 183092" d="M280.467,295.82c-.128.053-.525-.616-.885-1.494s-.549-1.633-.421-1.686.525.617.885,1.494.549,1.633.421,1.686" transform="translate(150.389 7718.98)" fill="#fafafa"/>
    <path id="Trazado_183093" data-name="Trazado 183093" d="M268.229,299.819c0,.139-.4.251-.89.251s-.89-.112-.89-.251.4-.251.89-.251.89.112.89.251" transform="translate(150.826 7718.739)" fill="#fafafa"/>
    <path id="Trazado_183094" data-name="Trazado 183094" d="M275.272,315.775c-.134.036-.4-.533-.6-1.271s-.248-1.364-.114-1.4.4.533.6,1.271.247,1.364.113,1.4" transform="translate(150.548 7718.271)" fill="#fafafa"/>
    <path id="Trazado_183095" data-name="Trazado 183095" d="M266.446,310.459c-.119-.071.023-.528.319-1.019s.63-.832.75-.761-.024.528-.32,1.02-.63.832-.749.761" transform="translate(150.827 7718.426)" fill="#fafafa"/>
    <path id="Trazado_183096" data-name="Trazado 183096" d="M266.247,328.118c-.138.016-.329-.648-.428-1.484s-.066-1.526.071-1.543.329.648.428,1.484.067,1.526-.071,1.543" transform="translate(150.849 7717.857)" fill="#fafafa"/>
  </g>
</svg>
