<svg xmlns="http://www.w3.org/2000/svg" width="152.098" height="240.756" viewBox="0 0 152.098 240.756">
  <g id="Grupo_120894" data-name="Grupo 120894" transform="translate(-930 -1510.85)">
    <path id="Trazado_182950" data-name="Trazado 182950" d="M266.39,749.862a101.111,101.111,0,0,1-34.8-6.137l34.8,26.128,34.8-26.128a101.111,101.111,0,0,1-34.8,6.137" transform="translate(743.047 981.754)" fill="#26ccda"/>
    <path id="Trazado_182951" data-name="Trazado 182951" d="M2321.489,169.622a76.049,76.049,0,1,1-76.049-76.049,76.049,76.049,0,0,1,76.049,76.049" transform="translate(-1239.391 1417.277)" fill="#b1f9ff"/>
    <path id="Trazado_183159" data-name="Trazado 183159" d="M11,0A11,11,0,1,1,0,11,11,11,0,0,1,11,0Z" transform="translate(998.633 1703.27)" fill="#26ccda"/>
    <path id="Trazado_183160" data-name="Trazado 183160" d="M7,0A7,7,0,1,1,0,7,7,7,0,0,1,7,0Z" transform="translate(1002.633 1707.27)" fill="#b1f9ff"/>
    <path id="Trazado_183161" data-name="Trazado 183161" d="M-16.258,0V-11.375h3.984a5.232,5.232,0,0,1,3.141.793,2.712,2.712,0,0,1,1.07,2.324,2.57,2.57,0,0,1-.43,1.473,2.482,2.482,0,0,1-1.2.934,2.4,2.4,0,0,1,1.379.883,2.61,2.61,0,0,1,.5,1.625A3,3,0,0,1-8.852-.859,4.713,4.713,0,0,1-11.836,0Zm2.344-4.953v3.07h2.008a1.938,1.938,0,0,0,1.293-.395,1.353,1.353,0,0,0,.465-1.09,1.428,1.428,0,0,0-1.617-1.586Zm0-1.656h1.734q1.773-.031,1.773-1.414a1.307,1.307,0,0,0-.449-1.113,2.363,2.363,0,0,0-1.418-.34h-1.641Zm10.93-4.766,2.922,8.25,2.906-8.25H5.922V0H3.57V-3.109L3.8-8.477.734,0H-.875L-3.937-8.469-3.7-3.109V0H-6.047V-11.375Zm13.3,7.367V0H7.969V-11.375h4.438a5.134,5.134,0,0,1,2.254.469,3.454,3.454,0,0,1,1.5,1.332,3.714,3.714,0,0,1,.523,1.965,3.266,3.266,0,0,1-1.145,2.637,4.767,4.767,0,0,1-3.168.965Zm0-1.9h2.094a2.059,2.059,0,0,0,1.418-.437,1.591,1.591,0,0,0,.488-1.25,1.876,1.876,0,0,0-.492-1.352,1.839,1.839,0,0,0-1.359-.531H10.313Z" transform="translate(1006 1638.969)" fill="#12263f"/>
    <g id="bmp-file-format-symbol" transform="translate(902.402 1532.123)">
      <g id="Grupo_85471" data-name="Grupo 85471" transform="translate(88.208 14.737)">
        <path id="Trazado_105544" data-name="Trazado 105544" d="M286.809,171.295a4.08,4.08,0,0,0-1.522.28.98.98,0,0,0-.682-.28h-.4a.971.971,0,0,0-.96.87c-1.219.128-2.123.568-2.123,1.1,0,.627,1.272,1.135,2.842,1.135a6.654,6.654,0,0,0,1.27-.123,4.027,4.027,0,0,0,1.572.3c1.5,0,2.719-.736,2.719-1.641S288.313,171.295,286.809,171.295Z" transform="translate(-264.575 -161.729)" fill="#26ccda"/>
        <path id="Trazado_105545" data-name="Trazado 105545" d="M190.277,150.834a2.272,2.272,0,1,0,2.272,2.271A2.273,2.273,0,0,0,190.277,150.834Z" transform="translate(-184.662 -144.171)" fill="#26ccda"/>
        <path id="Trazado_105546" data-name="Trazado 105546" d="M164.468,103.869V133.5h29.623v-29.63Zm27.177,20.686a4.238,4.238,0,0,1-1.136,2.9c-1.091-2.787-2.429-5.815-4.322-5.33-2.4.614-3.686,5.826-3.868,6.619h-.048c-.182-.863-1.57-7-4.971-10.4s-6.72,8.615-7.166,10.311a4.16,4.16,0,0,1-3.219-4.1V111.083a4.127,4.127,0,0,1,4.064-4.187h16.6a4.127,4.127,0,0,1,4.065,4.187v13.472Z" transform="translate(-164.468 -103.869)" fill="#26ccda"/>
      </g>
      <g id="Grupo_85470" data-name="Grupo 85470" transform="translate(75.6)">
        <path id="Trazado_105540" data-name="Trazado 105540" d="M149.9,461.516h-1.234v4.512a11.5,11.5,0,0,0,1.4.047c1.639,0,3.085-.617,3.085-2.3C153.147,462.157,151.7,461.516,149.9,461.516Z" transform="translate(-138.295 -396.037)" fill="#f57c00"/>
        <path id="Trazado_105541" data-name="Trazado 105541" d="M392.78,417a6.051,6.051,0,0,0-1.5.144v4.724a5.532,5.532,0,0,0,1.21.094c1.924,0,3.111-.973,3.111-2.611C395.6,417.881,394.584,417,392.78,417Z" transform="translate(-346.496 -357.84)" fill="#f57c00"/>
        <path id="Trazado_105543" data-name="Trazado 105543" d="M152.762,418.191c0-1.211-.925-1.853-2.564-1.853a10.058,10.058,0,0,0-1.543.094v3.728h1.187C151.742,420.16,152.762,419.377,152.762,418.191Z" transform="translate(-138.29 -357.269)" fill="#f57c00"/>
        <path id="Trazado_105542" data-name="Trazado 105542" d="M132.279,18.727a1.514,1.514,0,0,0-.364-.992L116.847.524s-.008-.006-.012-.011a1.532,1.532,0,0,0-.3-.256c-.033-.021-.066-.04-.1-.06a1.655,1.655,0,0,0-.3-.127c-.028-.008-.054-.02-.082-.027A1.544,1.544,0,0,0,115.695,0H78.665A3.069,3.069,0,0,0,75.6,3.065V75.081a3.068,3.068,0,0,0,3.065,3.065h50.565a3.067,3.067,0,0,0,3.065-3.065V18.9A1.715,1.715,0,0,0,132.279,18.727ZM92.589,71.272c-1.164.926-3.11,1.449-6.292,1.449a27.8,27.8,0,0,1-3.916-.238V56.766a28.823,28.823,0,0,1,4.676-.332,8.836,8.836,0,0,1,4.725.9A3.483,3.483,0,0,1,93.7,60.469a3.617,3.617,0,0,1-2.635,3.419v.048a4,4,0,0,1,3.181,3.941A4.261,4.261,0,0,1,92.589,71.272Zm17.9,1.282-.237-6.125c-.072-1.923-.143-4.25-.143-6.577h-.07c-.5,2.042-1.165,4.321-1.781,6.2l-1.947,6.244h-2.825l-1.709-6.2c-.523-1.875-1.069-4.154-1.449-6.244h-.048c-.1,2.16-.167,4.63-.285,6.624l-.285,6.079H96.362l1.021-16h4.82l1.567,5.343c.5,1.852,1,3.846,1.354,5.722h.071c.451-1.852,1-3.965,1.52-5.745l1.709-5.318h4.725l.878,16h-3.537v0Zm16.333-7.336a7.42,7.42,0,0,1-5.2,1.686,9.028,9.028,0,0,1-1.234-.072v5.722H116.8V56.766a29.63,29.63,0,0,1,4.891-.332,7.674,7.674,0,0,1,4.891,1.282,4.676,4.676,0,0,1,1.709,3.7A5.113,5.113,0,0,1,126.822,65.218ZM78.665,52.034V3.065h35.5v15.68a1.532,1.532,0,0,0,1.532,1.532h13.535l0,31.757Z" transform="translate(-75.6)" fill="#f57c00"/>
      </g>
    </g>
  </g>
</svg>
