<svg xmlns="http://www.w3.org/2000/svg" width="152.098" height="240.825" viewBox="0 0 152.098 240.825">
  <g id="Grupo_120890" data-name="Grupo 120890" transform="translate(-521.999 -148.781)">
    <path id="Trazado_182926" data-name="Trazado 182926" d="M266.39,749.862a101.111,101.111,0,0,1-34.8-6.137l34.8,26.128,34.8-26.128a101.111,101.111,0,0,1-34.8,6.137" transform="translate(331.701 -380.246)" fill="#26ccda"/>
    <path id="Trazado_182931" data-name="Trazado 182931" d="M937.908,169.393a76.049,76.049,0,1,1-76.049-76.049,76.049,76.049,0,0,1,76.049,76.049" transform="translate(-263.811 55.438)" fill="#b1f9ff"/>
    <circle id="Elipse_5146" data-name="Elipse 5146" cx="11" cy="11" r="11" transform="translate(587.289 341.27)" fill="#26ccda"/>
    <circle id="Elipse_5151" data-name="Elipse 5151" cx="7" cy="7" r="7" transform="translate(591.289 345.27)" fill="#b1f9ff"/>
    <path id="Trazado_183141" data-name="Trazado 183141" d="M-12.9-4.008V0h-2.344V-11.375H-10.8a5.134,5.134,0,0,1,2.254.469,3.454,3.454,0,0,1,1.5,1.332,3.714,3.714,0,0,1,.523,1.965A3.266,3.266,0,0,1-7.676-4.973a4.767,4.767,0,0,1-3.168.965Zm0-1.9H-10.8a2.059,2.059,0,0,0,1.418-.437A1.591,1.591,0,0,0-8.9-7.594a1.876,1.876,0,0,0-.492-1.352,1.839,1.839,0,0,0-1.359-.531H-12.9ZM4.328,0H1.984L-2.578-7.484V0H-4.922V-11.375h2.344l4.57,7.5v-7.5H4.328ZM15.375-1.437A4.068,4.068,0,0,1,13.586-.262a7.492,7.492,0,0,1-2.562.418,5.076,5.076,0,0,1-2.59-.645A4.3,4.3,0,0,1,6.715-2.359a6.585,6.585,0,0,1-.621-2.883v-.773a6.994,6.994,0,0,1,.574-2.949,4.248,4.248,0,0,1,1.656-1.906,4.771,4.771,0,0,1,2.535-.66,4.751,4.751,0,0,1,3.164.965,4.123,4.123,0,0,1,1.352,2.809H13.094a2.268,2.268,0,0,0-.691-1.43,2.208,2.208,0,0,0-1.473-.453,2.078,2.078,0,0,0-1.82.9A4.724,4.724,0,0,0,8.477-6.07v.727a4.5,4.5,0,0,0,.68,2.7,2.327,2.327,0,0,0,1.992.914,2.6,2.6,0,0,0,1.883-.562V-4.25H10.9V-5.977h4.477Z" transform="translate(598 276.969)" fill="#12263f"/>
    <g id="Grupo_120823" data-name="Grupo 120823" transform="translate(285 -1521.877)">
      <g id="png-file-extension-interface-symbol" transform="translate(285 1692)">
        <g id="Grupo_85443" data-name="Grupo 85443" transform="translate(0 0)">
          <path id="Trazado_105525" data-name="Trazado 105525" d="M141.885,414.1a6.038,6.038,0,0,0-1.475.141v4.662A5.422,5.422,0,0,0,141.6,419c1.9,0,3.07-.961,3.07-2.577C144.675,414.969,143.667,414.1,141.885,414.1Z" transform="translate(-131.132 -354.914)" fill="#f57c00"/>
          <path id="Trazado_105526" data-name="Trazado 105526" d="M353.668,141.89l.005,0v0Z" transform="translate(-314.216 -121.759)" fill="#f57c00"/>
          <path id="Trazado_105527" data-name="Trazado 105527" d="M132.279,18.727a1.522,1.522,0,0,0-.364-.992L116.847.524s-.008-.006-.012-.011a1.532,1.532,0,0,0-.3-.256c-.033-.021-.066-.04-.1-.06a1.654,1.654,0,0,0-.3-.127c-.028-.008-.054-.02-.084-.027A1.493,1.493,0,0,0,115.7,0H78.665A3.069,3.069,0,0,0,75.6,3.065V75.082a3.068,3.068,0,0,0,3.065,3.065H129.23a3.068,3.068,0,0,0,3.065-3.065V18.9A1.715,1.715,0,0,0,132.279,18.727ZM91.846,65.387a8.132,8.132,0,0,1-5.7,1.848,9.992,9.992,0,0,1-1.353-.079v6.27H80.865v-17.3a32.479,32.479,0,0,1,5.36-.364c2.445,0,4.19.468,5.36,1.405a5.127,5.127,0,0,1,1.873,4.059A5.6,5.6,0,0,1,91.846,65.387Zm18.658,8.04h-4.163l-3.747-6.765a65.084,65.084,0,0,1-3.047-6.192l-.076.026c.1,2.316.155,4.788.155,7.649v5.282H95.984V55.89h4.631l3.644,6.426a50.806,50.806,0,0,1,2.86,6.011h.079a64.846,64.846,0,0,1-.338-7.311V55.891H110.5V73.427Zm18.085-.806a19.63,19.63,0,0,1-5.855.989c-3.2,0-5.517-.807-7.13-2.369a8.486,8.486,0,0,1-2.473-6.374c.026-5.828,4.268-9.158,10.017-9.158a12.079,12.079,0,0,1,4.867.858l-.832,3.175a9.733,9.733,0,0,0-4.087-.754c-3.3,0-5.8,1.873-5.8,5.671,0,3.617,2.264,5.751,5.517,5.751a5.288,5.288,0,0,0,1.951-.26V66.479h-2.706v-3.1h6.531V72.62h0ZM78.665,52.034V3.065h35.5V14.087h.958v6.044H121.1v.146h8.128l0,31.757Z" transform="translate(-75.6 0)" fill="#f57c00"/>
          <path id="Trazado_105528" data-name="Trazado 105528" d="M146.9,121.062h5.347V115.62h-5.386v-5.443h5.386v-5.443h-5.386V99.291H141.42v5.443h5.386v5.443H141.42v5.443h5.386v5.442h-5.346v5.444h5.386v5.442h5.441v-5.442H146.9Z" transform="translate(-131.83 -83.991)" fill="#26ccda"/>
          <path id="Trazado_105529" data-name="Trazado 105529" d="M231.965,121.062h5.347V115.62h-5.386v-5.443h5.386v-5.443h-5.386V99.291h-5.444v5.443h5.386v5.443h-5.386v5.443h5.386v5.442h-5.346v5.444h5.386v5.442h5.442v-5.442h-5.386Z" transform="translate(-204.498 -83.991)" fill="#26ccda"/>
          <path id="Trazado_105530" data-name="Trazado 105530" d="M311.554,104.734h5.381a1.377,1.377,0,0,1-.8-1.249V99.291h-4.58v5.443Z" transform="translate(-277.685 -85.086)" fill="#26ccda"/>
          <path id="Trazado_105531" data-name="Trazado 105531" d="M316.941,141.906v5.441h-5.386v5.443h5.386v5.442h-5.347v5.443h5.387v5.443h5.442v-5.443h-5.385v-5.443h5.346V152.79H317v-5.443h5.386v-5.312h-4.869A1.362,1.362,0,0,1,316.941,141.906Z" transform="translate(-277.178 -120.51)" fill="#26ccda"/>
        </g>
      </g>
    </g>
  </g>
</svg>
