<svg xmlns="http://www.w3.org/2000/svg" width="152.098" height="240.825" viewBox="0 0 152.098 240.825">
  <g id="Grupo_120885" data-name="Grupo 120885" transform="translate(-519.285 -5906.512)">
    <path id="Trazado_166800" data-name="Trazado 166800" d="M266.39,749.862a101.111,101.111,0,0,1-34.8-6.137l34.8,26.128,34.8-26.128a101.111,101.111,0,0,1-34.8,6.137" transform="translate(328.986 5377.484)" fill="#f57c00"/>
    <path id="Trazado_166796" data-name="Trazado 166796" d="M937.908,169.393a76.049,76.049,0,1,1-76.049-76.049,76.049,76.049,0,0,1,76.049,76.049" transform="translate(-266.525 5813.168)" fill="#fff3bf"/>
    <path id="Trazado_183147" data-name="Trazado 183147" d="M11,0A11,11,0,1,1,0,11,11,11,0,0,1,11,0Z" transform="translate(584.574 6099)" fill="#ffa726"/>
    <path id="Trazado_183151" data-name="Trazado 183151" d="M7,0A7,7,0,1,1,0,7,7,7,0,0,1,7,0Z" transform="translate(588.574 6103)" fill="#ffd1a2"/>
    <path id="Trazado_183145" data-name="Trazado 183145" d="M-13.379-4.453V0h-1.5V-11.375h4.2a4.215,4.215,0,0,1,2.926.953A3.231,3.231,0,0,1-6.7-7.9,3.189,3.189,0,0,1-7.734-5.348a4.4,4.4,0,0,1-2.965.895Zm0-1.227h2.7A2.7,2.7,0,0,0-8.84-6.247,2.075,2.075,0,0,0-8.2-7.887,2.143,2.143,0,0,0-8.84-9.515a2.525,2.525,0,0,0-1.758-.634h-2.781ZM3.957,0H2.449L-3.277-8.766V0H-4.785V-11.375h1.508l5.742,8.8v-8.8H3.957ZM15.02-1.492A3.465,3.465,0,0,1,13.406-.254,6.517,6.517,0,0,1,11,.156,4.674,4.674,0,0,1,8.527-.5,4.346,4.346,0,0,1,6.859-2.352a6.408,6.408,0,0,1-.605-2.789v-.992a5.982,5.982,0,0,1,1.2-3.984,4.179,4.179,0,0,1,3.371-1.414,4.316,4.316,0,0,1,2.867.91A3.965,3.965,0,0,1,15.02-8.039h-1.5A2.48,2.48,0,0,0,10.832-10.3a2.655,2.655,0,0,0-2.285,1.06,5.173,5.173,0,0,0-.785,3.069v.93A4.848,4.848,0,0,0,8.637-2.2,2.836,2.836,0,0,0,11-1.07a5.228,5.228,0,0,0,1.477-.187,2.283,2.283,0,0,0,1.047-.631V-4.437H10.895V-5.664H15.02Z" transform="translate(595.285 6034.7)" fill="#12263f"/>
    <g id="Grupo_85444" data-name="Grupo 85444" transform="translate(282.285 4235.854)">
      <g id="png-file-extension-interface-symbol" transform="translate(285 1692)">
        <g id="Grupo_85443" data-name="Grupo 85443" transform="translate(0 0)">
          <path id="Trazado_105525" data-name="Trazado 105525" d="M141.885,414.1a6.038,6.038,0,0,0-1.475.141v4.662A5.422,5.422,0,0,0,141.6,419c1.9,0,3.07-.961,3.07-2.577C144.675,414.969,143.667,414.1,141.885,414.1Z" transform="translate(-131.132 -354.914)" fill="#f57c00"/>
          <path id="Trazado_105526" data-name="Trazado 105526" d="M353.668,141.89l.005,0v0Z" transform="translate(-314.216 -121.759)" fill="#f57c00"/>
          <path id="Trazado_105527" data-name="Trazado 105527" d="M132.279,18.727a1.522,1.522,0,0,0-.364-.992L116.847.524s-.008-.006-.012-.011a1.532,1.532,0,0,0-.3-.256c-.033-.021-.066-.04-.1-.06a1.654,1.654,0,0,0-.3-.127c-.028-.008-.054-.02-.084-.027A1.493,1.493,0,0,0,115.7,0H78.665A3.069,3.069,0,0,0,75.6,3.065V75.082a3.068,3.068,0,0,0,3.065,3.065H129.23a3.068,3.068,0,0,0,3.065-3.065V18.9A1.715,1.715,0,0,0,132.279,18.727ZM91.846,65.387a8.132,8.132,0,0,1-5.7,1.848,9.992,9.992,0,0,1-1.353-.079v6.27H80.865v-17.3a32.479,32.479,0,0,1,5.36-.364c2.445,0,4.19.468,5.36,1.405a5.127,5.127,0,0,1,1.873,4.059A5.6,5.6,0,0,1,91.846,65.387Zm18.658,8.04h-4.163l-3.747-6.765a65.084,65.084,0,0,1-3.047-6.192l-.076.026c.1,2.316.155,4.788.155,7.649v5.282H95.984V55.89h4.631l3.644,6.426a50.806,50.806,0,0,1,2.86,6.011h.079a64.846,64.846,0,0,1-.338-7.311V55.891H110.5V73.427Zm18.085-.806a19.63,19.63,0,0,1-5.855.989c-3.2,0-5.517-.807-7.13-2.369a8.486,8.486,0,0,1-2.473-6.374c.026-5.828,4.268-9.158,10.017-9.158a12.079,12.079,0,0,1,4.867.858l-.832,3.175a9.733,9.733,0,0,0-4.087-.754c-3.3,0-5.8,1.873-5.8,5.671,0,3.617,2.264,5.751,5.517,5.751a5.288,5.288,0,0,0,1.951-.26V66.479h-2.706v-3.1h6.531V72.62h0ZM78.665,52.034V3.065h35.5V14.087h.958v6.044H121.1v.146h8.128l0,31.757Z" transform="translate(-75.6 0)" fill="#f57c00"/>
          <path id="Trazado_105528" data-name="Trazado 105528" d="M146.9,121.062h5.347V115.62h-5.386v-5.443h5.386v-5.443h-5.386V99.291H141.42v5.443h5.386v5.443H141.42v5.443h5.386v5.442h-5.346v5.444h5.386v5.442h5.441v-5.442H146.9Z" transform="translate(-131.83 -83.991)" fill="#26ccda"/>
          <path id="Trazado_105529" data-name="Trazado 105529" d="M231.965,121.062h5.347V115.62h-5.386v-5.443h5.386v-5.443h-5.386V99.291h-5.444v5.443h5.386v5.443h-5.386v5.443h5.386v5.442h-5.346v5.444h5.386v5.442h5.442v-5.442h-5.386Z" transform="translate(-204.498 -83.991)" fill="#26ccda"/>
          <path id="Trazado_105530" data-name="Trazado 105530" d="M311.554,104.734h5.381a1.377,1.377,0,0,1-.8-1.249V99.291h-4.58v5.443Z" transform="translate(-277.685 -85.086)" fill="#26ccda"/>
          <path id="Trazado_105531" data-name="Trazado 105531" d="M316.941,141.906v5.441h-5.386v5.443h5.386v5.442h-5.347v5.443h5.387v5.443h5.442v-5.443h-5.385v-5.443h5.346V152.79H317v-5.443h5.386v-5.312h-4.869A1.362,1.362,0,0,1,316.941,141.906Z" transform="translate(-277.178 -120.51)" fill="#26ccda"/>
        </g>
      </g>
    </g>
  </g>
</svg>
