<svg xmlns="http://www.w3.org/2000/svg" width="152.098" height="240.825" viewBox="0 0 152.098 240.825">
  <g id="Grupo_120880" data-name="Grupo 120880" transform="translate(-622.468 -8264.721)">
    <path id="Trazado_183102" data-name="Trazado 183102" d="M266.39,749.862a101.111,101.111,0,0,1-34.8-6.137l34.8,26.128,34.8-26.128a101.111,101.111,0,0,1-34.8,6.137" transform="translate(432.17 7735.693)" fill="#f57c00"/>
    <path id="Trazado_183098" data-name="Trazado 183098" d="M937.908,169.393a76.049,76.049,0,1,1-76.049-76.049,76.049,76.049,0,0,1,76.049,76.049" transform="translate(-163.342 8171.377)" fill="#fff3bf"/>
    <path id="Trazado_183182" data-name="Trazado 183182" d="M11,0A11,11,0,1,1,0,11,11,11,0,0,1,11,0Z" transform="translate(687.758 8457.209)" fill="#ffa726"/>
    <path id="Trazado_183186" data-name="Trazado 183186" d="M7,0A7,7,0,1,1,0,7,7,7,0,0,1,7,0Z" transform="translate(691.758 8461.209)" fill="#ffd1a2"/>
    <path id="Trazado_183178" data-name="Trazado 183178" d="M-10.562-5.07a7.053,7.053,0,0,1-2.809-1.363,2.6,2.6,0,0,1-.879-2,2.751,2.751,0,0,1,1.074-2.223,4.269,4.269,0,0,1,2.793-.879,4.66,4.66,0,0,1,2.09.453,3.436,3.436,0,0,1,1.422,1.25,3.2,3.2,0,0,1,.5,1.742H-7.875a2.08,2.08,0,0,0-.656-1.627,2.669,2.669,0,0,0-1.852-.592,2.732,2.732,0,0,0-1.73.489,1.632,1.632,0,0,0-.621,1.358,1.468,1.468,0,0,0,.59,1.178,5.785,5.785,0,0,0,2.008.88,9.316,9.316,0,0,1,2.219.88A3.367,3.367,0,0,1-6.73-4.4a2.861,2.861,0,0,1,.387,1.508A2.658,2.658,0,0,1-7.422-.676,4.6,4.6,0,0,1-10.3.156a5.347,5.347,0,0,1-2.187-.449,3.681,3.681,0,0,1-1.566-1.23A3,3,0,0,1-14.609-3.3H-13.1a1.959,1.959,0,0,0,.762,1.629,3.207,3.207,0,0,0,2.035.6,2.948,2.948,0,0,0,1.82-.484,1.573,1.573,0,0,0,.633-1.32,1.545,1.545,0,0,0-.586-1.293A6.755,6.755,0,0,0-10.562-5.07ZM-.656-1.992l3.25-9.383H4.234L.016,0H-1.312L-5.523-11.375h1.633Zm14.711.5A3.465,3.465,0,0,1,12.441-.254a6.517,6.517,0,0,1-2.41.41A4.674,4.674,0,0,1,7.563-.5,4.346,4.346,0,0,1,5.895-2.352a6.408,6.408,0,0,1-.605-2.789v-.992a5.982,5.982,0,0,1,1.2-3.984,4.179,4.179,0,0,1,3.371-1.414,4.316,4.316,0,0,1,2.867.91,3.965,3.965,0,0,1,1.328,2.582h-1.5A2.48,2.48,0,0,0,9.867-10.3a2.655,2.655,0,0,0-2.285,1.06A5.173,5.173,0,0,0,6.8-6.176v.93A4.848,4.848,0,0,0,7.672-2.2a2.836,2.836,0,0,0,2.367,1.13,5.228,5.228,0,0,0,1.477-.187,2.283,2.283,0,0,0,1.047-.631V-4.437H9.93V-5.664h4.125Z" transform="translate(698.469 8392.909)" fill="#12263f"/>
    <g id="svg-file-format-symbol" transform="translate(594.869 8286.063)">
      <g id="Grupo_120876" data-name="Grupo 120876" transform="translate(75.6 0)">
        <path id="Trazado_183110" data-name="Trazado 183110" d="M132.279,18.727a1.516,1.516,0,0,0-.366-.992L116.847.524s-.009-.006-.012-.011a1.545,1.545,0,0,0-.305-.256c-.033-.021-.066-.04-.1-.06a1.571,1.571,0,0,0-.3-.127c-.029-.008-.054-.02-.082-.027A1.5,1.5,0,0,0,115.694,0H78.665A3.069,3.069,0,0,0,75.6,3.065V75.082a3.068,3.068,0,0,0,3.065,3.065H129.23a3.068,3.068,0,0,0,3.065-3.065V18.9A1.715,1.715,0,0,0,132.279,18.727ZM84.99,74.377a12.165,12.165,0,0,1-5.267-1.131l.854-3.475a10.731,10.731,0,0,0,4.661,1.158c1.931,0,2.951-.8,2.951-2.013,0-1.158-.883-1.82-3.117-2.62-3.088-1.075-5.1-2.785-5.1-5.487,0-3.172,2.647-5.6,7.031-5.6a11.377,11.377,0,0,1,4.744.938L90.81,59.54a8.829,8.829,0,0,0-3.889-.883c-1.82,0-2.7.828-2.7,1.793,0,1.187,1.047,1.71,3.448,2.621,3.281,1.214,4.826,2.923,4.826,5.542C92.491,71.73,90.092,74.377,84.99,74.377Zm19.637-.275H99.718L93.761,55.514h4.606l2.261,7.86c.634,2.206,1.214,4.33,1.655,6.646h.082c.468-2.234,1.047-4.44,1.682-6.562l2.372-7.943h4.468Zm23.553-.856a20.786,20.786,0,0,1-6.2,1.049c-3.392,0-5.846-.856-7.557-2.509a9,9,0,0,1-2.62-6.757c.028-6.178,4.524-9.708,10.618-9.708a12.792,12.792,0,0,1,5.156.91L126.69,59.6a10.291,10.291,0,0,0-4.329-.8c-3.5,0-6.15,1.986-6.15,6.012,0,3.834,2.4,6.095,5.846,6.095a5.641,5.641,0,0,0,2.068-.276V66.74h-2.867V63.458h6.921v9.788Zm1.05-21.212H78.665V3.065h35.5v15.6s-.1,1.612,2.025,1.612H129.23Z" transform="translate(-75.6 0)" fill="#f57c00"/>
        <g id="Grupo_120875" data-name="Grupo 120875" transform="translate(5.926 21.263)">
          <path id="Trazado_183111" data-name="Trazado 183111" d="M126.488,179.382v-.641h-1.441l-1.717-.641v-.593H122.1a1.313,1.313,0,0,1-.1-.121l.007-1.52a.852.852,0,0,1,.251-.207v.147H123.8v-.134a1.675,1.675,0,0,1,.8.666l-.007,1.545h1.545V177.5l1.42-.192v.229h1.545v-1.545h-.358a5.944,5.944,0,0,0-4.944-4.418v-.342h-1.545v.325l-.025,0a4.966,4.966,0,0,0-2.179.816,4.777,4.777,0,0,0-2,2.559,5.2,5.2,0,0,0-.218.906H117.5v1.545h.339a5.127,5.127,0,0,0,2.69,3.878v.6H122l1.708.621v.634h.951v1.428h.022a1.072,1.072,0,0,1-.4.32v-.135h-1.546v.206a1.359,1.359,0,0,1-.434-.2,1.286,1.286,0,0,1-.426-.6h.069v-1.545H120.4v.434l-1.484.185V183h-1.546v1.545h.479a5.459,5.459,0,0,0,2.173,3.457,5.58,5.58,0,0,0,2.714.975v.328h1.546v-.346l.2-.024.084-.024a5.237,5.237,0,0,0,2.484-1.119,4.947,4.947,0,0,0,1.557-2.224,5.644,5.644,0,0,0,.259-1.022h.3V183h-.3A4.887,4.887,0,0,0,126.488,179.382Zm-2.207,8.609v-.228h-1.546v.268a4.7,4.7,0,0,1-2.164-.8,4.56,4.56,0,0,1-1.735-2.679h.079v-.369l1.484-.185v.144h.475a2.308,2.308,0,0,0,1.49,1.695c.12.034.243.064.371.088v.359h1.546v-.4a1.984,1.984,0,0,0,1.483-1.335h.464V183h-.466a1.959,1.959,0,0,0-.507-.746v-.7h-1.326l-1.833-.683v-.55H120.77a4.092,4.092,0,0,1-1.323-1.268,4.237,4.237,0,0,1-.658-1.666h.278v-1.545h-.254a3.923,3.923,0,0,1,.148-.6,3.856,3.856,0,0,1,1.4-1.922,4.22,4.22,0,0,1,1.9-.782v.24H123.8v-.238a4.74,4.74,0,0,1,2.219.958,4.687,4.687,0,0,1,1.715,2.494h-.177v.352l-1.42.2v-.2h-.5a2.55,2.55,0,0,0-1.84-1.66v-.417H122.26v.383a1.768,1.768,0,0,0-1.314,1.2h-.482v1.545h.478a2.037,2.037,0,0,0,.842,1.092v.574h1.383l1.776.662v.571h1.19A3.884,3.884,0,0,1,127.9,183h-.275v1.545h.277a3.635,3.635,0,0,1-.189.7,4.1,4.1,0,0,1-3.425,2.744Z" transform="translate(-117.368 -168.202)" fill="#26ccda"/>
          <path id="Trazado_183112" data-name="Trazado 183112" d="M214.1,154.94v-1.545h-1.545v.26h-1.461V153.6l2.5-2.246H214.6v-1.485h-1.485V151l-2.661,2.391h-.911v.818l-1.718,1.543h-1.19v1.485h1.485v-.978l1.33-1.2-3.705,9.7-3.463-9.966v-1.41H200.74v.26h-1.462v-.26h-1.546v1.545h.543l4.909,14.15v1.472h1.545v-.239h1.808v.239h1.546V169.4l-.012-.068,5.5-14.391h.531Zm-9.933,14.077-4.887-14.088v-.313h1.462v.324h.587l3.633,10.516v1.536h1.567v-1.545h-.022l4.013-10.507h.575v-.324h1.462v.269l-5.377,14.132h-.639v.346h-1.808v-.346Z" transform="translate(-186.33 -149.866)" fill="#26ccda"/>
          <path id="Trazado_183113" data-name="Trazado 183113" d="M327.573,181.078v-1.545h-1.567v.324h-6.526v-.324h-1.567v1.545h.26v1.484h-.26v1.567h1.567v-.281h2.305a4.449,4.449,0,0,1-2.349,1.23v-.222h-1.545v.244a4.514,4.514,0,0,1-2.618-1.282,4.432,4.432,0,0,1-1.35-2.544h.19v-1.567H313.9a4.754,4.754,0,0,1,3.995-3.935v.244h1.545v-.207a4.458,4.458,0,0,1,1.939.853v.8h1.567v-.278l2.176.016v.263h1.567v-1.545H326a8.762,8.762,0,0,0-2.849-2.894,8.349,8.349,0,0,0-3.716-1.255V171.4h-1.546v.365a8.7,8.7,0,0,0-8.006,7.943h-.368v1.567h.373a8.73,8.73,0,0,0,8,7.856v.323h1.545v-.334a8.465,8.465,0,0,0,3.626-1.233v1.177h1.546v-.3h1.4v.3h1.567v-1.545h-.323l.019-6.439h.305Zm-9.681,6.828v.259a7.762,7.762,0,0,1-7.035-6.893h.206v-1.567h-.213a7.8,7.8,0,0,1,7.041-7v.256h1.545v-.228a7.441,7.441,0,0,1,3.148,1.08,7.745,7.745,0,0,1,2.473,2.428h-2.117v-.324h-.984a5.385,5.385,0,0,0-2.521-1.08v-.391h-1.545v.355a5.447,5.447,0,0,0-3.317,1.607,5.523,5.523,0,0,0-1.625,3.3h-.381v1.567h.385a5.4,5.4,0,0,0,1.658,3.236,5.535,5.535,0,0,0,3.279,1.558v.334h1.545v-.367a5.4,5.4,0,0,0,3.433-1.905h.787v-1.567h-1.546v.346h-2.631v-.346h-.345v-1.484h.345v-.26h6.526v.26h.3q0,.793-.018,3.209v3.23h-.281v.281h-1.4V186h-1.546v.75a7.647,7.647,0,0,1-3.626,1.4V187.9h-1.545Z" transform="translate(-282.256 -168.344)" fill="#26ccda"/>
        </g>
      </g>
    </g>
  </g>
</svg>
