<svg xmlns="http://www.w3.org/2000/svg" xmlns:xlink="http://www.w3.org/1999/xlink" width="120" height="120" viewBox="0 0 120 120">
  <defs>
    <clipPath id="clip-path">
      <rect id="Rectángulo_37900" data-name="Rectángulo 37900" width="65.316" height="80" fill="none"/>
    </clipPath>
  </defs>
  <g id="Grupo_121097" data-name="Grupo 121097" transform="translate(-285.285 -1895)">
    <g id="Elipse_5233" data-name="Elipse 5233" transform="translate(285.285 1895)" fill="#fff" stroke="#26ccda" stroke-width="4">
      <circle cx="60" cy="60" r="60" stroke="none"/>
      <circle cx="60" cy="60" r="58" fill="none"/>
    </g>
    <g id="Grupo_120946" data-name="Grupo 120946" transform="translate(304.685 1915)">
      <g id="Grupo_120398" data-name="Grupo 120398" clip-path="url(#clip-path)">
        <path id="Trazado_182549" data-name="Trazado 182549" d="M186.016,0a2.1,2.1,0,0,1,1.108,2.114c-.05,2.34-.007,4.681-.022,7.022a1.563,1.563,0,0,1-3.085.437,3.525,3.525,0,0,1-.035-.7c0-2.263.036-4.527-.019-6.788A2.055,2.055,0,0,1,185.078,0Z" transform="translate(-145.546)" fill="#020202"/>
        <path id="Trazado_182550" data-name="Trazado 182550" d="M221.148,109.4a29.642,29.642,0,0,1-.664,3.925c-1.262-.027-1.588.28-2.124,1.7q-4.849,12.886-18.489,14.84c-.763.11-.935-.078-.933-.849q.038-20.967.019-41.933c0-1.475,0-1.5,1.448-1.26q13.468,2.266,18.084,15.129c.414,1.16.745,1.432,1.975,1.482a19.421,19.421,0,0,1,.683,3.8c-1.045.232-1.579.79-1.557,1.628.021.823.552,1.345,1.56,1.535" transform="translate(-157.394 -67.808)" fill="#1fa4af"/>
        <path id="Trazado_182551" data-name="Trazado 182551" d="M118.821,90.134c-1.23-.049-1.561-.322-1.975-1.482q-4.6-12.875-18.084-15.129c-1.443-.243-1.448-.214-1.448,1.26q0,20.967-.019,41.933c0,.771.171.959.933.849q13.631-1.969,18.489-14.84c.535-1.423.862-1.73,2.124-1.7,1.13.631,1.393,1.221.944,2.431-3.626,9.777-10.544,15.692-20.891,17.152a25.307,25.307,0,1,1,20.939-32.871,1.665,1.665,0,0,1-1.013,2.4M94.188,95.58q0-9.956-.006-19.912c0-.746.337-1.806-.137-2.157-.513-.38-1.5.024-2.26.17a22.2,22.2,0,0,0-17.431,27.7c2.327,8.7,10.333,15.484,19.075,16.2.718.059.775-.157.774-.764q-.03-10.619-.013-21.239" transform="translate(-55.753 -55.511)" fill="#020202"/>
        <path id="Trazado_182552" data-name="Trazado 182552" d="M55.268,53.9a1.766,1.766,0,0,1,1.36.558c1.747,1.745,3.5,3.482,5.233,5.242a1.565,1.565,0,1,1-2.187,2.228c-1.78-1.749-3.537-3.52-5.294-5.292a1.5,1.5,0,0,1-.391-1.777,1.556,1.556,0,0,1,1.279-.959" transform="translate(-42.602 -42.645)" fill="#070707"/>
        <path id="Trazado_182553" data-name="Trazado 182553" d="M62.428,289.707a1.861,1.861,0,0,1-.59,1.258c-1.729,1.726-3.449,3.461-5.186,5.179a1.569,1.569,0,1,1-2.237-2.182c1.734-1.758,3.485-3.5,5.235-5.241a1.537,1.537,0,0,1,1.843-.41,1.583,1.583,0,0,1,.936,1.4" transform="translate(-42.605 -227.981)" fill="#070707"/>
        <path id="Trazado_182554" data-name="Trazado 182554" d="M187.169,336.836c0,1.195.007,2.39,0,3.584a1.6,1.6,0,0,1-1.537,1.786c-.947.017-1.582-.7-1.585-1.81q-.009-3.585,0-7.169c0-1.139.6-1.818,1.571-1.812s1.546.684,1.552,1.837c.006,1.195,0,2.39,0,3.585" transform="translate(-145.608 -262.206)" fill="#020202"/>
        <path id="Trazado_182555" data-name="Trazado 182555" d="M5.389,187.178c-1.221,0-2.442.01-3.662,0a1.567,1.567,0,1,1-.019-3.119q3.7-.016,7.4,0a1.562,1.562,0,1,1,.019,3.117c-1.246.017-2.494,0-3.74,0" transform="translate(0 -145.613)" fill="#010101"/>
        <path id="Trazado_182556" data-name="Trazado 182556" d="M299.384,187.16c-1.008-.19-1.539-.712-1.56-1.535-.022-.838.512-1.4,1.557-1.628,1.068.235,1.584.771,1.563,1.624-.02.834-.538,1.344-1.561,1.539" transform="translate(-235.63 -145.573)" fill="#070707"/>
        <path id="Trazado_182557" data-name="Trazado 182557" d="M105.949,107.663q0,10.62.013,21.239c0,.607-.056.823-.773.764-8.742-.719-16.748-7.5-19.075-16.2a22.2,22.2,0,0,1,17.431-27.7c.764-.145,1.747-.55,2.26-.17.474.351.136,1.411.137,2.157q.017,9.956.006,19.912" transform="translate(-67.514 -67.594)" fill="#fdd835"/>
      </g>
    </g>
  </g>
</svg>
