<svg xmlns="http://www.w3.org/2000/svg" width="152.098" height="241.665" viewBox="0 0 152.098 241.665">
  <g id="Grupo_120879" data-name="Grupo 120879" transform="translate(-418.019 -151.15)">
    <path id="Trazado_183117" data-name="Trazado 183117" d="M245.4,166.541a76.049,76.049,0,1,1-76.049-76.049A76.049,76.049,0,0,1,245.4,166.541" transform="translate(324.719 60.658)" fill="#fff3bf"/>
    <path id="Trazado_183118" data-name="Trazado 183118" d="M266.39,749.862a101.111,101.111,0,0,1-34.8-6.137l34.8,26.128,34.8-26.128a101.111,101.111,0,0,1-34.8,6.137" transform="translate(227.607 -377.037)" fill="#f57c00"/>
    <path id="Trazado_183145" data-name="Trazado 183145" d="M11,0A11,11,0,1,1,0,11,11,11,0,0,1,11,0Z" transform="translate(483.195 344.479)" fill="#ffa726"/>
    <path id="Trazado_183149" data-name="Trazado 183149" d="M7,0A7,7,0,1,1,0,7,7,7,0,0,1,7,0Z" transform="translate(487.195 348.479)" fill="#ffd1a2"/>
    <path id="Trazado_183141" data-name="Trazado 183141" d="M-6.59-5.258h-4.93v4.031h5.727V0H-13.02V-11.375h7.148v1.227H-11.52v3.664h4.93Zm4.164.8V0h-1.5V-11.375H.27a4.215,4.215,0,0,1,2.926.953A3.231,3.231,0,0,1,4.254-7.9,3.189,3.189,0,0,1,3.219-5.348a4.4,4.4,0,0,1-2.965.895Zm0-1.227H.27a2.7,2.7,0,0,0,1.844-.567,2.075,2.075,0,0,0,.641-1.64,2.143,2.143,0,0,0-.641-1.628,2.525,2.525,0,0,0-1.758-.634H-2.426ZM9.52-5.07A7.053,7.053,0,0,1,6.711-6.434a2.6,2.6,0,0,1-.879-2,2.751,2.751,0,0,1,1.074-2.223A4.269,4.269,0,0,1,9.7-11.531a4.66,4.66,0,0,1,2.09.453,3.436,3.436,0,0,1,1.422,1.25,3.2,3.2,0,0,1,.5,1.742H12.207a2.08,2.08,0,0,0-.656-1.627A2.669,2.669,0,0,0,9.7-10.3a2.732,2.732,0,0,0-1.73.489,1.632,1.632,0,0,0-.621,1.358,1.468,1.468,0,0,0,.59,1.178,5.785,5.785,0,0,0,2.008.88,9.316,9.316,0,0,1,2.219.88A3.367,3.367,0,0,1,13.352-4.4a2.861,2.861,0,0,1,.387,1.508A2.658,2.658,0,0,1,12.66-.676,4.6,4.6,0,0,1,9.777.156,5.347,5.347,0,0,1,7.59-.293a3.681,3.681,0,0,1-1.566-1.23A3,3,0,0,1,5.473-3.3H6.98a1.959,1.959,0,0,0,.762,1.629,3.207,3.207,0,0,0,2.035.6,2.948,2.948,0,0,0,1.82-.484,1.573,1.573,0,0,0,.633-1.32,1.545,1.545,0,0,0-.586-1.293A6.755,6.755,0,0,0,9.52-5.07Z" transform="translate(494.02 280.18)" fill="#12263f"/>
    <g id="eps-file-format-symbol" transform="translate(390.418 173.328)">
      <g id="Grupo_120873" data-name="Grupo 120873" transform="translate(75.6 0)">
        <path id="Trazado_183107" data-name="Trazado 183107" d="M264.491,413.364a7.1,7.1,0,0,0-1.737.166v5.487a6.448,6.448,0,0,0,1.407.112c2.234,0,3.614-1.132,3.614-3.034C267.775,414.385,266.588,413.364,264.491,413.364Z" transform="translate(-236.2 -354.714)" fill="#f57c00"/>
        <path id="Trazado_183108" data-name="Trazado 183108" d="M132.282,18.728a1.516,1.516,0,0,0-.366-.992L116.849.524s-.009-.006-.012-.011a1.545,1.545,0,0,0-.305-.256c-.033-.021-.066-.04-.1-.06a1.571,1.571,0,0,0-.3-.127c-.029-.008-.054-.02-.082-.027A1.5,1.5,0,0,0,115.7,0H78.665A3.069,3.069,0,0,0,75.6,3.065V75.086a3.068,3.068,0,0,0,3.065,3.065h50.568a3.068,3.068,0,0,0,3.065-3.065V18.9A1.71,1.71,0,0,0,132.282,18.728ZM95.121,74.2H83.262V55.617H94.735v3.446H87.482v3.862h6.839v3.42H87.482v4.413h7.64V74.2Zm14.508-8.521a8.622,8.622,0,0,1-6.04,1.958,10.684,10.684,0,0,1-1.435-.082v6.646H97.989V55.864a34.406,34.406,0,0,1,5.682-.386c2.592,0,4.44.5,5.682,1.49a5.43,5.43,0,0,1,1.984,4.3A5.946,5.946,0,0,1,109.629,65.683Zm8.937,8.8A12.169,12.169,0,0,1,113.3,73.35l.856-3.475a10.718,10.718,0,0,0,4.66,1.158c1.93,0,2.951-.8,2.951-2.013,0-1.159-.883-1.82-3.116-2.619-3.088-1.076-5.1-2.786-5.1-5.489,0-3.171,2.647-5.6,7.034-5.6a11.4,11.4,0,0,1,4.743.937l-.938,3.392a8.852,8.852,0,0,0-3.889-.881c-1.82,0-2.7.827-2.7,1.793,0,1.186,1.049,1.709,3.448,2.62,3.282,1.214,4.827,2.923,4.827,5.543C126.067,71.832,123.669,74.48,118.566,74.48Zm-39.9-22.444V3.065h35.5v15.68a1.533,1.533,0,0,0,1.532,1.532h13.537V52.037Z" transform="translate(-75.6 0)" fill="#f57c00"/>
        <path id="Trazado_183109" data-name="Trazado 183109" d="M190.187,131.2c-4.746-.75-5.3-5.914-5.355-7.48h1.528v-7.674h-1.75v-8.078a1.415,1.415,0,1,0-.808,0v5.212a6.458,6.458,0,0,0-5.926-4.632v-3.125h-4.308V113.1h4.308v-3.5c4.163.5,5.258,4.278,5.539,6.45H182.05v7.673H183.8v8.374a1.415,1.415,0,1,0,.808,0v-4.242a6.412,6.412,0,0,0,5.578,4.407v3.148h4.31v-7.676h-4.31V131.2h0Z" transform="translate(-159.667 -90.281)" fill="#26ccda"/>
      </g>
    </g>
  </g>
</svg>
