<svg xmlns="http://www.w3.org/2000/svg" width="152.098" height="240.825" viewBox="0 0 152.098 240.825">
  <g id="Grupo_120881" data-name="Grupo 120881" transform="translate(-825.47 -8264.721)">
    <path id="Trazado_183103" data-name="Trazado 183103" d="M266.39,749.862a101.111,101.111,0,0,1-34.8-6.137l34.8,26.128,34.8-26.128a101.111,101.111,0,0,1-34.8,6.137" transform="translate(637.844 7735.693)" fill="#f57c00"/>
    <path id="Trazado_183099" data-name="Trazado 183099" d="M1626.761,169.393a76.049,76.049,0,1,1-76.049-76.049,76.049,76.049,0,0,1,76.049,76.049" transform="translate(-649.193 8171.377)" fill="#fff3bf"/>
    <path id="Trazado_183183" data-name="Trazado 183183" d="M11,0A11,11,0,1,1,0,11,11,11,0,0,1,11,0Z" transform="translate(893.43 8457.209)" fill="#ffa726"/>
    <path id="Trazado_183187" data-name="Trazado 183187" d="M7,0A7,7,0,1,1,0,7,7,7,0,0,1,7,0Z" transform="translate(897.43 8461.209)" fill="#ffd1a2"/>
    <path id="Trazado_183179" data-name="Trazado 183179" d="M-11.895-4.453V0h-1.5V-11.375h4.2a4.215,4.215,0,0,1,2.926.953A3.231,3.231,0,0,1-5.215-7.9,3.189,3.189,0,0,1-6.25-5.348a4.4,4.4,0,0,1-2.965.895Zm0-1.227h2.7a2.7,2.7,0,0,0,1.844-.567,2.075,2.075,0,0,0,.641-1.64,2.143,2.143,0,0,0-.641-1.628,2.525,2.525,0,0,0-1.758-.634h-2.781ZM-3.3,0V-11.375H-.09a5.169,5.169,0,0,1,2.625.656A4.438,4.438,0,0,1,4.3-8.852,6.078,6.078,0,0,1,4.926-6.07v.727A6.1,6.1,0,0,1,4.3-2.523,4.369,4.369,0,0,1,2.531-.664,5.5,5.5,0,0,1-.152,0Zm1.5-10.148v8.922H-.223a3.434,3.434,0,0,0,2.7-1.079,4.458,4.458,0,0,0,.965-3.073v-.665a4.529,4.529,0,0,0-.91-3.014A3.239,3.239,0,0,0-.051-10.148ZM13.465-5.023H8.691V0h-1.5V-11.375h7.047v1.227H8.691v3.9h4.773Z" transform="translate(901.469 8392.909)" fill="#12263f"/>
    <g id="pdf-file-format-symbol" transform="translate(797.871 8286.063)">
      <g id="Grupo_85510" data-name="Grupo 85510" transform="translate(75.6 0)">
        <path id="Trazado_105568" data-name="Trazado 105568" d="M255.832,414.7a8.773,8.773,0,0,0-1.9.165v12.162a7.71,7.71,0,0,0,1.462.083c3.8.027,6.287-2.068,6.287-6.508C261.705,416.738,259.444,414.7,255.832,414.7Z" transform="translate(-228.628 -355.862)" fill="#f57c00"/>
        <path id="Trazado_105569" data-name="Trazado 105569" d="M142.327,414.313a7.207,7.207,0,0,0-1.738.165v5.489a6.452,6.452,0,0,0,1.405.111c2.236,0,3.614-1.131,3.614-3.034C145.608,415.333,144.421,414.313,142.327,414.313Z" transform="translate(-131.368 -355.531)" fill="#f57c00"/>
        <path id="Trazado_105570" data-name="Trazado 105570" d="M132.279,18.727a1.514,1.514,0,0,0-.364-.992L116.847.524s-.009-.006-.012-.011a1.532,1.532,0,0,0-.3-.256c-.033-.021-.067-.04-.1-.06a1.57,1.57,0,0,0-.3-.127c-.027-.008-.054-.02-.082-.027A1.493,1.493,0,0,0,115.7,0H78.665A3.069,3.069,0,0,0,75.6,3.065V75.082a3.068,3.068,0,0,0,3.065,3.065H129.23a3.068,3.068,0,0,0,3.065-3.065V18.9A1.706,1.706,0,0,0,132.279,18.727ZM92.293,65.813a8.618,8.618,0,0,1-6.04,1.959,10.779,10.779,0,0,1-1.433-.082v6.645H80.657V56a34.487,34.487,0,0,1,5.682-.386c2.592,0,4.44.5,5.68,1.489A5.432,5.432,0,0,1,94,61.4,5.935,5.935,0,0,1,92.293,65.813Zm17.733,6.316c-1.956,1.626-4.934,2.4-8.573,2.4a36.508,36.508,0,0,1-4.772-.275V56a37.71,37.71,0,0,1,5.682-.386c3.528,0,5.818.634,7.611,1.986a8.223,8.223,0,0,1,3.145,7A9.431,9.431,0,0,1,110.027,72.129Zm17.213-12.935H120.1v4.247h6.674v3.421H120.1v7.473h-4.218V55.749h11.362ZM78.665,52.034V3.065h35.5v15.68a1.532,1.532,0,0,0,1.532,1.532H129.23l0,31.757Z" transform="translate(-75.6 0)" fill="#f57c00"/>
        <path id="Trazado_105571" data-name="Trazado 105571" d="M163.023,96.467c-.09-.008-2.249-.205-5.563-.205-1.038,0-2.084.02-3.117.059a165.245,165.245,0,0,1-14.776-12.582c.052-.3.088-.543.105-.727.379-4-.042-6.694-1.247-8.018a3.041,3.041,0,0,0-3.154-.824,3.77,3.77,0,0,0-2.583,2.405c-.491,1.637.3,3.623,2.37,5.927.033.035.736.772,2.014,2.02-.831,3.96-3,12.506-4.06,16.61a21.557,21.557,0,0,0-6.14,4.748l-.1.12-.068.144a4.969,4.969,0,0,0-.361,3.582,2.44,2.44,0,0,0,1.462,1.386l.184.05a2.392,2.392,0,0,0,.458.036c1.278,0,4.434-.672,6.126-6.909l.41-1.58c5.908-2.871,13.292-3.8,18.645-4.056,2.753,2.042,5.493,3.917,8.148,5.578l.087.05a6.391,6.391,0,0,0,2.656.642h0a3.919,3.919,0,0,0,3.9-3.279l.027-.142a3.912,3.912,0,0,0-.865-3.1C166.074,96.63,163.275,96.476,163.023,96.467ZM128.491,108.9a.142.142,0,0,1-.024-.043,2.8,2.8,0,0,1,.25-1.592,18.041,18.041,0,0,1,3.455-2.957C130.873,108.513,128.982,108.877,128.491,108.9Zm8.253-27.957h0c-2-2.222-1.966-3.324-1.859-3.695.176-.62.972-.854.978-.856.4-.109.644-.088.86.15.49.538.91,2.161.744,5.139C137,81.2,136.744,80.94,136.744,80.94Zm-1.031,18.923.034-.132,0,0c1-3.915,2.441-9.647,3.27-13.329l.03.029,0-.018c2.681,2.525,6.793,6.219,11.716,10.06l-.055,0,.081.061A52.072,52.072,0,0,0,135.713,99.863Zm30.457,1.284c-.353,1.3-1.032,1.475-1.655,1.475h0a4.141,4.141,0,0,1-1.577-.373c-1.808-1.133-3.657-2.368-5.523-3.689h.045c3.2,0,5.33.194,5.414.2a4.751,4.751,0,0,1,2.954,1.126A1.582,1.582,0,0,1,166.17,101.147Z" transform="translate(-118.955 -63.532)" fill="#26ccda"/>
      </g>
    </g>
  </g>
</svg>
